<?xml version="1.0" encoding="utf-8"?>
<!-- Generator: Adobe Illustrator 17.0.0, SVG Export Plug-In . SVG Version: 6.00 Build 0)  -->
<!DOCTYPE svg PUBLIC "-//W3C//DTD SVG 1.1//EN" "http://www.w3.org/Graphics/SVG/1.1/DTD/svg11.dtd">
<svg version="1.1" id="Layer_1" xmlns="http://www.w3.org/2000/svg" xmlns:xlink="http://www.w3.org/1999/xlink" x="0px" y="0px"
	 width="728.5px" height="515.91px" viewBox="0 0 728.5 515.91" enable-background="new 0 0 728.5 515.91" xml:space="preserve">
<path fill="#FFFFFF" stroke="#FFFFFF" stroke-width="0.2" stroke-miterlimit="10" d="M324.223,62.686
	c8.225-11.243,18.309-19.624,31.491-23.723c37.665-11.712,72.581,17.769,70.373,57.396c-1.764,31.639-18.137,53.614-40.561,73.129
	c-19.275,16.775-38.216,33.937-57.231,51.008c-2.671,2.398-4.836,3.574-8.036,0.691c-21.093-19.008-42.522-37.65-63.327-56.966
	c-8.045-7.469-15.773-15.699-21.847-24.784c-12.963-19.387-16.792-41.388-10.954-63.779c10.629-40.765,60.514-51.17,88.972-24.608
	C316.892,54.588,320.288,58.547,324.223,62.686z M323.682,216.923c4.22-3.899,7.791-7.297,11.466-10.577
	c18.951-16.915,38.033-33.685,56.868-50.727c20.017-18.111,29.748-40.606,28.017-67.794c-1.192-18.713-9.919-32.657-26.758-40.884
	c-22.83-11.154-49.297-2.984-64.727,19.467c-4.294,6.249-4.864,6.155-9.184,0.179c-11.436-15.819-26.078-25.361-46.53-24.262
	c-21.643,1.163-40.223,15.873-43.879,37.299c-4.305,25.231,0.475,49.126,19.148,67.489
	C272.465,171.072,298.26,193.572,323.682,216.923z"/>
<path fill="#FFFFFF" stroke="#FFFFFF" stroke-width="2" stroke-miterlimit="10" d="M177.435,112.353
	c1.4-2.822,2.722-5.322,3.896-7.889c2.894-6.325,10.851-8.199,15.873-3.327c8.716,8.454,12.878,18.468,11.389,31.045
	c-1.138,9.613-3.791,18.547-7.328,27.451c-2.588,6.516-2.759,13.386-2.436,20.573c0.543,12.077-1.543,24.141-6.135,35.442
	c-2.383,5.866-0.206,10.038,2.136,15.256c5.351,11.922,15.004,20.68,21.606,31.656c4.389,7.298,9.827,14.425,16.242,19.947
	c13.177,11.344,26.785,22.38,41.281,31.927c8.566,5.641,17.046,11.178,24.582,18.097c1.837,1.687,3.188,3.908,4.731,5.908
	c14.083,18.249,17.676,39.619,17.801,61.803c0.118,21.059-0.555,42.122-0.681,63.184c-0.048,8.059,0.516,16.119,0.691,24.182
	c0.117,5.418-0.648,6.219-6.231,6.174c-32.882-0.262-65.764-0.559-98.645-0.918c-6.073-0.066-8.115-2.897-6.54-9.202
	c3.674-14.707,4.404-29.702,4.884-44.753c0.11-3.456-0.925-5.783-3.621-8.003c-16.253-13.383-32.491-26.791-48.471-40.497
	c-6.906-5.923-13.039-12.741-19.809-18.834c-3.525-3.173-7.707-5.607-11.528-8.46c-8.933-6.671-13.859-15.134-14.655-26.719
	c-0.955-13.907-3.621-27.692-5.409-41.547c-0.951-7.371-2.192-14.774-2.253-22.171c-0.068-8.33-1.193-16.285-4.025-24.092
	c-3.197-8.813-3.367-17.298,2.08-25.64c7.845-12.015,14.135-24.835,17.662-38.853c0.724-2.88,1.843-5.828,1.753-8.713
	c-0.286-9.231,4.426-16.177,10.487-21.975c6.351-6.076,10.266-13.424,14.088-21.024c2.273-4.519,4.408-9.183,7.284-13.308
	C164.646,109.729,166.382,109.295,177.435,112.353z M178.261,114.471c-1.188-0.341-2.041-0.554-2.872-0.83
	c-7.463-2.475-8.997-2.133-13.919,3.86c-1.782,2.17-3.321,4.586-4.678,7.051c-6.082,11.054-10.576,23-20.354,31.837
	c-5.394,4.875-8.55,11.324-8.49,19.082c0.023,3.048-1.091,6.127-1.837,9.155c-3.501,14.197-9.933,27.137-17.833,39.282
	c-5.114,7.861-4.896,15.776-2.015,23.948c2.864,8.123,4.104,16.358,4.263,24.971c0.136,7.402,1.354,14.796,2.299,22.168
	c1.777,13.86,4.339,27.654,5.361,41.565c0.803,10.926,5.524,18.875,13.915,25.181c3.933,2.956,8.21,5.514,11.843,8.793
	c7.651,6.906,14.693,14.503,22.501,21.214c15.402,13.238,31.217,25.995,46.675,39.168c1.649,1.405,2.913,4.253,2.92,6.436
	c0.051,15.665-0.87,31.26-4.743,46.551c-1.374,5.424,0.08,7.192,5.659,7.226c9.27,0.056,18.541-0.066,27.81,0.044
	c22.422,0.266,44.842,0.66,67.264,0.92c7.465,0.087,7.532-0.029,7.347-7.663c-0.17-7.013-0.694-14.021-0.73-21.033
	c-0.126-24.94-0.04-49.881-0.217-74.821c-0.03-4.286-0.748-8.6-1.497-12.84c-2.276-12.884-6.976-24.798-14.942-35.271
	c-2.603-3.422-5.019-7.314-8.415-9.736c-6.463-4.608-11.809-11.059-20.027-13.019c-0.97-0.231-1.87-0.945-2.691-1.579
	c-10.627-8.22-21.438-16.219-31.769-24.798c-6.158-5.113-11.97-10.789-17.163-16.874c-4.513-5.289-7.826-11.586-11.869-17.295
	c-6.374-9.001-12.445-18.342-22.98-23.274c-0.747-0.35-1.205-1.273-1.876-1.837c-7.828-6.577-16.547-10.087-26.699-6.474
	c-4.743,1.688-9.716,4.25-11.085,9.512c-1.925,7.4-0.332,14.691,2.858,21.643c4.294,9.356,12.261,15.671,19.219,22.663
	c11.872,11.929,24.54,23.063,36.793,34.616c6.748,6.364,13.84,12.5,11.103,23.599c-0.652,2.645,0.823,5.82,1.35,8.746
	c0.132,0.732,0.425,1.434,0.567,2.165c0.134,0.689,0.167,1.397,0.244,2.097c-0.515,0.071-1.031,0.141-1.546,0.212
	c-0.79-5.352-2.54-10.786-2.097-16.034c0.437-5.175-0.635-9.047-4.059-12.565c-2.602-2.673-5.122-5.443-7.888-7.937
	c-13.1-11.808-26.579-23.215-39.306-35.408c-7.948-7.614-15.346-16.033-18.736-26.951c-1.866-6.008-3.776-12.342-0.868-18.377
	c5.802-12.04,24.502-15.914,35.374-7.893c4.085,3.014,8.65,5.379,13.813,8.54c-3.882-6.95-5.787-12.684-3.02-19.861
	c4.857-12.597,7.103-25.794,5.456-39.431c-0.227-1.881,0.076-3.872,0.401-5.767c2.16-12.598,8.9-23.834,9.909-36.959
	c0.931-12.107-2.551-21.703-10.988-29.812c-4.27-4.104-10.566-2.497-13.124,2.945C181.482,108.28,179.936,111.162,178.261,114.471z"
	/>
<path fill="#FFFFFF" stroke="#FFFFFF" stroke-width="2" stroke-miterlimit="10" d="M470.607,112.471
	c1.507-0.498,2.865-1.066,4.279-1.391c4.159-0.957,8.168-0.834,10.866,3.06c3.297,4.758,6.758,9.473,9.423,14.585
	c4.824,9.252,9.088,18.702,17.109,25.93c6.895,6.213,8.78,14.661,10.012,23.687c1.659,12.152,6.526,23.44,12.512,34.157
	c2.69,4.816,5.702,9.455,8.332,14.302c3.362,6.195,3.018,12.903,0.758,19.132c-3.68,10.145-4.631,20.44-4.879,31.139
	c-0.205,8.851-2.406,17.661-3.78,26.48c-1.877,12.053-4.596,23.934-4.239,36.336c0.25,8.697-4.679,16.331-11.359,20.924
	c-12.186,8.378-22.085,19.12-33.136,28.649c-16.283,14.04-32.894,27.702-49.469,41.399c-2.652,2.192-3.814,4.457-3.704,7.964
	c0.473,15.053,1.241,30.044,4.868,44.757c1.644,6.67-0.481,9.239-7.324,9.307c-32.134,0.317-64.268,0.631-96.403,0.906
	c-7.519,0.064-7.645-0.246-7.667-7.892c-0.075-25.988-0.363-51.975-0.313-77.963c0.035-18.412,0.819-37.095,8.668-53.892
	c4.638-9.927,10.308-20.24,20.103-26.843c10.306-6.949,20.917-13.489,30.866-20.915c11.083-8.274,21.767-17.12,32.216-26.187
	c3.863-3.352,6.711-7.937,9.77-12.143c6.914-9.506,13.845-19.008,20.412-28.753c2.854-4.235,5.242-8.907,7.035-13.684
	c0.94-2.505,0.92-5.956-0.017-8.478c-4.526-12.183-7.177-24.814-6.434-37.64c0.458-7.914-0.897-15-3.342-22.217
	c-1.953-5.763-4.277-11.472-5.496-17.398c-2.754-13.393-1.739-26.079,8.409-36.729c6.565-6.89,14.271-5.957,18.348,2.567
	C468.113,107.89,469.353,110.082,470.607,112.471z M469.599,114.407c-1.613-3.213-3.201-6.226-4.652-9.303
	c-2.427-5.148-8.728-6.751-12.886-2.864c-5.306,4.96-9.486,10.748-10.681,18.186c-1.906,11.856,1.064,22.953,4.866,34.057
	c2.242,6.549,5.037,13.554,4.699,20.207c-0.687,13.532,0.915,26.53,5.461,39.055c2.06,5.676,2.134,10.605-0.251,15.851
	c-0.611,1.344-1.305,2.651-2.182,4.419c4.601-2.759,8.677-5.11,12.657-7.612c6.649-4.179,13.721-6.102,21.512-4.187
	c9.974,2.452,16.81,11.109,15.849,20.332c-0.801,7.686-3.404,14.725-7.879,21.157c-10.394,14.937-24.608,25.966-37.984,37.889
	c-7.797,6.95-15.285,14.254-22.784,21.53c-3.056,2.965-4.177,6.524-3.276,11.012c1.175,5.856-0.364,11.396-3.103,15.903
	c0.455-5.11,1.669-10.753,1.224-16.262c-0.362-4.484,0.473-8.022,3.352-11.078c6.115-6.491,12.23-13.001,18.671-19.162
	c12.277-11.742,25.028-22.998,37.085-34.957c5.483-5.439,9.985-12.123,11.04-20.069c0.647-4.87,0.903-10.248-0.52-14.821
	c-1.775-5.703-13.147-10.228-19.314-9.557c-12.723,1.384-20.82,10.582-30.347,17.391c-0.118,0.084-0.203,0.219-0.291,0.339
	c-6.605,9.023-13.148,18.093-19.839,27.052c-3.462,4.636-6.659,9.661-10.901,13.482c-8.866,7.986-18.057,15.682-27.652,22.769
	c-10.464,7.73-21.596,14.55-32.329,21.923c-12.945,8.893-19.995,21.993-25.088,36.306c-5.451,15.32-5.154,31.469-5.535,47.346
	c-0.599,24.924-0.061,49.874-0.031,74.814c0.008,6.505-0.037,6.601,6.71,6.54c31.991-0.287,63.981-0.619,95.971-0.966
	c5.438-0.059,6.762-1.84,5.355-7.446c-3.764-15.002-4.509-30.302-4.865-45.665c-0.077-3.3,0.952-5.601,3.5-7.699
	c15.45-12.719,30.891-25.454,46.16-38.389c12.504-10.592,23.284-23.066,37.107-32.31c6.354-4.249,11.058-11.476,10.852-19.716
	c-0.31-12.389,2.323-24.29,4.241-36.346c1.472-9.252,3.483-18.52,3.781-27.828c0.324-10.101,1.387-19.825,4.735-29.397
	c2.602-7.438,2.662-14.876-2.099-21.842c-2.686-3.931-5.088-8.086-7.295-12.308c-5.676-10.857-10.504-22.121-12.193-34.321
	c-1.067-7.708-2.445-14.99-8.204-20.71c-6.392-6.348-11.964-13.258-15.556-21.654c-1.697-3.967-3.86-7.735-5.817-11.591
	C485.246,112.831,481.766,111.212,469.599,114.407z"/>
</svg>
