<?xml version="1.0" encoding="UTF-8" standalone="no"?>
<svg xmlns:dc="http://purl.org/dc/elements/1.1/" xmlns:cc="http://creativecommons.org/ns#" xmlns:rdf="http://www.w3.org/1999/02/22-rdf-syntax-ns#" xmlns:svg="http://www.w3.org/2000/svg" xmlns="http://www.w3.org/2000/svg" xmlns:sodipodi="http://sodipodi.sourceforge.net/DTD/sodipodi-0.dtd" xmlns:inkscape="http://www.inkscape.org/namespaces/inkscape" id="svg" version="1.1" width="400" height="199.9661418655832" viewBox="0 0 400 199.9661418655832" inkscape:version="0.91 r13725" sodipodi:docname="EthicalAward.svg">
  <metadata id="metadata5419">
    <rdf:RDF>
      <cc:Work rdf:about="">
        <dc:format>image/svg+xml</dc:format>
        <dc:type rdf:resource="http://purl.org/dc/dcmitype/StillImage"/>
      </cc:Work>
    </rdf:RDF>
  </metadata>
  <defs id="defs5417"/>
  <sodipodi:namedview pagecolor="#ffffff" bordercolor="#666666" borderopacity="1" objecttolerance="10" gridtolerance="10" guidetolerance="10" inkscape:pageopacity="0" inkscape:pageshadow="2" inkscape:window-width="1920" inkscape:window-height="1057" id="namedview5415" showgrid="false" inkscape:zoom="0.73" inkscape:cx="200" inkscape:cy="99.98307" inkscape:window-x="-8" inkscape:window-y="-8" inkscape:window-maximized="1" inkscape:current-layer="svg"/>
  <path style="fill:#040404;fill-rule:evenodd;stroke:none" inkscape:connector-curvature="0" d="M 83.583,7.106 C 69.756,9.159 60.012,19.561 59.031,33.317 l -0.114,1.6 -17.54,0.042 -17.54,0.043 0.09,24.874 c 0.256,71.068 0.429,102.598 0.573,104.653 0.375,5.338 3.443,10.981 8.288,15.237 3.07,2.697 5.374,3.798 10.212,4.879 3.369,0.752 2.467,0.737 46.473,0.806 l 42.056,0.067 1.861,-0.614 c 10.966,-3.619 17.427,-11.227 18.265,-21.506 0.357,-4.383 0.304,-73.762 -0.09,-116.273 l -0.116,-12.625 -18.388,0 -18.388,0 -0.072,-0.375 C 114.561,33.919 114.447,32.737 114.349,31.5 113.446,20.212 104.116,9.994 92.417,7.48 90.798,7.133 85.045,6.889 83.583,7.106 m 6.217,3.893 c 11.098,1.001 19.619,10.099 21.097,22.527 l 0.092,0.775 -1.869,0.107 c -2.312,0.132 -45.98,0.41 -46.185,0.294 -0.228,-0.129 0.025,-3.117 0.394,-4.65 1.304,-5.424 3.21,-8.796 7.069,-12.506 5.588,-5.372 11.248,-7.282 19.402,-6.547 m 185.277,16.626 c 0.267,8.82 0.412,9.958 1.268,9.958 l 0.572,0 0,-2.583 0,-2.583 0.416,-0.05 c 1.578,-0.187 3.491,-0.592 4.165,-0.882 2.843,-1.223 3.078,-5.581 0.377,-6.97 -0.335,-0.173 -4.294,-0.499 -6.183,-0.511 L 274.967,24 l 0.11,3.625 m 13.47,-3.265 c -0.105,0.126 -0.269,0.716 -0.364,1.31 -0.277,1.727 -1.241,9.027 -1.468,11.122 l -0.095,0.875 0.498,0 c 0.756,0 1.038,-0.451 1.211,-1.935 0.084,-0.724 0.204,-1.745 0.268,-2.269 l 0.115,-0.954 2.352,0.016 c 1.85,0.013 2.495,-0.043 3.017,-0.262 2.817,-1.181 3.093,-5.572 0.435,-6.92 -1.464,-0.742 -5.603,-1.424 -5.969,-0.983 m -7.604,1.444 c 0.901,0.46 1.224,0.995 1.224,2.032 0,2.041 -1.313,2.995 -4.125,2.996 l -1.375,10e-4 0,-2.639 c 0,-1.451 0.056,-2.697 0.125,-2.769 0.26,-0.271 3.446,0.019 4.151,0.379 M 263.5,25.829 c -3.08,0.985 -4.355,2.554 -4.469,5.499 -0.183,4.713 2.184,8.166 5.601,8.17 5.385,0.008 7.931,-3.324 6.558,-8.581 -1.05,-4.019 -4.303,-6.172 -7.69,-5.088 m 29.349,0.26 c 1.766,0.623 2.473,2.3 1.649,3.914 -0.51,1.001 -1.077,1.214 -3.456,1.298 l -2.042,0.073 10e-4,-0.562 c 0.003,-1.34 0.611,-4.4 0.939,-4.729 0.333,-0.332 1.96,-0.329 2.909,0.006 m 8.002,1.286 c -0.189,0.573 -0.647,2.204 -1.017,3.625 -2.07,7.937 -2.157,8.544 -1.231,8.634 0.485,0.047 0.532,0.002 0.711,-0.667 0.105,-0.394 0.306,-1.13 0.447,-1.634 1.808,-6.494 2.645,-10.579 2.221,-10.848 -0.547,-0.346 -0.786,-0.159 -1.131,0.89 m -33.501,0.211 c 2.675,1.889 3.568,7.318 1.538,9.348 -1.686,1.686 -4.988,1.709 -6.443,0.044 -2.385,-2.726 -2.6,-7.358 -0.416,-8.973 1.507,-1.114 4.052,-1.315 5.321,-0.419 m 40.517,0.623 c -0.589,0.711 -4.705,10.669 -4.95,11.98 -0.422,2.255 1.585,-0.463 2.84,-3.845 0.733,-1.976 2.184,-5.311 2.321,-5.334 0.195,-0.032 0.383,0.808 1.08,4.823 1.428,8.222 1.564,8.667 2.654,8.667 0.376,0 1.282,-1.762 3.045,-5.917 0.544,-1.283 1.168,-2.746 1.387,-3.25 1.171,-2.701 1.245,-3.583 0.291,-3.466 -0.37,0.045 -0.61,0.532 -2.482,5.05 -2.346,5.663 -2.301,5.583 -2.453,4.385 -0.231,-1.821 -1.683,-9.537 -2.049,-10.885 -0.343,-1.267 -0.793,-2.18 -1.141,-2.313 -0.353,-0.135 -0.341,-0.138 -0.543,0.105 m -56.434,1.675 c -0.278,0.204 -0.217,0.384 0.911,2.698 l 1.209,2.481 -0.384,0.26 c -0.352,0.239 -6.018,3.17 -6.138,3.175 -0.028,0.001 -0.28,-0.504 -0.559,-1.123 -1.638,-3.631 -1.796,-3.899 -2.273,-3.843 -1.125,0.129 -0.852,0.913 3.254,9.334 l 1.6,3.282 0.474,-0.245 c 0.698,-0.361 0.616,-0.932 -0.461,-3.192 -0.513,-1.079 -1.038,-2.202 -1.166,-2.497 l -0.233,-0.535 2.91,-1.409 c 1.6,-0.776 3.05,-1.454 3.221,-1.509 0.341,-0.108 0.437,0.041 2.012,3.126 1.024,2.005 1.135,2.143 1.676,2.08 0.913,-0.106 0.573,-1.054 -3.079,-8.592 -1.93,-3.983 -2.072,-4.15 -2.974,-3.491 m -13.797,7.604 c -6.311,2.467 -4.623,9.345 1.864,7.594 3.028,-0.817 4.667,-0.159 4.667,1.874 0,1.026 -1.689,2.595 -3.801,3.529 -1.286,0.57 -1.32,0.606 -0.95,1.014 0.716,0.792 3.128,-0.19 4.758,-1.937 3.17,-3.397 0.924,-7.242 -3.591,-6.148 -0.55,0.134 -1.73,0.294 -2.623,0.356 l -1.624,0.113 -0.571,-0.605 c -1.424,-1.511 -0.237,-3.596 2.58,-4.532 0.937,-0.311 1.123,-0.569 0.847,-1.173 -0.219,-0.48 -0.506,-0.496 -1.556,-0.085 m 84.781,-0.098 c -4.083,1.356 -6.711,6.422 -5.037,9.709 0.894,1.755 4.835,4.734 6.262,4.734 0.55,0 4.444,-5.052 4.091,-5.308 -2.611,-1.899 -3.683,-2.404 -4.081,-1.923 -0.195,0.234 -0.076,0.4 0.935,1.312 1.339,1.208 1.345,1.081 -0.136,2.904 -1.22,1.502 -1.277,1.525 -2.35,0.963 -3.226,-1.688 -4.34,-4.554 -2.901,-7.461 2.123,-4.286 5.798,-4.824 9.476,-1.385 1.447,1.354 1.425,1.343 1.954,0.972 0.519,-0.363 0.481,-0.476 -0.505,-1.52 -2.383,-2.525 -5.491,-3.733 -7.708,-2.997 m -214.87,4.431 c 2.71,1.051 4.442,4.057 4.45,7.721 l 0.003,1.291 -3.233,0 -3.233,0 -0.121,-1.208 c -0.324,-3.24 -1.179,-4.352 -2.731,-3.55 -0.906,0.469 -0.932,0.702 -0.932,8.425 0,7.793 0.011,7.889 0.998,8.499 1.698,1.049 2.51,-0.115 2.697,-3.874 l 0.106,-2.125 3.225,0 3.224,0 -0.003,1.958 c -0.009,6.195 -2.665,8.859 -8.845,8.872 -5.702,0.011 -7.839,-2.252 -8.575,-9.08 -1.084,-10.059 1,-16.232 5.824,-17.254 1.416,-0.3 6.083,-0.088 7.146,0.325 m -62.047,2.762 0,2.75 -4.167,0 -4.166,0 0,2.084 0,2.083 4,0 4,0 0,2.833 0,2.834 -4,0 -4,0 0,2.414 0,2.413 4.291,0.045 4.292,0.044 0.046,2.792 0.045,2.792 -7.837,0 -7.837,0 0,-12.917 0,-12.917 7.666,0 7.667,0 0,2.75 m 18.167,0.167 0,2.917 -2.499,0 -2.499,0 -0.043,9.958 -0.043,9.958 -3.5,0 -3.5,0 -0.043,-9.958 -0.043,-9.958 -2.498,0 -2.499,0 0,-2.917 0,-2.917 8.583,0 8.584,0 0,2.917 m 8,1.75 0,4.667 2,0 2,0 0,-4.667 0,-4.667 3.5,0 3.5,0 0,12.917 0,12.917 -3.334,0 -3.333,0 0,-5.25 0,-5.25 -2.167,0 -2.166,0 0,5.253 0,5.254 -3.292,-0.045 -3.292,-0.046 -0.042,-12.875 -0.043,-12.875 3.334,0 3.335,0 0,4.667 m 20.406,-3.958 c 0.06,0.389 0.15,6.203 0.2,12.92 l 0.093,12.212 -3.475,-0.046 -3.474,-0.045 -0.043,-12.875 -0.043,-12.875 3.317,0 3.317,0 0.108,0.709 m 35.744,1.5 c 0.291,1.214 1.01,4.158 1.598,6.541 0.587,2.384 1.488,6.059 2.002,8.167 0.515,2.108 1.194,4.871 1.511,6.138 0.316,1.268 0.532,2.375 0.48,2.459 -0.052,0.085 -1.635,0.153 -3.567,0.153 l -3.472,0 -0.284,-1.625 c -0.156,-0.894 -0.336,-1.888 -0.399,-2.208 l -0.115,-0.584 -2.492,0 -2.491,0 -0.215,0.448 c -0.118,0.247 -0.341,1.289 -0.495,2.315 l -0.281,1.867 -3.173,-0.09 c -4.26,-0.122 -3.973,0.124 -3.251,-2.79 0.17,-0.687 0.502,-2.112 0.737,-3.166 0.236,-1.055 0.577,-2.536 0.759,-3.292 0.182,-0.756 0.476,-1.994 0.652,-2.75 0.177,-0.756 0.474,-2.013 0.66,-2.792 0.186,-0.779 0.522,-2.204 0.748,-3.166 0.225,-0.963 0.73,-3.119 1.122,-4.792 l 0.712,-3.042 4.362,0 4.361,0 0.531,2.209 m 13.683,7.705 0,9.913 3.458,0.045 3.459,0.045 0.045,2.693 0.046,2.693 -1.379,0.098 c -1.703,0.121 -10.011,0.433 -11.522,0.433 l -1.107,0 0,-12.917 0,-12.917 3.5,0 3.5,0 0,9.914 m -18.708,-3.372 c -0.042,0.115 -0.28,1.408 -0.528,2.875 -0.248,1.467 -0.599,3.438 -0.781,4.38 -0.181,0.943 -0.284,1.787 -0.23,1.875 0.119,0.192 3.191,0.22 3.308,0.03 0.176,-0.284 -1.413,-9.368 -1.638,-9.368 -0.03,0 -0.089,0.093 -0.131,0.208 M 278.5,48.952 c -6.123,1.07 -10.595,4.95 -12.635,10.965 -0.521,1.534 -1.032,3.75 -1.032,4.473 0,0.633 -0.114,0.64 -10.792,0.73 l -10.042,0.085 0.042,25.83 0.042,25.829 1.667,0.655 c 0.917,0.361 2.454,0.961 3.417,1.335 0.962,0.373 2.575,1.002 3.583,1.398 1.008,0.395 2.621,1.022 3.583,1.393 0.963,0.371 2.613,1.007 3.667,1.413 2.062,0.794 5.514,2.095 7,2.638 0.504,0.185 1.292,0.483 1.75,0.663 l 0.833,0.327 0.964,-1.051 c 1.144,-1.248 5.894,-6.599 8.687,-9.787 1.091,-1.246 2.414,-2.752 2.94,-3.348 2.344,-2.655 6.048,-6.891 7.568,-8.657 0.912,-1.059 2.262,-2.605 3,-3.435 0.738,-0.83 1.979,-2.253 2.758,-3.162 0.779,-0.91 1.758,-2.031 2.176,-2.492 0.417,-0.46 1.467,-1.659 2.333,-2.663 0.866,-1.004 1.687,-1.946 1.824,-2.095 0.138,-0.148 1.375,-1.57 2.75,-3.16 1.375,-1.591 3.355,-3.873 4.4,-5.072 1.045,-1.199 2.29,-2.631 2.767,-3.181 0.477,-0.55 1.652,-1.9 2.611,-3 0.959,-1.1 2.357,-2.712 3.107,-3.583 l 1.362,-1.583 0.002,-2.625 0.001,-2.625 -11.186,0 -11.186,0 0.111,-1.209 C 297.327,55.716 287.324,47.409 278.5,48.952 m -54.203,1.781 c -1.782,0.383 -6.287,4.531 -6.296,5.797 -0.003,0.405 10.043,8.356 10.447,8.268 0.444,-0.096 2.729,-3.071 3.411,-4.44 1.742,-3.5 0.328,-7.103 -3.526,-8.978 -0.807,-0.393 -2.965,-1.001 -3.072,-0.866 -0.006,0.008 -0.44,0.106 -0.964,0.219 m 60.536,0.913 c 5.95,1.935 9.974,7.292 9.999,13.312 0.001,0.165 -2.926,0.209 -14.082,0.209 -13.075,0 -14.083,-0.02 -14.083,-0.28 0,-0.282 0.349,-1.513 1.125,-3.97 2.444,-7.733 9.674,-11.667 17.041,-9.271 m 52.181,-0.391 c -2.112,0.591 -4.221,2.353 -5.202,4.346 -1.266,2.572 -0.61,4.834 2.282,7.876 2.221,2.336 1.873,2.347 5.001,-0.166 2.56,-2.057 2.558,-2.019 0.279,-4.478 -1.495,-1.613 -2.098,-0.619 -0.725,1.195 l 0.83,1.096 -1.076,0.862 c -2.279,1.826 -2.709,1.848 -3.991,0.202 -2.216,-2.844 -2.211,-5.176 0.015,-7.456 3.282,-3.362 7.662,-2.519 9.738,1.873 0.829,1.755 2.022,1.472 1.319,-0.313 -1.485,-3.766 -5.174,-5.96 -8.47,-5.037 m -110.395,1.103 c 2.531,0.939 4.371,3.07 4.511,5.225 0.098,1.502 -1.961,5.25 -2.884,5.25 -0.393,0 -4.414,-3.219 -7.231,-5.788 l -1.069,-0.974 0.303,-0.494 c 1.626,-2.653 4.28,-3.994 6.37,-3.219 M 348.75,62.396 c -2.248,0.712 -7.806,3.947 -8.878,5.169 -1.523,1.734 -1.021,4.786 1.143,6.95 2.137,2.137 3.222,1.899 11.693,-2.566 1.724,-0.908 1.814,-1.017 1.297,-1.572 -0.422,-0.453 -0.976,-0.315 -2.98,0.742 -6.755,3.566 -7.926,3.821 -9.505,2.07 -2.358,-2.613 -1.601,-4.513 2.73,-6.853 5.03,-2.717 5.824,-3.243 5.72,-3.784 -0.073,-0.38 -0.386,-0.42 -1.22,-0.156 M 215.217,63.31 c -2.659,0.919 -3.897,2.661 -4.017,5.65 -0.101,2.507 0.071,3.078 1.274,4.249 4.939,4.807 11.268,3.518 12.356,-2.517 0.777,-4.31 -5.206,-8.905 -9.613,-7.382 m 2.87,1.538 c 5.386,0.996 7.189,6.36 3.093,9.205 -2.479,1.722 -8.03,-0.84 -8.688,-4.008 -0.729,-3.51 1.835,-5.892 5.595,-5.197 m -85.343,6.076 c 9.359,0.3 11.923,3.436 11.923,14.578 0,6.967 -1.58,11.624 -4.664,13.743 -1.44,0.989 -2.913,1.213 -8.906,1.356 l -4.93,0.118 0,-15.035 0,-15.035 1.791,0.089 c 0.986,0.049 3.14,0.133 4.786,0.186 m -89.911,0.318 c 0,0.041 0.117,0.51 0.26,1.042 0.143,0.531 0.399,1.491 0.569,2.133 0.171,0.641 0.547,2.029 0.836,3.083 0.289,1.054 0.637,2.329 0.772,2.833 0.33,1.223 0.986,3.643 1.378,5.084 0.472,1.733 1.785,6.654 2.357,8.833 1.705,6.494 1.709,6.521 1.037,6.696 -1.232,0.321 -3.087,0.16 -3.221,-0.279 -0.07,-0.229 -0.549,-1.992 -1.065,-3.917 -0.516,-1.925 -0.977,-3.631 -1.025,-3.792 -0.08,-0.268 -0.451,-0.291 -4.71,-0.291 l -4.623,0 -0.281,1.125 c -0.155,0.618 -0.433,1.65 -0.618,2.291 -0.186,0.642 -0.531,1.879 -0.768,2.75 -0.594,2.182 -1.222,2.588 -3.369,2.178 -1.175,-0.224 -1.273,0.46 1.186,-8.261 0.701,-2.486 5.858,-20.487 6.05,-21.119 0.073,-0.239 0.351,-0.295 1.703,-0.34 0.889,-0.03 2.047,-0.07 2.574,-0.089 0.527,-0.02 0.958,-0.001 0.958,0.04 m 11.506,1.341 c 0.152,0.734 0.444,2.271 0.648,3.417 0.645,3.612 1.539,8.322 2.6,13.691 0.411,2.075 0.746,3.932 0.746,4.125 0,1.485 1.064,-2.952 1.814,-7.566 0.089,-0.55 0.397,-2.312 0.683,-3.917 0.286,-1.604 0.819,-4.677 1.183,-6.829 0.364,-2.151 0.716,-3.965 0.783,-4.029 0.066,-0.065 1.079,-0.142 2.251,-0.171 2.432,-0.062 2.362,-0.099 2.529,1.347 0.059,0.513 0.253,1.72 0.43,2.682 0.442,2.404 1.078,6.006 1.501,8.5 0.194,1.146 0.491,2.871 0.66,3.834 0.169,0.962 0.517,3.002 0.773,4.533 0.257,1.53 0.481,2.767 0.5,2.749 0.07,-0.07 1.216,-5.927 2.061,-10.532 1.735,-9.46 2.4,-12.718 2.646,-12.964 0.099,-0.099 0.799,-0.21 1.558,-0.247 2.183,-0.107 2.116,-0.373 1.123,4.461 -0.462,2.245 -0.908,4.458 -0.992,4.916 -0.084,0.459 -0.423,2.109 -0.754,3.667 -0.332,1.558 -0.663,3.171 -0.738,3.583 -0.074,0.413 -0.53,2.663 -1.012,5 -0.483,2.338 -1.036,5.038 -1.23,6 l -0.352,1.75 -1.75,0.05 c -3.087,0.089 -2.861,0.308 -3.488,-3.383 -0.187,-1.1 -0.678,-3.987 -1.091,-6.417 -1.059,-6.231 -2.11,-12.027 -2.248,-12.402 -0.182,-0.496 -0.827,2.514 -2.191,10.236 -0.187,1.054 -0.516,2.891 -0.732,4.083 -0.216,1.192 -0.557,3.104 -0.758,4.25 -0.67,3.823 -0.606,3.756 -3.45,3.634 -1.952,-0.084 -1.818,0.103 -2.573,-3.588 -2.518,-12.317 -5.136,-25.391 -5.136,-25.651 0,-0.197 0.333,-0.231 1.865,-0.192 l 1.864,0.047 0.277,1.333 m 38.14,-1.151 c 0.062,0.053 0.424,1.303 1.011,3.485 0.172,0.641 0.551,2.029 0.84,3.083 0.62,2.255 0.911,3.329 1.332,4.917 0.171,0.641 0.551,2.029 0.845,3.083 0.294,1.054 0.631,2.292 0.749,2.75 0.117,0.458 0.418,1.583 0.669,2.5 0.985,3.598 1.643,6.039 2.075,7.692 0.443,1.698 0.416,1.725 -1.764,1.725 l -1.723,0 -0.18,-0.709 c -0.099,-0.389 -0.319,-1.195 -0.489,-1.791 -0.169,-0.596 -0.552,-2.077 -0.85,-3.292 l -0.541,-2.208 -1.352,0 c -0.743,0 -2.859,0.049 -4.702,0.109 l -3.352,0.109 -0.38,1.349 c -0.737,2.619 -1.121,4.029 -1.425,5.224 l -0.306,1.209 -1.968,0 c -1.245,0 -1.968,-0.064 -1.968,-0.173 0,-0.095 0.272,-1.088 0.604,-2.208 0.332,-1.12 0.661,-2.261 0.731,-2.536 0.07,-0.275 0.557,-1.963 1.082,-3.75 0.525,-1.788 1.012,-3.475 1.083,-3.75 0.071,-0.275 0.542,-1.925 1.046,-3.667 0.505,-1.741 1.305,-4.554 1.779,-6.25 0.473,-1.696 0.997,-3.533 1.164,-4.083 0.168,-0.55 0.439,-1.472 0.603,-2.049 l 0.298,-1.048 2.514,0.112 c 1.382,0.062 2.541,0.137 2.575,0.167 m 21.938,-0.122 c 1.97,0.148 3.157,0.639 4.353,1.802 3.194,3.104 2.414,10.48 -1.312,12.405 -0.773,0.4 -0.773,0.4 0.049,0.82 2.127,1.085 2.585,2.153 3.095,7.221 0.493,4.897 0.634,5.724 1.083,6.333 0.525,0.714 0.263,0.824 -1.772,0.749 -2.771,-0.103 -2.736,-0.029 -3.323,-6.997 -0.467,-5.541 -0.847,-5.914 -6.215,-6.094 l -3.042,-0.101 0,6.609 0,6.61 -1.916,0 -1.917,0 0,-14.639 c 0,-8.052 0.05,-14.689 0.111,-14.75 0.15,-0.15 8.717,-0.124 10.806,0.032 m 202.188,5.204 c -1.088,1.78 -2.146,3.498 -2.352,3.819 -0.205,0.321 -0.62,0.996 -0.923,1.5 -0.303,0.504 -1.487,2.454 -2.631,4.334 -1.144,1.879 -2.921,4.804 -3.949,6.5 -1.028,1.695 -3.166,5.221 -4.752,7.833 -1.585,2.612 -3.198,5.275 -3.584,5.917 -0.386,0.641 -1.996,3.304 -3.579,5.916 -1.583,2.613 -3.533,5.838 -4.335,7.167 -0.802,1.329 -2.752,4.554 -4.333,7.167 -1.582,2.612 -3.532,5.837 -4.334,7.166 -0.801,1.329 -2.752,4.554 -4.334,7.167 -1.582,2.612 -3.485,5.778 -4.229,7.034 -0.744,1.256 -1.404,2.287 -1.465,2.291 -0.103,0.008 -3.76,-3.994 -10.036,-10.98 -1.365,-1.519 -2.866,-3.174 -3.336,-3.678 -0.47,-0.505 -1.939,-2.117 -3.263,-3.584 -6.198,-6.862 -10.591,-11.416 -11.013,-11.416 -0.362,0 0.052,16.105 0.495,19.227 0.729,5.136 5.628,10.833 10.015,11.647 1.43,0.266 51.254,0.279 53.699,0.015 1.903,-0.206 2.952,-0.656 4.545,-1.948 2.363,-1.918 3.785,-4.082 5.164,-7.86 l 0.548,-1.502 0.103,-29.081 c 0.056,-15.995 0.047,-31.063 -0.02,-33.485 l -0.123,-4.403 -1.978,3.237 m -209.272,2.922 0,5.27 1.625,-0.112 c 6.326,-0.439 7.708,-1.43 7.735,-5.543 0.024,-3.779 -1.566,-4.864 -7.151,-4.879 l -2.209,-0.005 0,5.269 m 22.547,-3.394 c 0.037,1.031 0.165,6.337 0.284,11.791 0.12,5.454 0.237,9.941 0.26,9.97 0.071,0.087 3.919,-0.299 5.068,-0.51 1.94,-0.355 3.114,-1.51 4.363,-4.293 l 0.562,-1.25 0,-6.167 0,-6.166 -0.696,-1.449 c -1.522,-3.167 -2.873,-3.801 -8.102,-3.801 l -1.806,0 0.067,1.875 m -89.762,0.072 c -0.171,0.285 -3.951,13.204 -3.951,13.505 0,0.114 7.467,-0.03 7.583,-0.146 0.099,-0.099 -0.353,-1.981 -1.253,-5.223 -0.178,-0.642 -0.746,-2.742 -1.262,-4.667 -0.985,-3.678 -0.987,-3.685 -1.117,-3.469 m 312.215,1.217 c -9.709,3.323 -9.316,3.144 -8.733,3.975 0.219,0.313 0.359,0.36 0.791,0.266 0.638,-0.139 4.822,-1.523 6.776,-2.242 0.779,-0.286 1.754,-0.632 2.166,-0.768 1.516,-0.5 2.914,-1.292 2.97,-1.682 0.13,-0.917 -0.024,-0.9 -3.97,0.451 M 89.71,76.432 c -0.089,0.175 -0.555,1.631 -1.035,3.235 -0.48,1.604 -1.008,3.366 -1.175,3.916 -0.166,0.55 -0.502,1.75 -0.747,2.667 -0.245,0.917 -0.547,1.985 -0.672,2.375 -0.325,1.013 -0.216,1.042 4.003,1.042 3.379,0 3.599,-0.019 3.511,-0.297 -0.052,-0.163 -0.213,-0.744 -0.358,-1.291 -0.282,-1.068 -0.633,-2.392 -1.298,-4.912 -0.231,-0.871 -0.528,-1.996 -0.661,-2.5 -1.041,-3.931 -1.327,-4.705 -1.568,-4.235 m 119.857,1.679 c -3.05,0.901 -5.086,4.798 -4.139,7.925 1.269,4.194 9.173,6.3 11.917,3.175 1.903,-2.168 2.378,-6.106 0.958,-7.951 -1.987,-2.582 -5.891,-3.989 -8.736,-3.149 m 3.232,1.65 c 4.891,0.996 6.737,5.114 3.676,8.205 -2.164,2.186 -7.984,0.956 -9.496,-2.007 -0.882,-1.729 0.385,-5.872 1.825,-5.966 0.062,-0.004 0.488,-0.112 0.946,-0.239 1.098,-0.305 1.518,-0.304 3.049,0.007 m 143.618,3.082 c -1.612,0.305 -4.3,0.833 -7.584,1.489 -0.871,0.174 -2.089,0.41 -2.708,0.523 -1.332,0.244 -1.291,0.079 -0.691,2.776 1.231,5.527 2.468,6.789 6.649,6.777 4.284,-0.012 6.852,-1.981 7.048,-5.402 0.106,-1.835 -0.573,-6.538 -0.936,-6.492 -0.061,0.008 -0.862,0.156 -1.778,0.329 m 1.113,2.158 c 1.051,4.841 -0.343,7.289 -4.471,7.851 -3.58,0.486 -5.793,-1.336 -6.217,-5.121 -0.173,-1.54 -0.265,-1.439 1.638,-1.799 0.79,-0.149 2.224,-0.422 3.187,-0.607 5.834,-1.12 5.692,-1.112 5.863,-0.324 M 209.835,95.188 c 0.002,2.186 0.155,3.12 0.529,3.238 0.604,0.192 0.803,-0.206 0.803,-1.613 l 0,-1.313 2.269,0 2.27,0 -0.078,2.125 c -0.156,4.276 -1.563,5.792 -5.378,5.792 -4.585,0 -6.724,-3.025 -5.495,-7.77 0.297,-1.146 0.134,-1.702 -0.475,-1.615 -1.4,0.199 -1.538,6.186 -0.191,8.247 2.009,3.071 7.754,3.862 10.674,1.469 1.778,-1.457 2.367,-3.358 2.159,-6.971 -0.161,-2.775 0.1,-2.619 -4.797,-2.867 l -2.292,-0.117 0.002,1.395 m 140.271,3.16 c -1.455,0.072 -2.748,0.171 -2.875,0.22 -0.186,0.071 -0.231,0.729 -0.229,3.385 0.003,3.855 0.04,4.085 0.638,4.014 0.591,-0.069 0.657,-0.414 0.677,-3.509 l 0.016,-2.625 2.584,0 2.583,0 0,2.323 c 0,2.52 0.136,3.177 0.657,3.177 0.558,0 0.676,-0.539 0.676,-3.072 l 0,-2.428 2.25,0 2.25,0 0,2.595 c 0,2.764 0.108,3.239 0.735,3.239 0.54,0 0.599,-0.417 0.599,-4.271 l 0,-3.229 -3.959,0.025 c -2.177,0.014 -5.148,0.084 -6.602,0.156 m -4.902,25.527 c -0.925,1.135 -0.656,1.889 1.529,4.283 0.874,0.958 1.554,1.777 1.51,1.821 -0.044,0.044 -1.185,0.138 -2.536,0.209 -3.165,0.166 -3.16,0.164 -3.644,1.258 -0.218,0.493 -0.396,0.923 -0.396,0.954 0,0.032 2.156,0.096 4.791,0.144 5.239,0.094 5.129,0.076 8.152,1.356 1.188,0.503 1.401,0.463 1.779,-0.33 0.519,-1.088 0.257,-1.396 -2.058,-2.419 -2.487,-1.1 -2.942,-1.472 -6.863,-5.609 -1.816,-1.917 -1.968,-2.029 -2.264,-1.667 m -127.954,1.2 c -0.55,0.22 -2.388,0.942 -4.083,1.605 -5.768,2.256 -7.077,2.799 -7.131,2.961 -0.029,0.088 0.213,0.872 0.539,1.741 0.325,0.87 0.592,1.617 0.592,1.662 0,0.045 0.258,0.647 0.573,1.339 l 0.574,1.259 0.868,-0.229 c 1.313,-0.347 1.311,-0.339 0.563,-2.505 -0.748,-2.167 -0.798,-1.994 0.755,-2.594 1.792,-0.693 1.94,-0.63 2.707,1.144 0.737,1.704 0.926,1.824 2.01,1.269 0.784,-0.402 0.796,-0.487 0.268,-1.961 -0.683,-1.907 -0.611,-2.135 0.896,-2.815 0.993,-0.448 1.069,-0.397 1.873,1.241 1.078,2.2 1.114,2.225 2.414,1.705 0.772,-0.309 0.773,-0.236 -0.034,-2.23 -0.88,-2.177 -1.851,-4.001 -2.126,-3.996 -0.142,0.003 -0.708,0.185 -1.258,0.404 m -110.827,1.35 c 1.775,0.462 2.344,1.304 2.444,3.617 l 0.056,1.291 -1.539,0 c -1.68,0 -1.884,-0.117 -1.884,-1.08 0,-1.424 -1.238,-2.005 -1.865,-0.874 -0.545,0.984 -0.307,8.299 0.286,8.791 0.681,0.566 1.634,-0.411 1.834,-1.88 0.149,-1.097 0.185,-1.118 1.977,-1.121 l 1.482,-0.002 -0.09,1.312 c -0.209,3.051 -1.662,4.344 -4.891,4.351 -3.625,0.008 -4.056,-0.833 -4.062,-7.92 l -0.004,-4.673 0.808,-0.796 c 1.287,-1.268 3.148,-1.614 5.448,-1.016 m -65.596,0.238 c 0.378,0.203 0.445,0.665 0.14,0.97 -0.129,0.129 -0.786,0.2 -1.834,0.2 l -1.633,0 -0.012,5.625 c -0.015,6.781 -0.05,7.125 -0.726,7.125 -0.723,0 -0.764,-0.317 -0.878,-6.705 l -0.101,-5.706 -0.517,-0.077 c -0.284,-0.043 -0.952,-0.114 -1.486,-0.159 -1.276,-0.107 -1.944,-0.763 -1.238,-1.217 0.6,-0.387 7.579,-0.434 8.285,-0.056 m 2.84,-0.167 c 0.203,0.128 0.259,0.704 0.302,3.081 l 0.052,2.923 1.712,0 c 0.941,0 2.128,-0.084 2.636,-0.186 l 0.925,-0.186 0.068,-2.665 c 0.061,-2.382 0.102,-2.691 0.385,-2.898 1.142,-0.835 1.301,0.202 1.225,7.951 -0.058,5.875 -0.094,6.151 -0.805,6.151 -0.65,0 -0.738,-0.414 -0.807,-3.794 l -0.067,-3.254 -1.688,0.109 c -0.929,0.06 -2.12,0.193 -2.647,0.295 L 44,134.21 l 0,2.906 c 0,3.407 -0.328,4.311 -1.188,3.275 -0.418,-0.503 -0.329,-13.511 0.095,-13.821 0.379,-0.277 0.429,-0.282 0.76,-0.074 m 16.368,0.084 c 0.381,0.157 0.541,0.711 0.292,1.011 -0.16,0.193 -0.727,0.242 -2.764,0.242 l -2.563,0 0,2.316 0,2.315 2.475,0.06 c 2.569,0.063 3.025,0.185 3.025,0.809 0,0.627 -0.456,0.748 -3.025,0.807 l -2.475,0.057 0,2.485 0,2.485 2.655,0 c 2.744,0 3.178,0.103 3.178,0.752 0,0.631 -0.627,0.748 -4.037,0.748 l -3.296,0 0,-7.19 0,-7.19 3.125,0.088 c 1.719,0.049 3.253,0.141 3.41,0.205 m 13.465,1.253 0,1.5 -2.167,0 -2.166,0 0,1.25 0,1.25 2,0 2,0 0,1.5 0,1.5 -2,0 -2,0 0,1.417 0,1.417 2.166,0 2.167,0 0,1.5 0,1.5 -3.833,0 -3.834,0 0,-7.167 0,-7.167 3.834,0 3.833,0 0,1.5 m 9.833,-0.2 c 0,1.588 -0.095,1.7 -1.447,1.7 l -1.048,0 -0.044,5.625 -0.044,5.625 -1.875,0.047 -1.875,0.048 0,-5.673 0,-5.672 -1.05,0 c -1.338,0 -1.45,-0.123 -1.45,-1.589 0,-1.536 -0.404,-1.411 4.528,-1.411 l 4.305,0 0,1.3 m 4.334,1.45 0,2.75 1.083,0 1.083,0 0,-2.75 0,-2.75 1.834,0 1.833,0 0,7.167 0,7.167 -1.833,0 -1.834,0 0,-2.917 0,-2.917 -1.083,0 -1.083,0 0,2.917 0,2.917 -1.667,0 -1.667,0 0,-7.167 0,-7.167 1.667,0 1.667,0 0,2.75 m 10.621,-0.416 c 0.113,1.237 0.226,4.425 0.25,7.083 l 0.045,4.833 -1.875,0.047 -1.875,0.048 0,-7.061 c 0,-3.884 0.053,-7.114 0.117,-7.178 0.065,-0.065 0.796,-0.096 1.625,-0.07 l 1.508,0.048 0.205,2.25 m 18.872,-1.693 c 0.094,0.352 0.248,1.045 0.341,1.541 0.161,0.855 1.146,5.409 1.835,8.485 0.885,3.948 0.954,3.707 -1.039,3.631 -1.608,-0.062 -1.81,-0.235 -1.946,-1.661 l -0.101,-1.053 -1.235,-0.05 c -1.426,-0.057 -1.442,-0.044 -1.601,1.323 -0.14,1.209 -0.227,1.275 -1.84,1.396 -1.866,0.14 -1.851,0.163 -1.325,-2.104 0.561,-2.416 0.954,-4.199 1.501,-6.815 0.538,-2.575 1.107,-5.042 1.2,-5.209 0.038,-0.068 0.962,-0.125 2.053,-0.125 l 1.984,0 0.173,0.641 m 6.75,-0.432 c 0.037,0.114 0.148,2.008 0.248,4.208 0.1,2.2 0.229,4.656 0.286,5.458 l 0.104,1.459 1.893,0 1.892,0 0,1.5 0,1.5 -3.833,0 -3.833,0 0,-7.056 c 0,-3.88 0.05,-7.105 0.111,-7.167 0.213,-0.213 3.061,-0.125 3.132,0.098 m 18.552,1.258 c -0.85,1.296 -1.304,2.029 -2.808,4.533 -10.701,17.826 -14.613,24.167 -14.908,24.167 -0.432,0 -11.079,-11.835 -11.079,-12.315 0,-0.279 0.093,-0.256 2.94,0.736 1.453,0.507 3.711,1.289 5.017,1.739 l 2.375,0.817 1.309,-1.364 c 0.72,-0.75 1.744,-1.851 2.275,-2.446 0.531,-0.596 1.314,-1.459 1.74,-1.917 0.426,-0.458 1.633,-1.808 2.682,-3 7.367,-8.368 10.713,-12.013 10.797,-11.76 0.036,0.107 -0.117,0.471 -0.34,0.81 m -27.676,2.808 c -0.164,0.266 -0.512,3.997 -0.4,4.29 0.225,0.586 1.188,0.285 1.252,-0.392 0.104,-1.093 -0.598,-4.308 -0.852,-3.898 m 106.444,2.659 c -0.447,0.337 -0.837,0.633 -0.867,0.657 -0.029,0.024 0.297,0.619 0.724,1.323 0.427,0.703 0.751,1.302 0.72,1.331 -0.032,0.028 -1.369,0.821 -2.974,1.761 -6.917,4.053 -6.659,3.887 -6.663,4.293 -0.003,0.301 0.516,1.57 0.752,1.839 0.078,0.089 1,-0.421 4.362,-2.413 6.08,-3.602 5.885,-3.556 6.867,-1.6 0.416,0.83 0.571,0.854 1.73,0.272 1.09,-0.548 1.053,-0.506 0.757,-0.854 -0.138,-0.161 -0.793,-1.253 -1.457,-2.426 -2.886,-5.099 -2.824,-5.033 -3.951,-4.183 m 119.002,1.694 c -0.234,0.155 -0.732,1.116 -0.732,1.413 0,0.124 1.406,1.151 3.125,2.284 4.421,2.913 5.262,3.636 4,3.439 -0.298,-0.046 -1.479,-0.201 -2.625,-0.344 -1.146,-0.143 -3.188,-0.421 -4.539,-0.618 -1.896,-0.276 -2.548,-0.316 -2.862,-0.172 -0.374,0.17 -1.771,2.009 -1.762,2.32 0.002,0.073 1.484,1.104 3.292,2.291 8.347,5.477 8.137,5.369 8.887,4.548 0.805,-0.881 1.089,-0.608 -4.292,-4.126 -2.777,-1.815 -3.362,-2.255 -3.199,-2.405 0.094,-0.087 3.779,0.371 9.939,1.237 l 0.881,0.123 0.743,-0.934 c 0.949,-1.193 0.944,-1.466 -0.046,-2.21 -2.565,-1.929 -10.22,-6.984 -10.557,-6.971 -0.037,10e-4 -0.152,0.058 -0.253,0.125 m -114.184,9.319 c -1.811,1.487 -6.093,5.211 -7.604,6.614 l -0.64,0.594 0.548,0.764 c 0.895,1.246 0.738,1.289 3.15,-0.869 1.209,-1.081 2.259,-1.966 2.334,-1.966 0.151,0 2.991,3.267 2.995,3.445 0.002,0.099 -1.975,1.924 -3.722,3.435 l -0.633,0.547 0.565,0.786 c 0.796,1.108 0.76,1.122 3.711,-1.391 7.855,-6.693 7.854,-6.691 6.983,-7.726 -0.571,-0.679 -0.75,-0.653 -1.924,0.279 -0.549,0.435 -1.454,1.152 -2.011,1.594 l -1.014,0.802 -0.657,-0.635 c -0.689,-0.668 -2.296,-2.613 -2.296,-2.782 0,-0.053 0.356,-0.418 0.791,-0.809 3.1,-2.792 3.133,-2.843 2.451,-3.738 -0.618,-0.81 -0.856,-0.726 -3.027,1.056 M 39.84,143.77 c 1.027,0.559 1.59,1.427 1.832,2.83 0.094,0.541 0.207,1.152 0.252,1.358 0.081,0.367 0.051,0.375 -1.41,0.375 -2.069,0 -2.283,-0.103 -2.383,-1.148 -0.125,-1.299 -0.85,-1.789 -1.533,-1.034 -0.66,0.729 -0.839,7.619 -0.222,8.56 0.731,1.116 1.683,0.478 2.029,-1.359 0.275,-1.463 0.337,-1.513 1.866,-1.516 1.548,-0.003 1.637,0.103 1.519,1.823 -0.208,3.032 -2.715,4.834 -5.822,4.184 -2.404,-0.503 -2.908,-1.309 -3.153,-5.032 -0.377,-5.743 0.11,-8.299 1.75,-9.18 1.185,-0.637 3.985,-0.563 5.275,0.139 m 10.444,10e-4 c 1.689,0.851 1.633,0.623 1.633,6.616 0,6.842 -0.152,7.118 -3.969,7.253 -2.936,0.104 -4.16,-0.626 -4.454,-2.657 -0.218,-1.507 -0.199,-8.117 0.026,-9.183 0.503,-2.386 3.984,-3.43 6.764,-2.029 m 57.883,-0.262 c 0,0.189 -0.559,1.745 -1.242,3.459 -1.677,4.21 -1.758,4.567 -1.758,7.734 l 0,2.631 -1.667,0 -1.667,0 0,-1.923 c 0,-2.991 -0.204,-3.769 -2.491,-9.477 -0.998,-2.493 -1.022,-2.427 0.854,-2.43 1.393,-0.003 1.83,0.273 2.082,1.316 0.161,0.664 0.83,2.125 1.03,2.248 0.223,0.138 0.609,-0.597 1.031,-1.962 0.391,-1.266 0.712,-1.586 1.77,-1.764 1.537,-0.258 2.058,-0.215 2.058,0.168 M 58.762,144.5 c 0.102,0.504 0.277,1.367 0.389,1.917 1.01,4.986 1.019,5.019 1.204,4.341 0.074,-0.27 0.449,-2.014 0.835,-3.875 l 0.7,-3.383 2.388,0 2.389,0 0,6.917 0,6.916 -1.5,0 -1.5,0 -0.022,-1.041 c -0.013,-0.573 -0.069,-2.491 -0.125,-4.262 l -0.103,-3.22 -0.736,3.22 c -0.404,1.771 -0.804,3.595 -0.887,4.053 -0.254,1.396 -0.458,1.584 -1.72,1.584 -0.723,0 -1.106,-0.07 -1.148,-0.209 -0.035,-0.114 -0.259,-1.145 -0.499,-2.291 -0.898,-4.299 -1.308,-6.091 -1.45,-6.334 -0.145,-0.247 -0.045,6.956 0.114,8.209 l 0.08,0.625 -1.669,0 -1.669,0 0,-7.088 0,-7.088 2.372,0.046 2.371,0.046 0.186,0.917 m 16.857,-0.679 c 1.341,0.519 2.101,2.76 1.664,4.909 -0.482,2.37 -1.29,3.038 -3.895,3.222 L 72,152.05 l 0,2.641 0,2.642 -1.833,0 -1.834,0 0,-6.933 0,-6.934 3.375,0.074 c 2.116,0.046 3.575,0.151 3.911,0.281 m 9.221,0.637 c 0.609,2.961 1.627,7.73 1.926,9.016 0.263,1.134 0.734,3.528 0.734,3.734 0,0.162 -3.025,0.159 -3.266,-0.002 -0.101,-0.068 -0.233,-0.496 -0.294,-0.952 -0.14,-1.05 -0.378,-1.281 -1.427,-1.382 -0.995,-0.095 -1.346,0.119 -1.346,0.823 0,1.27 -0.507,1.638 -2.254,1.638 -1.52,0 -1.513,0.013 -1.08,-1.961 0.196,-0.892 0.496,-2.26 0.668,-3.039 0.173,-0.779 0.51,-2.354 0.751,-3.5 0.649,-3.089 1.099,-5.06 1.188,-5.205 0.044,-0.07 1.007,-0.128 2.141,-0.128 l 2.062,0 0.197,0.958 m 8.146,1.959 c 1.411,4.099 1.366,4.055 1.26,1.25 -0.05,-1.33 -0.134,-2.811 -0.187,-3.292 l -0.097,-0.875 1.769,0 1.769,0 0,6.922 0,6.922 -1.862,-0.047 -1.862,-0.047 -1.139,-3.417 -1.138,-3.416 0.094,2.986 c 0.051,1.642 0.136,3.198 0.188,3.458 l 0.094,0.472 -1.771,0 -1.771,0 0,-6.922 0,-6.922 1.839,0.047 1.839,0.047 0.975,2.834 m -46.007,-0.308 c -0.251,0.302 -0.449,7.192 -0.24,8.31 0.147,0.779 1.318,0.892 1.598,0.153 0.227,-0.596 0.21,-7.554 -0.02,-8.214 -0.21,-0.602 -0.933,-0.737 -1.338,-0.249 m 25.176,0.414 c -0.265,0.493 -0.126,2.455 0.187,2.651 0.835,0.524 1.898,-0.862 1.593,-2.078 -0.232,-0.922 -1.394,-1.296 -1.78,-0.573 m 10.112,1.179 c -0.144,0.723 -0.489,3.382 -0.503,3.881 -0.013,0.481 0.016,0.502 0.783,0.551 0.755,0.049 0.793,0.031 0.718,-0.333 -0.043,-0.211 -0.123,-0.872 -0.177,-1.468 -0.201,-2.216 -0.63,-3.591 -0.821,-2.631 m 247.043,1.353 -0.939,1.032 0.58,1.081 c 2.548,4.749 6.477,11.499 6.694,11.499 0.063,0 0.478,-0.321 0.923,-0.713 l 0.81,-0.712 -0.887,-1.559 -0.886,-1.559 1.324,-1.27 c 1.958,-1.878 1.715,-1.779 2.844,-1.167 0.537,0.292 1.176,0.669 1.419,0.838 0.583,0.406 0.539,0.423 1.217,-0.466 0.711,-0.931 0.739,-1.26 0.133,-1.572 -0.252,-0.13 -0.954,-0.513 -1.559,-0.851 -2.324,-1.297 -10.518,-5.635 -10.623,-5.624 -0.06,0.006 -0.533,0.476 -1.05,1.043 m 5.24,3.574 c 2.048,1.229 2.023,1.151 0.737,2.358 -1.136,1.066 -0.916,1.199 -2.634,-1.592 -1.867,-3.034 -1.875,-3.03 1.897,-0.766 m -98.253,0.901 c -0.841,0.96 -2.442,2.824 -6.504,7.576 l -1.457,1.705 0.623,0.517 c 0.878,0.727 1.3,0.801 1.754,0.309 3.062,-3.325 8.454,-9.734 8.454,-10.05 0,-0.261 -0.882,-0.844 -1.515,-1.002 -0.376,-0.094 -0.55,0.028 -1.355,0.945 m 86.536,2.13 c -2.08,0.615 -5.032,2.854 -4.706,3.57 0.441,0.967 7.585,10.77 7.849,10.77 0.158,0 1.657,-0.978 1.764,-1.15 0.04,-0.066 -0.556,-0.97 -1.326,-2.01 -1.576,-2.13 -1.564,-1.979 -0.246,-3.257 1.142,-1.107 1.727,-2.251 1.623,-3.173 -0.29,-2.574 -3.126,-5.291 -4.958,-4.75 m -80.25,2.535 c -5.132,1.937 -7.842,9.182 -4.523,12.095 1.937,1.701 3.57,1.779 4.494,0.216 l 0.303,-0.514 -0.803,-0.336 c -2.482,-1.035 -2.971,-1.564 -2.969,-3.207 0.001,-1.046 0.069,-1.316 0.535,-2.116 2.389,-4.1 4.86,-4.935 6.857,-2.318 0.716,0.939 0.657,0.931 1.575,0.216 0.861,-0.671 0.928,-0.906 0.473,-1.648 -1.157,-1.883 -4.122,-3.075 -5.942,-2.388 m 81.564,0.244 c 0.434,0.303 1.182,1.782 1.185,2.34 0.003,0.817 -1.55,1.996 -2.066,1.567 -0.384,-0.318 -1.933,-2.631 -1.933,-2.886 0,-0.865 2,-1.591 2.814,-1.021 m -263.894,1.939 c 1.415,0.72 2.133,1.844 2.348,3.677 l 0.112,0.945 -1.52,0 c -1.687,0 -1.768,-0.05 -2.181,-1.355 -0.448,-1.414 -1.535,-1.447 -1.953,-0.058 -0.254,0.841 -0.289,6.101 -0.049,7.222 0.208,0.967 0.636,1.439 1.156,1.274 0.905,-0.287 1.406,-2.434 0.626,-2.678 -0.545,-0.17 -0.62,-0.363 -0.623,-1.618 l -0.002,-1.13 2.208,0.046 2.208,0.047 0,3.833 0,3.834 -0.786,0.05 c -0.859,0.056 -1.464,-0.174 -1.464,-0.556 0,-0.347 -0.249,-0.304 -0.962,0.164 -1.829,1.203 -4.333,0.749 -5.173,-0.937 -0.805,-1.616 -0.985,-9.385 -0.255,-10.971 0.943,-2.049 4.063,-2.933 6.31,-1.789 m 35.859,-0.073 c 1.348,0.688 2.055,1.849 2.055,3.377 0,1.445 -2.611,1.43 -3.001,-0.017 -0.325,-1.209 -1.999,-1.555 -1.999,-0.413 0,0.688 0.458,1.206 2.261,2.557 2.668,2 3.223,3.307 2.666,6.274 -0.757,4.036 -8,3.192 -8.235,-0.959 -0.078,-1.376 -0.009,-1.451 1.336,-1.455 1.273,-0.003 1.438,0.086 1.651,0.89 0.432,1.626 1.89,1.966 2.252,0.525 0.206,-0.819 -0.377,-1.567 -2.179,-2.801 -2.423,-1.658 -3.032,-2.669 -2.88,-4.785 0.212,-2.96 3.323,-4.596 6.073,-3.193 m 33.941,-0.27 c 2.13,0.639 2.679,2.255 2.577,7.595 -0.106,5.56 -0.491,6.313 -3.447,6.731 -2.717,0.384 -4.33,-0.171 -5.035,-1.731 -0.527,-1.166 -0.625,-9.804 -0.121,-10.713 0.94,-1.698 3.73,-2.569 6.026,-1.882 m -91.042,0.234 c 1.781,0.528 2.382,1.338 2.678,3.609 0.205,1.579 0.05,7.908 -0.211,8.599 -0.947,2.509 -6.271,3.114 -7.727,0.878 -1.06,-1.628 -1.489,-8.456 -0.67,-10.664 0.847,-2.285 3.181,-3.238 5.93,-2.422 m 10.538,0.241 c 1.833,0.346 2.509,1.407 2.424,3.805 -0.056,1.622 -0.077,1.686 -0.884,2.784 -0.113,0.154 -0.05,0.338 0.214,0.618 0.532,0.567 1.572,6.468 1.182,6.709 -0.441,0.272 -3.652,-0.161 -3.654,-0.493 -0.011,-1.463 -0.368,-4.375 -0.559,-4.566 -0.125,-0.124 -0.535,-0.267 -0.912,-0.318 l -0.685,-0.092 -0.046,2.73 -0.046,2.73 -1.666,0 -1.667,0 -0.043,-7.149 -0.044,-7.149 2.794,0.12 c 1.536,0.066 3.153,0.188 3.592,0.271 m 20.475,-0.173 c 0.738,0.205 0.676,0 2.313,7.58 0.198,0.916 0.534,2.416 0.747,3.333 0.212,0.917 0.439,2.026 0.504,2.464 l 0.118,0.798 -1.724,-0.048 -1.723,-0.047 -0.122,-0.75 c -0.325,-2 -0.67,-2.354 -2.041,-2.097 -0.618,0.116 -0.841,0.48 -1.019,1.663 -0.143,0.954 -0.537,1.267 -1.593,1.267 -2.034,0 -2.039,-0.01 -1.404,-2.881 0.228,-1.028 0.754,-3.444 1.17,-5.369 1.219,-5.648 1.284,-5.897 1.571,-5.974 0.53,-0.143 2.613,-0.103 3.203,0.061 m 9.204,3.339 c 0.629,1.929 1.172,3.48 1.205,3.446 0.034,-0.034 0.002,-1.556 -0.07,-3.383 -0.159,-3.974 -0.321,-3.572 1.447,-3.572 l 1.456,0 0.221,6.625 c 0.122,3.643 0.23,6.85 0.242,7.125 l 0.021,0.5 -1.847,0.047 -1.848,0.046 -0.546,-1.713 c -0.745,-2.337 -1.494,-4.268 -1.708,-4.4 -0.177,-0.109 -0.072,4.06 0.137,5.484 l 0.093,0.631 -1.724,-0.048 -1.724,-0.047 -0.043,-7.125 -0.044,-7.125 1.794,0 1.793,0.001 1.145,3.508 m 9.313,3.449 c 0.048,3.827 0.04,7.006 -0.019,7.064 -0.058,0.059 -0.874,0.158 -1.814,0.222 l -1.708,0.116 0,-7.18 0,-7.18 1.727,0 1.726,0 0.088,6.958 m 17.497,-6.75 c 0.161,0.126 0.402,0.871 0.604,1.875 0.185,0.917 0.531,2.567 0.769,3.667 2.05,9.486 2.02,8.455 0.252,8.555 -1.553,0.088 -1.909,-0.14 -2.066,-1.323 -0.183,-1.374 -0.287,-1.482 -1.432,-1.482 -1.143,0 -1.399,0.236 -1.596,1.469 -0.151,0.942 -0.489,1.138 -2.216,1.284 l -1.397,0.119 0.114,-0.645 c 0.134,-0.75 1.448,-6.825 1.924,-8.894 0.179,-0.779 0.488,-2.145 0.685,-3.035 l 0.359,-1.618 1.273,-0.057 c 0.7,-0.031 1.539,-0.071 1.865,-0.09 0.327,-0.018 0.714,0.06 0.862,0.175 m 11.129,0.969 c 0,1.682 -0.11,1.823 -1.421,1.823 l -1.075,0 -0.044,5.625 -0.044,5.625 -1.625,0.047 -1.625,0.048 0,-5.673 0,-5.672 -1.133,0 c -1.447,0 -1.533,-0.096 -1.533,-1.7 l 0,-1.3 4.25,0 4.25,0 0,1.177 m 4.666,5.989 0,7.167 -1.666,0 -1.667,0 0,-7.167 0,-7.166 1.667,0 1.666,0 0,7.166 m 15.77,-6.937 c 0.011,0.011 0.526,1.446 1.146,3.187 0.619,1.742 1.149,3.193 1.178,3.226 0.049,0.056 -0.02,-2.077 -0.169,-5.184 l -0.07,-1.458 1.658,0 1.658,0 -0.044,6.958 -0.043,6.958 -1.734,0 -1.733,0 -0.234,-0.666 c -0.129,-0.367 -0.646,-1.905 -1.149,-3.417 l -0.914,-2.75 0.104,3.351 0.104,3.352 -0.535,0.107 c -0.294,0.059 -0.965,0.107 -1.492,0.107 l -0.957,0 -0.103,-0.625 c -0.057,-0.344 -0.104,-3.5 -0.105,-7.014 l -0.002,-6.388 1.708,0.118 c 0.94,0.064 1.717,0.126 1.728,0.138 m 175.897,0.988 c -2.067,0.825 -2.047,0.3 -0.397,10.616 0.198,1.239 -0.409,0.626 -4.747,-4.792 -1.119,-1.398 -2.11,-2.541 -2.202,-2.541 -0.287,0 -2.821,1.206 -2.821,1.342 0,0.402 5.554,12.658 5.736,12.658 0.346,0 1.598,-0.783 1.598,-0.999 0,-0.147 -0.383,-1.126 -0.851,-2.176 -1.735,-3.894 -2.83,-6.534 -2.777,-6.693 0.03,-0.09 1.226,1.324 2.656,3.143 3.339,4.245 3.568,4.467 4.485,4.344 1.19,-0.16 1.21,-0.224 0.909,-2.968 -0.145,-1.321 -0.295,-2.514 -0.334,-2.651 -0.165,-0.577 -0.769,-5.042 -0.693,-5.118 0.136,-0.136 2.403,4.687 4.005,8.522 l 0.255,0.61 0.547,-0.277 c 0.641,-0.324 1.298,-0.893 1.298,-1.125 0,-0.16 -1.988,-4.673 -3.133,-7.112 -0.323,-0.688 -0.979,-2.11 -1.458,-3.161 -1,-2.194 -0.88,-2.099 -2.076,-1.622 M 36.827,162.84 c -1.223,1.223 -1.065,8.85 0.192,9.249 1,0.318 1.32,-0.52 1.436,-3.759 0.166,-4.648 -0.437,-6.681 -1.628,-5.49 m 90.574,0.011 c -0.393,0.433 -0.591,7.455 -0.235,8.315 0.336,0.81 1.323,0.718 1.8,-0.169 0.248,-0.462 0.155,-5.48 -0.135,-7.264 -0.207,-1.27 -0.766,-1.615 -1.43,-0.882 m -80.534,0.182 c -0.235,0.235 -0.273,2.761 -0.048,3.117 0.161,0.254 1.269,0.162 1.56,-0.129 0.221,-0.221 0.351,-1.55 0.22,-2.246 -0.142,-0.759 -1.243,-1.231 -1.732,-0.742 m 206.595,1.342 c -1.763,2.042 -8.16,9.935 -8.162,10.071 -0.001,0.075 0.467,0.322 1.04,0.548 l 1.042,0.411 1.203,-1.318 1.204,-1.318 1.73,0.774 1.731,0.774 0.083,1.783 c 0.096,2.036 0.308,2.364 1.581,2.442 l 0.664,0.041 0.126,-1.166 c 0.224,-2.06 0.797,-6.924 1.13,-9.584 0.178,-1.421 0.344,-2.8 0.37,-3.066 0.043,-0.449 -0.022,-0.507 -0.954,-0.851 -1.874,-0.692 -1.781,-0.707 -2.788,0.459 M 68.439,164.189 c -0.291,1.494 -0.716,4.416 -0.657,4.519 0.039,0.069 0.404,0.125 0.811,0.125 0.901,0 0.903,-0.018 0.397,-2.932 -0.369,-2.125 -0.432,-2.322 -0.551,-1.712 m 35.153,2.298 c -0.335,2.261 -0.313,2.346 0.585,2.346 0.76,0 0.784,-0.101 0.481,-2 -0.462,-2.888 -0.679,-2.958 -1.066,-0.346 m 151.091,1.815 c -0.586,3.772 -0.586,3.772 -2.404,2.94 -1.204,-0.551 -1.31,-0.295 1.702,-4.141 l 0.769,-0.983 0.053,0.534 c 0.029,0.294 -0.025,1.036 -0.12,1.65 m 8.502,-1.094 c -0.463,1.44 -2.701,11.406 -2.732,12.17 l -0.036,0.872 1.5,0.373 c 2.259,0.562 5.139,1.211 5.177,1.166 0.128,-0.15 0.382,-1.825 0.307,-2.021 -0.102,-0.264 -1.692,-0.789 -3.359,-1.111 -1.185,-0.228 -1.149,-0.137 -0.717,-1.812 0.179,-0.694 0.511,-2.049 0.738,-3.012 0.227,-0.962 0.537,-2.275 0.689,-2.916 0.207,-0.877 0.746,-3.657 0.748,-3.859 10e-4,-0.107 -1.158,-0.391 -1.595,-0.391 -0.469,0 -0.57,0.076 -0.72,0.541 m 30.942,0.594 c -2.282,0.616 -3.299,2.073 -3.424,4.908 -0.306,6.908 3.571,10.767 8.413,8.374 2.006,-0.992 2.551,-2.074 2.551,-5.07 0,-6.229 -2.957,-9.45 -7.54,-8.212 m -11.505,1.207 c -3.213,0.786 -4.914,4.542 -4.115,9.085 0.762,4.33 3.491,5.903 8.035,4.632 0.339,-0.095 0.448,-2.393 0.113,-2.393 -0.098,0 -0.802,0.123 -1.563,0.272 -3.111,0.612 -4.45,-1.087 -4.226,-5.358 0.168,-3.208 1.751,-4.566 4.29,-3.678 l 1.2,0.418 0.248,-0.593 c 0.457,-1.095 0.265,-1.759 -0.604,-2.078 -0.968,-0.356 -2.578,-0.503 -3.378,-0.307 m 14.401,1.357 c 2.527,1.42 3.105,7.263 0.857,8.658 -2.356,1.463 -4.482,-0.905 -4.659,-5.191 -0.135,-3.274 1.497,-4.762 3.802,-3.467" id="path0"/>
  <path style="fill:#9e9e9e;fill-rule:evenodd;stroke:none" inkscape:connector-curvature="0" d="m 85.042,6.948 c 0.16,0.042 0.423,0.042 0.583,0 0.16,-0.042 0.029,-0.076 -0.292,-0.076 -0.321,0 -0.452,0.034 -0.291,0.076 m 3.166,0 c 0.161,0.042 0.423,0.042 0.584,0 0.16,-0.042 0.029,-0.076 -0.292,-0.076 -0.321,0 -0.452,0.034 -0.292,0.076 m -20.468,7.427 -0.49,0.542 0.542,-0.49 c 0.505,-0.456 0.618,-0.594 0.489,-0.594 -0.029,0 -0.272,0.244 -0.541,0.542 m 37.427,-0.49 c 0,0.029 0.243,0.273 0.541,0.542 l 0.542,0.49 -0.49,-0.542 c -0.456,-0.505 -0.593,-0.618 -0.593,-0.49 m -38.676,1.74 -0.574,0.625 0.625,-0.574 c 0.343,-0.316 0.625,-0.598 0.625,-0.625 0,-0.128 -0.141,-0.008 -0.676,0.574 m 3.503,2.333 -0.911,0.959 0.959,-0.911 C 70.569,17.505 71,17.073 71,17.047 c 0,-0.123 -0.159,0.021 -1.006,0.911 m 204.903,6.116 c -0.05,0.132 -0.057,0.375 -0.014,0.541 0.052,0.201 0.085,0.152 0.098,-0.148 0.018,-0.42 0.076,-0.454 0.894,-0.511 l 0.875,-0.061 -0.88,-0.031 c -0.635,-0.022 -0.906,0.036 -0.973,0.21 m 13.978,0.041 c 0.16,0.042 0.423,0.042 0.583,0 0.161,-0.042 0.029,-0.076 -0.291,-0.076 -0.321,0 -0.452,0.034 -0.292,0.076 m -24,3.004 c 0.252,0.039 0.665,0.039 0.917,0 0.252,-0.038 0.045,-0.069 -0.459,-0.069 -0.504,0 -0.71,0.031 -0.458,0.069 m 31.5,1.298 c 0.002,0.366 0.036,0.497 0.076,0.289 0.04,-0.207 0.039,-0.507 -0.003,-0.666 -0.042,-0.16 -0.074,0.01 -0.073,0.377 M 114.548,32.75 c 0.001,0.458 0.033,0.626 0.072,0.373 0.038,-0.254 0.037,-0.629 -0.003,-0.834 -0.039,-0.205 -0.071,0.003 -0.069,0.461 m 174.176,0.007 c -0.054,0.142 -0.052,0.304 0.005,0.361 0.058,0.057 0.104,-0.015 0.104,-0.161 0,-0.146 0.132,-0.3 0.292,-0.342 0.273,-0.072 0.273,-0.078 -0.005,-0.096 -0.164,-0.01 -0.342,0.097 -0.396,0.238 m -18.843,0.826 c 0.001,0.459 0.034,0.626 0.072,0.373 0.038,-0.253 0.037,-0.628 -0.002,-0.833 -0.04,-0.205 -0.071,0.002 -0.07,0.46 m -165.75,0.873 c 0.484,0.034 1.234,0.034 1.666,0 0.433,-0.035 0.036,-0.062 -0.88,-0.062 -0.917,0.001 -1.271,0.029 -0.786,0.062 m -21.006,0.169 c 1.306,0.028 3.444,0.028 4.75,0 1.306,-0.029 0.237,-0.052 -2.375,-0.052 -2.613,0 -3.681,0.023 -2.375,0.052 m 193.932,1.458 c 10e-4,0.734 0.03,1.013 0.065,0.621 0.035,-0.392 0.035,-0.992 -0.001,-1.333 -0.036,-0.342 -0.064,-0.021 -0.064,0.712 m -12.682,3.532 c 0.16,0.042 0.423,0.042 0.583,0 0.161,-0.042 0.029,-0.076 -0.291,-0.076 -0.321,0 -0.452,0.034 -0.292,0.076 m -112.811,2.968 c 0,1.1 0.027,1.529 0.06,0.952 0.032,-0.576 0.032,-1.476 -0.001,-2 -0.033,-0.523 -0.06,-0.052 -0.059,1.048 m -49.099,-1.126 c 0.576,0.033 1.476,0.032 2,-10e-4 0.523,-0.033 0.052,-0.059 -1.048,-0.059 -1.1,0 -1.529,0.027 -0.952,0.06 M 45.401,44.5 c 0,1.512 0.025,2.131 0.056,1.375 0.031,-0.756 0.031,-1.994 0,-2.75 -0.031,-0.756 -0.056,-0.138 -0.056,1.375 m 1.176,0.25 0.006,2.833 2.542,0.007 2.542,0.007 -2.496,-0.053 -2.496,-0.053 -0.052,-2.787 -0.051,-2.787 0.005,2.833 m -9.512,4.583 c 0,1.238 0.027,1.744 0.059,1.125 0.032,-0.618 0.032,-1.631 0,-2.25 -0.032,-0.618 -0.059,-0.112 -0.059,1.125 M 59.8,47.624 c 0.76,0.031 1.96,0.031 2.666,0 0.706,-0.031 0.084,-0.057 -1.383,-0.057 -1.466,10e-4 -2.044,0.026 -1.283,0.057 m 32.414,1.293 c 0.002,0.458 0.034,0.626 0.072,0.372 0.039,-0.253 0.038,-0.628 -0.002,-0.833 -0.04,-0.205 -0.071,0.002 -0.07,0.461 m 188.08,-0.132 c 0.207,0.039 0.507,0.038 0.666,-0.004 0.16,-0.042 -0.01,-0.074 -0.377,-0.072 -0.366,0.002 -0.497,0.036 -0.289,0.076 m -59.716,4.257 -0.995,1.041 1.042,-0.994 c 0.573,-0.548 1.042,-1.016 1.042,-1.042 0,-0.123 -0.165,0.027 -1.089,0.995 M 94.398,54.5 c 0,1.146 0.026,1.615 0.059,1.042 0.032,-0.573 0.032,-1.511 0,-2.084 -0.033,-0.573 -0.059,-0.104 -0.059,1.042 m 134.935,-0.25 c 0.311,0.321 0.603,0.583 0.649,0.583 0.046,0 -0.171,-0.262 -0.482,-0.583 -0.311,-0.321 -0.603,-0.583 -0.649,-0.583 -0.046,0 0.171,0.262 0.482,0.583 m 42.073,0.458 -0.489,0.542 0.541,-0.49 c 0.298,-0.269 0.542,-0.512 0.542,-0.541 0,-0.129 -0.138,-0.016 -0.594,0.489 M 37.067,59.667 c 0,1.42 0.026,2.002 0.057,1.291 0.031,-0.71 0.031,-1.873 0,-2.583 -0.031,-0.71 -0.057,-0.129 -0.057,1.292 M 331.039,58 c 0,0.321 0.034,0.452 0.076,0.292 0.042,-0.161 0.042,-0.423 0,-0.584 -0.042,-0.16 -0.076,-0.029 -0.076,0.292 m -207.497,4.948 c 0.16,0.042 0.423,0.042 0.583,0 0.16,-0.042 0.029,-0.076 -0.292,-0.076 -0.32,0 -0.452,0.034 -0.291,0.076 m 93.166,0 c 0.161,0.042 0.423,0.042 0.584,0 0.16,-0.042 0.029,-0.076 -0.292,-0.076 -0.321,0 -0.452,0.034 -0.292,0.076 M 23.91,72.667 c 0,4.354 0.022,6.135 0.048,3.958 0.027,-2.177 0.027,-5.74 0,-7.917 -0.026,-2.177 -0.048,-0.395 -0.048,3.959 m 238.548,-7.713 c 0.298,0.037 0.786,0.037 1.084,0 0.298,-0.037 0.054,-0.067 -0.542,-0.067 -0.596,0 -0.84,0.03 -0.542,0.067 m 56.444,2.796 c -10e-4,1.558 0.024,2.218 0.055,1.467 0.031,-0.752 0.031,-2.027 0.001,-2.834 -0.031,-0.806 -0.056,-0.191 -0.056,1.367 m -209.329,-1.875 -0.49,0.542 0.542,-0.49 c 0.298,-0.269 0.542,-0.513 0.542,-0.542 0,-0.128 -0.138,-0.015 -0.594,0.49 m 37.969,1.24 c 0.16,0.042 0.423,0.042 0.583,0 0.16,-0.042 0.029,-0.076 -0.292,-0.076 -0.321,0 -0.452,0.034 -0.291,0.076 m -113.417,0.51 c 2.131,0.026 5.619,0.026 7.75,0 2.131,-0.027 0.387,-0.048 -3.875,-0.048 -4.263,0 -6.006,0.021 -3.875,0.048 m 19.333,-0.001 c 0.94,0.03 2.477,0.03 3.417,0 0.94,-0.029 0.171,-0.054 -1.708,-0.054 -1.879,0 -2.648,0.025 -1.709,0.054 m 13.25,0 c 0.894,0.03 2.357,0.03 3.25,0 0.894,-0.03 0.163,-0.054 -1.625,-0.054 -1.787,0 -2.518,0.024 -1.625,0.054 m 11,0 c 0.894,0.03 2.357,0.03 3.25,0 0.894,-0.03 0.163,-0.054 -1.625,-0.054 -1.787,0 -2.518,0.024 -1.625,0.054 m 24.584,0.166 c 0.481,0.033 1.268,0.033 1.75,0 0.481,-0.034 0.087,-0.062 -0.875,-0.062 -0.963,0 -1.357,0.028 -0.875,0.062 m 108.77,1.71 c 0,0.962 0.027,1.356 0.061,0.875 0.034,-0.481 0.034,-1.269 0,-1.75 -0.034,-0.481 -0.061,-0.088 -0.061,0.875 m -59.331,0.667 c 0,1.146 0.027,1.614 0.059,1.041 0.033,-0.573 0.033,-1.51 0,-2.083 -0.032,-0.573 -0.059,-0.104 -0.059,1.042 m 187.152,0 c 0,0.504 0.032,0.71 0.07,0.458 0.038,-0.252 0.038,-0.665 0,-0.917 -0.038,-0.252 -0.07,-0.046 -0.07,0.459 m -209.751,0.79 c 0.576,0.033 1.476,0.032 2,-10e-4 0.523,-0.033 0.051,-0.059 -1.049,-0.059 -1.1,0 -1.528,0.027 -0.951,0.06 M 51.208,71.29 c 0.527,0.033 1.39,0.033 1.917,0 0.527,-0.033 0.096,-0.06 -0.958,-0.06 -1.055,0 -1.486,0.027 -0.959,0.06 m 26.336,-0.004 c 0.253,0.039 0.628,0.038 0.833,-0.002 0.205,-0.04 -0.002,-0.071 -0.46,-0.07 -0.459,0.002 -0.626,0.034 -0.373,0.072 m 28.164,0.005 c 1.169,0.029 3.082,0.029 4.25,0 1.169,-0.028 0.213,-0.052 -2.125,-0.052 -2.337,0 -3.293,0.024 -2.125,0.052 m 212.997,2.876 c 0,0.32 0.035,0.452 0.077,0.291 0.041,-0.16 0.041,-0.423 0,-0.583 -0.042,-0.16 -0.077,-0.029 -0.077,0.292 m 22.128,0.416 c 0.311,0.321 0.603,0.584 0.649,0.584 0.046,0 -0.171,-0.263 -0.482,-0.584 C 340.689,74.262 340.397,74 340.351,74 c -0.046,0 0.171,0.262 0.482,0.583 M 107.241,79.5 c 0,2.979 0.023,4.198 0.05,2.708 0.028,-1.489 0.028,-3.927 0,-5.416 -0.027,-1.49 -0.05,-0.271 -0.05,2.708 m 27.301,-5.218 c 0.16,0.041 0.423,0.041 0.583,0 0.16,-0.042 0.029,-0.077 -0.292,-0.077 -0.321,0 -0.452,0.035 -0.291,0.077 m 208.752,1.669 c 0.207,0.04 0.507,0.039 0.666,-0.003 0.16,-0.042 -0.01,-0.074 -0.377,-0.073 -0.366,0.002 -0.497,0.036 -0.289,0.076 m -202.721,9.632 c 0,2.567 0.023,3.594 0.052,2.282 0.028,-1.312 0.028,-3.412 0,-4.667 -0.029,-1.255 -0.052,-0.181 -0.052,2.385 m -10.525,-2.666 c 0.001,0.458 0.033,0.626 0.072,0.372 0.038,-0.253 0.037,-0.628 -0.003,-0.833 -0.039,-0.205 -0.071,0.002 -0.069,0.461 m 14.5,0.333 c 0.001,0.458 0.033,0.626 0.072,0.373 0.038,-0.254 0.037,-0.629 -0.003,-0.834 -0.039,-0.205 -0.071,0.003 -0.069,0.461 m 174.364,10.583 c 0,6.188 0.021,8.719 0.046,5.625 0.026,-3.093 0.026,-8.156 0,-11.25 -0.025,-3.093 -0.046,-0.562 -0.046,5.625 M 219.22,84.167 c 0,0.595 0.03,0.839 0.067,0.541 0.037,-0.298 0.037,-0.785 0,-1.083 -0.037,-0.298 -0.067,-0.054 -0.067,0.542 m -1.515,0.333 c 0,0.321 0.035,0.452 0.077,0.292 0.041,-0.161 0.041,-0.423 0,-0.584 -0.042,-0.16 -0.077,-0.029 -0.077,0.292 m -107.828,0.12 c 0.254,0.038 0.629,0.037 0.834,-0.003 0.205,-0.039 -0.003,-0.071 -0.461,-0.069 -0.458,0.001 -0.626,0.033 -0.373,0.072 m 34.668,3.213 c 0,0.413 0.033,0.582 0.073,0.375 0.039,-0.206 0.039,-0.543 0,-0.75 -0.04,-0.206 -0.073,-0.037 -0.073,0.375 m -37.302,6.25 c 0,3.667 0.022,5.143 0.049,3.281 0.026,-1.862 0.026,-4.862 -0.001,-6.667 -0.026,-1.804 -0.048,-0.28 -0.048,3.386 M 357.705,88 c 0,0.321 0.035,0.452 0.077,0.292 0.041,-0.161 0.041,-0.423 0,-0.584 -0.042,-0.16 -0.077,-0.029 -0.077,0.292 M 36.146,89.713 c 0.071,0.071 1.361,0.108 2.867,0.082 l 2.737,-0.046 -2.867,-0.083 c -1.577,-0.045 -2.809,-0.024 -2.737,0.047 m 54.771,-0.046 -2.834,0.095 2.782,0.036 c 1.714,0.022 2.822,-0.029 2.885,-0.131 0.057,-0.092 0.08,-0.151 0.052,-0.131 -0.029,0.019 -1.327,0.078 -2.885,0.131 m 25.797,4.75 c 0.002,0.458 0.034,0.626 0.072,0.372 0.039,-0.253 0.038,-0.628 -0.002,-0.833 -0.04,-0.205 -0.071,0.002 -0.07,0.461 m 93.014,0.833 c 0,0.917 0.028,1.27 0.062,0.786 0.034,-0.484 0.033,-1.234 -0.001,-1.667 -0.034,-0.432 -0.062,-0.036 -0.061,0.881 m 1.149,-1.464 c 0.254,0.039 0.629,0.038 0.834,-0.002 0.205,-0.04 -0.003,-0.071 -0.461,-0.07 -0.458,0.002 -0.626,0.034 -0.373,0.072 m -58.974,3.631 c 0,1.833 0.025,2.606 0.054,1.717 0.03,-0.889 0.031,-2.389 0.001,-3.333 -0.03,-0.945 -0.054,-0.218 -0.055,1.616 m 198.805,-2.802 c 0.161,0.042 0.423,0.042 0.584,0 0.16,-0.042 0.029,-0.076 -0.292,-0.076 -0.321,0 -0.452,0.034 -0.292,0.076 m 2,0 c 0.161,0.042 0.423,0.042 0.584,0 0.16,-0.042 0.029,-0.076 -0.292,-0.076 -0.321,0 -0.452,0.034 -0.292,0.076 m -137.149,2.302 c 0,0.825 0.028,1.183 0.063,0.796 0.035,-0.386 0.035,-1.061 10e-4,-1.5 -0.035,-0.438 -0.063,-0.121 -0.064,0.704 m -12.497,0.916 c 0,0.963 0.027,1.357 0.061,0.875 0.034,-0.481 0.034,-1.268 0,-1.75 -0.034,-0.481 -0.061,-0.087 -0.061,0.875 m 13.996,0.334 c 0,0.779 0.029,1.098 0.064,0.708 0.035,-0.39 0.035,-1.027 0,-1.417 -0.035,-0.389 -0.064,-0.07 -0.064,0.709 m 139.688,-0.044 3.914,0.05 0.05,3.288 0.05,3.289 -0.005,-3.333 -0.005,-3.334 -3.958,-0.004 -3.959,-0.005 3.913,0.049 M 346.904,102 c 0,1.971 0.024,2.777 0.054,1.792 0.029,-0.986 0.029,-2.598 0,-3.584 -0.03,-0.985 -0.054,-0.179 -0.054,1.792 m 1.496,0.417 c 0,1.375 0.026,1.915 0.057,1.2 0.032,-0.714 0.031,-1.839 0,-2.5 -0.032,-0.66 -0.057,-0.075 -0.057,1.3 m 4.999,-0.25 c 0,1.237 0.026,1.743 0.058,1.125 0.032,-0.619 0.032,-1.632 0,-2.25 -0.032,-0.619 -0.058,-0.113 -0.058,1.125 m 5.834,0.25 c 10e-4,1.375 0.026,1.915 0.058,1.2 0.031,-0.714 0.031,-1.839 -10e-4,-2.5 -0.031,-0.66 -0.057,-0.075 -0.057,1.3 M 49.375,100.948 c 0.16,0.042 0.423,0.042 0.583,0 0.161,-0.042 0.029,-0.076 -0.291,-0.076 -0.321,0 -0.452,0.034 -0.292,0.076 m 165.698,2.594 -0.49,0.541 0.542,-0.489 c 0.505,-0.456 0.618,-0.594 0.49,-0.594 -0.029,0 -0.273,0.244 -0.542,0.542 m -5.613,1.743 c 0.208,0.039 0.508,0.038 0.667,-0.004 0.159,-0.042 -0.01,-0.074 -0.377,-0.072 -0.367,0.002 -0.497,0.036 -0.29,0.076 m 38.533,18.923 c 0.691,0.736 0.84,0.869 0.84,0.743 0,-0.026 -0.356,-0.383 -0.791,-0.791 l -0.792,-0.743 0.743,0.791 m -174.601,3.709 c 0,0.825 0.028,1.183 0.063,0.796 0.035,-0.386 0.035,-1.061 0.001,-1.5 -0.034,-0.438 -0.063,-0.121 -0.064,0.704 m 1.158,-0.584 c 0,0.504 0.031,0.711 0.069,0.459 0.039,-0.252 0.039,-0.665 0,-0.917 -0.038,-0.252 -0.069,-0.046 -0.069,0.458 m 8.673,0.334 c 0,0.687 0.029,0.968 0.065,0.625 0.036,-0.344 0.036,-0.907 0,-1.25 -0.036,-0.344 -0.065,-0.063 -0.065,0.625 m 4.345,1.5 c 0,1.512 0.025,2.131 0.056,1.375 0.031,-0.757 0.031,-1.994 0,-2.75 -0.031,-0.757 -0.056,-0.138 -0.056,1.375 m 5.805,4.286 -0.04,7.035 -1.708,0.054 -1.708,0.054 1.713,0.036 c 1.245,0.025 1.736,-0.022 1.794,-0.174 0.044,-0.114 0.059,-3.321 0.034,-7.125 l -0.045,-6.916 -0.04,7.036 m 48.867,-6.081 c -0.27,0.297 -0.334,0.409 -0.143,0.25 0.191,-0.159 0.397,-0.252 0.458,-0.206 0.062,0.046 0.075,0.035 0.03,-0.026 -0.045,-0.06 0.001,-0.21 0.104,-0.333 0.376,-0.453 0.024,-0.206 -0.449,0.315 m -118.162,9.045 c 0,4.858 0.021,6.821 0.047,4.363 0.026,-2.459 0.026,-6.434 0,-8.833 -0.026,-2.4 -0.047,-0.389 -0.047,4.47 M 37.408,133 c 0,2.887 0.022,4.069 0.05,2.625 0.028,-1.444 0.028,-3.806 0,-5.25 -0.028,-1.444 -0.05,-0.263 -0.05,2.625 M 54.9,130.25 c 0,1.375 0.026,1.915 0.057,1.201 0.032,-0.715 0.031,-1.84 0,-2.5 -0.032,-0.661 -0.057,-0.076 -0.057,1.299 m -18.999,0.667 c 0,1.466 0.026,2.044 0.056,1.283 0.031,-0.76 0.031,-1.96 0,-2.666 -0.031,-0.706 -0.056,-0.084 -0.056,1.383 M 244.039,129.5 c 0,0.321 0.034,0.452 0.076,0.292 0.042,-0.161 0.042,-0.423 0,-0.584 -0.042,-0.16 -0.076,-0.029 -0.076,0.292 m -201.466,4 c 0,2.429 0.023,3.423 0.052,2.208 0.028,-1.214 0.028,-3.202 0,-4.416 -0.029,-1.215 -0.052,-0.221 -0.052,2.208 M 98.387,132 c 0,0.596 0.03,0.84 0.067,0.542 0.037,-0.298 0.037,-0.786 0,-1.084 -0.037,-0.298 -0.067,-0.054 -0.067,0.542 m -25.354,1.286 -0.033,1.37 -1.958,0.053 -1.959,0.053 1.964,0.035 c 2.271,0.042 2.161,0.13 2.077,-1.646 l -0.058,-1.234 -0.033,1.369 m 182.134,-1.234 c 0,0.029 0.243,0.273 0.541,0.542 l 0.542,0.489 -0.49,-0.541 c -0.456,-0.505 -0.593,-0.619 -0.593,-0.49 m 94.96,0.733 c 0.207,0.039 0.507,0.038 0.667,-0.004 0.159,-0.042 -0.011,-0.074 -0.377,-0.072 -0.367,0.002 -0.497,0.036 -0.29,0.076 M 54.9,136.667 c 0,1.42 0.026,2.002 0.057,1.291 0.031,-0.71 0.031,-1.873 0,-2.583 -0.031,-0.71 -0.057,-0.129 -0.057,1.292 m 32.711,-1.889 c -0.061,0.061 -0.111,1.371 -0.111,2.91 l 0,2.799 -1.5,0.058 -1.501,0.058 1.542,-0.01 1.542,-0.01 0.046,-2.867 0.045,-2.868 1.122,-0.058 1.121,-0.058 -1.098,-0.033 c -0.603,-0.018 -1.147,0.018 -1.208,0.079 m 21.441,1.305 c 10e-4,0.55 0.032,0.755 0.069,0.456 0.037,-0.3 0.036,-0.75 -0.002,-1 -0.038,-0.251 -0.068,-0.006 -0.067,0.544 m 135.168,0.084 c 0,0.595 0.03,0.839 0.067,0.541 0.037,-0.298 0.037,-0.785 0,-1.083 -0.037,-0.298 -0.067,-0.054 -0.067,0.542 m -119.819,1.166 0.016,0.417 1.916,0.008 1.917,0.008 -1.864,-0.055 c -1.774,-0.052 -1.868,-0.073 -1.933,-0.425 -0.058,-0.312 -0.066,-0.304 -0.052,0.047 m 27.674,5.084 c 0,3.025 0.022,4.286 0.05,2.802 0.027,-1.484 0.027,-3.959 0,-5.5 -0.028,-1.541 -0.05,-0.327 -0.05,2.698 m -80.825,-4.628 2.083,0.054 0,1.326 0,1.325 -3.791,0.049 -3.792,0.05 3.833,-0.005 3.834,-0.005 0,-1.416 0,-1.417 -2.126,-0.008 -2.125,-0.008 2.084,0.055 m -12.125,1.495 c 0.206,0.04 0.544,0.04 0.75,0 0.206,-0.039 0.038,-0.072 -0.375,-0.072 -0.413,0 -0.581,0.033 -0.375,0.072 m 202.542,-0.065 c 0,0.029 0.243,0.272 0.541,0.541 l 0.542,0.49 -0.49,-0.542 c -0.456,-0.505 -0.593,-0.618 -0.593,-0.489 m -206.709,4.405 c 0.665,0.031 1.752,0.031 2.417,0 0.665,-0.032 0.121,-0.058 -1.208,-0.058 -1.33,0 -1.873,0.026 -1.209,0.058 m 6.984,0.001 c -0.043,0.069 0.646,0.105 1.532,0.081 2.852,-0.078 3.166,-0.145 0.828,-0.176 -1.256,-0.016 -2.317,0.026 -2.36,0.095 m 6.431,6.833 0.04,6.959 0.045,-6.871 0.046,-6.871 2.623,-0.05 2.623,-0.051 -2.708,-0.037 -2.709,-0.037 0.04,6.958 m 13.335,-6.835 c 0.527,0.033 1.39,0.033 1.917,0 0.527,-0.033 0.096,-0.06 -0.958,-0.06 -1.055,0 -1.486,0.027 -0.959,0.06 m 6.702,0.086 c -0.045,0.114 -0.06,3.246 -0.035,6.958 l 0.046,6.75 0.039,-6.87 0.04,-6.869 1.792,-0.054 1.791,-0.053 -1.797,-0.036 c -1.311,-0.025 -1.818,0.021 -1.876,0.174 m 6.548,-0.086 c 0.482,0.034 1.269,0.034 1.75,0 0.482,-0.034 0.088,-0.061 -0.875,-0.061 -0.962,0 -1.356,0.027 -0.875,0.061 m 4.497,-0.003 c 0.295,0.037 0.82,0.038 1.166,0.002 0.346,-0.036 0.104,-0.067 -0.538,-0.067 -0.641,-0.001 -0.924,0.028 -0.628,0.065 m 26.703,1.672 -0.575,0.625 0.625,-0.575 c 0.582,-0.534 0.702,-0.675 0.575,-0.675 -0.028,0 -0.309,0.281 -0.625,0.625 m -31.946,0.375 c 0,0.412 0.033,0.581 0.072,0.375 0.04,-0.207 0.04,-0.544 0,-0.75 -0.039,-0.207 -0.072,-0.038 -0.072,0.375 m -61.337,1.416 c 0.002,0.367 0.036,0.497 0.076,0.29 0.04,-0.207 0.039,-0.507 -0.003,-0.667 -0.042,-0.159 -0.074,0.011 -0.073,0.377 m 41.167,0.5 c 0.002,0.367 0.036,0.497 0.076,0.29 0.04,-0.207 0.038,-0.507 -0.003,-0.667 -0.042,-0.159 -0.075,0.011 -0.073,0.377 m -27.5,0.667 c 0.002,0.367 0.036,0.497 0.076,0.29 0.04,-0.208 0.038,-0.508 -0.003,-0.667 -0.042,-0.159 -0.075,0.01 -0.073,0.377 m 2.027,2.25 c 0,1.604 0.025,2.26 0.055,1.458 0.031,-0.802 0.031,-2.114 0,-2.916 -0.03,-0.802 -0.055,-0.146 -0.055,1.458 m 45.81,-1.667 c 0,0.413 0.032,0.582 0.072,0.375 0.04,-0.206 0.04,-0.543 0,-0.75 -0.04,-0.206 -0.072,-0.037 -0.072,0.375 m 163.246,2.954 c 0.298,0.037 0.785,0.037 1.083,0 0.298,-0.037 0.054,-0.067 -0.541,-0.067 -0.596,0 -0.84,0.03 -0.542,0.067 m 45.25,0.001 c 0.344,0.036 0.906,0.036 1.25,0 0.344,-0.036 0.063,-0.065 -0.625,-0.065 -0.687,0 -0.969,0.029 -0.625,0.065 m -262.998,0.165 c 0.254,0.038 0.629,0.037 0.834,-0.002 0.205,-0.04 -0.003,-0.071 -0.461,-0.07 -0.458,0.001 -0.626,0.034 -0.373,0.072 m 3.498,0.464 c 0.002,0.366 0.036,0.497 0.076,0.289 0.04,-0.207 0.039,-0.507 -0.003,-0.666 -0.042,-0.16 -0.074,0.01 -0.073,0.377 m 234.094,-0.459 c 1.771,0.027 4.621,0.027 6.334,0 1.712,-0.027 0.264,-0.049 -3.22,-0.049 -3.483,0 -4.884,0.022 -3.114,0.049 m -194.886,0.209 -0.833,0.114 0.782,0.026 c 0.43,0.015 0.828,-0.049 0.885,-0.14 0.056,-0.092 0.079,-0.155 0.051,-0.141 -0.028,0.015 -0.426,0.078 -0.885,0.141 m -49.7,1 c 0,0.504 0.032,0.71 0.07,0.458 0.038,-0.252 0.038,-0.665 0,-0.917 -0.038,-0.252 -0.07,-0.046 -0.07,0.459 M 51.872,153 c 0,0.321 0.034,0.452 0.076,0.292 0.042,-0.161 0.042,-0.423 0,-0.584 -0.042,-0.16 -0.076,-0.029 -0.076,0.292 m 5.007,0.833 c 0,0.413 0.032,0.582 0.072,0.375 0.04,-0.206 0.04,-0.543 0,-0.75 -0.04,-0.206 -0.072,-0.037 -0.072,0.375 m 25.163,0.949 c 0.16,0.041 0.423,0.041 0.583,0 0.16,-0.042 0.029,-0.077 -0.292,-0.077 -0.321,0 -0.452,0.035 -0.291,0.077 m 252.752,0.473 c -0.342,0.318 -0.563,0.578 -0.491,0.578 0.072,0 0.386,-0.262 0.697,-0.583 0.726,-0.749 0.601,-0.746 -0.206,0.005 M 24.228,159.25 c 0,0.917 0.028,1.27 0.062,0.786 0.034,-0.484 0.033,-1.234 -10e-4,-1.667 -0.034,-0.432 -0.062,-0.036 -0.061,0.881 m 103.899,0.701 c 0.207,0.04 0.507,0.039 0.667,-0.003 0.159,-0.042 -0.011,-0.074 -0.377,-0.073 -0.367,0.002 -0.497,0.036 -0.29,0.076 m -91.419,0.168 c 0.252,0.039 0.665,0.039 0.917,0 0.252,-0.038 0.046,-0.069 -0.458,-0.069 -0.505,0 -0.711,0.031 -0.459,0.069 m 7.919,0.166 c 0.207,0.039 0.507,0.038 0.667,-0.004 0.159,-0.042 -0.011,-0.074 -0.377,-0.072 -0.367,0.002 -0.497,0.036 -0.29,0.076 m 23.415,0.001 c 0.252,0.038 0.664,0.038 0.916,0 0.252,-0.038 0.046,-0.069 -0.458,-0.069 -0.504,0 -0.71,0.031 -0.458,0.069 m 6.534,0.089 c -0.044,0.115 -0.059,3.321 -0.034,7.125 l 0.045,6.917 0.04,-7.053 0.04,-7.052 1.734,0.052 c 0.954,0.029 1.7,-0.004 1.657,-0.072 -0.14,-0.226 -3.393,-0.148 -3.482,0.083 m 7.128,-0.088 1.453,0.059 0.054,2.202 0.055,2.202 -0.008,-2.25 -0.008,-2.25 -1.5,-0.011 -1.5,-0.011 1.454,0.059 m 4.26,0.003 c 0.484,0.034 1.234,0.033 1.667,-0.001 0.432,-0.034 0.036,-0.062 -0.881,-0.061 -0.917,0 -1.27,0.028 -0.786,0.062 m 22.773,0.101 c -0.049,0.126 -0.061,0.671 -0.028,1.211 l 0.061,0.981 0.032,-1.125 0.031,-1.125 4.076,0 4.076,0 0.061,1.084 0.062,1.084 -0.012,-1.125 -0.013,-1.126 -4.129,-0.045 c -3.386,-0.036 -4.145,-0.003 -4.217,0.186 m 9.839,-0.016 c -0.044,0.115 -0.059,3.321 -0.034,7.125 l 0.045,6.917 0.04,-7.036 0.04,-7.036 1.625,-0.054 1.625,-0.055 -1.631,-0.034 c -1.177,-0.026 -1.652,0.023 -1.71,0.173 m 15.799,-0.093 c 0.16,0.041 0.423,0.041 0.583,0 0.161,-0.042 0.029,-0.077 -0.291,-0.077 -0.321,0 -0.452,0.035 -0.292,0.077 m 6.167,0.007 c 0.435,0.035 1.148,0.035 1.583,0 0.435,-0.034 0.079,-0.062 -0.792,-0.062 -0.871,0 -1.227,0.028 -0.791,0.062 m -0.648,2.961 c 0.001,0.917 0.029,1.27 0.062,0.786 0.034,-0.484 0.034,-1.234 0,-1.667 -0.035,-0.432 -0.062,-0.036 -0.062,0.881 m -49.844,0.583 c 0,0.504 0.031,0.711 0.069,0.459 0.039,-0.252 0.039,-0.665 0,-0.917 -0.038,-0.252 -0.069,-0.046 -0.069,0.458 m -41.336,0.75 c 0.002,0.459 0.034,0.626 0.072,0.373 0.039,-0.253 0.038,-0.628 -0.002,-0.833 -0.04,-0.205 -0.071,0.002 -0.07,0.46 m 44.619,-0.364 c 0,0.029 0.244,0.272 0.542,0.541 l 0.542,0.49 -0.49,-0.542 c -0.456,-0.505 -0.594,-0.618 -0.594,-0.489 M 62.5,164.66 c 0,0.087 -0.581,0.185 -1.292,0.216 l -1.291,0.057 1.375,0.033 c 1.126,0.028 1.375,-0.011 1.375,-0.216 0,-0.138 -0.038,-0.25 -0.084,-0.25 -0.045,0 -0.083,0.072 -0.083,0.16 m 66.55,0.673 c 0,0.504 0.031,0.711 0.069,0.459 0.039,-0.252 0.039,-0.665 0,-0.917 -0.038,-0.252 -0.069,-0.046 -0.069,0.458 m -90.486,1.75 c 0,1.1 0.027,1.529 0.06,0.952 0.032,-0.576 0.032,-1.476 -0.001,-2 -0.033,-0.523 -0.06,-0.052 -0.059,1.048 m 3.159,-0.583 c 0,0.688 0.029,0.969 0.065,0.625 0.036,-0.344 0.036,-0.906 0,-1.25 -0.036,-0.344 -0.065,-0.062 -0.065,0.625 m 38.83,-0.167 c 0,0.596 0.031,0.84 0.068,0.542 0.037,-0.298 0.037,-0.785 0,-1.083 -0.037,-0.298 -0.068,-0.055 -0.068,0.541 m 7.846,1.417 c 0,1.283 0.027,1.786 0.058,1.118 0.032,-0.669 0.032,-1.719 0,-2.334 -0.032,-0.614 -0.058,-0.067 -0.058,1.216 M 126.872,166 c 0,0.321 0.034,0.452 0.076,0.292 0.042,-0.161 0.042,-0.423 0,-0.584 -0.042,-0.16 -0.076,-0.029 -0.076,0.292 m 109.515,0.667 c 0,0.595 0.03,0.839 0.067,0.541 0.037,-0.298 0.037,-0.785 0,-1.083 -0.037,-0.298 -0.067,-0.054 -0.067,0.542 M 58.22,167.833 c 0,0.596 0.03,0.84 0.067,0.542 0.037,-0.298 0.037,-0.785 0,-1.083 -0.037,-0.298 -0.067,-0.055 -0.067,0.541 M 53.539,168 c 0,0.321 0.034,0.452 0.076,0.292 0.042,-0.161 0.042,-0.423 0,-0.584 -0.042,-0.16 -0.076,-0.029 -0.076,0.292 m -4.834,3.333 c 0,0.321 0.035,0.452 0.077,0.292 0.041,-0.16 0.041,-0.423 0,-0.583 -0.042,-0.161 -0.077,-0.03 -0.077,0.291 m 85.5,0.667 c 0,0.321 0.035,0.452 0.077,0.292 0.041,-0.161 0.041,-0.423 0,-0.584 -0.042,-0.16 -0.077,-0.029 -0.077,0.292 m 3,0.833 c 0,0.321 0.035,0.452 0.077,0.292 0.041,-0.16 0.041,-0.423 0,-0.583 -0.042,-0.161 -0.077,-0.03 -0.077,0.291 m -88.33,0.75 c 0.002,0.367 0.036,0.497 0.076,0.29 0.04,-0.207 0.039,-0.507 -0.003,-0.667 -0.042,-0.159 -0.074,0.011 -0.073,0.377 m 241.667,1 c 0.002,0.367 0.036,0.497 0.076,0.29 0.04,-0.207 0.038,-0.507 -0.003,-0.667 -0.042,-0.159 -0.075,0.011 -0.073,0.377 M 49.711,174.286 c 0.253,0.039 0.628,0.038 0.833,-0.002 0.205,-0.04 -0.002,-0.071 -0.461,-0.07 -0.458,0.002 -0.626,0.034 -0.372,0.072 m 37.414,-0.002 c 0.206,0.04 0.544,0.04 0.75,0 0.206,-0.039 0.037,-0.072 -0.375,-0.072 -0.413,0 -0.581,0.033 -0.375,0.072 m 13.75,-0.002 c 0.16,0.041 0.423,0.041 0.583,0 0.161,-0.042 0.029,-0.077 -0.291,-0.077 -0.321,0 -0.452,0.035 -0.292,0.077 M 278.225,176 c 0,0.779 0.029,1.098 0.064,0.708 0.035,-0.389 0.035,-1.027 0,-1.416 -0.035,-0.39 -0.064,-0.071 -0.064,0.708 m 20.987,-0.167 c 0,0.413 0.033,0.582 0.072,0.375 0.04,-0.206 0.04,-0.543 0,-0.75 -0.039,-0.206 -0.072,-0.037 -0.072,0.375 m -267.879,2.75 c 0.498,0.505 0.943,0.917 0.989,0.917 0.046,0 -0.324,-0.412 -0.822,-0.917 -0.498,-0.504 -0.943,-0.916 -0.989,-0.916 -0.045,0 0.324,0.412 0.822,0.916 m 264.709,3.365 c 0.16,0.042 0.423,0.042 0.583,0 0.16,-0.042 0.029,-0.076 -0.292,-0.076 -0.321,0 -0.452,0.034 -0.291,0.076 m -247.331,3.505 c 0.253,0.038 0.628,0.037 0.833,-0.002 0.205,-0.04 -0.002,-0.071 -0.461,-0.07 -0.458,0.001 -0.626,0.034 -0.372,0.072 m 22.414,0.172 c 6.806,0.024 17.944,0.024 24.75,0 6.806,-0.024 1.237,-0.044 -12.375,-0.044 -13.613,0 -19.181,0.02 -12.375,0.044" id="path2"/>
  <path style="fill:#747474;fill-rule:evenodd;stroke:none" inkscape:connector-curvature="0" d="m 86.542,6.948 c 0.16,0.042 0.423,0.042 0.583,0 0.16,-0.042 0.029,-0.076 -0.292,-0.076 -0.32,0 -0.452,0.034 -0.291,0.076 m -0.494,4.009 c 0.53,0.033 1.355,0.033 1.833,-0.001 0.478,-0.034 0.044,-0.061 -0.964,-0.06 -1.009,0 -1.4,0.028 -0.869,0.061 m 17.785,6.96 c 0.311,0.32 0.603,0.583 0.649,0.583 0.046,0 -0.171,-0.263 -0.482,-0.583 -0.311,-0.321 -0.603,-0.584 -0.649,-0.584 -0.046,0 0.171,0.263 0.482,0.584 m 173.875,6.202 c 0.252,0.039 0.665,0.039 0.917,0 0.252,-0.038 0.046,-0.069 -0.458,-0.069 -0.505,0 -0.711,0.031 -0.459,0.069 m -0.25,1.336 c 0.39,0.035 1.027,0.035 1.417,0 0.39,-0.035 0.071,-0.063 -0.708,-0.063 -0.78,0 -1.098,0.028 -0.709,0.063 m -12.583,0.164 c 0.252,0.039 0.665,0.039 0.917,0 0.252,-0.038 0.045,-0.069 -0.459,-0.069 -0.504,0 -0.71,0.031 -0.458,0.069 m 10.167,2.298 c 0.002,0.366 0.036,0.497 0.076,0.289 0.04,-0.207 0.038,-0.507 -0.003,-0.666 -0.042,-0.16 -0.075,0.01 -0.073,0.377 m 13.997,2.416 c 0,0.321 0.034,0.452 0.076,0.292 0.042,-0.16 0.042,-0.423 0,-0.583 -0.042,-0.161 -0.076,-0.03 -0.076,0.291 m -226.134,3.334 0.012,1.083 1.916,0.008 1.917,0.008 -1.868,-0.055 -1.867,-0.055 -0.061,-1.036 -0.06,-1.037 0.011,1.084 m 213.98,-0.25 c 0.001,0.55 0.032,0.755 0.069,0.455 0.037,-0.3 0.036,-0.75 -0.002,-1 -0.038,-0.25 -0.068,-0.005 -0.067,0.545 m 13.157,-0.798 c 0.252,0.039 0.664,0.039 0.916,0 0.252,-0.038 0.046,-0.069 -0.458,-0.069 -0.504,0 -0.71,0.031 -0.458,0.069 m 2.166,-0.004 c 0.161,0.042 0.423,0.042 0.584,0 0.16,-0.042 0.029,-0.076 -0.292,-0.076 -0.321,0 -0.452,0.034 -0.292,0.076 M 271.545,34 c 0,0.412 0.033,0.581 0.073,0.375 0.039,-0.206 0.039,-0.544 0,-0.75 -0.04,-0.206 -0.073,-0.038 -0.073,0.375 m -212.692,0.374 -0.02,0.458 -17.541,0.043 -17.542,0.043 17.547,0.041 c 18.813,0.044 17.867,0.084 17.653,-0.741 -0.051,-0.197 -0.085,-0.144 -0.097,0.156 m 48.772,0.08 c 0.298,0.037 0.785,0.037 1.083,0 0.298,-0.037 0.055,-0.067 -0.541,-0.067 -0.596,0 -0.84,0.03 -0.542,0.067 m -15.411,0.169 c 0.531,0.034 1.356,0.033 1.834,0 0.478,-0.034 0.044,-0.061 -0.965,-0.061 -1.008,0.001 -1.399,0.028 -0.869,0.061 m 142.692,4.585 -0.489,0.542 0.541,-0.49 c 0.505,-0.456 0.619,-0.593 0.49,-0.593 -0.029,0 -0.273,0.243 -0.542,0.541 m 62.927,-0.135 c 0,0.224 0.062,0.445 0.137,0.492 0.075,0.046 0.104,-0.137 0.064,-0.407 -0.087,-0.596 -0.201,-0.643 -0.201,-0.085 M 65.079,54.667 c 0,7.104 0.021,10.01 0.046,6.458 0.025,-3.552 0.025,-9.365 0,-12.917 -0.025,-3.552 -0.046,-0.645 -0.046,6.459 m 17.5,0.083 c 0,7.15 0.021,10.051 0.046,6.446 0.025,-3.605 0.025,-9.455 0,-13 C 82.6,44.651 82.579,47.6 82.579,54.75 m 2.834,-0.083 c 0,7.104 0.02,10.01 0.045,6.458 0.025,-3.552 0.025,-9.365 0,-12.917 -0.025,-3.552 -0.045,-0.645 -0.045,6.459 m 156.131,-9.881 c 0.253,0.039 0.628,0.038 0.833,-0.002 0.205,-0.04 -0.002,-0.071 -0.46,-0.07 -0.459,0.002 -0.626,0.034 -0.373,0.072 m -4.586,0.665 c 0.207,0.04 0.544,0.04 0.75,0 0.207,-0.04 0.038,-0.072 -0.375,-0.072 -0.412,0 -0.581,0.032 -0.375,0.072 M 151.563,47.5 c 0,1.054 0.027,1.485 0.06,0.958 0.033,-0.527 0.033,-1.389 0,-1.916 -0.033,-0.527 -0.06,-0.096 -0.06,0.958 M 92.218,46.917 c 10e-4,0.55 0.032,0.755 0.069,0.455 0.038,-0.3 0.037,-0.75 -0.001,-1 -0.038,-0.25 -0.069,-0.005 -0.068,0.545 m -53.01,0.374 c 1.169,0.029 3.082,0.029 4.25,0 1.169,-0.028 0.213,-0.052 -2.125,-0.052 -2.337,0 -3.293,0.024 -2.125,0.052 m 12.37,10.292 c 0,5.5 0.021,7.726 0.047,4.947 0.026,-2.78 0.026,-7.28 0,-10 -0.026,-2.721 -0.047,-0.447 -0.047,5.053 m 7,0 c 0,5.5 0.021,7.726 0.047,4.947 0.026,-2.78 0.026,-7.28 0,-10 -0.026,-2.721 -0.047,-0.447 -0.047,5.053 m 42.996,-3.916 c 0,2.704 0.023,3.81 0.051,2.458 0.028,-1.352 0.028,-3.565 0,-4.917 -0.028,-1.352 -0.051,-0.246 -0.051,2.459 M 23.907,56 c 0,2.796 0.023,3.94 0.051,2.542 0.028,-1.398 0.028,-3.686 0,-5.084 C 23.93,52.06 23.907,53.204 23.907,56 m 48.725,-4.71 c 0.576,0.033 1.476,0.033 2,0 0.523,-0.033 0.051,-0.06 -1.049,-0.06 -1.1,0.001 -1.528,0.028 -0.951,0.06 m 148.943,2.752 -0.658,0.708 0.708,-0.659 c 0.39,-0.362 0.708,-0.681 0.708,-0.708 0,-0.126 -0.145,0 -0.758,0.659 m 120.258,-0.323 c 0,0.029 0.244,0.272 0.542,0.541 l 0.542,0.49 -0.49,-0.542 c -0.456,-0.505 -0.594,-0.618 -0.594,-0.489 m -7.427,0.989 -0.489,0.542 0.541,-0.49 c 0.298,-0.269 0.542,-0.512 0.542,-0.541 0,-0.129 -0.138,-0.016 -0.594,0.489 m -212.114,3.081 c 0.389,0.035 1.027,0.035 1.416,0 0.39,-0.035 0.071,-0.064 -0.708,-0.064 -0.779,0 -1.098,0.029 -0.708,0.064 m 22.579,4.001 3.454,0.05 0.052,2.664 0.052,2.663 -0.006,-2.708 -0.006,-2.709 -3.5,-0.005 -3.5,-0.006 3.454,0.051 M 39.198,62.124 c 1.164,0.029 3.114,0.029 4.334,10e-4 1.22,-0.029 0.268,-0.052 -2.115,-0.052 -2.384,0 -3.382,0.023 -2.219,0.051 m 82.262,0.827 c 0.208,0.04 0.508,0.039 0.667,-0.003 0.159,-0.042 -0.01,-0.074 -0.377,-0.073 -0.367,0.002 -0.497,0.036 -0.29,0.076 m 212.873,0.966 c 0.311,0.32 0.603,0.583 0.649,0.583 0.046,0 -0.171,-0.263 -0.482,-0.583 -0.311,-0.321 -0.603,-0.584 -0.649,-0.584 -0.046,0 0.171,0.263 0.482,0.584 m -86.03,1.208 c 2.413,0.026 6.313,0.026 8.667,0 2.354,-0.026 0.38,-0.048 -4.387,-0.047 -4.766,0 -6.692,0.021 -4.28,0.047 m 25.418,0 c 3.925,0.025 10.3,0.025 14.166,0 3.867,-0.025 0.655,-0.045 -7.137,-0.045 -7.792,0 -10.955,0.02 -7.029,0.045 m 28.321,0 c 3.093,0.025 8.156,0.025 11.25,0 3.093,-0.025 0.562,-0.046 -5.625,-0.046 -6.188,0 -8.719,0.021 -5.625,0.046 M 222.5,65.219 c 0,0.029 0.244,0.272 0.542,0.541 l 0.541,0.49 -0.489,-0.542 C 222.638,65.203 222.5,65.09 222.5,65.219 m -76.456,2.067 c 0.253,0.039 0.628,0.038 0.833,-0.002 0.205,-0.04 -0.002,-0.071 -0.46,-0.07 -0.459,0.002 -0.626,0.034 -0.373,0.072 m -3.836,0.162 c 0.161,0.042 0.423,0.042 0.584,0 0.16,-0.042 0.029,-0.076 -0.292,-0.076 -0.321,0 -0.452,0.034 -0.292,0.076 m -4.5,0.167 c 0.161,0.042 0.423,0.042 0.584,0 0.16,-0.042 0.029,-0.076 -0.292,-0.076 -0.321,0 -0.452,0.034 -0.292,0.076 m -11.164,3.171 c 0.253,0.039 0.628,0.038 0.833,-0.002 0.205,-0.04 -0.002,-0.071 -0.46,-0.07 -0.459,0.002 -0.626,0.034 -0.373,0.072 m 5.998,0.162 c 0.16,0.042 0.423,0.042 0.583,0 0.16,-0.042 0.029,-0.076 -0.292,-0.076 -0.321,0 -0.452,0.034 -0.291,0.076 m -66.5,0.334 c 0.16,0.041 0.423,0.041 0.583,0 0.16,-0.042 0.029,-0.077 -0.292,-0.077 -0.321,0 -0.452,0.035 -0.291,0.077 M 103.58,86 c 0,8.112 0.02,11.431 0.045,7.375 0.025,-4.056 0.025,-10.694 0,-14.75 C 103.6,74.569 103.58,77.887 103.58,86 m 48.15,-10.75 c 0.001,1.1 0.028,1.528 0.06,0.952 0.033,-0.577 0.033,-1.477 0,-2 -0.033,-0.524 -0.06,-0.052 -0.06,1.048 m -22.037,-0.625 c 0.026,0.6 0.03,0.604 0.093,0.094 0.04,-0.32 0.179,-0.561 0.349,-0.606 0.2,-0.053 0.173,-0.08 -0.093,-0.094 -0.33,-0.017 -0.372,0.056 -0.349,0.606 m 189.042,3.042 c 0,1.512 0.025,2.131 0.056,1.375 0.031,-0.757 0.031,-1.994 0,-2.75 -0.031,-0.757 -0.056,-0.138 -0.056,1.375 M 137.833,75.219 c 0,0.029 0.244,0.272 0.542,0.541 l 0.542,0.49 -0.49,-0.542 c -0.456,-0.505 -0.594,-0.618 -0.594,-0.489 m 80.709,1.063 c 0.16,0.041 0.423,0.041 0.583,0 0.16,-0.042 0.029,-0.077 -0.292,-0.077 -0.321,0 -0.452,0.035 -0.291,0.077 m -10.636,4.426 -0.489,0.542 0.541,-0.49 c 0.298,-0.269 0.542,-0.512 0.542,-0.541 0,-0.129 -0.138,-0.016 -0.594,0.489 m -1.239,7.542 c 0.311,0.321 0.603,0.583 0.648,0.583 0.046,0 -0.171,-0.262 -0.482,-0.583 -0.311,-0.321 -0.603,-0.583 -0.648,-0.583 -0.046,0 0.171,0.262 0.482,0.583 m 152.542,0.333 c 0.002,0.367 0.036,0.497 0.076,0.29 0.039,-0.207 0.038,-0.507 -0.004,-0.667 -0.042,-0.159 -0.074,0.011 -0.072,0.377 m -228.97,5.334 c 0,2.2 0.023,3.077 0.052,1.948 0.029,-1.128 0.029,-2.928 0,-4 -0.029,-1.071 -0.053,-0.148 -0.052,2.052 m 82.221,0.034 c 0.208,0.04 0.508,0.039 0.667,-0.003 0.159,-0.042 -0.01,-0.074 -0.377,-0.073 -0.367,0.002 -0.497,0.036 -0.29,0.076 M 216.879,96 c 0,0.412 0.032,0.581 0.072,0.375 0.04,-0.206 0.04,-0.544 0,-0.75 -0.04,-0.206 -0.072,-0.038 -0.072,0.375 m 134.076,2.287 c 0.295,0.037 0.82,0.037 1.166,10e-4 0.346,-0.036 0.104,-0.066 -0.538,-0.067 -0.641,0 -0.924,0.029 -0.628,0.066 m -215.495,2.164 c 0.208,0.04 0.508,0.039 0.667,-0.003 0.159,-0.042 -0.01,-0.074 -0.377,-0.073 -0.367,0.002 -0.497,0.036 -0.29,0.076 m -88.477,0.599 c 0.074,0.074 0.614,0.11 1.201,0.082 l 1.066,-0.052 -1.201,-0.082 c -0.66,-0.045 -1.14,-0.021 -1.066,0.052 m 158.35,0.335 c 0,0.029 0.244,0.273 0.542,0.542 l 0.542,0.49 -0.49,-0.542 c -0.456,-0.505 -0.594,-0.618 -0.594,-0.49 m -53.42,15.198 c 0,7.7 0.02,10.826 0.045,6.946 0.025,-3.88 0.025,-10.18 0,-14 -0.025,-3.82 -0.045,-0.646 -0.045,7.054 M 24.077,114.25 c 0,4.583 0.022,6.434 0.048,4.113 0.026,-2.321 0.026,-6.071 0,-8.333 -0.026,-2.262 -0.048,-0.363 -0.048,4.22 m 294.669,9.917 c 0,7.562 0.021,10.656 0.046,6.875 0.025,-3.782 0.025,-9.969 0,-13.75 -0.025,-3.782 -0.046,-0.688 -0.046,6.875 m -73.079,-2.282 c 0,0.029 0.243,0.273 0.541,0.542 l 0.542,0.49 -0.49,-0.542 c -0.456,-0.505 -0.593,-0.618 -0.593,-0.49 m 25.239,3.323 -0.489,0.542 0.541,-0.49 c 0.505,-0.456 0.619,-0.593 0.49,-0.593 -0.029,0 -0.273,0.243 -0.542,0.541 m 76.761,0.542 c 0.311,0.321 0.603,0.583 0.648,0.583 0.046,0 -0.171,-0.262 -0.482,-0.583 -0.311,-0.321 -0.603,-0.583 -0.648,-0.583 -0.046,0 0.171,0.262 0.482,0.583 m -311.952,0.707 c 0.623,0.032 1.598,0.032 2.167,0 0.569,-0.033 0.06,-0.059 -1.132,-0.059 -1.192,0 -1.657,0.027 -1.035,0.059 m 18.993,0 c 0.711,0.031 1.873,0.031 2.584,0 0.71,-0.031 0.129,-0.057 -1.292,-0.057 -1.421,0 -2.002,0.026 -1.292,0.057 m 13,0.001 c 1.077,0.029 2.84,0.029 3.917,0 1.077,-0.029 0.196,-0.053 -1.958,-0.053 -2.155,0 -3.036,0.024 -1.959,0.053 m 9.084,0 c 1.214,0.028 3.202,0.028 4.416,0 1.215,-0.029 0.221,-0.052 -2.208,-0.052 -2.429,0 -3.423,0.023 -2.208,0.052 m 8.333,-0.002 c 0.481,0.034 1.269,0.034 1.75,0 0.481,-0.033 0.087,-0.061 -0.875,-0.061 -0.963,0 -1.356,0.028 -0.875,0.061 m 5.583,0 c 0.527,0.034 1.39,0.034 1.917,0 0.527,-0.033 0.096,-0.06 -0.958,-0.06 -1.055,0 -1.486,0.027 -0.959,0.06 m 4.709,-0.017 c 1.178,0.123 2.713,0.135 2.641,0.019 -0.043,-0.068 -0.767,-0.113 -1.61,-0.098 -0.842,0.015 -1.306,0.05 -1.031,0.079 m 18.541,0.018 c 0.573,0.032 1.511,0.032 2.084,0 0.573,-0.033 0.104,-0.059 -1.042,-0.059 -1.146,0 -1.615,0.026 -1.042,0.059 m 6.785,0.085 c -0.044,0.114 -0.06,3.358 -0.035,7.208 l 0.046,7 0.04,-7.119 0.039,-7.118 1.542,-0.055 1.542,-0.055 -1.547,-0.035 c -1.111,-0.025 -1.57,0.024 -1.627,0.174 m 229.25,1.666 c 0.409,0.436 0.765,0.792 0.792,0.792 0.125,0 -0.007,-0.15 -0.743,-0.84 l -0.792,-0.743 0.743,0.791 m -300.594,1.709 c 0,1.283 0.027,1.786 0.058,1.117 0.032,-0.668 0.032,-1.718 0,-2.333 -0.032,-0.615 -0.058,-0.068 -0.058,1.216 m -6.86,-1.584 c 0,0.321 0.034,0.452 0.076,0.292 0.042,-0.16 0.042,-0.423 0,-0.583 -0.042,-0.161 -0.076,-0.03 -0.076,0.291 m 8.369,5.25 c 0,3.209 0.023,4.498 0.05,2.865 0.027,-1.633 0.027,-4.258 0,-5.834 -0.027,-1.575 -0.05,-0.239 -0.05,2.969 m 29.833,1.334 c 0.001,3.116 0.023,4.368 0.05,2.781 0.028,-1.587 0.028,-4.137 0,-5.667 -0.027,-1.53 -0.05,-0.231 -0.05,2.886 m -36.112,-2.295 c 0.392,0.035 0.992,0.035 1.334,-0.001 0.341,-0.036 0.02,-0.064 -0.713,-0.064 -0.733,0.001 -1.013,0.03 -0.621,0.065 m 11.413,0.002 c 0.618,0.032 1.631,0.032 2.25,0 0.618,-0.032 0.112,-0.059 -1.125,-0.059 -1.238,0 -1.744,0.027 -1.125,0.059 m 287.583,0.001 c 1.123,0.028 2.96,0.028 4.083,0 1.123,-0.029 0.204,-0.053 -2.041,-0.053 -2.246,0 -3.165,0.024 -2.042,0.053 m -294.223,3.792 c -10e-4,1.558 0.024,2.218 0.055,1.466 0.031,-0.752 0.031,-2.027 10e-4,-2.833 -0.031,-0.807 -0.056,-0.192 -0.056,1.367 m 49.168,0.75 c 0,1.879 0.025,2.648 0.054,1.708 0.03,-0.94 0.03,-2.477 0,-3.417 -0.029,-0.939 -0.054,-0.171 -0.054,1.709 M 35.892,135.5 c 0,0.779 0.028,1.098 0.063,0.708 0.035,-0.389 0.035,-1.027 0,-1.416 -0.035,-0.39 -0.063,-0.071 -0.063,0.708 m 78.569,2.287 c 0.3,0.038 0.75,0.037 1,-0.001 0.251,-0.038 0.006,-0.069 -0.544,-0.068 -0.55,0.001 -0.755,0.032 -0.456,0.069 m -3.919,2.832 c 0.252,0.039 0.664,0.039 0.916,0 0.252,-0.038 0.046,-0.069 -0.458,-0.069 -0.504,0 -0.71,0.031 -0.458,0.069 m -43.966,9.798 c 0,3.85 0.022,5.401 0.049,3.447 0.027,-1.954 0.026,-5.104 0,-7 -0.027,-1.896 -0.049,-0.297 -0.049,3.553 M 94.039,144 c 0,0.321 0.034,0.452 0.076,0.292 0.042,-0.161 0.042,-0.423 0,-0.584 -0.042,-0.16 -0.076,-0.029 -0.076,0.292 m 134.701,1.042 -0.49,0.541 0.542,-0.489 c 0.505,-0.456 0.618,-0.594 0.489,-0.594 -0.029,0 -0.272,0.244 -0.541,0.542 m -204.501,7.375 c 0,2.291 0.023,3.252 0.052,2.134 0.029,-1.117 0.029,-2.992 0,-4.166 -0.028,-1.174 -0.052,-0.26 -0.052,2.032 m 8.489,-2.5 c 0,0.916 0.028,1.27 0.062,0.786 0.034,-0.485 0.033,-1.235 -10e-4,-1.667 -0.034,-0.432 -0.062,-0.036 -0.061,0.881 m 296.349,-0.709 -0.827,0.875 0.875,-0.827 c 0.481,-0.455 0.875,-0.848 0.875,-0.875 0,-0.124 -0.154,0.014 -0.923,0.827 m -265.51,2.709 c 10e-4,1.466 0.026,2.044 0.057,1.283 0.031,-0.76 0.031,-1.96 0,-2.666 -0.031,-0.706 -0.057,-0.084 -0.057,1.383 M 46.559,151.25 c 0,0.825 0.028,1.184 0.063,0.797 0.035,-0.387 0.035,-1.062 10e-4,-1.5 -0.035,-0.438 -0.063,-0.122 -0.064,0.703 m 44.774,-0.5 c 0,0.443 0.034,0.771 0.076,0.73 0.13,-0.13 0.164,-1.296 0.041,-1.419 -0.064,-0.064 -0.117,0.246 -0.117,0.689 m 60.572,4.667 c 0,2.2 0.024,3.077 0.053,1.948 0.029,-1.128 0.029,-2.928 0,-4 -0.029,-1.071 -0.053,-0.148 -0.053,2.052 m 108.216,-3.63 c 0.296,0.037 0.821,0.037 1.167,0.001 0.346,-0.036 0.104,-0.066 -0.538,-0.067 -0.642,0 -0.925,0.029 -0.629,0.066 m 40.004,0 c 0.298,0.037 0.785,0.037 1.083,0 0.298,-0.037 0.054,-0.067 -0.541,-0.067 -0.596,0 -0.84,0.03 -0.542,0.067 m -243.253,0.546 c 0,0.321 0.034,0.452 0.076,0.292 0.042,-0.16 0.042,-0.423 0,-0.583 -0.042,-0.161 -0.076,-0.03 -0.076,0.291 m 15.586,-0.379 c 0.298,0.037 0.786,0.037 1.084,0 0.298,-0.037 0.054,-0.067 -0.542,-0.067 -0.596,0 -0.84,0.03 -0.542,0.067 m -29.086,1.879 c 0,0.321 0.034,0.452 0.076,0.292 0.042,-0.16 0.042,-0.423 0,-0.583 -0.042,-0.161 -0.076,-0.03 -0.076,0.291 m 293.373,3.209 -0.995,1.041 1.042,-0.994 c 0.573,-0.548 1.041,-1.016 1.041,-1.042 0,-0.123 -0.164,0.027 -1.088,0.995 m -300.203,0.906 c 0.16,0.042 0.423,0.042 0.583,0 0.16,-0.042 0.029,-0.076 -0.292,-0.076 -0.321,0 -0.452,0.034 -0.291,0.076 m 21.166,2.005 c 0.252,0.038 0.665,0.038 0.917,0 0.252,-0.038 0.046,-0.07 -0.458,-0.07 -0.504,0 -0.711,0.032 -0.459,0.07 m 36,0 c 0.252,0.038 0.665,0.038 0.917,0 0.252,-0.038 0.046,-0.07 -0.458,-0.07 -0.505,0 -0.711,0.032 -0.459,0.07 m -50.461,7.297 0.003,7.167 1.667,0 1.666,0 0.007,-2.709 0.006,-2.708 -0.052,2.666 -0.052,2.667 -1.578,0 -1.577,0 -0.046,-7.125 -0.046,-7.125 0.002,7.167 m 41.829,0.083 c 0,3.988 0.022,5.619 0.049,3.625 0.026,-1.993 0.026,-5.256 0,-7.25 -0.027,-1.993 -0.049,-0.362 -0.049,3.625 m 3.314,-5.916 c 0.001,0.733 0.03,1.012 0.066,0.62 0.035,-0.392 0.034,-0.992 -0.002,-1.333 -0.035,-0.341 -0.064,-0.021 -0.064,0.713 m 16.402,-1.133 c 0.206,0.04 0.543,0.04 0.75,0 0.206,-0.039 0.037,-0.072 -0.375,-0.072 -0.413,0 -0.582,0.033 -0.375,0.072 m 38.081,6.768 -0.04,6.969 -1.734,-0.052 c -0.954,-0.029 -1.7,0.004 -1.657,0.073 0.14,0.225 3.393,0.147 3.482,-0.084 0.044,-0.115 0.059,-3.283 0.034,-7.041 l -0.045,-6.834 -0.04,6.969 m 183.037,-3.177 -0.827,0.875 0.875,-0.827 c 0.482,-0.455 0.875,-0.849 0.875,-0.875 0,-0.124 -0.154,0.014 -0.923,0.827 m -211.371,4.827 -0.039,5.619 -1.625,0.055 -1.625,0.054 1.63,0.035 c 2.004,0.043 1.801,0.728 1.745,-5.883 l -0.046,-5.499 -0.04,5.619 m 9.166,-5.035 c 0,0.32 0.035,0.452 0.077,0.291 0.041,-0.16 0.041,-0.423 0,-0.583 -0.042,-0.16 -0.077,-0.029 -0.077,0.292 m -43.322,0.666 c 0,0.504 0.032,0.711 0.07,0.459 0.038,-0.252 0.038,-0.665 0,-0.917 -0.038,-0.252 -0.07,-0.046 -0.07,0.458 m -33.831,0.25 c 10e-4,0.55 0.032,0.755 0.069,0.456 0.037,-0.3 0.036,-0.75 -0.002,-1 -0.038,-0.251 -0.068,-0.006 -0.067,0.544 M 32.72,165.5 c 0,0.596 0.03,0.84 0.067,0.542 0.037,-0.298 0.037,-0.786 0,-1.084 -0.037,-0.298 -0.067,-0.054 -0.067,0.542 m 50.667,0.833 c 0,0.596 0.03,0.84 0.067,0.542 0.037,-0.298 0.037,-0.785 0,-1.083 -0.037,-0.298 -0.067,-0.055 -0.067,0.541 m -26.659,1 c 0,0.963 0.028,1.357 0.062,0.875 0.033,-0.481 0.033,-1.268 0,-1.75 -0.034,-0.481 -0.062,-0.087 -0.062,0.875 m 3.605,-0.544 2.167,0.054 0,3.736 0,3.737 -0.834,0.065 -0.835,0.065 0.876,-0.015 0.876,-0.014 0,-3.834 0,-3.833 -2.208,-0.008 -2.209,-0.007 2.167,0.054 m 66.548,0.961 c 0.001,0.458 0.034,0.626 0.072,0.373 0.038,-0.254 0.037,-0.629 -0.002,-0.834 -0.04,-0.205 -0.071,0.003 -0.07,0.461 m -94.164,1.083 c 0,0.504 0.031,0.711 0.069,0.459 0.038,-0.252 0.038,-0.665 0,-0.917 -0.038,-0.252 -0.069,-0.046 -0.069,0.458 m 8.988,-0.166 c 0,0.32 0.035,0.452 0.077,0.291 0.041,-0.16 0.041,-0.423 0,-0.583 -0.042,-0.16 -0.077,-0.029 -0.077,0.292 m 63.128,-0.01 c 0,0.086 -0.281,0.186 -0.625,0.222 l -0.625,0.065 0.709,0.028 c 0.531,0.021 0.708,-0.035 0.708,-0.222 0,-0.138 -0.038,-0.25 -0.083,-0.25 -0.046,0 -0.084,0.07 -0.084,0.157 m -51.288,0.676 c 0,0.413 0.033,0.582 0.073,0.375 0.039,-0.206 0.039,-0.543 0,-0.75 -0.04,-0.206 -0.073,-0.037 -0.073,0.375 m 14.663,-0.385 c 0.161,0.042 0.423,0.042 0.584,0 0.16,-0.042 0.029,-0.076 -0.292,-0.076 -0.321,0 -0.452,0.034 -0.292,0.076 m 64.334,0.969 c 0.002,0.366 0.036,0.497 0.076,0.289 0.04,-0.207 0.038,-0.507 -0.003,-0.666 -0.042,-0.16 -0.075,0.01 -0.073,0.377 m -49.003,0.75 c 0,0.32 0.034,0.452 0.076,0.291 0.042,-0.16 0.042,-0.423 0,-0.583 -0.042,-0.16 -0.076,-0.029 -0.076,0.292 m 40.166,0 c 0,0.32 0.035,0.452 0.077,0.291 0.041,-0.16 0.041,-0.423 0,-0.583 -0.042,-0.16 -0.077,-0.029 -0.077,0.292 M 77.712,171.5 c 0,0.412 0.033,0.581 0.072,0.375 0.04,-0.206 0.04,-0.544 0,-0.75 -0.039,-0.206 -0.072,-0.037 -0.072,0.375 m 59.493,0 c 0,0.321 0.035,0.452 0.077,0.292 0.041,-0.161 0.041,-0.423 0,-0.584 -0.042,-0.16 -0.077,-0.029 -0.077,0.292 m -48.706,1.201 c -0.045,0.889 -0.023,1.557 0.05,1.485 0.072,-0.073 0.109,-0.801 0.082,-1.618 l -0.05,-1.485 -0.082,1.618 m 15.628,-1.083 c 0.207,0.04 0.507,0.038 0.667,-0.003 0.159,-0.042 -0.011,-0.075 -0.377,-0.073 -0.367,0.002 -0.497,0.036 -0.29,0.076 m 208.41,0.637 c 0.249,0.263 0.483,0.444 0.519,0.403 0.037,-0.041 -0.167,-0.256 -0.453,-0.477 l -0.52,-0.402 0.454,0.476 m -21.995,0.995 c 0.002,0.367 0.036,0.497 0.076,0.29 0.04,-0.208 0.038,-0.508 -0.003,-0.667 -0.042,-0.159 -0.075,0.01 -0.073,0.377 m -193.302,0.125 -0.49,0.542 0.542,-0.49 c 0.298,-0.269 0.541,-0.513 0.541,-0.542 0,-0.128 -0.137,-0.015 -0.593,0.49 m -27.031,0.792 c 0.055,0.201 0.408,0.252 1.805,0.26 l 1.736,0.01 -1.661,-0.059 c -1.049,-0.036 -1.714,-0.132 -1.804,-0.259 -0.103,-0.144 -0.124,-0.131 -0.076,0.048 m -18.749,0.284 c 0.208,0.04 0.508,0.039 0.667,-0.003 0.159,-0.042 -0.01,-0.074 -0.377,-0.073 -0.367,0.002 -0.497,0.036 -0.29,0.076 m 13.332,0.003 c 0.298,0.037 0.785,0.037 1.083,0 0.298,-0.037 0.054,-0.067 -0.542,-0.067 -0.596,0 -0.839,0.03 -0.541,0.067 m 10.666,0.002 c 0.482,0.034 1.269,0.034 1.75,0 0.482,-0.033 0.088,-0.061 -0.875,-0.061 -0.962,0 -1.356,0.028 -0.875,0.061 m 5.417,0 c 0.527,0.034 1.39,0.034 1.917,0 0.527,-0.033 0.095,-0.06 -0.959,-0.06 -1.054,0 -1.485,0.027 -0.958,0.06 m 4.833,-0.008 c 0.161,0.042 0.423,0.042 0.584,0 0.16,-0.042 0.029,-0.076 -0.292,-0.076 -0.321,0 -0.452,0.034 -0.292,0.076 m 13.834,0 c 0.16,0.042 0.423,0.042 0.583,0 0.16,-0.042 0.029,-0.076 -0.292,-0.076 -0.32,0 -0.452,0.034 -0.291,0.076 m 7.246,0.006 c 0.296,0.036 0.821,0.037 1.167,0.001 0.345,-0.036 0.103,-0.066 -0.538,-0.067 -0.642,-0.001 -0.925,0.029 -0.629,0.066 m 12.504,0.002 c 0.481,0.034 1.268,0.034 1.75,0 0.481,-0.033 0.087,-0.061 -0.875,-0.061 -0.963,0 -1.357,0.028 -0.875,0.061 m 8.169,-0.002 c 0.3,0.037 0.75,0.036 1,-0.002 0.251,-0.038 0.006,-0.068 -0.544,-0.067 -0.55,0.001 -0.755,0.032 -0.456,0.069 m 125.766,1.713 c 0,0.87 0.028,1.227 0.062,0.791 0.035,-0.435 0.035,-1.148 0,-1.583 -0.034,-0.435 -0.062,-0.079 -0.062,0.792 m 30.315,4.615 c 0.16,0.041 0.423,0.041 0.583,0 0.16,-0.042 0.029,-0.077 -0.292,-0.077 -0.321,0 -0.452,0.035 -0.291,0.077 m 3.33,0.551 c 0,0.321 0.034,0.452 0.076,0.292 0.042,-0.16 0.042,-0.423 0,-0.583 -0.042,-0.161 -0.076,-0.03 -0.076,0.291 m -236.077,4.121 c 0.299,0.037 0.749,0.036 1,-0.002 0.25,-0.038 0.005,-0.068 -0.545,-0.067 -0.55,0.001 -0.755,0.032 -0.455,0.069" id="path3"/>
  <path style="fill:#7c7c7c;fill-rule:evenodd;stroke:none" inkscape:connector-curvature="0" d="m 106.167,14.885 c 0,0.029 0.243,0.273 0.541,0.542 l 0.542,0.49 -0.49,-0.542 c -0.456,-0.505 -0.593,-0.618 -0.593,-0.49 m 170.568,13.282 c 0,1.512 0.025,2.131 0.056,1.375 0.031,-0.757 0.031,-1.994 0,-2.75 -0.031,-0.757 -0.056,-0.138 -0.056,1.375 m -17.852,3.5 c 0,0.504 0.032,0.71 0.07,0.458 0.038,-0.252 0.038,-0.665 0,-0.917 -0.038,-0.252 -0.07,-0.046 -0.07,0.459 m 30.997,-0.378 c 0.438,0.035 1.113,0.034 1.5,-0.001 0.387,-0.034 0.028,-0.063 -0.797,-0.062 -0.825,0 -1.141,0.029 -0.703,0.063 M 90.46,34.618 c 0.208,0.04 0.508,0.038 0.667,-0.003 0.159,-0.042 -0.01,-0.075 -0.377,-0.073 -0.367,0.002 -0.497,0.036 -0.29,0.076 m 44.122,20.132 0.001,12.833 1.417,0.01 1.417,0.01 -1.374,-0.058 -1.374,-0.058 -0.045,-12.785 -0.044,-12.785 0.002,12.833 m 16.96,-9.667 c 0.002,0.367 0.036,0.497 0.076,0.29 0.04,-0.207 0.038,-0.507 -0.003,-0.667 -0.042,-0.159 -0.075,0.011 -0.073,0.377 m -110.459,6.54 3.917,0.05 0,2.66 0,2.661 -3.958,0.049 -3.959,0.05 4,-0.005 4,-0.005 0,-2.75 0,-2.75 -3.958,-0.004 -3.959,-0.005 3.917,0.049 m 31.625,5.501 c 0.619,0.032 1.632,0.032 2.25,0 0.619,-0.032 0.113,-0.059 -1.125,-0.059 -1.237,0 -1.743,0.027 -1.125,0.059 m 34.426,0 c 0.944,0.03 2.444,0.03 3.333,0 0.889,-0.03 0.116,-0.054 -1.717,-0.054 -1.833,0 -2.561,0.025 -1.616,0.054 m -83.237,5.793 c 0,1.1 0.027,1.528 0.06,0.951 0.033,-0.576 0.032,-1.476 -0.001,-2 -0.033,-0.523 -0.059,-0.051 -0.059,1.049 m 98.645,0.031 c 0.16,0.042 0.423,0.042 0.583,0 0.16,-0.042 0.029,-0.076 -0.292,-0.076 -0.32,0 -0.452,0.034 -0.291,0.076 m -35.325,4.676 c 0.991,0.03 2.566,0.03 3.5,0 0.935,-0.029 0.125,-0.054 -1.8,-0.053 -1.925,0 -2.69,0.024 -1.7,0.053 m 29.165,0 c 0.622,0.032 1.597,0.032 2.167,-10e-4 0.569,-0.032 0.059,-0.059 -1.132,-0.058 -1.192,0 -1.658,0.027 -1.035,0.059 m 35.327,5.126 c 0.002,0.367 0.036,0.497 0.076,0.29 0.039,-0.208 0.038,-0.508 -0.004,-0.667 -0.042,-0.159 -0.074,0.01 -0.072,0.377 m 199.999,21.865 c 0.161,0.042 0.423,0.042 0.584,0 0.16,-0.042 0.029,-0.076 -0.292,-0.076 -0.321,0 -0.452,0.034 -0.292,0.076 M 211.221,96.75 c 0.001,0.642 0.031,0.884 0.067,0.538 0.036,-0.346 0.036,-0.871 -0.001,-1.167 -0.037,-0.296 -0.066,-0.013 -0.066,0.629 m 138.495,3.207 c 0.715,0.032 1.84,0.031 2.5,0 0.66,-0.032 0.076,-0.057 -1.299,-0.057 -1.375,0 -1.916,0.026 -1.201,0.057 m 5.19,0.095 c -0.046,0.12 -0.06,1.076 -0.031,2.125 l 0.054,1.906 0.035,-2.036 0.036,-2.037 2.125,-0.052 2.125,-0.052 -2.13,-0.036 c -1.63,-0.028 -2.15,0.015 -2.214,0.182 m -203.019,1.615 c 0,0.596 0.03,0.839 0.067,0.541 0.037,-0.298 0.037,-0.785 0,-1.083 -0.037,-0.298 -0.067,-0.054 -0.067,0.542 m -127.82,23.416 c 0.001,1.467 0.026,2.045 0.057,1.284 0.031,-0.761 0.031,-1.961 0,-2.667 -0.031,-0.706 -0.057,-0.083 -0.057,1.383 m 79.808,1.203 c 0.252,0.038 0.665,0.038 0.917,0 0.252,-0.038 0.045,-0.069 -0.459,-0.069 -0.504,0 -0.71,0.031 -0.458,0.069 m -8.961,7.256 0.003,7.041 1.792,0.009 1.792,0.009 -1.749,-0.056 -1.748,-0.056 -0.047,-6.995 -0.046,-6.994 0.003,7.042 m -25.842,-2.918 0.011,1.293 2,0.008 2,0.009 -1.951,-0.056 -1.952,-0.055 -0.059,-1.245 -0.06,-1.246 0.011,1.292 m 8.008,4.293 0.003,5.666 1.792,0.009 1.792,0.009 -1.748,-0.056 -1.748,-0.056 -0.047,-5.62 -0.048,-5.619 0.004,5.667 m 11.045,-2.963 c 0.298,0.037 0.785,0.037 1.083,0 0.298,-0.037 0.055,-0.067 -0.541,-0.067 -0.596,0 -0.84,0.03 -0.542,0.067 m -32.167,2.169 c 0.573,0.033 1.511,0.033 2.084,0 0.573,-0.032 0.104,-0.059 -1.042,-0.059 -1.146,0 -1.615,0.027 -1.042,0.059 m 13.101,2.127 c 0,0.825 0.028,1.184 0.063,0.797 0.035,-0.387 0.035,-1.062 0.001,-1.5 -0.035,-0.438 -0.063,-0.122 -0.064,0.703 m 249.662,2.667 c 10e-4,0.641 0.031,0.883 0.067,0.538 0.036,-0.346 0.036,-0.871 -0.001,-1.167 -0.037,-0.296 -0.066,-0.013 -0.066,0.629 m -263.763,1.707 c 0.848,0.03 2.236,0.03 3.084,0 0.848,-0.03 0.154,-0.055 -1.542,-0.055 -1.696,0 -2.39,0.025 -1.542,0.055 m 63.084,-0.005 c 0.252,0.039 0.664,0.039 0.916,0 0.252,-0.038 0.046,-0.069 -0.458,-0.069 -0.504,0 -0.71,0.031 -0.458,0.069 m 4.676,0.006 c 1.082,0.029 2.807,0.029 3.833,-0.001 1.026,-0.029 0.141,-0.053 -1.968,-0.053 -2.108,0.001 -2.948,0.024 -1.865,0.054 m -82.135,7.542 -1.333,0.105 1.282,0.031 c 0.71,0.017 1.328,-0.044 1.385,-0.136 0.056,-0.092 0.079,-0.153 0.051,-0.136 -0.028,0.016 -0.651,0.078 -1.385,0.136 m 22.956,0.666 c 0,0.321 0.034,0.452 0.076,0.292 0.042,-0.16 0.042,-0.423 0,-0.583 -0.042,-0.161 -0.076,-0.03 -0.076,0.291 m -17,0.5 c 0,0.321 0.034,0.452 0.076,0.292 0.042,-0.16 0.042,-0.423 0,-0.583 -0.042,-0.161 -0.076,-0.03 -0.076,0.291 m 58.525,5.834 c 0,1.146 0.027,1.614 0.059,1.041 0.033,-0.573 0.033,-1.51 0,-2.083 -0.032,-0.573 -0.059,-0.104 -0.059,1.042 m -80.855,1.916 c 0.002,0.367 0.036,0.497 0.076,0.29 0.039,-0.207 0.038,-0.507 -0.004,-0.667 -0.042,-0.159 -0.074,0.011 -0.072,0.377 m 64.183,7 c 0,0.825 0.028,1.184 0.063,0.797 0.035,-0.387 0.035,-1.062 0.001,-1.5 -0.034,-0.438 -0.063,-0.122 -0.064,0.703 m -55.678,3.167 c 0.002,0.458 0.034,0.626 0.072,0.373 0.039,-0.254 0.038,-0.629 -0.002,-0.834 -0.04,-0.205 -0.071,0.003 -0.07,0.461 m 44.831,1.917 c 0,0.412 0.033,0.581 0.073,0.375 0.039,-0.207 0.039,-0.544 0,-0.75 -0.04,-0.207 -0.073,-0.038 -0.073,0.375" id="path4"/>
</svg>