<?xml version="1.0" encoding="utf-8"?>
<!-- Generator: Adobe Illustrator 17.0.0, SVG Export Plug-In . SVG Version: 6.00 Build 0)  -->
<!DOCTYPE svg PUBLIC "-//W3C//DTD SVG 1.1//EN" "http://www.w3.org/Graphics/SVG/1.1/DTD/svg11.dtd">
<svg version="1.1" id="Layer_1" xmlns="http://www.w3.org/2000/svg" xmlns:xlink="http://www.w3.org/1999/xlink" x="0px" y="0px"
	 width="728.5px" height="515.91px" viewBox="0 0 728.5 515.91" enable-background="new 0 0 728.5 515.91" xml:space="preserve">
<path fill="none" stroke="#FFFFFF" stroke-width="3" d="M455.023,120.169c-4.624-0.005-8.805,1.873-11.893,6.636
	c-3.855,5.947-8.155,11.378-12.023,17.232c-8.471,12.819-17.584,24.72-26.991,36.265c-3.684,4.521-7.054,9.703-12.11,11.786
	c-5.547,2.286-9.389-1.347-9.394-8.999c-0.003-3.94,0.809-7.732,1.477-11.554c1.917-10.969,4.608-19.837,6.81-32.511
	c1.531-8.808,2.301-17.676,3.778-26.492c2.533-15.123,4.23-30.287,5.755-45.71c0.745-7.537,0.605-14.589-3.021-21.009
	c-1.952-3.457-4.189-4.531-7.358-3.59c-7.427,2.206-9.271,9.444-11.49,18.232c-3.371,13.353-5.694,26.191-7.845,40.097
	c-2.377,15.367-5.674,31.429-8.431,46.675c-0.97,5.364-3.006,10.367-5.608,14.797c-0.785,1.337-1.584,3.217-3.256,2.45
	c-1.42-0.651-2.016-2.339-2.243-4.184c-0.157-1.282-0.223-2.605-0.193-3.904c0.174-7.508,0.235-15.029,0.627-22.519
	c0.606-11.593-0.367-23.093-0.235-34.719c0.172-15.164,1.253-30.712,0.704-42.521c-0.475-10.217,0.532-14.109-1.095-27.32
	c-1.485-12.06-6.954-13.876-14.209-9.997c-4.963,2.653-7.08,7.413-7.934,14.043c-3.056,23.739-2.773,47.831-4.141,71.733
	c-1.038,18.146,0.075,36.537-0.96,54.792c-0.278,4.898-2.368,6.867-5.994,5.726c-1.628-0.513-2.875-1.763-4.026-3.304
	c-4.083-5.467-6.782-12.016-8.468-19.293c-2.093-9.036-3.321-18.561-6.218-27.105c-6.044-17.825-9.898-36.512-13.921-55.165
	c-1.728-8.011-4.865-14.004-11.098-16.946c-4.268-2.014-6.685-1.512-9.234,3.409c-3.893,7.516-4.339,15.782-2.885,24.4
	c3.007,17.824,8.069,34.892,10.562,52.955c2.41,17.468,7.852,33.997,10.078,51.592c0.22,1.74,0.922,2.804,2.143,3.629
	c5.425,3.663,10.999,6.338,17.17,7.057c6.121,0.713,12.513,0.165,18.275,3.216c12.801,6.777,25.905,11.403,39.702,12.469
	c1.676,0.129,3.53,0.621,4.208,3.255c0.703,2.731-0.783,4.302-2.042,5.786c-3.822,4.508-8.443,5.764-13.416,5.5
	c-5.656-0.3-11.317-1.283-16.972-0.103c-4.492,0.938-5.483,3.062-3.964,8.591c2.431,8.85,7.03,15.624,12.117,21.933
	c10.168,12.612,20.309,25.262,30.451,37.911c1.811,2.259,3.4,4.728,3.96,8.086c1.095,6.565-1.407,9.74-6.378,8.073
	c-1.349-0.452-2.484-1.393-3.506-2.608c-1.743-2.073-3.423-4.249-5.242-6.199c-8.045-8.626-16.106-17.227-24.223-25.734
	c-1.51-1.582-3.33-3.47-5.214-0.788c-1.986,2.827-0.015,4.813,1.183,6.708c3.404,5.385,7.089,10.472,10.341,16.008
	c6.127,10.428,12.513,20.624,17.798,31.871c1.825,3.883,1.19,8.689-1.396,10.924c-2.903,2.51-5.532,0.43-7.072-2.536
	c-7.663-14.748-18.237-26.154-26.238-40.506c-1.467-2.632-2.982-8.121-5.685-5.925c-2.425,1.97-0.208,7.004,0.842,10.276
	c4.14,12.908,8.649,25.596,14.24,37.55c0.913,1.951,1.777,3.932,1.904,6.292c0.151,2.812-0.626,5.214-2.276,6.881
	c-1.832,1.85-3.562,0.159-5.132-0.96c-1.661-1.184-2.808-3.228-3.62-5.45c-5.418-14.826-13.395-27.758-18.159-43.071
	c-0.51-1.638-1.321-3.14-2.115-4.587c-0.838-1.527-1.659-3.974-3.343-3.011c-1.753,1.003-0.8,3.414-0.498,5.232
	c1.983,11.957,4.832,23.583,7.82,35.146c0.755,2.92,1.018,5.677,0.014,8.54c-1.343,3.827-2.681,4.217-4.973,1.329
	c-2.36-2.973-4.091-6.505-5.244-10.546c-4.568-16.014-9.894-31.592-15.316-47.124c-4.085-11.7-10.77-21.545-13.709-34.047
	c-0.16-0.68-0.735-1.294-1.226-1.717c-9.582-8.259-17.556-18.995-25.782-29.335c-4.589-5.769-9.383-11.037-15.414-14.059
	c-5.419-2.716-10.906-3.686-16.688-2.692c-3.907,0.672-5.467,4.806-7.002,8.31c-0.799,1.824,1.602,4.37,2.783,6.368
	c2.288,3.868,4.903,7.36,7.768,10.476c3.564,3.876,6.527,8.492,9.111,13.45c2.179,4.18,4.574,8.083,6.972,12.025
	c8.599,14.137,16.62,28.783,22.54,45.288c3.394,9.461,7.354,18.466,13.01,26.003c5.044,6.721,9.763,13.886,14.948,20.404
	c16.713,21.012,25.256,48.013,29.761,76.776c3.384,21.607,3.259,44.146,5.773,66.12c0.668,5.836,0.557,6.099-3.525,6.111v0.985
	c30.26,0.005,60.52,0.01,90.779,0.014c0-0.034-0.005-0.065-0.005-0.099v-1.246c-1.218-0.612-1.785-1.944-2.053-4.501
	c-1.05-10.02-2.412-19.984-3.704-29.958c-3.583-27.658-7.021-55.348-9.431-83.234c-1.635-18.926-2.346-37.699,4.154-55.718
	c5.573-15.448,8.538-32.019,9.788-49.003c1.589-21.588,7.012-41.066,17.687-57.55c7.163-11.062,13.938-22.429,19.923-34.654
	c1.668-3.408,4.09-6.47,5.805-9.498c6.282-11.091,11.937-22.872,15.022-35.2C461.379,123.437,459.561,120.174,455.023,120.169z"/>
</svg>
