<svg xmlns="http://www.w3.org/2000/svg" version="1" viewBox="0 0 517 676"><style>.st0{display:none}.st1{display:inline}.st2{opacity:.5;fill:none;stroke:#727070;stroke-width:5;stroke-miterlimit:10;enable-background:new}.st3{fill:#eeeded}.st4{fill:#dadada}.st5{fill:#727070}.st6{fill:none}.st7{font-family:&apos;Muli&apos;}.st8{font-size:65.5955px}.st9{fill:none;stroke:#fff;stroke-miterlimit:10}.st10{fill:#f6f6f6}.st11,.st12{stroke:#727070;stroke-miterlimit:10}.st11{fill:#727070}.st12{opacity:.5;stroke-width:5;enable-background:new}.st12,.st13,.st14{display:inline;fill:none}.st14{fill:#727070}.st15,.st16,.st17{display:inline;fill:#f6f6f6}.st16,.st17{fill:#eeeded}.st17{fill:none;stroke:#fff;stroke-miterlimit:10}.st18{fill:#6b6c6a}.st19{fill:#807f80}.st20{fill:#fff}.st22,.st23{display:inline;fill:#9e9d9c}.st23{opacity:.5;fill:#eeeded;enable-background:new}.st25{fill:#f8f7f7}.st26{fill:#dedede}.st27{fill:#53b476}.st28{fill:#585857}.st29{fill:#020203}.st30{font-family:&apos;ArialMT&apos;}.st31{font-size:9.8393px}.st33{display:inline;opacity:.5;fill:#dadada;stroke:#807f80;stroke-width:5;stroke-miterlimit:10}</style><g id="ES" class="st0"><g id="Enviromental_Safeguarding" class="st1"><circle cx="257" cy="288" r="204" class="st2"/><path d="M444 127c-3-6 2-2-4-1l-94 19c-4-3-10-1-15 0l-8 4c-19-1-31 7-51 13l-39 12a164 164 0 0 0-54 39c-5 6-7 5-12 12-4 6-10 13-12 20l-1 1c-4 6-5 12-10 18-4 5-5 14-8 21s-7 17-6 24c0 8-4 9-4 17l3 44c0 7 6 14 13 13 4 0 7-1 9-3 1 5 4 9 9 10 28 5 54-7 76-24a712 712 0 0 0 120-109c15-18 29-38 43-57l1-2 4-4 3-7c4-4 2-14 11-17 6-1 5-13 10-17 0 0-1 0 0 0l2-2c2-1 1-5 3-6l7-8c6-4 6-4 4-10zm-104 48l-18 17c1-5-1-9-4-13l23-4h-1zM158 363l1-3v-10c4-2 7-6 7-12l3-20 6-18 5-4a454 454 0 0 1 91-84c-11 13-21 25-30 39-6 9-11 19-15 30l-25 21a110 110 0 0 0-37 55l-6 6z" class="st3"/><path d="M388 149h-2c-19 5-38 11-55 20-18 8-34 18-51 28-21 12-44 25-63 41a281 281 0 0 0-85 135c-2 6 9 21 16 24 18 8 8-16 13-26a326 326 0 0 1 73-90c41-36 68-72 123-108l17-10c5-3 13-8 14-14z" class="st4"/><path d="M389 195a406 406 0 0 0-73 68l-33 32a635 635 0 0 1-94 74c-7 3-13 5-21 4-6-1-19 14-19 21 0 8 16 9 23 9 18 0 34-4 49-13 14-9 27-14 40-25l42-36c11-11 24-30 36-42 13-13 27-35 37-52 3-6 47-61 13-40z" class="st4"/><path d="M129 508a308 308 0 0 1 107-229c2-2-1-5-3-3a312 312 0 0 0-108 232c0 3 4 3 4 0z" class="st5"/><path d="M132 508c2-6 1-12 2-18a328 328 0 0 1 39-135c1-2-2-5-4-2a337 337 0 0 0-39 134c-1 6 0 14-2 20-1 3 3 4 4 1z" class="st5"/><path d="M128 509c5 3 9-1 11-6l-1-10a112 112 0 0 1 4-63c1-3-3-4-4-1a121 121 0 0 0-4 66l1 5c0 2-1 8-5 6-3-1-5 2-2 3z" class="st5"/><path d="M136 508v-11c0-3-4-3-4 0v11c0 3 4 3 4 0z" class="st5"/><path d="M139 501c-1-18 0-36 1-54 0-2-4-2-4 0-1 18-2 36-1 54 0 3 4 3 4 0zM136 379c-16-57 1-120 42-162 39-40 95-57 149-67l117-21c3-1 2-5-1-4l-109 19c-28 6-57 12-84 23-25 10-50 24-70 43a175 175 0 0 0-48 170c0 3 4 2 4-1z" class="st5"/><path d="M178 404c49-9 93-38 127-73 38-38 66-84 94-129 16-25 32-51 51-74 1-3-2-5-4-3-32 42-58 89-88 133-28 42-61 82-103 110-24 16-50 27-78 32-3 1-2 5 1 4z" class="st5"/><path d="M442 129l5-1c3 1 4-3 1-4h-3l-3 1-2 2 2 2zM133 496s-1 0 0 0h-1c1 0 0 0 0 0s1 1 0 0c1 1 0 0 0 0l4-1-2-2c-1-1-3 0-3 1s0 2 2 3h-1c1 0 0-1 0 0v-1c0 1 0 0 0 0l3 2 1-3-1-2-3-1-2 3c1 1 2 2 3 1z" class="st5"/><path d="M125 509c4 2 8 3 11 0 4-2 5-7 4-11l-2-19 1-22c0-3-4-3-4 0-1 10-2 20 0 30l1 11v7c-2 2-5 3-8 1-2-2-4 1-3 3z" class="st5"/><path d="M129 507c-1-1 2-10 2-11 1-3-3-4-4-2l-2 11c-1 3 0 5 3 6 2 0 4-4 1-4z" class="st5"/><g><path d="M139 456l1-13c1-3-3-4-4-1l-1 14c0 2 4 2 4 0z" class="st5"/></g><path d="M-1 539h520v155H-1z" class="st6"/><text class="st5 st7 st8" transform="translate(0 587)">ENVIROMENTAL</text><text class="st5 st7 st8" transform="translate(2 661)">SAFEGUARDING</text></g></g><g id="RR" class="st0"><g id="Repairing_and_Recycling_2_" class="st1"><circle cx="257" cy="287" r="204" class="st2"/><path d="M246 432c-48-33-102-68-129-123-11-23-15-48-9-72 5-22 17-44 38-54 31-14 65 4 81 31 3 5 11 1 8-4a76 76 0 0 0-75-40c-27 4-46 24-56 49-9 23-10 50-3 73 9 32 30 59 53 81 27 26 58 46 88 67 5 3 9-5 4-8zM295 429c26-17 52-34 73-56 11-11 21-24 30-36 10-16 19-32 23-51 6-25 2-54-10-77-7-11-16-22-27-29-15-9-33-11-49-7-36 7-54 41-68 71-2 6 5 10 8 5 11-25 25-53 52-64 14-6 32-7 46 0 12 5 21 14 27 25 13 20 17 47 13 71-6 31-26 59-47 81-22 24-49 42-75 60-5 3 0 11 4 7z" class="st5"/><path d="M247 202l3 44-37-24M307 441l-44 8 20-39" class="st11"/><path d="M-1 538h520v145H-1z" class="st6"/><text class="st5 st7 st8" transform="translate(1 585)">REPAIRING AND</text><text class="st5 st7 st8" transform="translate(75 659)">RECYCLING</text></g></g><g id="GB" class="st0"><circle cx="258" cy="288" r="204" class="st12"/><path d="M1 539h517v106H1z" class="st13"/><text class="st14 st7 st8" transform="translate(47 587)">GIVING BACK</text><path d="M419 292l-2-5c-3-2-6-4-9-4h-15l-13 2-8 4c-2 3-7 0-5-4v-1l4-5c0-2 1-4 4-5v-1c1-5 5-8 6-13l4-13 8-24-2-3-1-1-5-1c-3-1-8 1-11 2h-3l-1 1-3 10-3 4-1 2v4c0 1-1 3-3 3s-4-2-4-3l1-4v-2-1l-2-6c1-4 3-7 3-11v-4-1l-2-1-2-1h-1l-6 1c0 2-1 4-3 5l-7 3-2 2 1 3v4l1 7-1 15c-1 8-13 4-12-3l1-13-1-7-1-4h-12c-4 2-3 10-3 14l-1 3 2 5c0 11-3 25-12 32-5 3-10 4-15 5l-1 1h-9l-6 2-10-1c-3 0-5-2-5-5-1-3 1-6 4-7 8-1 15-4 23-7l10-4 4-2a6 6 0 0 0 2-1l2-2 1-11 1-4-2-4v-1l-9-1h-1l-13 2-2 1-5 1-11 4c0 2-1 3-3 3l-8 4h-6c-7 3-15 4-23 5l-30 1a37 37 0 0 0-13 5l-10 7c-4 2-8 3-11 6-5 4-10 10-17 12l-35 29-18 14-9 7-6 2-3 2c-3 0-8 7-10 8-5 3-9 2-9 8-4 1-8 4-9 9-3 17-5 34 3 50 7 15 27 31 42 18 6-5 11-13 15-19l15-20 3-3 4-3 3-3c0-3 3-6 6-9a112 112 0 0 0 15-12c5-6 11-11 18-15 12-7 27-12 41-7l24 1a476 476 0 0 0 60-3l2-1 8-5c6-3 12-7 19-9l22-3 18-6 18-5 20-5c10-2 19-7 28-13v-1z" class="st15"/><path d="M415 294c-18-1-38-2-55-1 5-7 7-15 11-23 7-11 10-20 15-34 2-5-3-14-3-9 0 12-12 32-17 41-6 10-12 19-19 27l-7 1 2-3c8-10 11-29 13-42 1-6-2-14-5 4-1 11-8 21-13 30-5 7-10 11-18 12l2-3c6-12 18-46 10-39-10 9-5-37-8-25l-7 39c-2 9-8 19-15 26l-17 17c-9 9-21 13-33 14-13 2-26-2-38-5-14-3-28-4-43 0-26 7-47 27-66 45-14 13-26 26-38 40v1l-1 2v12l1 4 1 2 1 2h1l1 1c12-16 27-33 41-46 9-10 19-19 29-27 9-8 19-14 30-18s26-4 38-2c14 3 44 5 58 2 25-4 22-8 46-16 30-11 23-8 54-15 12-3 62-14 49-14z" class="st16"/><path d="M288 242c-6-1-10 3-14 6-4 4-9 7-15 9-5 2-11 3-15 6-4 4-5 9-3 13 2 3 7 4 8 3v-4l3-1h3l2-3c9-2 15-6 24-10 4-3 13-4 15-9s-4-9-8-10z" class="st16"/><g class="st1"><path d="M356 211l-1 22-1 11-1 11-8 21-8 18c-1 3 3 4 4 1l9-21c3-6 6-13 7-19l1-10 1-10 1-24c0-2-4-2-4 0zM309 256v-9-9c0-6 2-15 10-13 4 0 4 4 4 7v11l1 8 1 5c1 3 0 5-2 8-1 2 3 4 4 2l1-3c1-2-1-3-2-3l-3 4c-1 3 3 4 4 1l7-12c3-4 4-7 4-12-1-9-1-21 8-27 2-1 0-5-3-3-7 5-9 14-10 23l1 8c0 4-1 6-3 9l-8 13 4 1 1-1h-1l-3-2-1 2 4 2c1-4 3-7 2-11l-2-18c0-6 1-15-7-16-7-1-13 3-15 10v26c1 3 5 2 4-1z" class="st5"/><path d="M35 363l10-6 10-9 21-14c14-9 27-20 41-30l39-30c7-5 13-10 21-13s16-4 25-4c8 0 16 1 23-1 9-1 17-3 25-6l21-9 11-3c4 0 10 0 13 3 6 6-4 14-9 17l-18 7-15 7c-3 1-7 4-6 8 1 3 6 4 8 5l12 3c7 0 15-1 21-3s11-6 15-11c1-2 1-5 3-7 1-4 3-6 3-10 0-3-4-3-4 0s-2 6-4 9l-2 6c-3 5-8 7-13 9-12 4-24 3-36-3l1 2c0-4 6-6 9-7l15-6c9-3 19-7 24-15 3-4 3-8 0-12-2-4-7-5-12-6-12-1-23 5-34 10-12 6-27 9-41 9h-21c-6 0-12 3-18 5-12 5-22 14-32 22l-32 25-38 28-19 13-10 7-9 6c-2 2 0 5 2 4z" class="st5"/><path d="M392 220l-7 20-6 18c-2 6-7 12-10 19l-11 18c-2 3-4 5-8 7l-9 5-20 11-20 10c-6 3-13 8-21 9-28 6-57 2-85 2a74 74 0 0 0-49 18l-8 6-6 5c-23 22-42 46-62 71-1 2 2 5 3 3 18-22 35-44 55-64l7-7 7-5 15-13c12-7 24-10 38-10 28 0 57 4 85-2 7-1 13-4 19-7l20-10 19-11 9-5c4-2 8-3 11-6l5-8a277 277 0 0 0 18-31l7-19 8-23c1-2-3-3-4-1z" class="st5"/><path d="M354 260c3 0 3-4 0-4-2 0-2 4 0 4zM363 293l23-5c7-2 13-3 20-2 3 0 6 1 8 3l3 7 1-3-24 10-1 1h-2l-8 2-59 14-17 5c-3 0-2 4 1 4l45-11 29-7 13-4 25-10 1-2c-2-6-4-10-10-12-7-2-15-1-21 0l-28 6c-2 0-1 4 1 4zM323 264l-11 29c-1 2 3 4 4 1l11-29c1-2-3-3-4-1z" class="st5"/></g><g class="st1"><path d="M346 214c2-1 8-2 11-1s5-2 2-3c-4-2-11-2-16 1-2 1 0 4 3 3z" class="st5"/></g><g class="st1"><path d="M356 258c2-9 8-18 13-27 2-4 3-8 7-9 5-2 11-2 16 0 2 1 4-2 2-3-8-4-22-3-26 5l-9 16-7 17c0 3 4 4 4 1z" class="st5"/></g><g class="st1"><path d="M288 235c0-1 0 0 0 0zM290 223v1-2zM293 213l-2 5v2l2-7zM295 208v0zM295 209c0 1 1-1 0 0zM296 204v1l1-1c0-2 0-1-1 0zM296 202v0zM296 204v-1 1c0-1 0 0 0 0zM296 205l-1 1c0 2 0 2 1-1zM292 212v0zM299 195h-1v1l1-1zM298 195v-2 2zM296 202l-1 2 1-3zM300 188v1-1zM301 184h1v-3l-1 3zM302 180v0zM299 191l1-2-1 1v1zM299 190v-1 1zM299 191zM297 198v-2 2zM298 191v2-2zM298 191h1zM301 183v-3l-1 3h1zM300 186zM303 171zM300 183v2a29 29 0 0 1 0-2zM302 177v0zM300 186zM300 186v-1 1zM301 168v4l2-1v-2l-1 2v-2-3 2h-1zM302 174v1l1-2v-2l-1 4v-1zM302 178l-1-1v3l1-2c0 1 0 1 0 0v-3 3zM296 194zM297 193v1h-1c0 1 0 2 1 1v-1l1-2-1 1zM299 186l1-3-1 1v2zM303 171h1l-1-2zM304 167v-1zM252 137zM257 136zM307 77v-3l-1 1 1 2zM264 89l1-1-1 1zM265 90v0zM232 114h-1 1zM308 130l1-3-1 3zM257 138h-1 1zM309 124v0zM224 171zM250 194zM306 152c0 1 0 1 0 0zM304 156zM307 116zM306 154v-1 1zM306 153v0zM306 151zM193 118c0 1 0 0 0 0zM293 64zM291 64h2l-1-1-1 1z" class="st18"/><path d="M245 126l1 1-2-1 3 3 2 3 1 1-1-1 1 2 2 2v1l1 3 1 12 3-13 4 9-8-8v-1 1l5 11-1-12v-3a15 15 0 0 1-1-2c0-1 0 0 0 0v-2 2l1-2v-1-3 2l1-5c0 1-1 5-2 2l1-2v-3-2l1-3v-1-4l1-3c0-2 0 0 0 0v-2-2l1-3a17 17 0 0 0 2-3c0-1 0 0 0 0l1-6 2-2c-2 2-1 0-1-2l-1 1 2-3v0c1-1 1 0 1 1h-1v1l1-1h1-1l3-3 1-5a38 38 0 0 1 3-5v1l-1 2-2 3h1l2-4 1-1 3-4-1 2 1-2 2-2h-1l2-1 1-1h-1l6-3 3-2v1l6-2v1l-1 1h-1 1a11 11 0 0 0 1 1h1v-1l1 1 1 2 1-1 1 1h-1l2 2v2l1 2v-1l1 3 2 4c0-1-1-1-1 1l3 6v4l-3-8v2l-1-2 1 5 1 4-1-6 1 2 1 5-1-1v4-2 8l3-1-1 6-1-1v7l1 4-1 9v3c-1 2 0-2-1 0l1 1v-2l1 2v6 9h-2l1-5v-1l-1 5-1 8v1-1c1-1 0 2 1 1l-1 6v-2 5-2 6l1-2c-1 2 1-5-1-3l2-5v-1 1-5c0-1 0 0 0 0v-2s1-3 1 0v-2l1-5v-1-4-6l1-5v-5-6l1-4v-6h-1a55 55 0 0 0 0-4v-2h-1v-8 2a12 12 0 0 0 0-3v-3l-1-6v-2l-1-3v-1l-1-1c1-1-1-2-1-4l-1-2-3-2h1l-3-2v-1h-3c-1-1-2-1 0-1h-3-1-1l-2 1 1-1-2 1-2 1h-1l-2 1-3 3-4 3-4 4v1l-1 2h-1c-1 2-3 3-3 6v-1l-1 1v3l-2 3c0 1-1 2 0 0l-2 3-1 3v2l-1 2-1 3v-1 2l-1 2-2 6h1v2l-1 4v-1l-2 6v3 8c0-1 0-1 0 0v6h4l-1-1v-1l-1-2-2-3v-2l-2-2-2-2-1-2v-1l-1-1-2-1v-1a17 17 0 0 0-2-2l-1-1c-1 0 0 0 0 0l-4-3-3-2-4-3h-1l-2-1-1-1h-2 1l-4-2-3-1a25 25 0 0 0-5-1h-4c4 1-1 0 1 1h-1l-1-1c-1 0-1 0 0 0 1-1-5-1-5-1h-6l-6 3-2 2-1 4v3l1 3v-1l1 2c0 1-1 1-1-1l1 3c1 4-1-1-1 0l1 2v-1l1 4v2l1 1v2-1c1 1 1 3 1 1l1 3 1 2 1 2 2 6 4 5 1 1c-2 0 1 4 2 6-1-2 3 5 2 2l1 2 2 2 2 3 2 3 3 3h1l1 3 2 1h1l1 2 1 1a249 249 0 0 0 5 4l1 1 4 2 3 3 1 1h1l1 1 3 2 2 1 2 1c-1-1-1 0 0 0h1l3 2 5 2-1-1c2 1-2-2-1-2l-4-2-4-2v-1l-3-1-3-2a109 109 0 0 1-5-4l-3-2h1l-2-1c-2-1 3 2 1 2l-1-2-1-1-1-1-4-4h-1v-1h-1l-1-2 1 1-4-4 2 2-3-3-2-2-1-1v-1l-6-6-2-3-2-3-1-3v-1l-3-3v-1l-2-3c1 2 0-1 1 0l-2-5-1-3c-2-2 1 4 0 3l-2-3-1-6 1 1-2-5-1-2 1 3v-1l-1-1-1-4 1 2-1-3 2 6v-3l-1-3-1-3h1l-1-1 1 1v-2l1-2-1 1h-1l1-2h3l2-1h-2 3c4-1 0 0 1-1h8-1 2l-1 1h5 2l2 1-2-1-1 1 4 1-1-1 4 1h-1l3 1h-2 1l2 1 1 1 3 1 4 2 1 1 2 2 4 2v2c2 1-1-2 2 0l1 2 4 4-1-1zm11 1l1 2-1-2zm11-42l-1 2 1-2zm40 59c0-1 0-1 0 0zm0 3v-2 2zm-115-21c1 1 1 1 0 0zM265 90zM232 114zM305 106l1-1-1 1zM305 160v-1 1zM300 174v0zM304 162l-1 2 1-2zM303 164v0z" class="st18"/><path d="M306 150l1 1s0-4-1-1zM302 163l1-1v-1zM304 153v0zM304 156v0zM303 160v-2zM307 133v-2l-1 1c0 1 0 2 1 1zM305 139v-1 1zM305 133s0-3 0 0c0 0 0 2 0 0zM307 103h1zM302 76l1 2v-1c0-1 0-2-1-1zM303 77zM255 197l1 1-1-1zM258 198h0zM258 123l-1 1 1-1zM251 136v-1zM241 123l1 1-1-1z" class="st18"/></g></g><g id="FC" class="st0"><g id="Fostering_Craftmanship_2_" class="st1"><circle cx="258" cy="286" r="204" class="st2"/><path d="M1 537h519v144H1z" class="st6"/><text class="st5 st7 st8" transform="translate(78 585)">FOSTERING</text><text class="st5 st7 st8" transform="translate(5 659)">CRAFTMANSHIP</text><path d="M299 163c-5 2-8 6-10 11-5 8-8 16-11 25a61 61 0 0 0-4 12 720 720 0 0 0-14 41l-9 29c-1-1-3 0-4 1l-5 23-12 36-5 14c-3 6-5 12-6 19v2l-4 8c-2 3 2 6 4 3 8-15 14-31 19-47a324 324 0 0 0 22-52c1-2-1-3-2-3a6064 6064 0 0 0 4-14l1-1 2-1 10-26v-1l4-6v-2l4-5c1-1 0-3-1-3v-3l-4-1v-1c1-11 5-21 10-31l5-12v-1l9-9c2-2 0-5-3-5z" class="st10"/><path d="M204 422l-21 77c5-21 22-41 33-79 6-21 15-41 23-61l51-126c1-2 17-63 16-67 0-7-7-10-7-3 1 21-10 42-17 61l-26 63" class="st3"/><path d="M306 156c-10 2-16 10-20 19l-14 34-25 73a2985 2985 0 0 0-72 237c-1 3 3 4 4 2a6250 6250 0 0 1 90-293l16-39c4-12 9-27 23-29 2-1 1-5-2-4z" class="st5"/><path d="M305 158c2 11-2 23-5 33l-12 34a5150 5150 0 0 1-81 212l-32 82c-1 3 3 4 4 1 38-96 76-192 111-290l14-40c3-10 7-22 5-33 0-2-4-1-4 1z" class="st5"/><path d="M298 167a212 212 0 0 0-20 44c-1 3-3 8 0 12 7 9 13-14 15-17 4-12 9-25 8-37 0-3-4-3-4 0 1 10-2 20-6 29l-5 14-3 7c-2 3-2 0-2-3l8-23c3-8 6-16 12-23 1-2-2-5-3-3z" class="st5"/><path d="M267 493l-1 1c2 0 1-1 1-1zM289 489l3-1zM310 484l-5 1-6 2h-1l-1 1a511 511 0 0 1 7-2l6-2zM321 481l-3 1h1l2-1zM319 482c-2 1 1 0 0 0zM329 478l-3 1h2l1-1zM331 476l-1 1 1-1z" class="st19"/><path d="M327 479l3-2-2 1-1 1zM325 479c-2 1-4 2-1 0a3052 3052 0 0 1 1 0zM311 483l-2 1h-2l4-1zM345 469h-1l-2 2 3-2zM344 469l2-2-2 2zM331 476l-2 1-3 1 3-1 3-2-1 1zM355 462l-1 1 2-2zM361 456h1l4-4-2 2-3 2zM368 449zM351 464l2-1h-1l-1 1zM352 463l2-1-2 1zM351 464zM339 472c1-1 5-4 1-2l-1 2zM349 465l-1 1-2 1s1 0 0 0l2-1 1-1zM350 464l-1 1 1-1zM363 453l4-3-5 4 1-1zM358 458zM378 435zM362 454l-2 2a159 159 0 0 1 2-2zM371 445l-2 2 2-2zM359 458h-1 1zM359 458l1-2-2 2h1zM379 429l-4 7v1l3-2 1-3-3 4 4-5c-2 1 2-5 1-5l-2 4v-1zM374 441l-1 1 3-4 2-3-4 6zM369 447c1-1 3-4 1-3l-3 5 2-2-1 1-1 2 1-2 1-1c1-2 0 0 0 0l2-2 1-2 1-1-4 5zM343 468c0-1 0-1 0 0 0-1 0-1 0 0zM345 466l-2 2c-1 0 0 0 0 0-1 0-3 2 0 0l4-2 1-1h-1l-2 1zM358 457l4-4-2 2-2 2zM378 435v1l2-3zM382 429h1v-2zM354 51h-2 2zM364 55zM419 257v-5 5zM409 137v0zM407 136l-1-4 1 4zM294 65l-2 1 2-1zM408 359l1-5-1 5zM359 49h-1 1zM410 349v1a64 64 0 0 1 0-1zM214 211zM280 198zM395 403c0 1 0 0 0 0zM391 409v-1 1zM411 333c0 1 0 1 0 0zM394 405l1-2-1 2zM395 404l-1 2 1-2zM396 401l-1 2s0-1 0 0l1-2zM207 127h0zM415 217v0zM415 212v5l1-1-1-4z" class="st19"/><path d="M327 52l4-1-5 2h1l7-2 7-1h3-2 10l2 1h1v1h3c2 1 1 1 0 0l3 2 2 1h1l2 1 2 1c2 2 0 0 0 0l2 1 1 2c1 0 0 0 0 0l-2-1-2-2 2 2 1 1 3 2 3 3-2-1-1-1 1 1 2 2 3 4-2-3v-1l2 2 2 2v2l1 1 1 2 3 3 1 4 1 1 1 2 3 6 2 3 1 4v1l2 2-1 1 3 3 1 5 2 7c1 2 0 0 0 0l4 11v4c0-3 1 1 3 5l-1-3 2 6-1-1 1 1c0 2-1 1-1 0v-2l-2-3 1 2h-1l1 2v1l1 4v4l2 8 3 11c-1-2-1 0-2 0v-5l-1-7c0 3 0 2-1 2l1 4 1 4v4l1 3 1 6-1-4 1 10v-2 7-1l1 6a299 299 0 0 0 0 14l3 12c-1-1-2 3-3-2v7l1-2-1 8 1 3-1-1 1 7c0-2 0 0-1 1v7l1-2c-1 7 1 7 1 14-1-1-2-2-2 1l2 14v7a154 154 0 0 1-2-17v5c-1 1-1-2-1-3v6c1-1 1 1 1 3v9c0 2-1-1-1-1v7-3l-1 11-1 5c1-3 3-3 4-1l-2 10c-1 2-1-4-2-2v6l-1 8 1 2c1 2 0 4-1 5v1l-2 9-1 9-1 2-1 4v-2l-1 3v5l1-4 1-5v3l-1 9c-2 5-1 2-2 3l-1 9-3 8c-1 3 0 0-1 1a65 65 0 0 1 3-10l-1 4a52 52 0 0 1 0-2l-2 6-2 8-3 6v3-3 2c0 1 0 2 0 0l-1 5-3 6-1 1-2 5 2-3-2 5-3 6 2-4 2-3 1-3 5-8v-2-1l-1 2 3-9 1-1v-2c1 0 3-5 1-1l2-4 3-8 1-4 1-6 2-6 1-5 1-6 1-5 2-9v-1l1-5 1-5 1-9 1-10v-1a178 178 0 0 0 1-11h-1l2-16-1 3c2-7 1-16 1-22a23 23 0 0 1 1-5v-2-4c0-2 0-2-1-1v-2l1-7-1-11s0-1 0 0v-7-4-1l-1-12 1 1-1-7a58 58 0 0 0 0-10v-5l-1-5v-5l-1-9-1-6c0-1 0-3 1-1l-1-7-2-6c1-1 1 1 1 1v-3 2c-1-6-2-7-3-7l-1-7v-1l1 2a129 129 0 0 0-5-16l-1-5-2-5 1 1-2-2-1-5-2-6-1-1-1-4h-1c-1 0-2-7-5-11l1 1c-2-2-3-7-4-9l1 1-2-3-2-2-1-2-5-5-2-2-1-1-4-3c1 1 2 1 0 0l-3-2-3-2-7-3-1-1h-2l-3-1h-6-10l-8 1-9 2h1l-6 2-4 2c-1 0 0 0 0 0a85 85 0 0 0-15 7l-19 9h1l-13 7-8 7-5 3c6-4-1 2 2 0l-4 2h1c0-2-8 5-8 5a503 503 0 0 0-35 29l1-1-3 4c-1 0-2 1 1-2l-4 5c-5 5 1-3 0-1l-2 2v-1l-4 6-2 2-1 1-4 5 1-2c-1 2-3 5-1 3-2 1-5 6-8 11l-4 7-2 5-3 12 1-1v4h-1v3l1 8 2 4 2 3v-1l1 2v1c3 4 7 7 11 9l15 4s-1-1 1-1l6 1h5s-1 0 0 0a350 350 0 0 0 45-10l15-5c-3 1-1 0 1-1-1 1 0 0 0 0l8-3 9-4-3 1c4-2-5 0-4-1-4 3-11 4-16 7-2 0 1-1 0-1l-7 3-6 2-6 2-13 3-4 1h5-4l-3 1h-4a74 74 0 0 1-9 1l-3 1h-6 3l-6-1h-4l3 1-16-4c-5-2-9-6-12-10v1l-2-4v-1l-1-1v-1-2l-1-2v-2-6-1-1l1-4v-1l1-4v-1l1-2v-2l1-2c-1 3 2-2 0 1l5-9 5-5c0-2-1-1-2 1l-2 3v-2l3-4 8-9v2l5-7 3-4-4 5 3-4 6-6-2 3 3-4c1 1-1 2-3 4l-5 5 4-3 4-4 5-5 2-3-1 3 4-4 4-4-4 3c7-7 5-3 13-10-1 1-4 3-3 1l6-3c5-5-2 0 1-2l5-4 8-6-3 2 3-2v1a60 60 0 0 1 8-6l3-3 4-2-4 3-1 1 7-5-2 1 3-2 3-2v1l4-3-3 2 6-3 3-1 6-4a75 75 0 0 1 9-5l14-6 3-1c4-2-5 1 3-2l3-1c3-1 7-3 12-3l-4 1zm50 14l-1-1-1-1-1-1 3 3zm32 79v-3a27 27 0 0 1 0 3zm-8 242v-1 1zm-2 4v1l1-3-1 2zM193 137l1-1-1 1zM407 136v-1 1zM294 65zM412 313z" class="st19"/><path d="M389 417l1-3-1 3s1-1 0 0zM372 440l-1 2 1-2zM387 419l-3 4 3-4zM384 424l-1 2v-1l1-1zM397 398v1c0 1 2-7 0-1zM385 420l1-1zM393 404l-2 3v1l2-4zM391 408zM387 416v-1l2-2zM405 366l1-4-1 2v2zM401 378v-2 2zM404 366s0-5-1 0c0 0 0 4 1 0zM414 307v1h1zM415 253v0zM415 256zM290 194l3-1-2 1zM296 191v1l2-2-2 1zM381 73h1l-2-2 1 2zM350 51h1l-2-1zM317 56a48 48 0 0 0 4-2l-4 2z" class="st19"/></g></g><g id="AW" class="st0"><path d="M2 540h518v153H2z" class="st13"/><text class="st14 st7 st8" transform="translate(132 588)">ANIMAL</text><text class="st14 st7 st8" transform="translate(110 661)">WELFARE</text><circle cx="258" cy="287" r="204" class="st12"/><path d="M424 50l-4-7c-3-5-5-14-10-17h-1l-1-1-3 1-8 3c-7 3-13 6-20 7l-3 3v3l-10 8c-2 2-4-1-4-3v-1l1-6-3-6c1-4 0-6-1-9v-4h-1l-1-1-5-5-6-3h-7c-3 0-5 2-7 3-7 3-12 7-18 11-18 14-41 33-41 57l-1 5c0 14-3 27-8 40-5 12-11 25-21 34-11 8-23 15-35 20-6 3-12 4-19 5l-17 4-3 1a130 130 0 0 0-16 6l-1 2-7 6-6 2-7 6-1 1c-4 6-9 11-11 17-2 3-4 4-6 4l-9 16a5251 5251 0 0 1-24 41l-6 9-3 2-4 6v1c1 6 3 12 6 17l7 19c2 6 3 11 6 16 5 10 14 16 24 22a69 69 0 0 0 37 11c4-2 9 0 11 4 6 7 9 17 13 25 2 9 4 18 8 26l14 20c4 5 9 11 10 17 239-31 209-281 209-281l-13 2c-3 3-7 3-12 3h-3l-2 1-20 1c-2 0-3-3-1-4l1-1c5-4 10-9 16-12l26-49c0-4 2-7 3-11l2-4v-2c-1-6 2-13 4-19 3-7 5-13 6-20 2-7 2-15 3-23l2-11v-3l1-4v-1z" class="st15"/><g class="st1"><path d="M88 378v0zM88 377h1-1zM89 377c0-1 0 0 0 0zM90 378c0-1 0-1 0 0zM90 378zM90 377l1 1-1-1zM90 377zM90 377zM90 377zM89 376s0 1 0 0zM91 377zM91 377v0zM90 376v1-1zM91 377h1l-1-1zM92 376v0zM92 376zM91 376zM91 376zM91 376zM90 376zM90 376zM90 376zM91 376zM91 376zM91 375zM91 376zM92 376h-1 1zM91 376zM91 376zM90 374l1 1-1-1h1-1zM91 375h0zM91 375h-1 1v1-1zM89 375zM89 375v1h1l-1-1zM90 375zM92 375zM92 375zM89 374zM89 374zM91 368v-1 1zM87 370h1-1zM89 371zM88 376zM92 372h1-1zM85 373zM93 372zM83 381h-1 1zM79 379zM92 374zM91 374zM91 371c-1 0-1 0 0 0zM92 374zM92 374zM92 374zM85 378zM89 370zM89 370v-1 1z" class="st20"/><path d="M88 375h1l-1-1h0v-1s1 0 0 0h2l-1-1-1-1h1l-2-1h1l1 1h-1 1l-1-1h1c-1 0 0 0 0 0v-1 1a4 4 0 0 1 0-2v2l1-1-1 1 1-1h1l-1 1h-1v1h-1l1-1-1 1 2-1-1 1c0-1 0-1 0 0 0 0 0-1 0 0 0 0-1 0 0 0l3-1-1 1h-2 1-1 1v1h-1 2l1 1h-1c-1 0 0 0 0 0v-1l-1 1h1v1s-1 0 0 0l1 1s-1 0 0 0l-1-1h1l-1-1 1 1v-1 1-1h1s-1 0 0 0h-1l1-1v-1-1h-1v-1l-1-1c0-1 0 0 0 0v-1l-1 1h-1v-1 1h-1-1l-1 1c1 0 0 0 0 0s-1 0 0 0h-1l2 1c-1 0-1 0 0 0h-1v1c1 0 0 0 0 0s1 0 0 0v1h0-1s1 0 0 0h1l-1 1h1-1v1l-1 1c1 0-1-1 0 0v1h1-1-1v1s0-1 0 0h-1 1-1v1h1l-1-1v1h-1c1 0 0 0 0 0v1-1s0 1 0 0v1h-1-1v1-1 1l1 2v-1l1 1v-1 1h1l-1-1h2c0 1 0 0 0 0v-1h1v-1 0h1-1v-1l1 1v-1s-1 0 0 0v1h1l-1-1h1s0 1 0 0h0v-1c1 0 0 0 0 0h1-1 1l-1-1 1 1v-1 0l1 1-1-1 1 1v-1-1h0zm1-2c-1 0 0 0 0 0zm-1-3zm4 3zm0 0zm-9 4zM89 371zM88 376zM89 371zM92 375v-1 1zM90 374zM91 374zM91 374z" class="st20"/><path d="M92 374c1 0 0-1 0 0zM90 374zM90 373s1 0 0 0zM90 373v0zM90 374v-1zM91 372zM90 372zM90 372h-1 1zM90 370v1l1-1zM89 370l-1 1s1-1 0 0l1-1zM89 370zM79 379zM79 379zM90 373h-1 1zM89 374zM89 376v-1 1z" class="st20"/></g><g class="st1"><path d="M189 419v-1 1zM188 418h-1zM187 417v1h1l-1-1zM188 416c-1 0-1 0 0 0zM188 416zM187 416h1-1zM187 416zM187 416zM187 416c0 1 0 0 0 0zM187 418h-1 1zM187 415h-1 1zM186 415c0 1 0 0 0 0zM186 416h1-1zM186 415l1-1-1 1zM186 414zM186 414zM186 415zM186 415zM186 415zM186 416zM186 416v-1 1zM186 416v-1zM186 414h-1v1l1-1zM186 415zM185 414zM185 415h1-1zM185 414zM186 415zM186 415zM183 415l2-1h-1v0l-1 1zM185 414z" class="st20"/><path d="M185 414l-1 1h1v-1zM185 417zM185 417v-1 0h1l-1 1zM185 415v0zM185 414v-1l-1 1zM184 413h1-1zM166 406zM166 406zM177 408v-1 1zM171 406v1a46 46 0 0 0 0-1zM170 408v-1 1zM163 405h-1 1zM182 411h-1 1zM167 402v0zM181 410v0zM152 402zM149 399v-1 1zM183 412zM183 414zM179 412zM183 412zM183 412h0zM183 412zM158 403v-1 1zM174 410zM173 410h1v-1l-1 1z" class="st20"/><path d="M164 405v2l1-1h1l1 1v-1 1h1l-1 1 1-1h2l-1 1 1-1 1-1h0v1c0 1 0 0 0 0v1l2-1-1 1h-1 1v1l1-1-1 1 1-1v1h1l-1 1 2-2-1 2 1-1-1 1 1-1-1 1h1v1-1h1v1l2-2-2 2-1 1h1l1-1-1 1 1-1-1 1h1s0-1 0 0c0 0 0 1 0 0l2-2v1l-1 1s0 1 0 0l2-1-1 1 1 1h-1 1l1-1c1 0 0 0 0 0h1v1h-1l1 1v-1h1v1c0-1 0 0 0 0h1v-1c0 1 0 0 0 0v-1s0 1 0 0l-1 1v-1 0s0-1 0 0h-1v-1h-1v-1l-1-1h-1-1 1l-1-1h-1s-1 0 0 0h-1v-1l-1 1 1-1h-1s-1 0 0 0l-2-1c0 1 0-1 0 0v-1l-1 1h-1l1-1h-2v-1 1l-1-1v-1c0-1 0 0 0 0h-1-1-1v-1h-1-1l-1-1h-2v0l-2-1h-1 1-1 1-2-1-1v-1l-1 1v-1h-1-1-1l-2-1v1h-1l1 2c0-1 0 1 0 0v1l1-1v1h1v-1l1 1 1 1-1-1h3v1l1-1 1 1v-1 1h1v-1 1h1-1 1l-1 1h1v-1 1h1v-1 1l1-1-1 1h1-1 1v0h1v1h2v1h1l-1-1zm3 1s0 1 0 0zm4 1zm12 5zm0 0zm-25-12zM170 408l1-1-1 1zM163 405zM177 412h1-1zM184 413zM183 415h0zM183 414c1 0 1 0 0 0zM183 414c1 0 1 0 0 0zM183 412c1 0 0 0 0 0zM183 415v-1 1zM182 414zM182 414h0zM182 415v-1zM181 412v0z" class="st20"/><path d="M181 414v-1l-1 1h1zM180 413v0zM178 411l1-1zM175 411zM175 411zM149 398h-1zM148 399v-1 1zM167 407zM165 406zM164 406z" class="st20"/></g><path fill="#878787" stroke="#9e9d9c" stroke-miterlimit="10" d="M220 245c-3-8-12-8-18-7a21 21 0 0 0-16 13l-1 2c-3 6-5 14 2 18 5 3 13 4 19 2 12-3 17-17 14-28z"/><path d="M233 229c0-7-3-13-9-18v-1-2c-1-4-3-8-7-9-3-2-5-2-9-1-5 1-11 2-16 5a22 22 0 0 0-4 3 35 35 0 0 0-24 12c-7 6-13 13-15 22-4 11-2 29 12 31 4 0 7-3 8-7a113 113 0 0 1 9-23c3-4 7-7 12-8 6-2 12-1 18-1l8-2v1c2 4 5 7 10 6 4 0 7-4 7-8zM218 272c-8 8-20 6-30 5-5 0-9 4-9 9s4 8 9 8c15 2 30 1 42-10 8-7-4-20-12-12zM138 358l-5-2-5-1-1-3c-2-4-6-6-10-7l-6 1v-9c-1-5-5-8-10-8v-1l2-8c2-4 0-7-2-8 3-7-4-16-12-11l-14 8c-4 5-5 13-2 19 1 3 5 5 8 5l3-1 1 8c2 4 5 7 9 8 0 4-1 8 1 11 3 4 7 6 11 5l6-1 1 1c1 3 3 5 5 6l8 2h3l1 1c9 5 18-10 8-15zm-37-24c1 1 0 1 0 0zM289 320c-7 10-15 19-24 26-10 7-21 11-33 15-11 4-6 20 4 17 14-5 27-9 39-18 11-9 21-19 28-31 6-9-9-18-14-9zM318 150c-5 0-8 4-8 9-1 7-2 16-10 20-5 3-5 10-1 14l1 1-4 5c-1 4 2 9 6 10 8 2 18 0 20-10 0-4-2-8-5-12 7-7 9-18 10-28 1-5-4-9-9-9zM385 121c12-20 27-43 23-67-2-7-6-11-13-11s-13 3-19 6c-9 6-13 17-21 24l-9 11c-4 7-2 12 1 19l-4 2c-7 3-7 10-5 17l1 5-1 1-3 3c-2 4-3 8-1 11l4 3-9 44c-1 4 1 9 6 11h3c3 5 10 6 15 0l6-9 2-4 1-3-2-7 9-25 16-31zm6-60v1h-2l2-1zM349 41c-1-7-7-13-14-13-8 0-14 6-18 11-10 12-17 25-24 38-8 15-18 32-19 49 0 8 13 13 16 5 9-20 27-33 39-51l1-4 13-15c5-6 8-12 6-20z" class="st16"/><path d="M208 448v1c1 0 2-1 0-1z" class="st22"/><path d="M324 339v-1c1-5 1-10-2-15-2-5-9-6-13-2l-25 24c-28 13-53 29-77 49l-7 1c-11 1-23-1-35-4-9-2-13 11-6 15v2l4 11v5a144 144 0 0 0 36 57c1 3 4 5 8 5h4c34-3 54-35 69-63l1-6a833 833 0 0 0 45-68c2-3 1-8-2-10zM401 221c-2-6-9-9-14-8l-5 2c-2-3-5-4-9-3l-2 1-8-1c-10 3-6 18 3 16v8l-1 1-6 3c-7 6-14 12-17 20l-7 22c0 3-2 5-3 7l-9 8c-6 10 3 22 14 18 5-2 7-6 10-10l8-12c11-15 20-31 31-45l10-12c4-5 7-9 5-15zm-16 2v1c-2-4 1-1 0-1z" class="st23"/><g class="st1"><path d="M210 260zM209 259h-1zM208 258c-1 0 0 0 0 0zM209 256v0zM209 256c0 1 0 0 0 0zM208 256zM208 256zM208 256zM208 256v0zM207 258zM208 255h-1 1zM207 255zM207 257l1-1h-1v1zM207 254zM206 254l1-1h-1v1zM206 254v-1 1zM207 255zM207 255zM207 255zM207 256h-1 1zM206 255l1 1v-1h-1zM206 255zM206 254zM206 255zM204 253zM206 254v0zM205 253v0zM206 254zM206 254v0zM203 255h1v-2 2l-1-1v1zM205 254l-1-1 1 1zM205 254v0h1-1zM206 257zM206 256v0zM206 255h-1 1zM204 253zM203 253zM213 254zM210 253zM205 265zM208 259zM207 259zM212 259h0zM200 259zM211 255zM200 260v-1 1zM200 263v-1 1zM203 258zM200 255zM201 255h1-1zM203 260zM200 255zM200 255zM200 255zM208 264zM207 261zM207 261v0z" class="st18"/><path d="M213 257h1c-1 0 0 0 0 0v-1h-1v-1-1s0-1 0 0l-1-1c-1 0 0 0 0 0h-1-1v1l-1-1v0l-1 1v-1h-1l2 1h-1v1l-1-1 1 1-1 1v1c1 0 0 0 0 0v1l-1-1 1 1v1h2-1-1v1l2 1h-2v-1 1h0l1 1-1-1 1 3-1-2v-1 0l-1 1v-1s0 2-1 1l1-1-1 1-1 1a14 14 0 0 0 2-2v-1l-1 1h1l-2 1 1-1v-1s-1 1 0 0l-2 2v-1l1-1c-1 0 0 0 0 0h-2v-1h1v-1s0 1 0 0h-1l1 1-2-1-1-1h1v0l1 1v-1-1h-1v-1h1v-1l1-1h-1l-1 1-1 1s0-1 0 0l1 1h-1s0 1 0 0v1h-1l1 1v3l1 1 1 1v-1l1 1c0 1 0 0 0 0l1 1h1v0l1 1 1-1h1v-1l1 1v-1l1-1v-2c-1 1 1 0 0 0v-1h1-2v-1-1h1-1l1-1 1 1v-1 0h1-1v-1h-1v1h-1l1 1h-1v1-1 1h-1v2h1-1l-2 2h1-1v0h-1l1 1h-1-1v-1 0h-1l1-1h-1v-1-1-1c0 1 0 0 0 0v-1 1h-2s-2 0-1 1v-1 3s0-1 0 0v2l1 1 1 1h2v1l1-1v1h2l-1-1s0-1 0 0h2v-1-1 2h1v-1l1-1h-1 2l-1-1c1 0 0 0 0 0v-1 1-1l1 1v-1-1s0 1 0 0v1h1-1v-1h1v-1l1-1-1-1h1s-1 0 0 0zm-4-3s-1 0 0 0zm-1 6v-1 1zm-8-3zm0-1v0zm6 6c0 1 0 0 0 0zM207 259zM212 259zM204 260zM201 253v0zM204 255zM202 254h1-1zM203 254zM200 256c-1 0 0 0 0 0zM203 255h-1 1zM202 256v-1 1zM202 255zM202 255zM202 258zM203 257h-1 1zM203 258zM203 261zM206 261c0-1 0 0 0 0zM206 261zM204 258zM203 257h1-1zM207 254h1-1zM214 254l-1 1 1-1zM214 258v-1 1z" class="st18"/></g><g class="st1"><path d="M213 260s0-1 0 0zM214 259zM215 259c0-1 0 0 0 0zM216 260zM216 260zM216 259v0zM216 259zM216 259zM216 259s0 1 0 0zM215 258zM217 259zM217 259h-1 1zM216 258v0zM217 259zM217 259h0zM218 258v0zM217 259zM217 259zM217 259zM216 259v-1 1zM216 258v1-1zM216 258zM217 258zM217 258zM217 258zM217 258zM218 258h-1 1zM217 258c0 1 0 0 0 0zM217 258zM215 256l1 1 1 1v-1h-1 1l-1-1v1l-1-1zM217 258h0zM217 258l-1-1 1 1zM215 257zM215 258s1 0 0 0v-1l1 1h-1zM216 258v-1 1zM218 258l-1-1zM218 257v1-1zM211 253zM211 253zM217 252zM214 252h-1 1zM213 253zM210 253zM218 255s-1 0 0 0zM213 250zM218 255zM211 248zM212 252zM218 256zM217 256h-1 1zM216 255zM218 256zM218 257zM218 256zM209 251zM213 254h1-1zM213 254c1 0 1 0 0 0h1-1z" class="st18"/><path d="M211 253l-1 1 1-1c0 1 0-1 0 0l1-1-1 1h0c0 1 1 0 0 0v1l1-1c-1 0 0 0 0 0l-1 1 1-1-1 1 1-1c0 1 0 0 0 0v1-1c1-1 0 1 0 0v1l1-1v-1h1l-1 1v-1 2-1 1l1-1-1 1c0-1 0 0 0 0v-1 1h0c1-1 1 0 0 0h0l2-1-2 1h1v1c0-1 0 0 0 0v-1h1l-1 1 2-2-2 2h-1 1l1-1-1 1s1 0 0 0l3-1h-1l-2 1h2s-1 0 0 0h-1c1 0 0 0 0 0h2s-1 0 0 0v1h-1 1v1-1 1s1 0 0 0h1-1 1v-1h-1 1-1 1v-1s-1 0 0 0v-1-1h-1c0 1 0 0 0 0 1-1-1 0 0 0v-1 1h-1l1-1-1 1v-1l-1 1h0l1-1-1 1 1-1h-1v-1c0 1 0 0 0 0l-1 1c0-1 0-1 0 0v-1c-1 1 0 0 0 0s-1 0 0 0h-1c0 1 1 0 0 0l1-1h-1 0s0-1 0 0h-1c1-1 0 1 0 0v-1 1h-1 1l-1-1s0-1 0 0l-1 1c1 0 0 0 0 0v-1-1 1h-1 0l1-1h-1v3c0 1 0 0 0 0h1v1c0-1 0 0 0 0v-1 1h1v-1l1 1v-1-2c0 1 0-1 0 0h-1v-1 1-1 0h-1v0l-1 1v-1 4s0-1 0 0v-1s0-1 0 0v1s0-1 0 0c0-1 0 0 0 0s0 1 0 0v0h1s0-1 0 0c0 0 0 1 0 0v1-1 1h1zm1 0h-1 1zm1 0zm5 3zm0 0zm-9-7zM213 253zM210 253zM214 255zM218 257zM216 257zM217 257zM217 257zM218 256c1 0 0 0 0 0zM216 256v1-1zM216 256zM216 256zM216 256zM216 255zM215 256zM215 256zM215 255l1-1zM213 255h0zM214 255zM212 252zM212 252zM211 254zM211 253zM210 254s0-1 0 0z" class="st18"/></g><g class="st1"><path d="M216 259l1 1-1-1zM216 255v-1 1zM212 254l1-1 1-1 2-1v1-2l-2 1-1 2-1 1zM212 258l-1-1 1 1zM211 257c0-1 1 1 0 0zM214 259h-1l1 1h1l-1-1zM215 259zM214 259h0zM213 259v-1l-1-1 1 2zM213 254v-1 1zM219 255h-1l1 1v-1zM218 255v-1 1zM216 259h-2 2zM218 252zM217 250c0 1 0 0 0 0l-1-1 1 1zM216 249zM218 253zM218 253zM218 253zM218 256h-1 1zM217 254l1 1s0-1 0 0l-1-1zM217 254zM216 250l-1-1 1 1s1 0 0 0zM217 252v-1 1zM213 247z" class="st18"/><path d="M216 251h1l-1-1v1zM215 248v0zM217 251zM217 251zM210 248h2l1-1h-1v1l-1-1h-1 1l-1 1zM214 248v-1h-1l1 1zM215 249h-1l1 1v-1c0-1 0 0 0 0l-1-1 1 1zM216 256h1-1zM217 255v-1 1zM216 252l-1-1v1h1zM213 246h-1 1zM211 245h1-1zM191 259zM193 262zM201 252l-1-1 1 1zM191 261h-1 1zM189 262zM191 259zM209 259h-1v1h1v-1zM195 259h-1 1zM208 260zM193 254zM206 255h-1 1zM208 251zM209 249zM208 263zM208 251zM208 251v-1 1zM208 251zM197 259zM201 257zM201 259v-2l-1 1 1 1z" class="st18"/><path d="M192 258h-1l-1 1h1v-1 0c-1 1 0 0 0 0v2l-1 1 1-1c1 0 1 0 0 0l-1 1 1-1 1 1 1 1 2-1-1 1h4l-1 1 2-1 2-1-2 1-1-1 2-1c1 0 0 0 0 0l1-1a2 2 0 0 0 0-1v-1-1c0-1 0 0 0 0v-1 1l-1-1-1-1h-3v-1l-1 1v1h-1l-1 1-2 2-1 1v1l-1 1h2v-1 2h-1v-1h-1l1 1h-1v2l2 1h3l-1 1h-1l-1-1v1h4l1-1-1 1 1-1 1-1v1l1-1 1-3v-2l1 1-1-2-1-1h3l-1-1v-1-1h-1 1l-2-1v-1 3h1l1-1h1l-1 1h2l2 1v1l-2-1-1-1v1h-1v1h1v-1l1 1v1h-1v0 4h1v-1l2-1v1l1 1h-1v1h1s1 1 0 0h1l1 1v-1h3l1-2s0-1 0 0v-1c0-1 0-1 0 0h1l-1-2v2l-1-2v-1l-1-3h1v2-1l1 1v-5h-1-1l-1-2h1v-1h-1l-1-1-2-3 5 1h1-1v-1l-3 3s0 2 1 1v2l1 2-1 1v2l1 1v4h-1v0h-1-1v-1l-1 1-1-1v0l1-1-1-3-1-2-1-1h-1 1-2v-1 1h-1l-1-1h-1v4h1v1h-1l1 1h-1l1 1v1l-1 2h-2c0 1 0 1 0 0l-1 1 1-2h-1-1 1v-1l-2 2v-1h1v-1-1h1l1-1h-1 1l1-1h1l1 1v1h-1c-1 0-1 0 0 0v1l-1-1v1h-1c1 0 1 0 0 0h-1c1-1 0 0 0 0v-1-1-1-1h4v3h-1-2l-1-1v-1h-1l-1-1h-1c0 1 0 0 0 0v1h1-1l1-1h-1v-1h1l1 1h1l2 1v1h-1s-1 0 0 0h-1v-1a3 3 0 0 1 0-1h1s0-1 0 0l1 1 2 2 2 1h1v1-2h-1-1v1-1h-2l-1-1v-1-1l1-1 1-1 1 1h1l1 1 4 1v-1h2l2-1h-1c1-1-1-1-1-2h-2l-1 1v-1l-2 1h1l-2-1-3-2h-1l1 1-1-1-1 1-2 2v1h-1 1l-1 1v-1l-1 2v1h1v-1 1a6 6 0 0 0 6 4h3l2-1-1-2h-1 1-2l1-1-2-1h-2l1-1-1-1-1-1h-1 1v1l-1-1 1 1v1l1 1-1 2v1h-1v-1h1v-2l-1 2h1v1h0v1l1-1 1-1v-1l1 1v-2-2 2h-1v-1-1-1l-2-1h1v1l-2-2h-1l1 1h-3-1l-1 1 1-1h-1l-1 1h-1v4h-1v-2-1 4h2-1 2l-1 1h1s1 0 0 0h1v-1l-1 1 1-1h-1 1c0-1 0-1 0 0zm6 3l-1 1 1-1zm-8 2v-1 1zm19-9zm0-1zm-15 3zM189 262v-1 1zM192 259h-1 1zM204 263zM207 248v0s0 1 0 0zM213 249s-1 0 0 0z" class="st18"/><path d="M208 247l-1-2 2 1h1v-1l-3-1 1 3zM210 246zM208 252s1 1 0 0zM209 247zM210 250v-1 1zM210 249h-1 1zM210 248zM210 258h0zM211 255v1h1l-1-1zM212 258s0 1 0 0c0 0 0-1 0 0zM203 261h0zM199 255h1-1zM200 255zM208 255h1-1zM209 254h1-1zM202 260h-1v1-1 1-1 1-1h1zM190 259h1-1zM190 259s1-1 0 0z" class="st18"/></g><g class="st1"><path d="M214 246zM214 247h-1zM213 247zM214 246zM214 246zM214 246v-1 1zM213 246zM213 246zM213 246zM213 247v1-1c0 1 0 0 0 0zM213 246h0zM213 246zM213 247v-1 1zM213 246zM213 246zM213 246zM213 246zM213 246zM213 246zM213 246v0zM213 246v0zM213 247v-1zM213 246zM213 246zM213 247zM213 246zM213 246zM213 246zM213 246zM211 247h1-1zM213 247zM213 246l-1 1 1-1v1-1zM212 248zM212 247v1l1-1h-1 0zM213 247h-1 1zM213 247zM213 247zM217 249zM217 249zM214 246zM216 246zM217 246zM215 251zM213 246h1-1zM215 247zM214 246zM210 247zM213 246zM214 246zM212 246zM212 245zM213 246h0zM214 246zM214 246zM212 250zM214 246zM214 246z" class="st25"/><path d="M216 250l1 1v-1-1-1 0h2-2c1 0 1 0 0 0h1v-1l1 1-1-1-1-1h1-1-2 1c1 0 0 0 0 0h1-1-1 1-1-1l-1-1 1 1-1-1 1 1-1-1v0h-1 1v1l-1-1 1 1h1-1 1-1l-1-1h-1c-1 0 0 0 0 0h-1l3 1-2-1a44 44 0 0 1 1 1v-1l-1 1v-1 1l-1-1 1 1h1c1 0 0 0 0 0h1-1c-1 0 0 0 0 0s-1 0 0 0h-1 2l-1 1v-1 1-1h1v0h1s-1 0 0 0h-1 1-1 1c-1 0 0 0 0 0h2c-1 0 0 0 0 0v1l-1-1v2-1h-1v0l-1 1 1-1-1 1 1-1-1 1 1-1-1 1s0-1 0 0v-1c0 1 0 0 0 0l-1 1 1-1 1-1h-1l-2-1v1h-1 1-1 1l-1 1c-1 0 0 0 0 0v1h1v1h-1 2-1v1l1-1v1c-1 0 0 0 0 0l1-1-1 1s0 1 0 0v1c0-1 0 0 0 0l1-1v0c0 1 0 0 0 0v1l1-1-1 1 1-1-1 1h1v-1c0 1 0 1 0 0v1h1s0-1 0 0v-1h1v0s0-1 0 0zm1-2c1 0 1 0 0 0zm-1-2zm-3 0zm0 0zm1 1c-1 0 0 0 0 0zM217 246zM215 251zM211 245zM214 246zM212 247zM213 247h-1 1zM212 247c1 0 0 0 0 0zM213 246h0zM211 247h1zM212 246v0zM212 247zM211 247zM212 246zM211 246zM211 246h-1 1zM212 245l1 1zM212 245zM212 245zM214 246zM213 246h1-1zM219 248h-1 1zM217 249zM216 251s0-1 0 0z" class="st25"/></g><g class="st1"><path d="M212 257zM213 258zM213 258c0 1 0 0 0 0zM211 258c1 0 1 0 0 0zM211 258zM211 258zM212 258zM212 258s0 1 0 0zM212 258zM213 259h1-1zM211 258l1 1h-1v-1zM212 259zM213 259l-1-1 1 1zM211 259v-1 1zM211 259h-1 1zM211 259zM212 259h-1 1zM212 259zM212 259zM212 259h0zM212 259zM212 259zM211 259h0zM211 259c1 0 1 0 0 0zM211 260zM212 259zM211 259zM211 259zM211 259h0zM213 261s0-1 0 0l-2-1h1l1 1zM211 260v-1 1-1 1zM211 259l1 1v-1h-1s1 0 0 0zM214 260h-1 1zM213 260v-1 0h-1l1 1zM212 260h0zM211 260v-1 1zM211 260v-1 1zM206 268zM207 268zM209 263v-1 1c0-1 0 0 0 0zM209 266zM209 267zM204 268v0zM210 261s1 0 0 0zM207 264zM210 261zM199 266zM199 262zM211 260zM212 261zM212 263zM211 260zM211 260zM211 260zM202 266zM212 266zM212 266c-1 0-1 0 0 0l-1-1 1 1z" class="st26"/><path d="M205 268l1 1h-1l1-1s0 1 0 0c0 1 0 0 0 0h1v-1 1-1 1c0 1 0 0 0 0v1l1-1v-1h1v-1-1 2h1-1 1l-1-2 1 2c0-1 0 0 0 0v-1 0h1v-1 1l-1-2 2 2-1-1 1 1-1-1 1 1-1-1 1 1v-1l-1-1 1 1-2-2 2 2h1v1-1l-1-1 1 1s0-1 0 0v-1 1l-2-2 2 1c-1 0 0 0 0 0-1-1 0 0 0 0l-1-1h1c-1-1 0 0 0 0l-2-2 1 1-1-1 1 1c1 0 0 0 0 0h1v-1h-1s0-1 0 0c0 0 1 0 0 0v-1h-1c1 0 0 0 0 0h-1 1l1 1h-1v-1h-1v1h1-2l1 1c0 1 0 0 0 0l-1 1c1 0 0 0 0 0h1-1l1 1s-1 0 0 0l-1-1 1 1-1-1v1h-1c1 1 0 0 0 0s0-1 0 0v-1 2c0 1 0 0 0 0h-1v-1c0-1 0 0 0 0 0-1 0 1 0 0v1s0-1 0 0v-1l-1 1v-1 1h-1v-1c0 1 0 0 0 0h-1v0l-1-1v1c0-1 0 0 0 0v-1 1h-1v-1 1h-1l1-1-1 1v-2 1h-1l-1-1v1-1 1l-1 2c0-1 0 1 0 0l1 1v-1 2-1h2v0h1v1s0 1 0 0v1c0-1 0 0 0 0v-1l1 1v-1c0 1 0 0 0 0v1-1 1l1-1v1h-1 1v1-1 0h1v1l1-1h-1zm2 0zm2-2c0 1 0 1 0 0zm2-5zm0 0v-1 1zm-8 2c0 1 0 0 0 0zM209 267zM204 268zM213 264zM211 260zM213 260zM212 260c0 1 0 0 0 0zM212 260z" class="st26"/><path d="M211 260s-1 0 0 0c-1 0 0 1 0 0zM213 261zM213 261s-1 0 0 0zM213 261zM213 261zM212 262zM213 262zM213 263h1-1zM212 263h-1zM213 266v-1h-1l1 1zM212 265zM199 261v1zM199 262v-1 1zM207 269zM206 269v-1zM205 269z" class="st26"/></g><g class="st1"><path d="M207 256v-1 1zM206 256v1zM206 256c-1 1 0 0 0 0v1-1zM206 255zM206 255zM205 255h0zM205 255zM205 255s0 1 0 0zM205 255v0zM205 257zM205 255zM205 255zM205 256zM205 255v-1 1zM205 254zM205 255v-1 1zM205 255zM205 255zM205 255zM205 256zM205 256v-1 1zM205 256zM205 255h-1 1zM205 255zM204 255zM204 255h1-1zM204 255s1 0 0 0zM205 255zM205 255zM203 256l1-1-1 1v-1l-1 1h1zM204 255v-1 1zM204 255v0zM204 257zM204 257v-1h1l-1 1zM204 256zM204 255v-1 1zM204 254zM210 256zM210 255zM202 254zM206 254zM207 253zM210 260zM203 253zM207 257zM203 253zM201 259zM203 256zM204 254zM203 255zM201 253zM204 254zM204 254zM204 254zM205 262zM205 251zM205 251l-1 1 1-1z" class="st18"/><path d="M210 258h1l-1-1c1 0 1 0 0 0v-1-1h-1v-1h1v-1l-1 1v-1l-1 1c0-1 0 0 0 0v-1 0l-1 1v-1h1-1l-1 1h-1 1l1-1h-1 1v-1l-2 1 1-1v0h-1-1l1-1-2 2 2-2h-1v0l-1 1 1-1-1 1 1-1h-1l-1 1v-1a9 9 0 0 0 0 2v-1-2h-1v1l1-1v1l-1 1v-1h-1s-1 0 0 0l2 2h-1l-1-1v1h1v1h-1 1l-1 1h1l-1-1h3l-1 1s-1 0 0 0v0h1s-1 1 0 0h1v-1l-1 1 1-1h-1v0h0c1 0 1 0 0 0 1 0 0 0 0 0v-1h-1v1l1-1v1l1-1-1 1h1v1c1-1 0 0 0 0h1l-1 1v-1 1l1-1h1-1 1v1h1c0-1-1 0 0 0l-1 1h1-1 1c-1 0 0 0 0 0v1h-1v1l1 1v-1h-1l-1-1v1c0-1 0 0 0 0v-1 1h-1s0 1 0 0v-1 0h-1l1-1v1h-1v-1-1h1-1c1 0 0 0 0 0h-1-1v1h-1 1l-1 1h1v2l1 1h1v1l1-1h-1 1v1c1-1 0 0 0 0v-1l1 1c0 1 0 0 0 0l1-1-1 1h0v1l1-1v1h1l-1-1h1c0 1 0 0 0 0 1 0 0 0 0 0v-1 1l1-1v-1 1s1 0 0 0h1v-1 0l1 1v-1-1h1l-1-1zm-1-4c0 1 0 1 0 0zm-3-1zm-3 1zm0 0zm2 5zM207 253zM210 260zM200 252zM204 254zM203 256zM203 255zM203 255zM203 254h0zM202 256h1-1zM202 255zM202 255zM202 256zM202 254h-1 1zM201 255zM201 255h-1 1zM201 253h1-1zM203 250v0zM203 251zM202 256zM202 256z" class="st18"/><path d="M210 253h-1v1l1-1zM211 256l-1 1 1-1zM211 259s-1 0 0 0z" class="st18"/></g><g class="st1"><path d="M200 254h-1 1zM200 255zM200 255c0 1 0 0 0 0s0 1 0 0zM198 255c1 0 1 0 0 0zM198 255zM198 255zM199 256v-1 1zM199 255s0 1 0 0zM199 255zM200 256zM198 256zM198 256h0zM199 256zM198 256zM198 256h-1 1zM198 256zM199 256h-1 1zM199 256h-1 1zM199 256zM199 256h1-1zM199 256zM199 256zM198 256h1-1zM198 256zM198 257zM199 256zM198 257v-1 1zM198 256zM198 256h0zM201 257h-1-2 3-1 1zM199 257h-1 1zM199 257s0-1 0 0l-1-1 1 1-1-1v1h1zM200 256zM200 256h-1 1zM199 256l1 1-1-1zM198 257zM198 257zM203 258c1 0 0 0 0 0zM203 258zM200 260l-1 1 1-1c-1 0 0 0 0 0zM202 260v-1 1zM203 258zM204 258v-1 1zM199 258l-1 1 1-1zM203 262zM198 259h1-1zM204 257zM207 258zM198 258zM200 257zM201 258zM198 258zM198 258zM198 258zM205 259c0-1 0-1 0 0zM202 258zM203 258h-1v1l1-1z" class="st18"/><path d="M204 258v-1 1h-1v0c1-1 0 0 0 0l1-1-1 1v-1 2-1l-1 1v0l1-1-1 1 1-1-1 1v-1h1-1 1l-1 1v-1c1 0 0 1 0 0 0 1 0 0 0 0v0l-1 2 1-2v0l-1 1 1-1-2 1 2-1s0-1 0 0l1-1-1 1v-1l-1 1h1c0-1 0 0 0 0v-1l-2 2v-1h2-1s1 0 0 0h-1 2-1c-1 0 0 0 0 0h-2 1l1-1h-2 1-1s1 0 0 0c0 0-1 0 0 0h-1 1-1v1l1-1v1h-1s1 0 0 0h1-1l1 1h-1v1l1-1v1-1 1h1c-1 0 0 0 0 0h1s-1 0 0 0h-1 1v1c0-1 0 0 0 0s0 1 0 0v1l1-2c0 1 0 1 0 0v1c0-1 0 0 0 0s0-1 0 0h1l-1 1 1-1-1 1h1v-1s0 1 0 0v0h1v0c0 1 0 0 0 0s0 1 0 0v1c1-1 1 1 1-1v-1 1h1v-1 1-1c0 1 0 0 0 0v-1l1 1-1-1 1 1v-1s-1 0 0 0v-1h-1 1-1-1v-1s-1 0 0 0h-1 1v1l-1-1 1 1v-1 1l-1-1 1 1h-1 1v0h-1 1v1l-1-1 1 1v-1 1c-1-1 0 0 0 0l-1-1c1 1 0 0 0 0s0-1 0 0 0-1 0 0v1-1-1 1s0-1 0 0v-1 1zm-1 0zm-1 1zm-4-1h1-1zm1 0h-1 1zm7 3zM203 258v0zM204 258zM202 258zM198 257zM200 257zM199 257c1 0 0 0 0 0zM199 257zM198 258s1 0 0 0zM200 257zM200 257zM200 257zM200 257zM200 258zM201 258v-1 1zM201 258l1-1-1 1zM201 258l-1 1zM203 257l-1 1 1-1zM202 258zM207 258h1-1zM207 258zM203 257zM204 257v1zM204 257z" class="st18"/></g><g class="st1"><path d="M198 258zM197 258zM197 258zM198 258zM198 258s1 0 0 0zM198 258h0zM198 258zM198 258zM198 258zM197 258h-1 1zM199 258h-1 1zM198 258zM197 258h1-1zM199 258zM199 258zM198 258h0zM198 258zM198 258zM198 258zM198 258h-1 1zM198 258h-1 1zM197 258h1zM198 258zM198 258zM198 258zM198 258zM198 258zM198 258zM198 258zM196 258h0zM198 258zM198 258h-1 1zM196 258zM196 258s1 0 0 0h1a9 9 0 0 1-1 0zM197 258zM198 258zM198 258zM195 256h-1 1zM195 256zM198 258s1 0 0 0zM196 257zM195 256zM194 255zM198 258zM198 257zM198 258zM195 254zM198 256zM198 258zM197 258zM196 258zM198 258zM198 258zM198 258zM196 255zM194 257h1-1zM194 257h2-2z" class="st18"/><path d="M195 255h-1l1 1-1-1 1 1h-1l-1-1 2 1h-1 1c-1 0-1 0 0 0h-1 1c1 0-1 0 0 0h-1 1l1 1h0l-1-1h-1l2 1h-1v-1h-1l1 1-1-1 1 1c-1-1 1 0 0 0h2-2c-1 0-1 0 0 0h1-1-1c1 0 0 0 0 0h2a20 20 0 0 0 1 1l-2-1h-1 1-1 2-2 1-1s1 0 0 0l3 1h-1a80 80 0 0 0-1-1l1 1h-1c1 0 1 0 0 0h2s1 0 0 0h-1 1s-1 0 0 0h1-1 1-1 1s-1 0 0 0c0 0 1 0 0 0h1-1c-1 0 0 0 0 0 1 0-1 0 0 0h-1 1l-1-1h1-1l1 1-1-1h1-1 0s1 0 0 0h1c1 0 0 0 0 0 1 0 0 0 0 0-1 0 0 0 0 0h-1 1c-1 0 0 0 0 0s1 0 0 0l-1-1 1 1c0-1 0 0 0 0v-1 0a4 4 0 0 0 0 1v-1h-1 0l1 1v-1s0 1 0 0h1-1l-1-2h-1v0a5 5 0 0 1-1 0s1 0 0 0h1v1l-1-1 1 1h-1 0s1 0 0 0h1s0 1 0 0h-1s1 0 0 0c1 0 0 0 0 0 1 0 0 0 0 0h1-1 1-1c-1 0 0 0 0 0h-1 0s1 0 0 0h1s-1 0 0 0h-1 1c-1 0 0 0 0 0zm0 1s-1 0 0 0zm0 1zm3 1zm0 0zm0-1v-1 1zM195 256zM194 255zM194 257h0zM198 258zM196 258zM197 258zM197 258zM198 258c1 0 0 0 0 0zM196 258zM196 258zM196 258zM196 258zM196 258zM195 258h1-1zM195 258zM196 258h1zM194 257h1-1zM195 257zM199 256v1-1zM198 256h1-1zM194 256zM194 255l1 1zM194 255z" class="st18"/></g><g class="st1"><path d="M205 253h-1 1zM206 253h-1 1zM206 254v-1h-1l1 1zM205 254zM205 254c-1 0-1 0 0 0zM205 254h-1 1zM205 254zM205 254zM205 254zM206 253zM204 255h0zM205 255zM206 254h-1 1zM204 255h1zM205 255h-1 1zM205 256l-1-1 1 1zM205 255zM205 255zM205 255zM205 255l1-1-1 1zM206 255h-1 1zM206 255zM205 255v0zM205 255zM205 256zM205 255zM205 256zM205 255zM205 255zM207 256h-2 1c1 0 0 0 0 0h1zM205 256zM205 256h0zM207 255zM207 255c0-1 0 0 0 0h-1 1zM206 255h1-1zM205 256zM205 256zM199 257zM199 257zM203 257v-1 1zM200 257v-1 1zM199 258zM199 258h-1 1zM205 257zM203 251h-1 1zM205 257s-1-1 0 0zM196 259zM192 259zM205 256zM206 257zM205 259c1 0 1 0 0 0zM205 256zM205 256zM205 256zM198 256c0 1 0 0 0 0zM201 260zM201 260v-1 1z" class="st18"/><path d="M199 257v1l-1 1v-1l1-1v-1 1-1 1l1-1h-1v1c-1 2 0-1 0 0v1l-1 1 1-2-1 1 1-1-1 1 1-1c-1 1 0 0 0 0l-1 1 1-1v0c0-1 0 0 0 0s0 1 0 0v1l1-1v-1l1-1-1 1h1-1v1h-1v1l1-1-1 1c1 0 0 0 0 0v1l1-1-1 1h1s0-1 0 0c0-1 0 0 0 0h1v1l1-2-1 2 1-1v1l1-1v1l1-2-1 2v1l1-1-1 1 1-2v2s0-1 0 0h1l-1-3 1 1v1s1 0 0 0h1l-1-1h2v0c-1 0 0 0 0 0l-1-1c0-1 0 0 0 0v-1l1 1h-1 1v-1h-1v-1 0h-1 1-1l1 1h-1 1l-1-1s0 1 0 0v1h-1s0-1 0 0v-1 1c0 1 0 0 0 0h-1c0-1 0 0 0 0s0 1 0 0l-1 1c0-1 0-1 0 0v-1-1h-1 1l3-3 1-1 1-1h1v-1h1l1-1-1 1a11 11 0 0 1-1 0h-1l-2 1 2-1h-1l1-1-2 2-3 3v-1l-1 1 2-1h-2c1 0 0 0 0 0v0 0l1-2v-1 2l1-1v-1l-1 1h1l-1 1v-1h-1l-1 1v2-1-1l-2 1c0-1 0 0 0 0-1 0 0 0 0 0l-1 1v-1 1h-1v2l-1-1v1h-1v1h-1 1l-1 1-1 1h1-1v1h3l1-1h-1 2-1l1-1v-1-1 1c0 1 0 0 0 0 0-1 0 0 0 0v-1l1 1v-1 2c0-1 0 0 0 0v-1 0l1-1-1 1 1-1-1 1h1-1c1 0 1 0 0 0l1-1v1h-1c0 1 0 0 0 0l1-1v0l-1 2 1-1-1 1 1-1s-1 1 0 0l-1 1 1-2v1c1-1 1-1 0 0zm0 0c0-1 0 0 0 0zm0 0zm6 0zm0 0v-1 1zm-8-4c0 1 0 1 0 0zM199 258v-1 1zM199 257v1-1zM205 261v-1 1zM205 256zM207 256zM206 256zM206 256z" class="st18"/><path d="M205 256c-1 0 0 1 0 0zM207 257zM207 257zM207 257zM207 257zM206 258zM207 259v-1 1zM207 259s0 1 0 0zM205 259l-1-1zM202 261h1v-1l-1 1zM203 260zM192 259h-1 1zM192 260v-1 1zM198 259v-1 1zM198 258l1-1zM198 259s1-1 0 0z" class="st18"/></g><g class="st1"><path d="M208 249zM208 250h1zM208 250c1 1 0 0 0 0zM207 249zM207 249zM207 249zM207 250zM207 250s1 0 0 0zM207 250h0zM209 251v-1 1zM207 249v0zM207 250zM208 250zM206 250v-1l1 1zM206 250v-1 1zM206 250zM207 250zM207 250zM207 250zM207 250l1 1-1-1zM207 250zM207 250zM207 250zM207 250zM206 251zM207 250zM206 250h1-1zM207 250zM207 250zM208 252l-2-1h1v0l1 1zM207 251l-1-1v1h1zM207 250v0zM208 251zM208 251zM208 251zM206 251v-1 1zM206 251v-1 1zM209 255zM209 254h-1 1zM206 253zM207 252zM208 253zM208 256l1 1-1-1zM205 252s0 1 0 0zM205 254zM205 253v-1 1zM202 259zM203 255zM205 251zM207 252zM206 253zM206 251h-1 1zM205 251zM205 251zM206 258zM208 253zM208 253l-1-1 1 1zM208 255h1l1 1-2-1h1-1 1l-1-1s1 0 0 0h1-1 1l-1-1c-1 0 1 1 0 0l1 1-1-1-1-1 1 1h1l-2-1 1 1c0-1 0 0 0 0h1-1 1-1v-1 1c1 0-1-1 0 0 0 0 0-1 0 0-1-1 0 0 0 0l-1-1 1 1-1-1h-1 1l1 1h-1 0l1 1c0-1 0 0 0 0v-1h-2l2 1-2-1 2 1h1-1l-2-1 2 1s-1 0 0 0c0 0-1 0 0 0 0 0 1 0 0 0h-2 2-1-1v-1h1v0l1 1-1-1h-1c0-1 0 0 0 0v-1l1 1h-1 1v-1 0h-1 1c-1 0 0 0 0 0h-1v-1s-1 0 0 0h-1s1 0 0 0h1-1 1v1l-1-1v1c0-1 0 0 0 0v1h1v1a2 2 0 0 1 0-1v-1h-1 1-1 2v1h-1-1c-1 0 0 0 0 0v1c1 0 0 0 0 0h1-1v1s-1 0 0 0h-1 1v1h0c0-1 0 0 0 0h-1c0-1 0 0 0 0v-1 2l-1-1v-1 0h-1 1-1v1l-1 1c1-1 0 0 0 0l1 1v1-1 1h2c0-1 0 0 0 0s0-1 0 0v-1l1 1s0-1 0 0v-1 1h1l-1-1s0-1 0 0h1v1s0-1 0 0v-1 1l1-1h-1 1v-1 0s1 0 0 0h1v-1s1 0 0 0h1l-1-1c1 0 0 0 0 0zm1-1c-1 0-1 0 0 0zm-1-1zm-3-1zm1 0h-1 1zm-2 4zM208 253zM208 256zM208 254zM206 251zM208 252zM207 252c0-1 0-1 0 0zM207 252c0-1 0 0 0 0z" class="st18"/><path d="M205 251c1 0 0 0 0 0s1 1 0 0zM208 252h-1zM207 252zM207 252zM208 252h-1zM206 253h0zM208 253h-1 1zM208 253v0zM206 254zM209 254h-1 1zM208 254v-1 1zM203 255zM203 255zM210 254h-1 1zM209 255zM209 256z" class="st18"/></g><g class="st1"><path d="M211 252v-1 1zM210 252v1zM210 252v1-1s0 1 0 0zM210 251zM210 251zM210 251zM210 252zM210 252zM210 252zM210 253zM209 251v1-1zM209 252zM210 252zM209 251zM209 251zM209 251zM209 252v-1 1zM209 252zM209 252zM209 252v0zM209 252zM209 252zM209 252zM209 252zM209 252zM209 252zM209 251v0zM209 252c0-1 0 0 0 0zM209 252zM208 254h1v-2h-1l1 1h-1v1zM209 252v-1 1zM209 252v0zM209 254v-1 1zM209 253zM209 253zM209 252v-1 1zM208 252v-1zM201 256zM202 256zM205 252v-1 1zM203 254zM203 255zM200 256zM207 252zM201 252s1 0 0 0zM207 252c0-1 0-1 0 0zM196 256zM195 252zM208 251zM208 253zM207 254zM208 252zM208 251zM208 251v0zM198 255zM205 255zM205 256v-2 2z" class="st18"/><path d="M201 256v-1 1l1-1-1 1h1v-1s0 1 0 0v1l1-1v1-1 0c0-1 0 1 0 0v-1-1 2l1-1v1c0-1 0 0 0 0 0 1 0-1 0 0l1-1-1 1 1-2v2s0 1 0 0v-1 1-1 1l1-2-1 2 1 1h-1 1v-1-1 1c0 1 0 0 0 0v1a45 45 0 0 1 0-2v1l1-2v0l1-1v2l-1-1v1h1v-1s0-1 0 0c0 0 0 1 0 0v-1-1 1l-1-1v1-1c0 1 0 0 0 0h-1v1h-1s0 1 0 0v1-1 0l-1 1v-1c0 1 0 0 0 0h-1v-1 2c0-1 0 0 0 0v-1 1h-1c0 1 0-1 0 0v-1c0-1 0 0 0 0v-1 1h-1v0l-1 1v-1c0 1 0 0 0 0h-1v0h-1v1l-1-1v0h-1v1-1s0 1 0 0v1l-1-1v1-1 3c0-1 0 1 0 0l1 1v-1 1-1 1l1-1v0l1-1v2s0-1 0 0v-1s0-1 0 0v1s0-1 0 0l1-1v1-1 1l1-1v1-1 1c0 1 0 0 0 0l1 1v-1c0-1 0 0 0 0s0-1 0 0zm1 0c0-1 0-1 0 0zm1-1v-1 1zm5-3zm0 0zm-10 0zM203 255zM200 256zM206 255zM208 251v0zM209 254v-1 1zM208 253c0-1 0-1 0 0zM208 253zM208 252v-1 1zM208 254v-1 1zM208 253zM208 253zM208 254zM207 253v0zM207 254v1-1zM207 255zM206 254v-1zM205 256s0-1 0 0v-1 1zM205 255zM195 252zM195 252zM202 257v-1 1zM201 256zM201 257s0-1 0 0z" class="st18"/></g><g class="st1"><path d="M194 266h0zM194 266h-1zM194 265v1h-1 1v-1zM195 266zM195 266zM195 266zM194 265v0zM195 266h-1 1c-1 0 0 0 0 0zM195 266h-1 1zM193 265zM195 266v-1 1zM195 265h-1 1zM194 265zM195 265v1-1zM195 265l1 1-1-1zM195 265zM195 265zM195 265zM195 265zM194 265h-1 1zM194 265zM194 265zM195 265h-1 1zM195 265zM195 265zM194 265zM195 265zM195 265zM195 265h-1 1zM192 264h1l2 1h-1-1 1l-1-1h-1zM195 265zM195 265h-1 1c-1 0-1 0 0 0zM193 265zM193 265h1-1zM194 265h-1 1zM195 265zM195 265zM192 260zM192 260zM195 263h1-1zM193 261l1 1-1-1zM192 261zM192 259h-1 1zM195 264zM196 261h-1 1zM195 264zM193 257s-1 0 0 0zM196 257zM195 265zM194 264h-1 1zM193 263zM195 265zM195 265zM195 265zM193 259zM192 262zM192 262h1-1z" class="st18"/><path d="M192 260l-1-1 1 1c-1 0 0 0 0 0h1-1 1-1c-1 0 0 0 0 0h-1 1-1 0l1 1c0-1 0 0 0 0 1 0 0 0 0 0h1-1 1l1 1-1-1h-1 1-1l1 1-1-1c1 1 0 0 0 0v0 1c1 0 0 0 0 0h2-2 1-1 1-1l1 1-1-1 2 1-2-1h-1 1-1l2 1-2-1 1 1-1-1 1 1h-1 1a13 13 0 0 1 1 0h-1c1 1 0 0 0 0l2 1s-1 0 0 0c-1 0 1 0 0 0h-1 1-1 1s-1 0 0 0v1h1-1 1l-1-1 1 1v-1s-1 0 0 0c0 0 1 0 0 0h1-1v-1c-1 0 0 0 0 0 1 1-1 0 0 0 0 0-1 0 0 0h-1 1-1 1l-1-1h1-1 1c-1 0 0 0 0 0s1 0 0 0h1-1-1c1 0 1 0 0 0h1v-1h-1 1-1 1-1 2s-1 0 0 0h-1s1 0 0 0c1 0-1-1 0 0v-1 0s1 0 0 0h1-1l-1-1 1 1v-1 1l1-1h-1 1-1s1 0 0 0h1l-1-1h1c-1 0 0 0 0 0h-1 1s-1 0 0 0v-1h-2-1-1 1v1h1-1c-1 0 0 0 0 0h0-1l1 1v-1 1l-1-1s1 1 0 0l1 1-1-1 1 1-1-1v1h1-1 1-1-1 1s-1 0 0 0h-1l1 1v-1 1zm0 0zm1 1zm2 3zm0 0s-1 0 0 0zm1-5zM192 261zM192 259zM192 263zM195 265zM193 264zM194 264c0 1 0 1 0 0zM194 265zM195 265c0-1 0 0 0 0s0-1 0 0zM193 264zM193 264zM193 264zM193 264zM193 264zM192 264v-1 1zM192 263zM193 263h1zM191 262s1 0 0 0h0zM192 262zM197 257zM196 257h1-1zM191 260zM191 260h1zM191 259s1 1 0 0z" class="st18"/></g><g class="st1"><path d="M218 247h-1 1zM218 248zM218 248zM217 247c0 1 0 1 0 0zM217 247zM217 248v-1h-1l1 1zM217 248zM217 248zM217 248zM218 248v1-1zM216 248h0zM217 248zM218 248h-1 1zM216 248v-1 1zM216 248v-1 1zM216 248zM217 248zM217 248zM217 248zM217 248l1 1-1-1zM217 248zM217 248zM217 248zM217 248zM217 248zM217 248zM216 248h0zM217 248zM217 248zM219 250l-1-1a20 20 0 0 0-1 0h0l1 1v-1l1 1zM217 248h-1 1zM217 248l1 1-1-1c0 1 0 0 0 0zM218 249zM218 249v-1 1zM218 249zM217 248h-1 1zM217 248h-1zM217 254zM217 254v-1 1zM216 249s-1 0 0 0zM217 251v0zM218 253v-1 1zM216 254v0zM216 249s1 0 0 0zM215 250h0zM216 249zM213 254zM213 250zM216 249zM217 249h0zM218 250zM216 249zM216 249c0-1 0-1 0 0zM216 249zM215 253zM219 252zM219 252c-1 0-1 0 0 0l-1-1 1 1z" class="st18"/><path d="M216 254h1v1-1-1 1-1 1-1 1h1l-1-1c0 1 0 0 0 0v0l1 1-1-1c1 0 0 0 0 0h1-1 1-1c0-1 1 0 0 0h1l-1-1 1 1-1-2a8 8 0 0 1 0 1h0a3 3 0 0 1 1 0v1l-1-1v-1l1 1v1-1 0c1 1-1 0 0 0v-1 1l-1-2 2 2-1-1 1 1-1-1 1 1-1-1 1 1-2-2 2 2h1l-1-1v1l-1-1h1c0 1 0 0 0 0s1 1 0 0l-2-1h1l1 1-1-1h1v0c-1 0-1 0 0 0l-2-1v0l1 1v-1h-1 1-1s0-1 0 0l-1-1 1 1-1-1v1h0s1 0 0 0v0 1-1 1c0-1 1 0 0 0h1-1 1-1 1-1c1 1 0 0 0 0v-1a57 57 0 0 0 0 2v-1 1c0-1 0-1 0 0 0 0 0-1 0 0 0-1 0 0 0 0 1 1 0-1 0 0v-1h-1 0c0-1 1 0 0 0h1c0 1-1 0 0 0v1l-1-1v1h-1v-1 0c0 1 0 0 0 0v1-1s0 1 0 0v1l-1-1v1-1 3c0-1 0 1 0 0v1-1 1l1-1-1 1h1v-1-1l1 2s0-1 0 0v-1s0-1 0 0v1s0-1 0 0v-1 0s0 1 0 0v1h1v-1 1c0 1 0 0 0 0 0-1 0 0 0 0s0-1 0 0zm1-1s0 1 0 0zm0-1c1 0 0 0 0 0zm-1-3zm1 0h-1 1zm-2 1v0zM218 253v-1 1zM216 254zM219 251zM216 248zM218 249zM217 249c1 0 0 0 0 0zM217 249z" class="st18"/><path d="M216 249c1 0 0-1 0 0 0-1 1 0 0 0zM218 250v-1zM218 249v0zM218 249zM218 250zM218 250zM219 250h-1 1zM219 250v0zM218 250h-1zM219 252zM219 252zM213 250zM213 250zM218 254h-1 1zM217 254zM217 255s-1-1 0 0z" class="st18"/></g><g class="st1"><path d="M209 255zM210 255zM210 255c1 0 0 0 0 0s1 0 0 0zM210 256zM210 256s-1 0 0 0zM210 256h-1 1zM210 256zM210 256zM210 256zM211 255zM210 256zM210 256zM211 255l-1 1 1-1zM210 257zM210 257v-3 3zM210 254zM210 256zM210 256zM210 256zM210 256l1-1-1 1zM211 256h-1 1zM211 256zM210 256h1l-1-2 1 2h-1zM210 256zM210 255zM211 256zM210 254zM210 256zM210 256h0z" class="st18"/><path d="M212 256v-1h-2 1l1 1zM210 254zM210 254l1 1v-1h-1zM212 255z" class="st18"/><path d="M212 255h-1 0v1l1-1z" class="st18"/><path d="M211 256l1-1-1 1c0-1 0 0 0 0zM210 254v1zM210 255v-1zM206 255h-1 1zM206 255zM209 256v-1 1zM208 257zM206 258v-1 1zM205 253zM210 255h-1 1zM209 255zM209 255zM209 249v0zM211 253zM210 255zM211 255v0zM211 257zM210 255zM210 255zM210 255zM207 251zM209 259zM208 260l1-1v-1l-1 2z" class="st18"/><path d="M206 254h-1-1l2 1h-1 1-1-1 2v1h-1 1c-1 0 0 0 0 0h-1 1c0 1 0 0 0 0v1h1c-1 0 0 0 0 0l-1 1 2-1-1 1v1l1-1-1 1 1-1v1l1-1-1 1 1-2v2h1-1l1-1v1l-1-3 1 1-1-1 1 3v1h1l-1-1v-1l1 1s0-1 0 0l-1-3v1l1 1-1-1h1l1 1v-1h-1l-1-1h1l-1-1 1 1h0v-1s1 1 0 0h-1v-1 1h-1 0s1 1 0 0v1c1 0 0 0 0 0 0-1 0 0 0 0 0-1 0 0 0 0v1s0-1 0 0v-1 1-1 0h-1c1 0 1 0 0 0h1-1 1-1c-1 0 1 0 0 0h2l-1-1s1 0 0 0h-1 1v-1h-1 1s1 0 0 0c1 0 1 0 0 0v-1h-1l1 1v-1c1 1 0 0 0 0l1 1v-1h-1v-1 1c0-1 0-1 0 0v-1l1 1-1-1 1 1s0-1 0 0h1v-3c0 1 0-1 0 0h-1-1v-1 1h-1c0 1 0 0 0 0v1-1 1l-1-1s1 1 0 0v1h1l-1-1s0 1 0 0v1s1 1 0 0v-1h-1l1 1h-1s0-1 0 0c0-1 0 0 0 0 1 1 0-1 0 0v1s1 0 0 0v1l-1-1 1 1h-1s1 0 0 0v1h0s1 0 0 0h1zm0 1s-1 0 0 0zm1 2c0 1 0 0 0 0zm3-2zm0 0zm-1-2zM206 258l1-1-1 1zM205 253zM211 259v-1 1zM210 255zM212 255zM211 255zM211 255zM210 255c-1 0 0 0 0 0zM212 256h-1 1zM211 256zM211 256zM212 256zM211 256v0zM212 257zM212 257zM210 257zM210 260s0-1 0 0v-1 1zM210 259zM211 254v-1zM211 253zM205 256zM205 255h1zM205 254c-1 0 0 0 0 0-1 0 0 0 0 0z" class="st18"/></g><g class="st1"><path d="M208 256zM209 256h-1 1zM209 257v-1h-1l1 1zM207 257c1 0 1 0 0 0zM207 257c0-1 0-1 0 0zM207 257zM208 257zM208 257zM208 257zM209 257zM207 257zM207 257h0zM208 257zM207 257zM207 257h-1 1zM207 258l-1-1 1 1zM207 257zM207 257v0zM207 257zM208 257l1 1-1-1zM208 258v-1 1zM208 258zM207 258zM207 258zM206 258l1 1-1-1zM207 258zM207 258s-1 0 0 0zM207 258zM207 258zM208 260c-1 0-1 0 0 0l-2-1h1c0 1 0 0 0 0v1h1zM207 258h-1 1zM207 258v0c0 1 0 0 0 0zM209 258zM209 258h-1 1zM208 258v0zM206 258v1zM206 259v-1zM207 256zM207 256zM199 259v0zM206 260zM205 259zM210 252h1-1zM204 259s0 1 0 0zM210 257v-1 1zM204 259zM203 263zM201 259zM205 259zM206 260zM203 261zM205 259zM205 259zM205 259zM209 259zM203 259zM203 259l-1 1 1-1z" class="st18"/><path d="M207 255h-1 1v1h-1-1l2 1h-1c-1 0 0 0 0 0v1c1 1 0 0 0 0v1h-1l1 1v0h-1 1l-1-1-1 2v-2h1-1v1l-1-1v0l-1 2v-1l1-1-1 1 1-1-1 1 1-1h-1 0c1 0 0 0 0 0h-1 2-1l-2-1h2l-1 1h1-3 1-1 2l-1 1s1 0 0 0v1l3-2-1 1-1 1h1l1-1v1h1v1c0-1 0 0 0 0v-2h1c0 1 0-1 0 0v1h1v-1s0-1 0 0c0 0 1 0 0 0v-1-1 1h-1s1 0 0 0h1v1l-1-1v0h-1s0-1 0 0v-1 1l-1-1v0l-4-2 1 2-1 1v1h1v1h2l-1 1h1v-1 1h3c0-1 0 1 0 0h1v-1h1v-1h1c-1 0 0 0 0 0v-1h1-1 2v-1s0 1 0 0v-1-1-1-1c0-1 0 0 0 0v-1l-2 2v-1 1h1l1 1h-2l-1 1h-1 1-1v1h-1v1l-1-1v1h-1v0h-1v0l-1-1v0c0 1 0 0 0 0l-1 1h-1v1h1l-1 1h1v1h1c1 0 0 0 0 0h1v1l1-1v1-1 1h1-1l2-1v-1h1v-1h1c-1 0-1 0 0 0h0v-1l1 1 1-1h-1v-1l1 1c0 1 0 0 0 0s1 0 0 0h1s-1 0 0 0v-1h1v-1c0 1 0 0 0 0v-1 0h1l-1-1s1 0 0 0h1l-1-1h1l-1-1h1l-1-1h-1l-1-1-2-1-1 4h1l-1 1h1zm0 2s-1-1 0 0zm-2 3c0-1 0-1 0 0zm0-1zm0 0zm1-2c0 1 0 0 0 0zM205 259zM210 252zM201 261zM206 258v0zM208 260zM206 260h1-1zM207 260c0-1 0 0 0 0zM205 259c0-1 0 0 0 0zM207 260zM206 261v-1 1zM206 260zM207 261zM204 261zM205 262zM204 262s1 0 0 0zM202 260zM203 259zM203 259zM202 258zM201 258h1-1zM206 256v1-1zM206 256h1zM206 255z" class="st18"/></g><g class="st1"><path d="M204 261zM207 260v-1 1zM207 259c0-1 0 0 0 0zM209 258v0zM209 259zM208 258h0zM208 257zM208 258v-1 1zM208 258zM207 258zM208 256zM208 256zM207 257zM208 255zM207 254h1l-1-1v1zM206 253h0zM207 255h0zM207 255zM207 256v-1 1zM207 257v-1 1zM207 256zM207 256zM207 254h-1 1zM207 255zM204 253zM206 254l1 1-1-1zM206 253v0zM207 255zM207 255zM204 255v-2 1s1 0 0 0v1zM205 253h-1 1zM206 254h-1 1c-1 0 0 0 0 0l-1-1 1 1zM206 256zM206 256h1-1zM206 255zM204 253h1-1zM204 253v-1 1zM207 258h-1 1zM206 258h1-1zM200 261s-1 0 0 0zM206 262zM205 260l1 1-1-1zM211 258zM199 255zM210 259zM199 256v0zM200 263zM201 259zM201 253zM202 254h1-1zM201 257zM201 253zM201 253zM201 253zM206 262zM204 260zM204 260l-1 1 1-1z" class="st18"/><path d="M207 257h-1-1 2-1l1 1h-1 1s-1 0 0 0v0c-2 0 0 1-1 1v-1h-1l1 1h-1 1v2h-1l1 1v-1 1l-1-1c1 0 0 0 0 0v-1 0l-1 1s0-1 0 0c1-1 0 0 0 0h-1l1-1-2 2 2-2-1 1v-1-1c0 1 0 0 0 0l-1 1 1-1h-3 4v-1h-1l-1 1 1-1h-1 0l1-1-3 1h1l1-1h-2 1v-1h1-1 0c0-1 0 0 0 0l-1-1s1 0 0 0v-1h1l1 1h-1 1v-1s0-1 0 0h1v-1-1 1c-1 0-1 0 0 0h-2s1 0 0 0h1l-1 1v-1 1l-1-1v1h-1v2h-1v2h1v1-1 1l1 1v1h1-1 1l1 1h-1 2v1l1 1 1-1v1h1v-1s1 0 0 0l1-1c0 1 0 0 0 0h1-1 1v-1h1-1 2l-1-1h1v-1h-1 1l-1-1c2 0 0-1 1-1h-3 1-1 1-1v1h-1l1 1h0-1v1-1l-1 1v-1 0h-1v1h-1v1l-1-1v0h-1 1-1v-1h-1v-1l-1 1h-1v3h1v-1 2h1c0 1 0 0 0 0h4v-1 1h1v-1s0-1 0 0c0-1 0 0 0 0h1v-1 2s0-1 0 0l1-1v1h1l-1-1h2-1 0v-1h1v-1 1l1-1h-1 1v-1h1-1 1v-1-1l-1-1h-3-1v1h1zm-1 2c1 0 1 0 0 0zm-1 2zm-5-7zm1 0v-1l-1 1h1zm4 5c0 1 0 0 0 0zM205 261zM211 258zM202 257zM202 252v1c0-1 0 0 0 0v-1zM204 255h1-1zM203 254c0-1 0 0 0 0zM203 254h0zM201 253s0 1 0 0zM203 255v-1 1z" class="st18"/><path d="M202 255h1v-1l-1 1zM203 254zM203 255zM201 255zM202 255v1-1zM202 256zM201 258h-1zM204 259h-1 1zM203 259zM201 259v-1 1zM200 258h1-1zM205 259h1-1zM206 258zM206 256z" class="st18"/></g><g class="st1"><path d="M202 247c1 0 0 0 0 0s1 1 0 0zM202 249zM201 250h1l-1-1v1zM199 250h1-1zM199 250c1-1 0 0 0 0zM199 250zM199 251v-1 1zM199 250v0c0 1 0 0 0 0zM199 250h0zM201 251v-1 1zM202 255l-1-1v1l-3-4 3 3v1h1zM201 254zM200 251zM202 254v1-1zM203 254zM203 254zM202 254zM202 254zM202 254z" class="st18"/><path d="M199 251v1l3 7-1-5-1-1-5-3 4 2v-1zM201 254zM201 253v1zM203 253h-1 1zM202 254zM204 253zM202 253zM203 253zM202 254zM202 254v-1 1zM203 250v1l1 2v-1h-1 1l-1-2v0zM203 253h1-1zM203 253v0c0-1 0 0 0 0zM200 253zM200 253h0zM202 253v0zM204 253v-1zM204 252v1zM205 250zM207 254v-1 1zM205 250zM208 245zM209 244zM206 248h-1 1zM204 251h-1 1zM208 252zM203 251zM200 251zM194 253zM205 252zM205 251zM204 253zM205 252zM205 252zM205 251v0zM205 246zM202 246zM202 246l1 1-1-1z" class="st18"/><path d="M206 249h-1 1v1h-1 1-1v3h3s-1 0 0 0h1-1l1 1v-1h-1l1-1h1l-1-1h1v-1c0 1 0 1 0 0v-2c0-1 0 0 0 0v-1h-1v-1l1-1h-1v-1l-1 1v1h-1l1-1v-1-1l-2 2v-1l1-1-1 1-1-1v1c0-1 0 0 0 0l-1 1 1-1-1 1v-1l-1 2 1 2-2-1h1l-1 1c0-1 1 0 0 0h-1v1l1 1h-1l2 1v1l-2-2h-1c0 1 0 0 0 0v1l1 1-1-1 2 1h-2l1 1h-1 3l-1 1h-1 1v1h2l-1-1v-1h3v-1l-1 1-1-2h1v-1h1l-1 1h0l1-1h-1v1h-1 1l-1 1 1 1v-1-1l-1-1-1 1v1-1l-1 1h1v1h1v-1-1-1h1-1 1l-1-1v-1l1 1-1-1h1v-1 0h1c0-1 0-1 0 0v-1 1h1v-1c0 1 0 1 0 0v1s0 1 0 0v1h1-1v1c1 0 1 0 0 0v2l1 2v-1-1h1v-1l1-1-1-1h1v-1-1l1-1v-2h-1l-1 1v-1c1 0 1 0 0 0v-1h-2l-1 1h-1 1l-1 1v-1l-1 1v-1l-1 1h1v1h-2-1v2l-1-1v1h-1l-1 1v1l-1-1v1l-1 2-2 1v1h1-1v1h3v-1l2-1h-1 1-1l1-1c1 0 0 0 0 0h1l1-2 1-1h1v-1 1l1-1c0-1 0 0 0 0v-1 1h1v-1 1s0-1 0 0v-1 1s0 1 0 0l1-1-1 1h0l1-1h1-1 1s0-1 0 0h-1 1l-1 1c1 0 0 0 0 0l1-1v1s-1 0 0 0h-1v0h1a29 29 0 0 1-2 1h1v1h-1 1zm3 4h-1 1zm-1-9zm-4 6zm1 1l-1-1 1 1zm-1-7zM208 244s1 0 0 0zM206 248zM201 255v-1 1zM205 252zM202 251c1 0 1 0 0 0zM204 251c0 1 0 0 0 0zM204 251c0 1 0 0 0 0zM205 251zM204 250v1-1zM205 250zM205 250zM204 250zM205 251v0zM206 251l1 1-1-1zM206 252s0 1 0 0zM202 253h0z" class="st18"/><path d="M201 249c-1 0 0 0 0 0 0 1 0 0 0 0zM201 249v0zM194 254h-1 1zM194 254h-1l1 1v-1zM210 253h-1 1zM205 250h1zM205 249s1 0 0 0z" class="st18"/></g><g class="st1"><path d="M216 242zM216 243zM216 243c0 1 0 0 0 0zM216 242zM216 242zM216 242v-1 1zM216 242zM216 242s0 1 0 0zM216 242v0zM216 244s0-1 0 0zM216 242zM216 242zM216 243zM216 242v-1 1zM216 242v-1 1zM216 242v-1 1zM216 242zM216 242zM216 242zM216 243h-1 1zM216 243v-1 1zM216 243zM216 242zM216 242zM215 242zM216 242zM216 242zM216 242zM216 242zM215 244v-2 1c0 1 0 0 0 0v1zM215 242h0zM216 242l-1 1 1-1h-1 1zM215 244zM215 244v-1 1zM215 243v1-1c0 1 0 0 0 0zM216 242h-1zM215 242h1-1zM213 246zM213 246zM215 242s0-1 0 0zM214 244zM214 245zM213 246v0zM215 242zM213 242zM215 242zM212 246zM212 242zM215 242zM215 243zM215 244zM215 242zM215 242zM215 242zM213 245zM214 246zM214 246c0-1 0-1 0 0v-1 1z" class="st18"/><path d="M213 246v-1 1c0 1 0-1 0 0v-1 1-1 0c1-1 0 1 0 0v1l1-1v-2 3-1-1 2-1 0c0 1 0-1 0 0v1-3 3-1 1-1-1a28 28 0 0 0 0-1v3s0-1 0 0l1-3a15 15 0 0 1-1 2s0 1 0 0l1-1-1 1h1-1 0l1-2c0 1 0-1 0 0v0s0 1 0 0v-1 0s0 1 0 0c0 0 0-1 0 0v-1 1c0 1 0 0 0 0 0-1-1 1 0 0h-1 1-1 0v1-1 0a11 11 0 0 0 0 1s0-1 0 0c-1 1 0 0 0 0v-1h-1 0v1-1c0 1 0 0 0 0v1l-1-1v1c0-1 0 0 0 0v-1 0c0 1 0 0 0 0v1-1s0 1 0 0v1l-1-1c1 0 0 0 0 0l1 1-1-1v1l1 2c0-1 0 1 0 0v1-1 1-1-1s0 2 1 1v1s0-1 0 0v-1s0-1 0 0v1s0-1 0 0v-1 0s0 1 0 0v1-1 1c0-1 0 0 0 0s0-1 0 0zm0 0c0-1 0 0 0 0zm1-1zm1-3zm0 0zm-3 0c0 1 0 0 0 0zM214 245zM213 246zM214 246zM215 242zM215 244zM215 243zM215 243zM215 242c0-1 0 0 0 0zM215 244zM215 244zM215 244zM215 244zM215 244zM215 245v-1 1zM215 245h-1 1zM214 244l1-1zM214 246zM214 246v-1 1zM211 242zM211 243v-1 1c0-1 0-1 0 0zM213 247v-1 1zM213 246zM213 247s0-1 0 0z" class="st18"/></g><g class="st1"><path d="M216 391c-29 6-60 7-88-1-13-4-25-10-34-19-5-5-9-11-12-18-2-5-2-12-5-18s-7-11-8-18c0-7 5-13 10-18l10-13 9-18 21-36c8-11 18-21 30-28s25-11 39-14c11-2 22-6 32-12 10-5 20-11 27-19 8-9 13-19 17-31 8-26 8-56 26-78 8-10 18-18 29-25 10-8 26-17 36-3 4 7 4 14 3 21 0 4 0 8-2 11l-6 7-5 4a259 259 0 0 0-21 24l-25 34-12 17-13 17c-5 4-12 6-19 8-2 1-1 5 1 4 7-2 13-4 19-8 5-4 8-9 12-15l27-37 29-37 13-12c5-5 6-9 7-16 1-12-2-26-14-32s-25 4-35 11c-11 8-21 16-29 26-9 12-13 25-16 38-4 15-6 31-11 45-5 13-12 24-22 32s-22 14-34 18c-14 5-28 6-41 12-13 5-24 13-34 22-10 11-17 23-24 35l-12 20c-3 7-5 13-9 18-8 10-19 18-16 32 1 7 5 12 8 17l3 11 3 10c6 12 16 21 28 27 25 14 58 15 86 13l23-4c2 0 1-4-1-4z" class="st5"/></g><g class="st1"><path d="M355 62a287 287 0 0 1 44-34c3-1 7-3 10-1 4 1 6 6 8 9l4 10 1 4-1 1v6l-13 60c-7 25-15 51-30 73l-11 13c-4 4-9 6-11 10s-1 6 1 9l4 8-1 5-3 4-6 5c-1 2 0 3 1 4l8 3v-4l-15 4c-2 1-2 3-1 4l8 6 1-3-12 6c-2 0-1 3 0 3l10 4v-4l-14 6c-1 0-2 3 0 4l13 5 1-4-16 2c-2 0-3 3-1 4l9 7 1-4h-14c-1 0-2 1-1 3l7 11 1-3-8 1c-2 0-4 0-5 2l-2 3a215 215 0 0 1-18 30c-6 6-12 13-19 17-3 1-1 5 2 4 7-4 13-10 18-17a182 182 0 0 0 20-30l2-5c0-1 0 2-1 1l4-1 8-1c2 0 2-2 2-3l-8-11-2 3h14c2 0 3-3 1-4l-9-7-1 4 16-2c2 0 3-3 1-3l-13-6-1 4 14-6c2-1 2-3 0-4l-10-4 1 4 12-5v-4l-8-6-1 3 15-4c2-1 2-4 0-4l-8-3 1 3c3-2 7-5 9-9 3-4 2-12-1-16-2-2-4-4-3-7l3-3 5-4 11-11c17-21 25-48 33-74 6-21 10-43 13-65 1-3 2-7 1-11-1-7-5-15-10-21-3-3-6-5-11-4s-11 4-15 7l-17 12c-7 6-14 11-20 18-2 1 1 4 3 3z" class="st5"/></g><g class="st1"><path d="M97 329s-1 0 0 0zM96 328h-1zM95 328s1 0 0 0h0zM97 327c-1 0-1 0 0 0zM97 327zM96 327h0zM96 327zM96 327zM96 327zM95 328zM97 326l-1 1 1-1zM96 327v-1 1zM95 327h1-1zM96 326h1-1zM96 326h0c1 0 1 0 0 0zM96 326zM96 326zM96 326zM96 326zM96 327h-1 1zM95 326v1h1l-1-1zM95 326h1zM96 326zM96 326zM96 325h-1 1zM96 326zM96 326zM96 326zM96 326zM93 326h1l1-1-1 1 1-1-2 1h0zM95 326h1v-1h-1zM96 326h-1 1zM94 327zM94 327s1 0 0 0h0zM95 326h-1 1zM96 325zM96 325zM92 328zM92 328zM90 321zM91 324zM93 325h-1 1zM91 330zM95 323zM88 326zM95 323zM86 335zM82 333zM96 324zM94 325zM93 323zM95 324zM96 324zM96 324h-1 1zM88 332zM94 323zM94 323c-1 0-1 0 0 0h-1 1z" class="st18"/><path d="M91 329h1l-1-1h1v1l-1-1h1-1 1l-1-1 1 1v-1 1h1l-1-1h0v-1h1-1c-1 0 1 0 0 0h1l-1-1-1-1 1 1h-1 2-1 1l-1-1h1v1c0-1 0 0 0 0v-1h-1 1c1 0-1 0 0 0-1 0 0-1 0 0l-1-1h1l-2-1 2 1h1l-1-1h1-1 1-1 1l-2-1 2 1-1-1h-2 3l-3 1s-1 0 0 0h-1 1-1 1v1s-1 0 0 0l3-1h-1l-2 1h2v1h-1c1 0 1 0 0 0h3-2 1-1v1h1-1 2-1 2-1l1-1s-1 1 0 0h-1v0c1 0 1 0 0 0v-1-1c1 0 0 0 0 0h-1v-1c1 0 0 0 0 0l-4-1 1 1h-1 1-1 1-1l1 1h-1 1s0 1 0 0l-1 1c1 0 0 0 0 0v1l-1-1s1 1 0 0l1 1v1c1 0 0 0 0 0v1l-1-1v1l-1-1v1h1s-1 0 0 0v1h-1v1h-1v1l1 1v-1h-1l-1 1h-1 1v1h-1v1l-1-1 1 1-1-1v1s0 1 0 0c-1 0-1 2-2 1l1 1-1-1v1l2 1c-1 0 0 1 0 0v0h2s-1 0 0 0v-1 1l1-1h-1l1-1v-1 1h1l-1-1h1v-1 1s0-1 0 0c1 0 0 0 0 0h1-1 1 1l-1-1 1 1-1-1c1 0 0 0 0 0v-1 1h1l-1-1h1v1-1l1 1-1-1h1v-1l1 1-1-1zm1-2c-1 0 0 0 0 0zm0-2zm3-1zm0 0zm-9 6zM92 325zM91 330zM91 323zM96 325zM94 326zM95 325h-1 1zM94 325h0zM95 324h0zM94 325zM94 325zM94 325zM93 325zM93 324zM92 324h1-1zM92 324zM92 322h1zM94 322c1 0 0 0 0 0zM94 322zM82 333zM82 334v-1 1zM93 328v-1 1zM92 328zM92 330s-1-1 0 0z" class="st18"/></g><g class="st1"><path d="M220 242h0zM219 240zM218 239v1h1l-1-1zM218 237v0zM218 238s0-1 0 0zM218 237zM217 237zM218 237h-1s0 1 0 0h1zM218 237l-1 1 1-1zM217 239h0zM216 236h1-1zM216 236v0zM217 238zM215 236l1-1-1 1zM215 235h-1 1zM214 235zM216 236zM215 236zM216 236zM216 237v0zM216 237zM215 237h1-1zM214 236s1 0 0 0zM215 236zM213 236zM214 236h0zM214 235v0zM215 236zM215 236zM212 238h1v-2h-1l1 1h-1v1zM213 236v-1 1zM214 236l-1 1 1-1c-1 0 0 0 0 0h-1 1zM215 238zM215 238c1 0 0 0 0 0h1l-1-1v1zM215 237h-1 1zM213 235l-1 1 1-1zM212 236v-1zM192 249v0zM192 249zM201 238h-1 1zM195 244zM196 245zM190 253zM207 236s0 1 0 0zM189 247zM206 236h1-1zM186 265zM184 270v-1 1zM210 235zM211 237zM206 239zM210 236zM210 235zM210 236v-1 1zM186 258zM200 243zM200 243l-1-1 1 1zM191 251v-1-1h1v-1 1-1 1l1-1v1h1l-1-1h1v-2 0h1v-1h1l-1-1v-1 1l1 1h1v-2 1h1v-1 0l1-1 1 1-1-2 1 2v-1h1l-1-1 1 1v-1 1h1-1l1-2v-1h1v3l1-1-1 1v-2l1 1h1l-1-3 1 1v1s0 1 0 0c0 0 1 0 0 0h1v-2 1h2v0h-1l1-2v1c1 0 0-2 1-1v1h-1 2v-1h1s0 1 0 0l1-1-1-1v1l-1-1v1l-1 1v-1h-1l-2 1v-1l-1 1h-1l-1 1h-1 1c-1-1-1 1-2 1h-1 1-1v1h-1v0l-1 1h-2v1l-1-1v1h-1c1 0 1 0 0 0l1 1h-1v1h-1v1h-1c1 1 0 0 0 0v1l-2-1 1 1-1-1-1 1 1 1h-1v1h-1v1h-1v2l-1 1s-2 0-1 1v1h1-1l-2 3h1s-1 0 0 0v1l-1-1v1h1-1v1h1s-1 0 0 0l-1 1v1l1 1h-1v8h1v-1 1l1 1-1-1 2-1v-1h1-1v-2-1-1-2s-1 0 0 0c0 0 0-1 0 0l-1-1h1l-1-1 1 1v-1c0-1 0 0 0 0l-1-1h1l1-1h-1s-1 0 0 0h1s-1 0 0 0v-1h0l1-1s0 1 0 0h-1v-1l1 1-1-1h1v-1s1 0 0 0v1l1-1h-1 1v-1 0l1 1v-1-1h1l-1-1h1c-1 0-1 0 0 0zm2-3h-1 1zm3-4zm13-8zm0 0zm-26 22c1 0 0 0 0 0zM196 245zM190 253zM205 241v-1 1zM211 235zM213 238v-1 1zM211 237h0zM212 237c0-1 0 0 0 0z" class="st18"/><path d="M210 236s0-1 0 0c0-1-1 0 0 0zM211 238v-1 1zM210 237h1-1zM211 237zM211 238zM208 238zM209 239v-1 1zM208 239zM204 239h1-1zM202 242c1 1 0 0 0 0zM202 242zM184 271zM184 271zM194 249h-1 1zM192 250h-1zM191 252z" class="st18"/></g><g class="st1"><path d="M224 253h-1 1zM224 255zM224 256v-1 1zM223 256zM223 256s-1 0 0 0zM223 256h-1 1zM223 256zM223 256zM223 256zM225 256s-1 0 0 0zM222 257zM222 257h0zM224 257l-1-1 1 1zM222 258v-1 1zM222 258h-1 1zM222 258h-1 1zM222 258s0-1 0 0zM222 258zM222 258zM223 257h0zM223 258v-1 1zM223 258zM222 258v0zM222 258zM222 260v-1 1zM222 258zM222 259zM222 258zM222 258zM223 261v-1h-1 0l1 1zM222 259h-1 1zM222 259h0zM224 258zM224 258h-1 1zM223 258v0zM221 259l1 1zM221 260zM206 275zM207 275zM216 267zM212 272zM212 273zM202 276zM220 263l-1 1 1-1zM206 271v0zM219 264zM189 273zM187 268zM220 261zM222 261v0zM221 266zM221 261zM220 261h0zM220 261h1-1zM196 274zM216 271zM216 272v-2 2zM204 276h1l-1 1 1-2v1l1-1h1v-1 1-1 1h1-1l1 1v-1h1l1-1 1-1v0h1v-1h-1l1-1v2h1v-2l1 1-1 1 1-1v0c1 1 0-1 0 0h1l1-1v1l-1-3 1 2h1l-1-1 1 1v-1 1-1l1 1v-1-1l1 1-1-3 1 3c1 0 0 0 0 0h1v-1 1l-1-2 1 1s0-1 0 0v-1h1l-2-2h1l1 2v-1l-1-2 1 1v-1h1v0l-1-1c0-1 0 0 0 0v-2l1 1h-1 1v1l1-2h-1v-1s1 0 0 0l-1-1s1 0 0 0v1h-1 1v1h-1s0 1 0 0v1l-1 1v1h-1v1h-1 1l-1 1h-1 0v1c0-1 0 0 0 0v1l-1-1v1h-1l-2 1c1 0 0-1 0 0 0 0-1-1 0 0h-1v-1 2h-1l-1 1v-1 1h-1l-1-1c0-1 1 0 0 0h-1v1s0-1 0 0h-1-1l-1 1v-1l-1 1v-1h-1-1l-1 1v-1h-3c0-1 0 0 0 0v-1 1l-1-1v1l-1-1-1 1-1-1-2-1v1-1s0 1 0 0h-2l-1-2c0 1 0 1 0 0v1l-1-1c0 1 0 0 0 0l-1 2c1 0 0 2 1 1l1 1h1v1h1v1-1l2 1v-1l1 1 1-1v1l1 1v-1s0-1 0 0l1 1s0-1 0 0l1-1h-1 1c0 1 0 0 0 0l-1 1h1c0-1 0 0 0 0h1-1l1 1v-1c1-1 0 1 1 1v-1 0h1c0 1 0 0 0 0v1h1v-1s0 1 0 0v1l1-1v1h2l1-1v1l1-1-1 1zm4-1h-1 1zm4-3c0 1 0 1 0 0zm8-10zm1 0h-1c1 0 1 0 0 0h1zm-26 10zM212 273zM202 276zM221 268zM221 260v0zM224 260h-1 1zM222 261c0-1 0 0 0 0zM222 261v-1 1zM221 262l-1-1 1 1zM223 261zM222 262zM222 262zM223 261v1zM221 264zM222 264h1-1zM222 264l1 1-1-1zM220 267l-1-1z" class="st18"/><path d="M219 271v-1h-1l1 1zM218 270zM186 268zM186 268zM208 276v-1 1zM206 276v-1zM204 277s0-1 0 0z" class="st18"/></g><g class="st1"><path d="M195 371zM194 371h-1zM193 370v1h1l-1-1zM193 369zM193 369zM193 369zM193 369zM193 369s0 1 0 0zM193 369v0zM192 371h0zM192 368v0zM192 369zM192 370h1-1zM192 368zM192 368v-1 1zM191 368l1-1-1 1zM192 369v-1 1zM192 369v-1 1zM192 369zM192 369v0zM192 369zM191 369h1zM191 368zM192 368h-1 1zM190 367zM191 368zM191 368s0-1 0 0zM192 368zM192 368h-1 1zM189 369l1-2v1c-1 0 0 0 0 0l-1 1zM191 368v-1h-1l1 1zM191 368h-1 1c-1 0 0 0 0 0zM191 370zM191 370v-1 1zM191 369h-1 1zM190 367h1-1zM190 367zM172 361zM173 361zM183 362s1 0 0 0zM178 361h-1 1zM177 363v-1 1zM170 360l-1 1 1-1zM187 365zM174 358zM187 365s0-1 0 0zM160 358zM157 355zM189 366zM189 367zM185 366zM189 366zM189 366zM189 366zM165 358zM180 364zM180 365v-1 1zM171 361v1l1-1c0 1 0-1 0 0h1v2l1-2s0 1 0 0v1h2c0-1 0 1 0 0h1l1-1-1 1 1-1-1 1v1l2-1-1 1c0-1 0 0 0 0h1v1l1-1v1l1-2-1 2v1l1-1v1-1 1l1-1v1l2-2v1l-2 2h-1l1 1 1-1h-1l1-1-1 1h1v1l2-3v1l-1 2v-1 1l1-1 1 1h-1 1l-1 1 1-1 1-1h1l-1 1 1 1v-1h1v1-1h0l1-1h-1v1h-1l1-1-1 1 1-1-1-1s0 1 0 0h-1v-1h-1v-1 1l-1-1v1l-1-1c1-1 0 0 0 0h-1v-1 0l-1 1v-1h-1 1-1l-1-2-1 1 1-1h-1v-1l-1 2c0-1 0-1 0 0v-1h-1c1 0 0 0 0 0l-1-1v0-1h-1s1 0 0 0c0-1 0 0 0 0h-1s0-1 0 0h-1v-1h-2-1v-1h-1v1l-1 1v-1-1l-2-1v1-1l-1 1v-1 1l-1-1h-1v1l-1-1h-2v-1 1c-1-1-2 1-3-1v1h-1l1 2s0 1 0 0v1l1-1 1 1v-1l1 1c0 1 0 0 0 0h2c0-1 0 0 0 0h1c-1 0 0 0 0 0v-1 1h1v-1l1 1h-1l1 1v-1h1l-1 1s0-1 0 0l1-1v1s0 1 0 0c1-1 0 1 1 1v-1 0h1-1 1v1c0-1 0-1 0 0v-1s0 1 0 0v1l1-1v2l1-1s0 1 0 0v1l1-1v1s0-1 0 0zm3 0h-1 1zm3 1zm11 4zm0 0h1-1zm-23-11zM177 362zM170 360zM184 367s-1 0 0 0zM190 366v0zM189 369h0zM189 368c1-1 0 0 0 0zM189 368zM189 366s-1 0 0 0zM189 368zM188 368zM188 368zM188 368zM187 367h-1 1zM186 368h1-1zM186 368zM184 365h1zM181 366s0-1 0 0v-1 1zM181 365h0zM156 354zM156 355v-1 1zM173 362h1-1zM172 361zM170 361h1-1z" class="st18"/></g><g class="st1"><path d="M237 349zM235 350zM234 349v1l1-1h-1zM233 348zM233 348zM233 348v0zM232 348zM233 348h-1 1zM233 348v0zM233 350h0zM231 347v0zM231 348zM232 349l1-1-1 1zM230 347h1-1zM230 347v-1l-1 1h1zM229 347zM231 348l-1-1v1h1zM230 348zM231 348zM232 348l-1 1 1-1zM231 348zM230 348h1zM229 347v0zM230 348zM228 347zM229 348h0zM229 347zM230 347zM230 347v0zM227 349l1-2-1 1h1-1v1zM228 347zM229 347l-1 1h1v-1h-1 1zM231 350zM231 349v0zM230 349h-1 1zM228 347zM227 347zM197 345zM198 345zM214 344s0-1 0 0zM205 345zM205 346zM192 345zM222 346h-1 1zM198 342zM221 345v0zM175 343zM171 339zM225 346zM225 348zM220 347zM225 346zM225 346zM225 346zM184 343zM211 347zM210 348l1-1v-1l-1 2z" class="st18"/><path d="M195 345v1l1-1h2l1 1v0l1-1v2l1-1h1l1-1v1h2v-1-1 2l1 1 1-2v1h-1v1l1-1v1l1-1v0l1 1 1-1v1l1-2v2s0 1 0 0v-1l1 1s0-1 0 0v1l1-1-1 1h1v-1l1-1v2l2-3v1-1l-2 3h1l-1 1h1l1-1h-1l1-1v1h1v-2l1 1v1s0 1 0 0c0 0 0 1 0 0h1l1-1c-1 0 0 0 0 0l1 1v1l1-1h-1l1-1c1 0 0 0 0 0h2v1h-1l1 1 1-1h-1 1l1-1v1h-1 1l1-1h-1v-1h-1c0 1 0 1 0 0v1c-1 0 0 0 0 0h-1v-1h-3-1v-1l-2-1v1h-1-1-1-1 1l-1-1v1-1 1l-1-1-1 1v-1l-1 1 1-1-1 1v-1l-1 1-2-2-1 1v-1h-1v1h-1v-1h-1-1c0 1 0 0 0 0h-1-1v-1h-1-2-1-2v-1l-1 1h-1v-1h-2 1-3v1l-1-1-3-1v1-1h-1 1-2v1l-2-1h-1v1l-1-2v1l-1-1h-2v1-1h-1c-1 0-3 1-4-1v1h-1-1 1v2h1v1h3l-1-1 2 1v1h1l2-1h2v1l1-1v1h1v-1h1v1h1l1-1-1 1h0v1l1-1v1h1v-1l1 1c1 0 0 0 0 0l1-1v1l1-1-1 1h1-1 2s-1 0 0 0h-1l1 1v-1c1 0 0 0 0 0h1l-1 1h3l1 1v-1h1zm4 1c0-1 0-1 0 0zm7 0h-1 1zm18 0zm0 1v-1 1zm-40-7c-1 0 0 0 0 0zM205 346zM192 345zM218 349v-1 1zM226 346v0zM228 349zM226 348h0zM227 348z" class="st18"/><path d="M225 346c0 1 0 0 0 0s-1 1 0 0zM226 349v-1 1zM225 348zM225 348zM226 349zM222 348zM223 349v-1l-1 1h1zM222 349s-1 0 0 0zM218 347v-1zM213 348h1s-1 0 0 0h-1zM214 348zM170 338zM169 339v-1 1zM200 347l-1-1 1 1zM197 346v-1zM194 346s0-1 0 0z" class="st18"/></g><g class="st1"><path d="M270 325s-1 0 0 0zM267 325zM265 324h1v1-1h-1zM264 322c0 1 0 0 0 0zM264 322c1 0 0 0 0 0zM263 322h0zM263 322zM263 322c0 1 0 1 0 0 0 1 0 0 0 0zM263 323c1 0 1 0 0 0 1 0 1 0 0 0zM264 324l1 1-1-1zM261 321v1h1l-1-1zM261 322zM262 323h1-1zM260 321zM259 321v-1 1zM258 320h1-1zM260 322v-1 1zM260 322zM260 322zM262 322l-1 1 1-1zM260 322h1-1zM260 322zM259 321h-1 1zM259 321zM256 320zM259 321zM258 320v0zM259 321zM259 321zM255 322h1v-2 1l-1 1zM257 321v-1h-1l1 1zM258 321l-1 1 1-1c-1 0 0 0 0 0h-1 1zM261 324zM260 323h1v0l-1-1v1zM259 322h-1l1 1v-1c0 1 0 0 0 0zM256 320zM255 320h1-1zM212 318zM213 318zM237 316l-1-1v1h1zM223 316h0zM223 318zM205 319zM248 318h-1 1zM212 314zM247 318c0-1 0-1 0 0zM180 322zM172 320h0zM252 319c1 0 1 0 0 0zM253 320v0zM244 319zM253 319zM253 319zM252 319h1s-1 0 0 0h-1zM193 318c0 1 0 1 0 0zM232 319zM231 319h1v-1l-1 1z" class="st18"/><path d="M209 318v1l1-1h3l1-1h-1 1l-1 1h2-1l1 1v-1h2v0h2l1-1h1v1l1-1 1 1v-2h1v1l-1-1v1l1 1 3-1v1h-2c1 0 0 0 0 0h6v1l2-3-1 3h1v-1 1l1-1v1-1 1h1l2-1v1l2-2-2 2v1c1 0 0 0 0 0h1l1-1v1h1-1 2v-2l1 1v1h1l2-1c-1 0 0 0 0 0l1 1v1l1-1v1h1l-1-1 1-1 1 1 2-1-1 1h-1 0l3 1v-1h1v1s0-1 0 0h1v-1h0l-1-1-1 1v-1 0h-1l-1-1s0 1 0 0h-3l-1-1h-1l-2-1v1h-2l-1-1h-3-1c0-1 0 0 0 0h-1-1-1c-1 0-1 0 0 0h-2l-4-1h-1-1v-1l-1 1h-1-6l-1-1c0-1 0 0 0 0h-2v1l-2-1-1 1c0-1-2 1-2-1l-1 1v-1l-1 1h-2-2-2-1v1h-1 1l-2-1-5 1h1-1c0-1 0 0 0 0v-1l-1 1h-1v1h-5v1l-1-1-1 1v-1l-3 1v1l-1-1s0 1 0 0v1h-4l-3 1v1l-1-1-1 1 1 2c1-1 2 1 2-1v1l1-1h3v-1l2 1v-1 1-1l1 1h1l-1-1 4-1h2l1-1h1c-1 0 0 0 0 0h1v-1l2 1h1v-1l-1 1 2-1h-1 1l-1 1s1 0 0 0h3-1 3v-1h2-1 1v1l1-1c-1 0 0 0 0 0s0 1 0 0v1h1v-1h1l-1 1 1-1 1 1 1-1h2v1l1-1h1zm6 0h-1 1zm9-1zm27 2c-1 0-1 0 0 0zm0 0zm-60-3zM223 318v-1 1zM205 318v1-1zM242 320zM254 319zM257 322s-1 0 0 0zM254 321h0zM255 321z" class="st18"/><path d="M252 319c0-1-1 0 0 0zM254 322v-1 1zM252 321h0zM253 321zM254 322h-1v-1zM248 320zM249 321zM248 321s-1 0 0 0zM242 319v-1zM236 320s0-1 0 0v-1 1zM236 319zM171 320zM171 321l-1-1v1h1zM216 319h-1 1zM211 318zM208 319z" class="st18"/></g><g class="st1"><path d="M360 173zM357 178l-1 1zM353 183l2-2v-1l-2 3zM350 185l1-1-1 1zM351 184s-1 1 0 0zM349 187v-1s0 1 0 0v1zM349 188v-1 1zM349 186v0zM350 186s1-1 0 0c1-1 1-1 0 0zM353 184l1-1-1 1zM346 191h1v-1l-1 1zM347 191l-1 1 1-1zM349 188l1-1-1 1zM344 194v-1 1zM343 196l-1 2 1-2zM342 198zM346 193l-1 1v-1h1zM345 193v0zM346 193zM348 190v0zM346 193l1-1s-1 0 0 0l-1 1zM346 193zM343 197v1l1-1h-1zM344 195zM342 201zM344 197v-1 1zM342 200v-1 1zM344 195zM344 195v0zM342 206v-2l1-1v-1l-1-1v5-1 1zM342 200v1-1zM343 199v0c0 1 0-1 0 0v-1l-1 1h1-1v1l1-1zM348 192zM348 193v-1s1-1 0 0l-1 1h1zM345 196v0zM342 201l-1-1 1 1zM341 201zM338 126zM339 131s-1 0 0 0zM341 163v-1 1zM337 140zM335 141l-1-1 1 1zM341 108h-1 1zM338 190v-1 1zM342 127v-1 1zM338 187v0zM382 59zM400 54h-1 1zM340 200c1 0 1 0 0 0zM340 203zM335 183zM340 200zM341 200zM340 200zM357 83c0-1 0 0 0 0zM336 155zM334 155h2v-1l-2 1z" class="st18"/><path d="M338 118v1c0-1 0-2-1-1l1 4v1 3c0 1 0 1 0 0v2c0 1 0 1 0 0v3h1l2-1v1l2-1-1 1h-1 4-1l2 1-2-2 2 2-1-1h1l-1-1h-1c1 0 1 0 0 0v-1 1h-2 1v1h-1l-3 2c-1 0 0 0 0 0h-1l-1 1-2 1-2 1h-1l-1 1 2 1 1 2 1-1 2 1-1-1 1 1h0v1c1 0 0 0 0 0v-1h-2l1 1v1l2 2h2l1 1 1 1h-1-1v-1h-1c1 0 0 0 0 0l1 1v1h-1l-1 1-1 1-4 2-1 1 1 1h1l-1 1 4-1v2h-1v1h1l1-1v1h1l-1 1 1 1h-1l-1 2 1-1v4h-1l2 5h-1v1l-1-5-1 2v-1l-1 2 1 2v-3 4l-1-1v5l-1 1h3l-1 3c-1 0-1-2-2-1l1 1h-1c1 0 0 2 1 1l-1 2 2 2h-1v6l1 3-1-3c1 0 2 1 2 3v1l1 2 1 2-1 1-1-3v3l1 2v2h1v-1c0 1 0 1 0 0l1 1v2l1 1v-2-1-1-1s0 1 0 0h-1v1l-1-1h0l1-1v-1l-1-2v-1l-1-2h1c-1-2-2-3-1-6v-2-3-2-3-1-2-2l1-2v1l1-6v-1-2h0v-1l1-2v-2-1l-1-1v-1-1h-2v-1h-2-1l-1-1v2h1l3-2 3-2 2-1 1-1-1-1v-1l1-1-3-2-1-1h1l-1-1 1 1c-2-2-2-1-3-1v-1h-1v-1h-1l-1-1h2v-1h1l4-1-1-1h1l3-1h-1 2l2-1-1 1 1-1v-1-1l1-1-1-2h-2-2-1l-1 1-1-1h1l-1-1v-1-1-3-1l1-1v-2-3h1v-2-2h1l2-5c0-2 3-5 2-6l1-2c-1 2-1 0-1 0h1l1-1 1-1 7-10h-1l1-1v1l1-2v1l1-1v1l1-2c0-1 0 0 0 0l1-1 1-1h-1v-1l3-2 3-2 2-3v-1c1 1 2-1 3-1-1 1 3-2 1-2l1 1 7-5-1-1h2l1-1 7-4c2-2 5-3 8-3v-1l2-1 2-1-1-1h-3l-3 1s1 0 0 0l-2 1h1l-7 3h-1 1l-5 3c-1 0 1 0 0 0h-1v1h-1l1-1-3 2h1l-7 6-3 2-1 2-1-1-1 3h-1l-1 1c1 0-1 1 0 0-2 1-2 3-4 3l2-1-1 2-3 1-2 2v1l1-1c0 1 0 2-2 3v-1l-1 1 2-3-1 1-2 3v1-1l-2 2h1c-1 2-2 0-3 3v-1l-1 2c-1 1 1 0 0 0v2h-1c-1 2 1 1-1 3v-1 1-1l-2 3 1 1c-1 1-1-1-1 1v-1-1l-1 2v2l-1 1v-1l-1 2s0 1 0 0l-1 4v1l-1 2-1 2v1 2l-1 4v-2zm7 13h-1 1zm-7 11h-1 1zm1 55zm1 2l-1-1 1 1zm21-118c1 0 0 0 0 0zM335 141v-1 1zM341 108zM334 177zM341 201zM343 202l1-1h-1v1zM341 204v0zM341 205v-1 1zM340 200s1 0 0 0c1 0 0 0 0 0zM341 207v-1 1zM339 202l1 1-1-1zM340 203v0zM340 206v-1 1z" class="st18"/><path d="M337 192l-1-1v1h1zM336 196v-1 1zM335 193v-1 1zM336 176zM337 161v0zM337 162v0zM403 53zM404 52v1-1zM344 129s0 1 0 0c1 1 0 0 0 0zM338 125zM338 115v0z" class="st18"/></g><g class="st1"><path d="M198 477c-18-25-30-52-40-81-1-2-5-1-4 1 10 29 22 57 40 82 1 1 5 0 4-2z" class="st5"/></g><g class="st1"><path d="M357 214c24 2 47-3 68-14 1-1 0-2-1-2-20 11-44 16-67 14v2z" class="st5"/></g></g><g id="WW" class="st0"><circle cx="257" cy="287" r="204" class="st12"/><path d="M-1 539h519v144H-1z" class="st13"/><text class="st14 st7 st8" transform="translate(56 587)">WORKPLACE</text><text class="st14 st7 st8" transform="translate(89 661)">WELBEING</text><path d="M367 170c-3 3-2-6-5-2l4-24c8-26 10-41 4-45-5-3-18 9-24 13-4 3 3-30 2-24l-1 6-1-8c0-8 3-7-3-14s-3-4-9-5c-2 0-11 6-11 7-4 2-8 3-10 7-13 33-6 47-15 81-1-1-1 13-2 12-3-1-1 14-4 13-1-5 3 7-2 6-12-4-5-11-17-14-5-1-8-9-11-7-1 1-18-10-19-9-10-3-48-4-59-1s-18 10-12 19c5 10 10 16 21 18 5 1 13-2 18 0l29 14 11 17c0 2-3 20-2 22-6 7-13 29-20 35-6 7-14 18-21 24l-8 5-9 7-9-3h-2l-5-4-4-9c0-4-2-6 0-16-1-24 5-47 5-76 0-9-9-20-17-17-4-3 0-2-5-1-4 2-7 3-10 7l-5 6c-3 5-6 6-9 13-5 11-4 7-7 17-3 11-2 21-3 31-3 21 1 42 3 62 2 22 3 43 10 63 6 20 13 40 29 54 6 6 5 11 11 16 1 3 10 8 12 10 12 9 16 14 31 16 15 1 22-2 39-4l5-1c28-10 41-18 57-44 8-12 18-29 22-42l14-44 27-90c10-34 11-66 14-101 1-11-20-4-27 4zM162 416l-1-2-1-4 2-7-1-8 3 8c3 8 6 16 11 23l-5 2c-3-4-6-7-8-12zm136-53l-3 8-12 10a565 565 0 0 1-32 25l-3 2-18 6a248 248 0 0 1-16-17l-11-23c-2-3-5-5-9-6a504 504 0 0 0-14-15l1-8v-1l6-4 11 2c22 0 41-14 53-32l2-5c2 4 6 8 10 8 6 1 14-3 15-9v-2h1l6 3-1 15c0 7 6 14 13 13h2v1l-1 29zm22-170l-2 12c-1 1-3 2-3 4l-5 12 1-6 8-32 2-8-1 18zm43 25v-1-1 2z" class="st15"/><g class="st1"><path d="M224 391zM222 390zM222 388v0zM223 387c-1 0-1 0 0 0zM223 387zM222 386h0zM222 386zM222 386zM222 387zM221 388v0zM222 385zM222 385h-1 1zM221 386l1 1-1-1zM222 384h-1zM221 383h0s1 0 0 0zM221 383zM221 384zM221 384zM221 384zM221 386h-1 1zM221 385zM221 385zM221 383zM221 384zM220 382zM221 383v0zM221 382v0zM221 384zM221 384zM218 382h2l-1-1v1h-1zM220 382zM220 383h-1 2-1 1l-1-1v1zM220 386zM220 385v1l1-1h-1zM220 384h-1 1zM220 381h1-1zM220 381zM204 352zM204 353h0zM215 368v-1 1zM209 360zM208 360zM202 348h-1 1zM218 375s-1 0 0 0zM208 351zM218 375zM195 331v0zM195 324h0zM219 379zM218 380zM215 374zM219 379zM219 379zM219 379zM199 339zM210 366zM210 366h1-1zM203 350v1h-1 2v1l-1-1 1 1 1 1h-1 1c0 1 0 1 0 0v1l-1 1 1-1v1l1 1h-1 1l1 1h-1 1v2h1v1h1v-1h1l-1 1h1-1-1v1l2 1h-1l-1-1v1h1v1h1-1 1v1l1 1h-1 2l-2 1v1l1-1v1h1-1 1l-1 1 2 1h-1 2v1h1-4v1h1l-1-1 2 1h-1v1-1l1 1-1 1 3-2v2h-2 1-1 1v1h1v2c0 1 0 0 0 0v0h2v1l1 1h-1v-1 1l-1-1 1 2s0 1 0 0h1l1 1h-1s0 1 0 0h1v1l1-1h-1l1-1h-2c0-1 0 0 0 0v-1h1v-1h-1v-1l-1-1v-1-1-2l-1 1v-1h-1v-1-2h-1l1-1-1 1v-1s-1 0 0 0l-1-1-1-1h1-1v-1-3h-1 1l-1-1h1-2v-1-1l-1-1v-1h-1v-1l1-1h-1l1-1-1-1s0 1 0 0l-1-1h-1c2-1-1-1 0-2v-1h-1 1l-1-1v-2l-1-2h-1-1 1v-1l-1-4v1l-1-1h1l-1-1c1 0 1 0 0 0v-1 1h-1v-2l-1-1 1-1-2-1h1l-1-2v-1s-1 0 0 0h-1c0-2-2-3-1-5 0 1 0 1 0 0l-1 1v-1l-1-1h1l-2 2v2l1 2v-1 1l1-1-1 2h1v1h-1 1l1 2 1 1v1h1v1 1h1l-1 1 1 1h0v0l-1 1h1v2l1-1-1 1h1l-1 1h2-1l1 1h-1 1-1l1 1c0-1 0-1 0 0-1 0 0 0 0 0l1 1h-1 1-1v1l1 1v1h1l-1 1c1 0 2 0 1 1v-1zm2 4zm4 6zm9 18c1-1 0-1 0 0zm0 0h0zm-17-41zM208 360zM202 348zM213 373zM220 380zM218 383h0zM219 380v0zM219 381zM219 378c1 0-1 0 0 0zM218 381zM218 380s0-1 0 0zM218 380z" class="st27"/><path d="M217 381h1v-1zM216 377v-1 1zM216 378zM215 377zM214 372h1zM211 369zM211 369h1-1zM196 323h-1zM195 323zM204 355h1-1zM204 352zM202 350z" class="st27"/></g><path d="M207 439c-6-7-14-12-21-19s-14-14-20-23c-13-22-17-48-30-70-2-2-8-15-12-14-6 2 0 36 1 48 0 10 5 19 8 30-1 2 2 6 3 10 5 16 13 30 23 43l17 21c5 6 10 13 18 15 9 2 17-3 21-11 4-11-1-22-8-30zM171 215v-3c-3-4-7-2-10 0-11 8-18 18-23 31-2 6-4 13-1 19 5 8 16 7 23 6 6 0 7-6 7-11l3-21 1-21zM211 345l1-5 2-15c0-2 10-23 7-23l-12 6c-1 2-7 9-9 8l-11 7-14-7c-10-14-4-38-8-21-6 25-3 46 10 68 10 18 22 34 35 49 3 4 13 13 14 3 0-5-3-12-5-17-3-14-10-30-10-45v-8z" class="st16"/><path d="M309 326a147 147 0 0 0-22-33c-8-7-17-10-27-10l-7-1v-1c0-5 2-9 3-13a309 309 0 0 0 5-45c0-5 1-11-1-16-3-5-8-11-12-14-5-3-19-5-23-6-19-4-16-2-33-11l-10-5h-4l-2 3c-1 2 0 5 1 7l4 8 9 5c9 2 19 0 28 3 10 3 20 8 27 15 5 5 8 15 7 23 0 6-3 14-4 20-2 12-3 3-8 16-8 12-19 25-27 38-5 8-4 22-4 31l2 34c2 12 2 24 5 36 2 7 5 15 13 16 13 2 28-10 38-16s20-12 28-19c9-7 17-16 20-27 3-13 0-26-6-38zm-50 3v-2l2 1-2 1zM390 171c-1-12-2 8-4 20l-6 35c-3 19-7 38-14 56l-22 53-18 57c-7 21-16 40-30 56-3 4-4 17 0 13l8-11c14-15 21-28 28-48l20-57c12-39 24-72 32-112 4-22 9-38 6-62zM370 105c-4-2-11 1-11 6-9 57-25 112-40 167-4 12 10 16 14 5 15-55 31-89 40-145 1-5 2-32-3-33z" class="st16"/><path d="M338 76c-5 0-8 4-9 9-7 61-22 120-44 177-1 5 2 11 7 12s7-12 9-17c26-70 49-166 43-165-5 1-1-16-6-16z" class="st16"/><g class="st1"><path d="M196 482a182 182 0 0 1-70-121l-3-47c0-3-4-3-4 0 1 27 3 55 11 81a182 182 0 0 0 63 90c2 1 5-2 3-3z" class="st5"/></g><g class="st1"><path d="M124 323c-1-20-3-41-2-61 1-19 7-37 19-52 5-6 13-14 23-10 4 1 7 5 9 9 2 5 1 10 0 15-2 21-5 41-5 62 0 9-1 20 5 28 4 7 11 10 18 11 3 0 3-4 0-4-24-2-20-34-19-51l4-32 1-16v-13c-2-7-8-13-16-14s-15 3-20 9a88 88 0 0 0-22 48c-2 11-1 21-1 31l2 40c0 2 4 2 4 0z" class="st5"/></g><g class="st1"><path d="M193 324a150 150 0 0 0 54-66c2-6 6-12 7-18 1-10-5-22-13-28-2-2-5 1-3 2 8 7 14 20 10 30s-8 21-14 31c-10 18-26 33-43 45-2 2 0 5 2 4z" class="st5"/></g><g class="st1"><path d="M242 212l-19-11c-7-4-15-4-23-4s-17-2-22-9c-5-6-6-14-3-20 1-3-2-5-3-2-6 13 1 29 15 33 9 3 20 1 29 3 9 3 16 9 24 14 2 1 4-2 2-4z" class="st5"/></g><g class="st1"><path d="M176 166c1-5 10-3 13-3h16c11 0 22-1 32 1s19 7 28 13c8 4 16 10 21 17 2 3 5 1 4-2-6-8-15-14-24-19-10-7-20-12-32-14h-55c-3 0-6 2-7 6 0 2 3 3 4 1z" class="st5"/></g><g class="st1"><path d="M272 251a401 401 0 0 0 32-123l3-27c2-7 5-14 10-20 5-5 12-11 19-10 6 0 7 5 7 10l-1 10v24c0 2 4 2 4 0l1-23V81c0-3 0-7-2-10-4-5-11-5-16-3-6 2-12 7-16 12-11 14-12 32-13 49a389 389 0 0 1-32 120c-1 3 3 5 4 2z" class="st5"/></g><g class="st1"><path d="M298 273l21-56 8-28 5-28c3-16 6-35 16-48 5-6 11-12 19-12 2 0 4 0 5 3v5l-1 12-6 54c0 2 4 2 5 0l5-53 1-13-1-10c-4-5-14-2-19 1-14 8-20 26-24 41-5 20-7 41-13 61-7 24-16 46-25 70-1 2 3 3 4 1z" class="st5"/></g><g class="st1"><path d="M331 291l19-57 19-56 5-10c2-3 8-8 13-6 4 2 4 9 5 13v14c0 20-3 40-8 59-5 21-12 41-18 62-1 3 3 4 4 1 12-41 26-81 26-125l-1-15c0-4-1-8-4-11-6-5-14-2-18 3-6 6-9 15-11 23a2820 2820 0 0 0-35 104c0 2 4 3 4 1z" class="st5"/></g><g class="st1"><path d="M366 311c-9 29-17 59-28 88-10 26-24 51-46 69-12 9-26 16-41 18-3 0-3 4 0 4 26-4 49-20 65-41 19-25 28-55 37-84l17-53c1-3-3-4-4-1z" class="st5"/></g></g><g id="CD"><circle cx="257" cy="288" r="204" class="st2"/><path d="M265 71l7-4c3-2 5-3 8 0l8 13c4 8 6 18 9 28 6 21 14 42 23 62 1 3 4 1 3-2-10-23-18-48-25-72-3-10-6-20-12-28-2-3-6-8-9-8l-5 2-9 6c-2 1 0 5 2 3zM264 122c-1 17 3 33 10 47 1 3 4 0 3-2-7-14-10-29-9-45 0-2-4-2-4 0z" class="st28"/><path d="M265 198c0-7-1-15 3-21 3-6 10-10 16-8s9 8 11 14l6 19c5 15 9 29 11 44 3 15 7 29 12 43l20 47c1 2 5 0 4-2-7-16-15-32-21-49-6-16-9-33-12-49l-14-49c-4-10-9-24-22-23-16 2-19 21-18 34 0 2 4 2 4 0z" class="st28"/><path d="M261 345c-2-13 2-25 5-37 4-12 6-24 6-37 2-25-3-51-8-76 0-3-4-2-3 1 4 25 9 51 7 77 0 13-3 25-7 37-3 12-6 23-4 35 0 3 5 3 4 0zM249 413c0 10-1 21 2 31l11 21c10 14 22 25 29 41 1 3 5 2 4-1-6-15-18-27-27-39-5-7-10-14-12-22-4-10-3-20-2-31 0-3-4-3-5 0z" class="st28"/><path d="M259 78v-8c3-1 4-5 2-8l-2-3c2-7-3-14-11-15-5-1-8 0-10 5l-5 12a8084 8084 0 0 0-12 31h-1l-21 55v8l-16 28-11 14c-6 7-12 15-15 23l-2 2-4 5c-6 2-10 6-12 13-8 8-16 17-17 29l1 16 2 19 4 8c-1-1 0 0 0 0v3l3 20 10 33 2 3 2 18v6a132 132 0 0 1-5 17l-1 4-1 3a81 81 0 0 1-8 12l-2 6c-7 9-12 18-15 29-1 4 0 7 2 9l-4 6c-1 4 1 8 5 10 7 4 15 2 20-3 3 1 7 1 10-1h8l-4 12c-4 9 8 15 15 10 3 0 6 0 8-3l9-12c3 0 7-1 9-4a423 423 0 0 0 16-29l11-7c7-6 13-15 17-24 6-9 9-19 10-31l-1-29-3-58a331 331 0 0 1 1-37v-3a174 174 0 0 0 2-8l1-8 8-31a100 100 0 0 0 2-26v-2l3-6c1-6-1-11-5-15a15 15 0 0 0-12-6l16-41c1-3 1-6-1-9l8-26c1-6-1-12-6-16zm-9 95l1 1-3-1h2zm-49 58l-6-5 15-17-9 22z" class="st20"/><path d="M366 433c-3-14-3-28-2-41 3-35 16-68 23-102 2-9 4-18 2-27-3-9-11-17-17-24-33-35-57-79-68-126-5-22-8-46-18-66-3-5-7-11-12-10-4 0-7 4-9 8-4 8-5 18-3 27h-6c-2 0-5 2-6 4l-1 11a411 411 0 0 1-12 70l-14 10c-16 13-14 40-30 53-3 3-7 6-8 10 0 3 2 5 3 8 3 10-5 22-15 22-3 1-6 0-8 2-4 2-3 7-1 11 3 7 8 13 15 18 1 2 4 3 6 3 6 0 9-6 11-11 8-19 14-38 17-59 4-18 7-40 24-49l13-7 5-11c7-24 12-49 8-73 4 25 6 50 5 76l-2 42c-2 51 9 104-12 150-12-55 9-113 5-170-17 26-20 59-20 90s4 62 2 92c-4 52-28 101-64 138l28 14c18-28 32-59 44-90 4 24 15 46 30 65 6 8 14 15 23 19 8 3 17 3 26 2 23-1 47-10 66-24a96 96 0 0 1-28-55zm-115-20v-1l2-11 1 11-3 1zm52-238v0z" class="st3"/><path d="M308 501c-8-17-20-32-30-49l-7-15-1-7c0-30-1-61 3-91 3-28 10-56 11-84 0-16-2-32-7-47-1-4-9-30-13-29s-3 29-2 33c9 26 7 54 3 80l-7 42a389 389 0 0 0-4 59c-2 0-3 2-4 4v21l-2 4c-2 16 6 31 15 44l32 43c6 8 18 1 13-8zM342 257l-2 3c-4 2-8-2-9-6l-2-12c-2-4-6-7-9-10-4-6-4-14-5-21-1-14-5-27-12-39s-18-22-22-35c-8-19-2-41-5-61 0-4-2-8-6-8s-5 5-5 8c-3 28-2 57 4 84 1 4 2 7 5 9h9c5 1 8 6 10 10 23 50 22 110 52 155a3194 3194 0 0 0 3-66c0-1 1-18-4-13l-2 2z" class="st4"/><path d="M296 74l-6-10c-2-3-4-7-7-9s-6-1-9 1l-14 7c-5 2-1 13 4 11 3-2 7-8 10-9l4-3 3 3 10 17c6 12 11 27 11 40 0 6 3 8 3 3 0-17-1-37-9-51z" class="st4"/><path d="M-149 540h818v152h-818z" class="st6"/><text class="st5 st7 st8" transform="translate(18 587)">CHAMPIONING</text><text class="st5 st7 st8" transform="translate(95 661)">DIVERSITY</text><path d="M107 471c17-22 37-45 40-74 1-9-1-17-2-25l-7-26c-4-17-11-35-14-52-1-9-3-19-1-28 2-8 7-15 13-21l33-37c20-27 32-58 43-89l19-53 6-13c2-5 6-8 11-8 10 1 13 15 9 23-1 2 2 4 4 2 6-11 0-30-15-29-6 0-11 6-13 11l-10 24c-13 34-23 70-40 102-9 16-20 31-32 44-10 12-24 23-30 38-3 9-3 18-2 26 1 10 3 18 6 27l15 56c2 11 4 21 3 31-2 9-5 18-9 26-8 15-20 29-30 43-2 2 2 4 3 2z" class="st5"/><path d="M190 174c13-25 29-47 43-71l9-18c3-5 5-16 12-15 8 0 9 13 9 19a158 158 0 0 1-11 68c-1 2 3 3 4 1a164 164 0 0 0 11-71c-1-6-1-13-6-18-3-3-9-5-13-2-5 4-7 12-10 17-7 14-15 28-24 41-9 16-19 31-27 47-2 2 2 4 3 2z" class="st5"/><path d="M252 157l-5 12c-1 2 2 4 4 2l5-13c1-3-3-4-4-1z" class="st5"/><path d="M171 334c19-28 33-61 40-94 4-17 5-36 15-51 4-7 10-12 18-14 4-2 9-2 11 3l2 14c0 19-3 38-5 57-3 18-5 37-4 55l3 58c1 19-1 39-5 58l-7 31c-3 8-8 16-13 23-9 14-19 27-21 44 0 2 4 2 4 0 2-17 13-30 21-43 5-6 9-13 12-21l7-28c4-20 6-39 6-59l-3-61c-1-20 1-40 4-61 3-19 6-38 4-57 0-7 0-16-7-18-6-2-14 1-19 5-14 9-19 25-23 41a278 278 0 0 1-44 116c-1 3 3 5 4 2zM389 478c-11-14-19-30-23-47-4-19-3-38 1-57 4-18 10-36 16-53l8-28c1-7 3-15 1-23-3-14-13-24-22-35a289 289 0 0 1-68-146l-7-29c-2-8-5-16-11-21-5-4-12-5-17 0s-7 13-7 19c-1 3 3 3 4 0 0-5 3-16 9-18 8-2 14 9 16 15 6 15 8 33 12 49a306 306 0 0 0 65 133c9 11 21 22 23 37a647 647 0 0 1-11 50c-6 17-12 34-15 51-4 18-5 38-1 56s13 34 23 49c2 2 5 0 4-2z" class="st5"/><path d="M265 73c3-5 10-11 16-6 4 4 6 10 8 15 4 10 5 20 8 30 7 21 18 41 27 62 1 2 5 0 4-3-11-24-24-47-30-73-3-11-6-23-13-32-3-4-7-6-12-5s-9 6-11 10c-2 3 2 5 3 2zM261 123c0 16 3 31 10 45 2 3 5 1 4-2-7-13-10-28-10-43 1-3-4-3-4 0z" class="st5"/><path d="M264 199c-1-7-1-15 2-21s10-10 16-8 9 8 11 14l7 19 11 44c3 15 6 29 12 43l20 47c1 2 4 0 3-2l-20-49c-7-16-9-33-13-50-3-16-8-32-14-48-3-10-8-24-21-23-17 2-19 21-18 34 0 2 4 2 4 0z" class="st5"/><path d="M256 367c0-19 5-37 9-55l5-30c2-13 1-27 0-40l-7-46c-1-3-4-2-4 1 5 27 10 55 7 82l-5 30a821 821 0 0 0-10 58c0 3 4 3 5 0zM248 414c-1 10-1 21 2 31 2 7 6 14 11 21 9 13 22 25 29 41 1 2 5 1 4-1-7-15-18-27-28-40-5-6-9-13-12-21-3-10-3-21-2-31 0-3-4-3-4 0z" class="st5"/><path d="M154 527zM155 525zM156 524h-1v1l1-1zM157 523v0zM157 524c-1 0 0 0 0 0zM157 523zM157 523zM157 523zM157 523h-1 1zM155 524s1 0 0 0zM158 522h-1 1zM158 522c-1 0-1 0 0 0zM157 522v1-1zM158 521zM159 521v-1 1zM159 520zM158 521zM158 521zM158 521zM157 522zM158 521l-1 1 1-1zM158 521zM158 520h1-1s0 1 0 0zM158 521zM159 519zM158 520v0zM159 520zM158 521zM158 521zM159 518l-1 1h1c0-1 0 0 0 0v-1zM159 519v0zM159 520l-1-1v1h1zM157 521zM157 521s0 1 0 0zM158 521v-1 1zM159 519h1-1zM160 519zM174 494zM173 495h0zM167 508zM170 501zM170 500zM176 490zM163 514s-1 0 0 0zM175 495zM163 514zM185 477zM189 473zM161 517zM160 517zM163 512zM161 517zM161 517zM161 517zM181 484zM167 505zM167 505zM175 492l-1 1v2h-1v1-1l-1 1h0v1c-1 0 0 0 0 0l-1 1v1c1 0 0 0 0 0l-1 1v1h1-1v-1 1-1 1h-1v0c0 1 0 0 0 0v1l-1 1s1 0 0 0c0 0 0 1 0 0l-1 2v-1l1 2-1-1h-1l1 1h-1s1 0 0 0v0l-1 1h1v1h-1l1 1h-1v-1h-1v1-1 2h-1l1 1h-1v1l-1 1h-1v1l1-1v2l-1 1v-1l-1 1v2-1 1s1 0 0 0l1-1v-1s0 1 0 0h1v-1l1-1v-1h1l1-1v-1l1-1h-1l1-1v-1h1v-1-1h1v-1l2-2 1-1v-1l1-1v-1l1-1c-1 0 0 0 0 0l1-1v0l1-1v-1l1-1v-1h1v-1l1-1 1-1 1-1v-1h-1 1l2-3h1v-1-1l1-1v-1h1v-1h1l1-2h-1 1v-1l2-4c0 1 0 0 0 0v-1h-1l-1 1v1l-1 1h1l-1 1v1h-1l-1 2v2l-1-1v1l-1 1c0 1 0 0 0 0v1h-1 1l-1 1v1h-1l-1 1s1 0 0 0v1h-1v2h-1l-1 1v1h-1l1 1h-1v0zm-2 4v-1 1zm-3 5zm-9 15c1 0 1 0 0 0zm0 0zm22-32zM170 500zM176 490zM163 511zM160 518zM158 519zM160 518h-1 1zM159 518zM161 517s0-1 0 0zM159 518v-1zM160 517zM160 517zM159 517zM162 514zM161 515zM161 514zM164 511zM165 507c0 1 0 0 0 0zM165 507zM189 472zM189 472zM172 496zM174 494zM175 491v0z" class="st25"/><path id="SVGID_x5F_1_x5F_" d="M296 475c11 17 26 32 42 45" class="st6"/><text class="st29 st30 st31" transform="translate(330 513)"></text><text class="st29 st30 st31" transform="translate(332 515)"></text><text class="st29 st30 st31" transform="translate(-1 5)"></text></g><g id="T" class="st0"><circle cx="257" cy="288" r="204" class="st12"/><path d="M0 540h518v106H0z" class="st13"/><text class="st14 st7 st8" transform="translate(0 587)">TRANSPARENCY</text><circle cx="201" cy="248" r="84" class="st33"/><circle cx="316" cy="250" r="84" class="st33"/><circle cx="260" cy="348" r="84" class="st33"/></g><g id="FP" class="st0"><circle cx="258" cy="288" r="204" class="st12"/><path d="M190 552v-3 3z" class="st22"/><path d="M430 124l-4-14c-5-11-12-22-19-32l-18-19-10-5-4-2h-3c-7 1-13 0-20-2a139 139 0 0 0-9 10l-14 19-13 12-2 3-1 1-2 3-2 4c-2 5-6 7-10 9-4 5-7 11-12 15-6 5-12 8-19 8h-9a68 68 0 0 0-8 2l-2 1-5 6-4 4c0 11-10 20-20 20h-2a65 65 0 0 0-4 2l-3 3-1 1-2 4-5 8c-4 7-9 13-16 17l-7 13-9 8-2 1-1 1v6c-1 7-1 15-4 22l-6 12-2 4-1 1-4 21-1 3v11l-3 7-3 7v3l1 11a45 45 0 0 0 1 7l2 6 1 2 5 9c3 4 3 10 2 15s-5 9-9 12l-1 1-3 2a84 84 0 0 1-13 10 257 257 0 0 0-5 2l-6 4h-1l-3 3-7 6-7 5c-3 2-5 1-7 3l-2 4-19 11-14 10 20 19c8 5 17 9 25 15 11 6 21 14 33 19 7 4 13 10 18 16l4-4c7-5 14-7 22-4l1 1v-2a81 81 0 0 1 10-25l4-4v-1 0l1-1c3-10 10-22 20-23 5 0 13 8 18 9l3 1 3-1 12-3 1-1h2l3-2 1-4v-2l-2-7a20 20 0 0 1 20-20l6 1c2-8 7-15 13-21l14-12 1-1 1-1 1-4v-3l1-2v-2-2c-2-1-4-3-4-5 0-8-1-16-4-22-3-7 2-11 8-12 1-4 11-8 15-12l-6-2 1-1c1-6 5-12 9-17l7-9 1-1a64 64 0 0 0 5-9l2-4c2-3 0 1 0 1l2-7a61 61 0 0 0 1-4v-3-3-6-10c0-7 2-13 5-19 4-6 8-10 14-14l27-20 14-11 4-2 4-3h-1 1l5-4 26-17 1-1c-11-9-18-21-22-33z" class="st15"/><path d="M316 332c-5-6-42-10-49-7-9 5-16 11-23 18l-21 21-43 43-74 74 6 3c6 2 12 5 17 10l20 10 11 7 4-5c2-1-1-1 0-2l2-1 4-3-2 4c-1 3 1 7 5 8 1 1 2 3 4 3 8 3 15-2 17-8l1-11c5-5 2-10 0-18l3-8c8-8 8-7 15-16 0 4 3 7 7 10 4 4 12 1 18 2 14 1 23-5 22-20l-1-6-2-2c-4-2-6 2-7 4l-2 5c-2 3-5 5-9 5s-8-1-10-3l-3-3-1-7v-5l-3-2c1-4 2-1 4-5a81 81 0 0 1 4-8l2-2 1-1 2-1 2-1 2-2c4 0 9 1 12-2l1 2c4 2 7 14 10 18 3 3 6-2 11-3 5-2 8-6 10-10a517 517 0 0 0 9-18c3 5 12-1 13-6l1-2 2-1 3-6c1-3 4-9 1-12l-4 2c0 1-1 2-2 1l-1-1c-4-4-7-9-9-15-2-4-2-10-6-13l-1-2v-1c1-6 29-6 27-11zm-27 34l3 13v8l-8 7a86 86 0 0 1-15 10h-1c-5-4-10-12-12-18v4l-1 1c-1 1-1-1-1-2l2-3-2-1 1-4c3-4 3-9 5-13 5-8 16-9 22-15 1 2 2 4 4 4l2 1v2l1 6zM435 141l-5-11-24 16c-24 16-47 33-67 54-11 12-17 15-22 31-2 7 1 22 6 30l1 2c1 4-4 1 0 3 3 1 7 9 10 8l-4 8-21 27c-4 4-4 12 0 16 5 5 13 5 17 0 8-8 14-17 20-26 7-9 12-19 14-31 0-6-2-6-3-12 0-2-3-4-4-6 2-4 2-14 0-17l8-7c9-10 21-16 32-24l7-5 9-6 11-9 8-7 18-14-11-20zM184 331c-6-14-8-29-8-45l2 28c4 0 9-29 9-33l-1-30c1-8-7-16-16-16-8 1-7 19 1 18l1-4 1 1v3c-4-1-9 12-9 17-1 22-2 33 4 54 1 6 3 11 6 16l7 13c2 4 3 8 1 12-2 3-5 6-9 6-4 1-7 3-7 7 0 3 3 7 7 6 11-1 20-9 22-20 3-12-6-22-11-33zM214 221c-8-6-15-14-24-15-4-1-6 3-7 6-5 12 2 8 7 7 2-1 4 3 6 4l8 7c3 2 7 3 10 0 2-2 2-7 0-9zM244 192c-10-8-22-12-34-11-9 1-9 14 0 13 8 0 19 7 26 12 2 2 6 1 8-5 0-3 2-7 0-9zM279 167l-12-9-12-7c-10-2-20 7-15 17 1 3 5 3 7 3-1 2-1 5 1 8 5 6 10 14 18 16-3 2 0 5 3 8 9 8 12-3 15-10 2-9 1-20-5-26z" class="st16"/><g class="st1"><path d="M66 442c32-23 66-45 96-71 2-1 0-4-2-3-31 26-64 48-96 71-2 1 0 5 2 3z" class="st5"/></g><g class="st1"><path d="M163 369l-12-18c-3-4-6-9-6-14-1-6 1-11 3-16l4-18v-19c1-14 14-23 26-30l-3-2c-2 26-4 54 6 78 4 12 16 26 11 39-2 6-7 11-13 14-9 5-12-7-15-13-2-2-5 0-4 2 3 5 4 10 8 14 4 3 8 3 13 1 8-5 15-13 16-22 1-13-7-23-12-35-4-11-6-23-7-35-1-14 0-29 1-43 0-1-2-2-3-1-10 6-24 14-27 26-2 7-1 14-1 21s-2 15-4 22c-2 5-3 10-3 16 0 5 2 10 5 15l14 20c1 2 5 0 3-2z" class="st5"/></g><path fill="#878787" d="M178 251c-3-3-8 0-12 0-2 0-2 4 0 4l5-1h4c2 2 5-1 3-3z"/><g class="st1"><path d="M168 252c-2-11-3-26 9-30 11-3 22 4 29 11 2 1 5-2 3-3-9-8-22-17-35-11s-12 22-10 34c0 2 4 1 4-1z" class="st5"/></g><g class="st1"><path d="M183 217c1-5 5-11 9-15s10-5 16-5 10 3 16 5l13 7c2 2 4-2 2-3l-17-10c-6-2-13-4-19-3-12 1-23 12-24 24 0 3 4 3 4 0z" class="st5"/></g><g class="st1"><path d="M201 196c3-15 15-29 32-25 8 2 15 7 20 13s8 14 15 18l2-1c4-9 2-21-4-29-3-3-8-6-13-6-4 0-9 1-11 4-2 2 1 5 3 3 5-6 15-2 19 4s6 15 3 22l3-1c-5-2-7-6-10-11l-8-10c-6-6-14-10-23-11-17-1-29 14-32 29 0 3 4 4 4 1z" class="st5"/></g><g class="st1"><path d="M241 169c-4-11 3-26 13-31 13-6 28-1 38 7 5 4 8 9 9 15l5 19c3 13 4 27 6 40 3 16 5 32 10 47 1 3 5 2 4-1-10-31-10-64-18-96-2-6-3-13-6-19-3-5-8-9-13-12-12-6-26-9-38-3-11 7-19 23-14 35 1 3 5 2 4-1z" class="st5"/></g><g class="st1"><path d="M326 265c1-15 13-27 27-30l-2-2 2 17 6 16c2 7-1 11-5 15l-9 12c-5 10-8 20-16 28-7 8-16 13-26 16-3 1-2 5 1 4 10-3 19-8 27-16s12-18 17-28c2-6 6-10 10-15 3-3 5-7 6-11 0-6-4-11-5-17-3-7-4-14-4-21 0-2-2-3-3-2-16 3-29 17-31 34 0 2 4 2 5 0z" class="st5"/></g><g class="st1"><path d="M158 516l60-66c2-2-1-5-3-3l-60 66c-1 2 2 5 3 3z" class="st5"/></g><g class="st1"><path d="M166 504c-1 12 15 16 24 10 5-3 6-11 8-17 1-8 2-16 1-25 0-2-4-2-4 0 1 11 0 23-4 33-2 6-5 8-11 8-5 0-10-3-10-9 0-2-4-2-4 0z" class="st5"/></g><g class="st1"><path d="M219 451c0-11 5-23 12-31 4-4 10-8 16-7 7 1 10 8 11 14l-2 19-2 9c-1 4-2 6-6 7l-18 3c-8-1-10-8-11-15-1-2-5-1-4 1 1 6 2 11 7 15 4 3 10 3 15 3 5-1 12-2 17-5 4-4 5-11 6-16 2-10 5-25-3-34s-20-5-27 2c-9 8-15 22-15 35 0 2 4 2 4 0z" class="st5"/></g><g class="st1"><path d="M255 412l2-22c1-7 0-16 5-21 4-6 10-9 17-11 2 0 7-1 9 1 3 2 3 7 3 10 1 14 1 29-4 41-2 6-5 10-11 13-4 2-9 4-14 4-3 1-3 5 0 5 8-1 19-5 24-11 8-9 9-25 9-36v-22c-1-4-3-8-8-9-10-2-23 5-29 13-4 5-4 12-5 19l-2 26c0 3 4 3 4 0z" class="st5"/></g><g class="st1"><path d="M283 354c2-6 8-11 15-13 1 0 3-1 5 1 2 1 2 3 3 5l3 12c2 8 3 18-1 26-3 7-10 13-17 17-2 1 0 5 3 3 7-5 16-11 19-20 3-11 2-23-1-34-1-4-3-9-6-13-3-2-6-2-10-1-8 2-15 8-17 16-1 3 3 4 4 1z" class="st5"/></g><g class="st1"><path d="M282 137l77-92c1-2-2-4-3-2l-77 92c-2 2 1 4 3 2z" class="st5"/></g><g class="st1"><path d="M355 233l46-34 44-36c2-2-1-5-3-3l-44 37-45 33c-2 1 0 5 2 3z" class="st5"/></g><g class="st1"><path d="M255 441zM255 441v1zM255 442zM254 441c0 1 0 1 0 0zM254 441zM254 442v-1 1zM254 442zM254 442zM254 442zM255 442zM253 442h0zM254 442zM254 442zM253 442zM253 442zM253 442zM254 442h-1 1zM253 442zM254 442zM254 442zM254 442zM254 442zM253 442zM253 442zM253 443zM253 442zM253 442zM253 442zM253 442zM253 444v-1 1zM253 443v-1 1zM253 442v0zM254 443zM254 443v-1 1zM254 443zM253 443v-1 1zM253 443zM243 446zM243 446zM249 444zM246 445zM246 446zM241 446zM251 443s0 1 0 0zM243 444zM251 443zM236 444zM235 442zM252 443zM252 443v0zM251 445zM252 443zM252 443zM252 443zM239 445zM248 446zM248 446v-1 1zM244 446zm2 0zm6-3zm0 0zm-13 0zM246 446zM241 446zM250 445zM252 443zM253 443zM253 443zM253 443zM252 443zM253 444v-1 1zM252 444h1-1zM253 444zM251 444h0zM252 444v1-1zM252 445zM250 445v-1zM249 446zM249 446zM234 442zM234 442zM244 446zM243 446zM242 446z" class="st18"/></g><path d="M0 538h518v161H0z" class="st13"/><text class="st14 st7 st8" transform="translate(116 586)">FAIR PAY</text></g></svg>