<svg xmlns="http://www.w3.org/2000/svg" version="1" viewBox="0 0 561 676"><style>.st0{display:none}.st1{display:inline}.st2{opacity:.5;fill:none;stroke:#727070;stroke-width:5;stroke-miterlimit:10;enable-background:new}.st3{fill:#eeeded}.st4{fill:#dadada}.st5{fill:#727070}.st6{fill:none}.st7{font-family:&apos;Muli&apos;}.st8{font-size:65.5955px}.st9{fill:none;stroke:#fff;stroke-miterlimit:10}.st10,.st11,.st9{display:inline}.st10{opacity:.5;stroke:#727070;stroke-width:5;stroke-miterlimit:10;enable-background:new;fill:none}.st11{fill:#f6f6f6}.st12,.st13{fill:#9d9d9c}.st13{display:inline;stroke:#9d9d9c;stroke-miterlimit:10}.st14,.st15,.st16{display:inline;fill:none}.st15,.st16{fill:#727070}.st16{fill:#eeeded}.st17{fill:#6b6c6a}.st18{fill:none;stroke:#fff;stroke-miterlimit:10}.st19{fill:#f6f6f6}.st20{fill:#807f80}.st21{fill:#fff}.st23,.st24{display:inline;fill:#9e9d9c}.st24{opacity:.5;fill:#eeeded;enable-background:new}.st26{fill:#f8f7f7}.st27{fill:#dedede}.st28{fill:#53b476}.st29{fill:#585857}.st31,.st32{display:inline;fill:#dadada}.st32{fill:#020203}.st33{font-family:&apos;ArialMT&apos;}.st34{font-size:9.8393px}.st36{display:inline;opacity:.5;fill:#dadada;stroke:#807f80;stroke-width:5;stroke-miterlimit:10}</style><g id="ES" class="st0"><g id="Enviromental_Safeguarding" class="st1"><circle cx="271" cy="288" r="204" class="st2"/><path d="M458 127c-3-6 3-2-4-1l-94 19c-4-3-10-1-15 0l-8 4c-19-1-30 7-51 13a164 164 0 0 0-93 51c-5 6-7 5-12 12-4 6-9 13-12 20l-1 1c-4 6-5 12-10 18-4 5-5 14-8 21s-6 17-6 24c0 8-4 9-4 17l3 44c1 7 6 14 14 13 3 0 6-1 8-3 1 5 4 9 9 10 28 5 54-7 77-24a712 712 0 0 0 119-109c15-18 29-38 43-57l1-2h1l3-4 3-7c4-4 2-14 11-17 6-1 5-13 10-17 0 0-1 0 0 0l3-2 2-6 7-8c6-4 6-4 4-10zm-104 48l-18 17c1-5 0-9-4-13a3627 3627 0 0 1 22-4zM172 363l1-3v-10c4-2 7-6 7-12l4-20 5-18 5-4a454 454 0 0 1 91-84c-11 13-21 25-29 39-7 9-12 19-15 30l-25 21a110 110 0 0 0-37 55l-7 6z" class="st3"/><path d="M403 149h-3c-18 5-37 11-55 20-18 8-34 18-51 28-21 12-43 25-63 41a281 281 0 0 0-85 135c-2 6 9 21 17 24 17 8 7-16 12-26a326 326 0 0 1 73-90c41-36 68-72 123-108l17-10c5-3 13-8 15-14z" class="st4"/><path d="M404 195a406 406 0 0 0-74 68l-33 32a635 635 0 0 1-94 74c-7 3-13 5-21 4-6-1-19 14-19 21 1 8 16 9 23 9 18 0 35-4 49-13s28-14 40-25l42-36c12-11 25-30 36-42 13-13 27-35 37-52 4-6 47-61 14-40z" class="st4"/><path d="M143 508a308 308 0 0 1 108-229c2-2-1-5-3-3a312 312 0 0 0-109 232c0 3 4 3 4 0z" class="st5"/><path d="M146 508c2-6 1-12 2-18a328 328 0 0 1 39-135c1-2-2-5-4-2a337 337 0 0 0-39 134c-1 6 0 14-2 20-1 3 3 4 4 1z" class="st5"/><path d="M142 509c5 3 10-1 11-6l-1-10a112 112 0 0 1 4-63c1-3-3-4-4-1a121 121 0 0 0-4 66l1 5c0 2-1 8-5 6-3-1-5 2-2 3z" class="st5"/><path d="M150 508v-11c0-3-4-3-4 0v11c0 3 4 3 4 0z" class="st5"/><path d="M153 501l1-54c0-2-4-2-4 0l-1 54c0 3 4 3 4 0zM150 379c-16-57 1-120 42-162 39-40 96-57 149-67l117-21c3-1 2-5-1-4l-108 19c-29 6-57 12-84 23-26 10-51 24-71 43a175 175 0 0 0-48 170c0 3 4 2 4-1z" class="st5"/><path d="M192 404c49-9 93-38 128-73 37-38 65-84 93-129 16-25 32-51 51-74 1-3-2-5-4-3-32 42-58 89-87 133-29 42-62 82-104 110-24 16-50 27-78 32-3 1-2 5 1 4z" class="st5"/><path d="M457 129l4-1c3 1 4-3 1-4h-3l-2 1-2 2 2 2zM147 496s-1 0 0 0c0 0-1 0 0 0h-1 1c-1 0-1 0 0 0h-1 1-1l4-1-2-2c-1-1-2 0-3 1l2 3s-1-1 0 0c0 0-1-1 0 0l-1-1c1 1 0 0 0 0l3 2c1-1 2-2 1-3l-1-2-3-1-2 3c1 1 2 2 3 1z" class="st5"/><path d="M140 509c3 2 7 3 10 0 4-2 5-7 5-11l-3-19 1-22c1-3-3-3-4 0v30l2 11-1 7c-2 2-5 3-7 1s-5 1-3 3z" class="st5"/><path d="M143 507c-1-1 2-10 2-11 1-3-3-4-4-2l-2 11c0 3 1 5 3 6 3 0 4-4 1-4z" class="st5"/><g><path d="M153 456l1-13c1-3-3-4-4-1l-1 14c0 2 4 2 4 0z" class="st5"/></g><path d="M13 539h520v155H13z" class="st6"/><text class="st5 st7 st8" transform="translate(-8 587)">ENVIRONMENTAL</text><text class="st5 st7 st8" transform="translate(17 661)">SAFEGUARDING</text></g></g><g id="RR" class="st0"><circle cx="273" cy="287" r="204" class="st10"/><g class="st1"><path d="M262 432c-49-33-103-68-130-123-11-23-14-48-9-72 5-22 17-44 38-54 31-14 66 4 81 31 3 5 11 1 8-4a76 76 0 0 0-75-40c-27 4-46 24-56 49-9 23-10 50-3 73 9 32 31 59 54 81 26 26 57 46 87 67 5 3 9-5 5-8z" class="st12"/></g><g class="st1"><path d="M311 429c25-17 51-34 73-56l29-36c11-16 19-32 23-51 6-25 2-54-10-77-6-11-16-22-27-29-15-9-32-11-49-7-36 7-54 41-68 71-2 6 6 10 8 5 11-25 25-53 52-64 14-6 32-7 47 0 11 5 20 14 27 25 12 20 17 47 12 71-5 31-26 59-47 81-22 24-48 42-75 60-5 3 0 11 5 7z" class="st12"/></g><path d="M262 202l3 44-37-24M322 441l-44 8 21-39" class="st13"/><path d="M14 538h520v145H14z" class="st14"/><text class="st15 st7 st8" transform="translate(17 585)">REPAIRING AND</text><text class="st15 st7 st8" transform="translate(90 659)">RECYCLING</text></g><g id="GB" class="st0"><circle cx="273" cy="288" r="204" class="st10"/><path d="M16 539h517v106H16z" class="st14"/><text class="st15 st7 st8" transform="translate(62 587)">GIVING BACK</text><path d="M434 292l-2-5c-2-2-5-4-8-4h-16l-12 2-9 4c-2 3-7 0-5-4v-1l4-5c0-2 2-4 4-5v-1l7-13c2-4 2-9 3-13 2-9 5-16 9-24l-3-3-1-1-5-1c-3-1-7 1-11 2h-3l-1 1-3 10c0 2-2 4-3 4l-1 2v4c0 1-1 3-3 3s-3-2-3-3v-4-2-1l-2-6c1-4 3-7 3-11l1-4-1-1-2-1-2-1h-1l-6 1c0 2-1 4-3 5l-7 3-1 2 1 3v11c1 5 0 10-1 15-1 8-13 4-11-3v-13-7l-1-4h-12c-5 2-4 10-4 14l-1 3 2 5c0 11-2 25-12 32-5 3-10 4-15 5l-1 1h-8l-7 2-9-1c-3 0-6-2-6-5-1-3 1-6 4-7 8-1 15-4 23-7l10-4 4-2a6 6 0 0 0 2-1l2-2 1-11 1-4-2-4v-1l-9-1-14 2-2 1-5 1-10 4c-1 2-2 3-4 3l-8 4h-5c-8 3-16 4-24 5l-30 1a37 37 0 0 0-12 5l-11 7c-4 2-7 3-10 6-6 4-10 10-18 12l-35 29-18 14-8 7-7 2-3 2c-2 0-8 7-10 8-4 3-8 2-8 8-5 1-9 4-10 9-2 17-4 34 3 50 7 15 27 31 42 18 6-5 11-13 16-19l14-20 3-3 4-3 3-3 6-9a112 112 0 0 0 15-12c5-6 11-11 18-15 13-7 28-12 41-7l24 1a476 476 0 0 0 60-3l2-1 8-5c6-3 12-7 20-9l21-3 18-6 19-5 19-5c10-2 19-7 28-13v-1z" class="st11"/><path d="M430 294c-18-1-37-2-55-1 5-7 7-15 12-23 6-11 9-20 15-34 2-5-3-14-3-9 0 12-12 32-18 41-6 10-12 19-19 27l-7 1 3-3c7-10 11-29 12-42 1-6-2-14-4 4-2 11-8 21-14 30-4 7-10 11-17 12l1-3c6-12 18-46 10-39-10 9-4-37-8-25l-7 39c-2 9-7 19-14 26l-17 17c-9 9-22 13-34 14-13 2-26-2-38-5-14-3-28-4-42 0-27 7-48 27-67 45l-38 40v3l-1 2v10l1 4h1l1 2 1 2 1 1c13-16 27-33 41-46 9-10 19-19 29-27 9-8 19-14 30-18 12-4 26-4 38-2 14 3 45 5 58 2 25-4 22-8 46-16 30-11 24-8 54-15 13-3 62-14 49-14z" class="st16"/><path d="M303 242c-6-1-10 3-14 6-4 4-9 7-15 9-5 2-11 3-15 6-4 4-5 9-2 13 1 3 6 4 7 3v-4l3-1h3l2-3c10-2 16-6 24-10 4-3 13-4 15-9s-3-9-8-10z" class="st16"/><g class="st1"><path d="M372 211l-2 22-1 11-1 11-8 21-8 18c-1 3 3 4 4 1l10-21 6-19 1-10 1-10 2-24c0-2-4-2-4 0zM324 256v-9-9c0-6 2-15 10-13 4 0 4 4 4 7l1 11 1 8 1 5c0 3-1 5-3 8-1 2 3 4 4 2l2-3c0-2-2-3-3-3l-3 4c-1 3 3 4 4 1l8-12c2-4 3-7 3-12 0-9-1-21 8-27 2-1 0-5-2-3-8 5-10 14-10 23v8c0 4-1 6-3 9l-8 13 4 1 1-1h-1l-2-2-2 2 4 2c2-4 3-7 3-11l-3-18c0-6 1-15-7-16-6-1-13 3-14 10-2 4-1 9-1 14v12c1 3 5 2 4-1z" class="st5"/><path d="M51 363l9-6 10-9 21-14c14-9 28-20 41-30l39-30c7-5 13-10 21-13s16-4 25-4c8 0 16 1 23-1 9-1 17-3 25-6l21-9 12-3c4 0 9 0 12 3 7 6-3 14-9 17l-18 7-14 7c-3 1-8 4-6 8 1 3 5 4 8 5l11 3c7 0 15-1 21-3s12-6 15-11l3-7c2-4 4-6 4-10-1-3-5-3-5 0l-3 9-3 6c-3 5-8 7-13 9-12 4-24 3-35-3l1 2c-1-4 5-6 8-7l15-6c10-3 19-7 24-15 3-4 3-8 1-12-3-4-8-5-12-6-12-1-24 5-34 10-13 6-28 9-42 9h-21c-6 0-12 3-17 5-12 5-22 14-32 22l-33 25-38 28-19 13-9 7-9 6c-2 2 0 5 2 4z" class="st5"/><path d="M408 220l-8 20-6 18c-2 6-6 12-10 19l-11 18c-2 3-4 5-8 7l-9 5-20 11-19 10c-7 3-14 8-21 9-28 6-57 2-86 2a74 74 0 0 0-49 18l-8 6-6 5c-22 22-42 46-61 71-2 2 1 5 2 3 18-22 35-44 55-64l7-7 7-5 16-13c11-7 23-10 37-10 28 0 57 4 85-2 7-1 13-4 19-7l20-10 20-11 9-5c3-2 7-3 10-6l5-8a277 277 0 0 0 18-31l7-19 8-23c1-2-3-3-3-1z" class="st5"/><path d="M370 260c2 0 2-4 0-4s-3 4 0 4zM379 293l23-5c6-2 13-3 19-2 3 0 6 1 8 3s2 4 3 7l1-3-23 10-2 1h-1l-8 2-59 14-18 5c-3 0-1 4 1 4l45-11 30-7 12-4 25-10 1-2c-2-6-4-10-10-12-7-2-14-1-21 0l-27 6c-3 0-2 4 1 4zM338 264l-11 29c-1 2 3 4 4 1l11-29c1-2-3-3-4-1z" class="st5"/></g><g class="st1"><path d="M361 214c3-1 8-2 11-1s5-2 3-3c-5-2-12-2-16 1-3 1-1 4 2 3z" class="st5"/></g><g class="st1"><path d="M372 258c2-9 7-18 12-27 2-4 3-8 8-9 4-2 10-2 15 0 2 1 4-2 2-3-8-4-21-3-26 5l-8 16c-3 5-6 11-7 17-1 3 3 4 4 1z" class="st5"/></g><g class="st1"><path d="M303 235c1-1 0 0 0 0zM305 223l1 1v-2zM308 213l-1 5-1 1 1 1 1-7zM311 208c-1 0 0-2-1 1l1-1z" class="st17"/><path d="M310 209c0 1 1-1 0 0zM312 204l-1 1 1-1c0-2 0-1 0 0zM312 202l-1 1 1-1zM311 204v-1 1c0-1 0 0 0 0zM311 205l-1 1c0 2 0 2 1-1zM308 212l-1 1v1l1-2zM314 195h-1v1l1-1zM313 195l1-2-1 2zM311 202v2-3zM315 188l1 1-1-1zM316 184h1v-3l-1 3zM317 180v0zM314 191l1-2-1 1v1zM314 190l1-1-1 1zM314 191zM312 198v-2 2zM314 191l-1 2 1-2zM314 191zM316 183v-3 3s0 1 0 0zM315 186zM318 171zM316 183l-1 2a29 29 0 0 1 1-2zM317 177v0zM315 186c1 0 1 0 0 0zM315 186v-1 1zM317 168l-1 4 2-1v-2l-1 2 1-2-1-3v2s0-1 0 0zM318 174l-1 1 1-2v-2l-1 4 1-1zM317 178s0-2-1-1v3l1-2-1 2 1-2c0 1 0 1 0 0v-3 3zM311 194h0zM312 193v1c0 1 0 0 0 0v1-1l1-2-1 1zM314 186l1-3-1 1v2zM318 171h1v-2zM319 167v-1zM267 137zM272 136zM322 77v-3 3zM280 89v-1 1zM281 90l-1 1 1-1zM247 114h-1 1zM324 130v-3 3zM272 138h-1 1zM324 124v0zM239 171zM265 194zM322 152c-1 1 0 1 0 0zM320 156h-1 1zM322 116zM321 154v-1 1zM321 153v0zM322 151zM208 118c0 1 0 0 0 0zM308 64zM306 64h2v-1l-2 1z" class="st17"/><path d="M260 126l1 1-2-1 3 3 2 3 1 1v-1l1 2 1 2v1l2 3v12l3-13 4 9-7-8-1-1 1 1 4 11-1-12v-3a15 15 0 0 1-1-2c0-1 0 0 0 0v-2l1 2v-2-1-3 2l1-5c0 1-1 5-1 2v-2-3h1l-1-2 1-3v-1l1-4v-3c1-2 0 0 1 0v-2-2c-1-1 0-1 1-3a17 17 0 0 0 1-3c0-1 0 0 0 0l2-6 1-2v-2l-1 1 1-3v0c1-1 1 0 1 1h-1v2l1-1v-1h1l2-3 1-5a38 38 0 0 1 3-5l1 1-2 2-1 3c0-1 0 0 0 0l2-4 2-1 2-4-1 2 2-2 1-2 1-1 1-1 5-3 4-2-1 1 6-2v2h-2 2a11 11 0 0 0 1 1v-1l1 1 2 2v-1l1 1h-1l3 2-1 1 1 1v2-1l2 3 1 4c0-1-1-1-1 1 1 1 3 3 3 6v1l1 3-4-8v2l-1-2 1 5 1 4-1-6 1 2 1 5-1-1v4-2l1 6-1 1v1l3-1v6c-1 1-2-2-2-1v7c1-1 2 2 2 4h-1v9l-1 1v2c0 2 0-2 0 0v-1l1 2v6 9h-1v-5-1l-1 5-1 8v1l1-1v7h-1l1-2-1 2v3-2 6l1-2v-3l1-5v-1-4c0-1 0 0 0 0v-2c1 0 1-3 1 0v-2l1-5v-1-4-6l1-5v-5h1v-6-4-6a55 55 0 0 0-1-4v-2l-1-8 1 2a12 12 0 0 0 0-3l-1-3-1-6v-2l-1-3h1l-1-1-1-1v-4h-1l-1-2-2-2s-1 0 0 0l-3-2v-1h-3c-1-1-2-1 0-1h-2-3l-1 1v-1l-2 1-1 1h-2l-1 1-4 3-4 3-3 4-1 1-1 2s-1 1 0 0l-4 6v-1l-1 1v3l-2 3c0 1-1 2 0 0l-2 3v3l-1 2-1 2-1 3 1-1-1 2v2l-2 6v2l-1 4v-1l-2 6v-1c-1 3 1 0 1 3-1 0-1-1-1 1v8h1v6h3l-1-1v-1l-1-2-2-3v-2l-2-2-2-2v-2l-1-1-1-1-1-1-1-1a17 17 0 0 0-2-2l-1-1c-1 0 0 0 0 0l-3-3-4-2-3-3h-2l-1-1-2-1h-1s0-1 0 0l-3-2-4-1a25 25 0 0 0-5-1h-4c4 1 0 0 1 1h-1l-1-1c-1 0-1 0 0 0 1-1-5-1-5-1h-6l-6 3-2 2-1 4v3l1 3v-1l1 2-1-1 1 3c1 4-1-1 0 0v2-1l1 4v1l1 1v1l1 2v-1c0 1 1 3 1 1v3l1 2 1 2 3 6 3 5 1 1 2 6c-1-2 4 5 3 2v2l2 2 2 3 3 3 2 3h1l1 3 3 1s-1 0 0 0l1 2 2 1a249 249 0 0 0 4 4l2 1 3 2 3 3 2 1h1v1l4 2 1 1 2 1h1c-1 0 0 0 0 0l4 2 5 2-2-1c2 1-2-2-1-2l-3-2-5-2 1-1-4-1h1l-3-2a109 109 0 0 1-5-4l-3-2-2-1 2 2-2-2-1-1-1-1-4-4h-1v-1h-1l-1-2 1 1-3-4 1 2-3-3-2-2v-1l-1-1-5-6c-2-1-2-2-2-3l-2-3-2-3v-1l-3-3v-1l-2-3c1 2 0-1 1 0l-2-5-1-3c-2-2 1 4 0 3l-1-3-1-6v1l-1-5-1-2v2l-1-1-1-4 1 2v-3l2 6-1-3-1-3-1-3h1l-1-1 1 1v-2l1-2-1 1 1-2h2l2-1h-1c-1 0-1 0 0 0h2c4-1 0 0 1-1h9-2 2l-1 1h7l2 1-2-1-1 1 4 1-1-1 4 1 2 1h-2 2l1 1 1 1 4 1 3 2 1 1 3 2 3 2 1 2c1 1-1-2 2 0 2 2 0 1 0 2l5 4-2-1zm12 1v2-2zm10-42l-1 2 1-2zm40 59c1-1 0-1 0 0zm0 3v-2 2zm-114-21c0 1 0 1 0 0zM281 90h-1 1zM247 114zM321 106v-1 1z" class="st17"/><path d="M321 160v-1l-1 1h1zM316 174l-1 1h1v-1zM319 162l-1 2 1-2zM318 164v0zM322 150v0zM318 163v-2zM319 153v0zM319 156v0zM318 160v-2zM322 133v-2 2zM320 139l1-1h-1v1zM321 133c-1 0-1-3-1 0 0 0 0 2 1 0zM322 103h1zM317 76l1 2v-1c0-1 0-2-1-1zM318 77zM270 197l1 1v-1zM273 198h0zM273 123v1-1zM266 136l1-1zM256 123h1l1 1-2-1z" class="st17"/></g></g><g id="FC" class="st0"><g id="Fostering_Craftmanship_2_" class="st1"><circle cx="274" cy="286" r="204" class="st2"/><path d="M16 537h519v144H16z" class="st6"/><text class="st5 st7 st8" transform="translate(93 585)">FOSTERING</text><text class="st5 st7 st8" transform="translate(20 659)">CRAFTMANSHIP</text><path d="M315 163c-6 2-9 6-11 11-5 8-8 16-11 25a61 61 0 0 0-4 12 720 720 0 0 0-13 41c-4 9-7 19-9 29-2-1-4 0-4 1-3 8-5 15-6 23l-12 36-5 14c-3 6-5 12-6 19v2l-4 8c-1 3 3 6 4 3 8-15 15-31 20-47a324 324 0 0 0 22-52c0-2-1-3-3-3a6064 6064 0 0 0 5-14v-1l3-1 9-26v-1c2-2 4-4 4-6l1-2 3-5v-3l-1-3-4-1v-1c1-11 5-21 10-31l5-12 1-1c2-4 5-7 8-9 2-2 0-5-2-5z" class="st19"/><path d="M219 422l-21 77c5-21 22-41 33-79l23-61 51-126 17-67c0-7-8-10-8-3 1 21-9 42-17 61l-26 63" class="st3"/><path d="M322 156c-11 2-16 10-21 19l-14 34-25 73a2985 2985 0 0 0-72 237c0 3 3 4 4 2a6250 6250 0 0 1 91-293c4-13 9-27 15-39 5-12 9-27 23-29 2-1 1-5-1-4z" class="st5"/><path d="M320 158c2 11-2 23-5 33l-12 34a5150 5150 0 0 1-80 212l-33 82c-1 3 3 4 4 1 38-96 76-192 112-290l14-40c3-10 6-22 4-33 0-2-4-1-4 1z" class="st5"/><path d="M313 167a212 212 0 0 0-20 44c0 3-2 8 0 12 7 9 14-14 15-17 4-12 9-25 9-37-1-3-5-3-4 0 0 10-3 20-7 29l-5 14c-1 2-1 5-3 7-2 3-2 0-2-3l8-23c3-8 7-16 12-23 2-2-1-5-3-3z" class="st5"/><path d="M282 493l-1 1c2 0 1-1 1-1zM305 489h-1l3-1zM325 484l-5 1-6 2h-1l-1 1a511 511 0 0 1 7-2l6-2zM336 481l-2 1 2-1zM334 482c-2 1 2 0 0 0zM344 478l-3 1h2l1-1zM346 476l-1 1 1-1z" class="st20"/><path d="M342 479l3-2-2 1-1 1zM340 479a3052 3052 0 0 1 0 0zM326 483l-2 1h-2l4-1zM360 469h-1l-2 2 3-2zM359 469l3-2-3 2zM346 476l-2 1-2 1 2-1 3-2-1 1zM370 462l-1 1 2-2zM377 456c-1 1 1-1 0 0l4-4-2 2-2 2zM383 449zM366 464l2-1h-1l-1 1zM367 463l2-1-2 1zM366 464zM354 472c2-1 5-4 1-2l-1 2zM364 465l-1 1-2 1c1 0 1 0 0 0l2-1 1-1zM366 464l-2 1 1-1zM379 453l3-3-4 4 1-1zM373 458zM393 435zM377 454l-2 2a159 159 0 0 1 2-2zM386 445l-2 2 2-2zM374 458zM374 458l1-2-2 2h1zM394 429c1 1-1 4-4 7v1l3-2 2-3-4 4 4-5 1-5-1 4c-1 0 0-2-1-1zM389 441l-1 1 4-4 1-3-4 6zM384 447c1-1 3-4 1-3l-3 5 2-2-1 1-1 2 1-2 1-1c2-2 1 0 0 0l2-2 1-2 1-1-4 5zM358 468c0-1 0-1 0 0 1-1 1-1 0 0z" class="st20"/><path d="M360 466l-1 2h-1s-2 2 0 0h1l3-2 2-1h-2l-2 1zM373 457l4-4-2 2-2 2zM394 435v1l1-3zM398 429l1-2zM369 51h-2 2zM379 55h1-1zM434 257l1-5-1 1v4zM424 137v1l1 1-1-2zM422 136zM309 65l-1 1 1-1zM423 359l2-5-2 5zM374 49h-1 1zM426 349l-1 1a64 64 0 0 1 1-1zM229 211zM295 198zM411 403c-1 1 0 0 0 0zM407 409v-1 1zM426 333c0 1 0 1 0 0zM410 405l1-2-1 2zM410 404l-1 2 1-2zM412 401l-1 2s0-1 0 0l1-2zM222 127c-1 1-1 1 0 0zM430 217v0zM430 212v5l1-1-1-4z" class="st20"/><path d="M342 52l4-1-5 2h1l7-2 7-1h3-2 10l2 1h1l1 1h2l3 2 2 1h2l2 1 2 1c1 2-1 0-1 0l2 1 2 2h-1l-2-1-1-2 1 2 2 1 2 2 3 3-1-1-2-1 1 1 2 2 3 4-2-3v-1l2 2 2 2v2l1 1 2 2h-1l3 3 2 4v1c2 5-1-4 2 2l2 6 2 3 2 4c1 3-1-1-1 1l2 2v1l2 3 1 5 3 7c0 2-1 0-1 0l4 11 1 4 2 5v-3l1 6v-1 1c0 2 0 1-1 0v-2l-2-3 1 2v3l1 4v4l3 8 2 11c-1-2-1 0-1 0l-1-5-1-7v2l1 4v8c1-1 1 1 1 3l1 6-1-4c0 4 2 6 1 10v-2l1 7-1-1 1 6a299 299 0 0 0 0 14l3 12c-1-1-2 3-3-2l1 7v-2 8l1 3-1-1 1 7c-1-2-1 0-1 1v7-2l1 14c0-1-1-2-2 1 1 2 3 8 3 14l-1 2v5a154 154 0 0 1-2-17v2l-1 9 1 7v-10 12c0 2 0-1-1-1v7-3l-1 11v5c1-3 3-3 3-1l-2 10c-1 2-1-4-1-2v2c-1 2-1-1-1 3v1l-1 8 1 2v5l-1 1-2 9-1 9-1 2-1 4v-2 3l-1 5 1-4 1-5v3l-1 9-1 3-2 9-2 8c-2 3-1 0-2 1a65 65 0 0 1 3-10l-1 4a52 52 0 0 1 0-2l-2 6-2 8-3 6v3l1-3v2c-1 1-1 2 0 0l-2 5-3 6v1a17 17 0 0 0-1 0l-2 5 2-3-2 5-3 6 3-4 1-3 1-3 5-8v-2l1-1-1 2 3-9v-1l1-2s2-5 1-1l1-4 3-8 1-4 1-6h1l1-6 1-5 1-6 1-5 2-9v-1l1-5 1-5 2-9 1-10-1-1a178 178 0 0 0 1-11l1-16v3l1-22a23 23 0 0 1 0-5v-2-4-1l-1-2 1-7-1-11s0-1 0 0v-6l1-1-1-4c0-3 0-4 1-1l-1-12v-6a58 58 0 0 0-1-10v-5-5l-1-5v-9c-1 2-1-6-1-6v-1l-1-7-1-6v-2 2l-2-7-2-7v-1l1 2a129 129 0 0 0-5-16l-1-5-1-5v1l-1-2-2-5-2-6-1-1-1-4-6-11 1 1-4-9 1 1-2-3-2-2-1-2-4-5-2-2-2-1-3-3h-1l-3-2-3-2-6-3h-1l-1-1h-2l-3-1h-16l-8 1-8 2-6 2-3 2h-1l-8 3-6 4h-1l-18 9-13 7-8 7-5 3c7-4-1 2 2 0l-3 2c1-2-8 5-8 5a503 503 0 0 0-35 29l2-1-4 4 1-2-4 5c-5 5 1-3 0-1l-2 2v-1l-4 6-2 2-1 1-4 5 2-2-2 3-8 11-4 7-2 5-2 12v-1 4c0-1 0 0 0 0l-1 3 1 8 2 4 2 3v-1l1 2v1c3 4 7 7 12 9l15 4s-2-1 0-1l6 1h6l30-6 15-4 14-5 1-1c-1 1 0 0 0 0l8-3 9-4-2 1c3-2-5 0-5-1-4 3-10 4-16 7-2 0 1-1 0-1l-7 3h1l-7 2-6 2-13 3h1l-4 1h4-4l-3 1h-3a74 74 0 0 1-10 1l-2 1h-6 2l-6-1h-4l3 1-16-4c-5-2-9-6-12-10v1l-2-4v-1l-1-1v-1-2l-1-2v-2-6-1l1-1v-4-1l1-4v-1l1-2v-2l1-2c-1 3 2-2 1 1l5-9 4-5c1-2-1-1-2 1l-2 3 1-2 2-4 9-9-1 2 6-7 3-4-5 5 4-4 5-6-2 3 4-4-3 4-5 5 4-3c0-2 2-3 3-4l5-5 3-3-2 3 4-4 5-4c-6 5-2 1-5 3 7-7 5-3 14-10-2 1-5 3-3 1l5-3c5-5-1 0 1-2l5-4 8-6-2 2 3-2-1 1a60 60 0 0 1 8-6l3-3 4-2-4 3-1 1 7-5-2 1 4-2 3-2-1 1 4-3-2 2 6-3 2-1 6-4a75 75 0 0 1 9-5l14-6 3-1c4-2-4 1 3-2l4-1c2-1 6-3 11-3l-4 1zm50 14l-1-1-1-1v-1l2 3zm33 79l-1-3a27 27 0 0 1 1 3zm-9 242v-1 1zm-2 4v1l1-3-1 2zM209 137v0zM422 136v-1 1zM310 65h-1 1zM427 313z" class="st20"/><path d="M404 417l2-3-2 3s1-1 0 0zM387 440l-1 2 1-2zM402 419l-3 4h1l2-4zM399 424l-1 2v-1l1-1zM412 398v1c0 1 2-7 0-1zM400 420h1v-1zM408 404l-2 3v1l2-4zM406 408zM402 416l1-1 1-2zM420 366l1-4-1 2v2zM416 378l1-2h-1v2zM419 366s1-5 0 0c0 0-1 4 0 0zM429 307v1h1zM430 253v0zM430 256zM306 194l3-1-2 1zM311 191l1 1 1-2-2 1zM397 73l-2-2 2 2zM365 51h1l-1-1zM332 56a48 48 0 0 0 5-2l-5 2z" class="st20"/></g></g><g id="AW" class="st0"><path d="M17 540h518v153H17z" class="st14"/><text class="st15 st7 st8" transform="translate(147 588)">ANIMAL</text><text class="st15 st7 st8" transform="translate(112 661)">WELLFARE</text><circle cx="274" cy="287" r="204" class="st10"/><path d="M439 50l-3-7c-3-5-5-14-11-17h-1l-1-1-3 1-8 3c-6 3-13 6-20 7l-3 3v3l-10 8c-1 2-4-1-3-3v-1-6l-2-6-2-9v-4h-1v-1l-6-5-6-3h-7l-7 3-18 11c-18 14-40 33-40 57l-2 5c0 14-3 27-8 40-5 12-10 25-21 34-11 8-23 15-35 20-6 3-12 4-18 5l-18 4-3 1a130 130 0 0 0-15 6l-1 2-7 6-7 2-6 6-2 1-11 17c-1 3-4 4-6 4l-9 16a5251 5251 0 0 1-24 41l-6 9-2 2-4 6v1c0 6 2 12 5 17l8 19 5 16c5 10 15 16 24 22a69 69 0 0 0 37 11c4-2 9 0 12 4 5 7 9 17 12 25 3 9 4 18 8 26l14 20c4 5 9 11 11 17 239-31 209-281 209-281l-14 2c-2 3-7 3-11 3h-3l-3 1-20 1c-2 0-2-3 0-4v-1l16-12 26-49 3-11 2-4v-2c0-6 2-13 4-19 3-7 5-13 6-20 2-7 2-15 3-23l2-11v-3l1-4v-1z" class="st11"/><g class="st1"><path d="M103 378l1 1-1-1zM104 377zM104 377c0-1 0 0 0 0zM105 378c0-1 0-1 0 0zM105 378s1 0 0 0zM106 377v0zM105 377zM105 377zM105 377zM104 376s0 1 0 0zM106 377zM106 377v-1 1zM105 376v1-1zM107 377v-1zM107 376v0zM107 376zM106 376zM106 376zM106 376zM105 376zM106 376h-1 1zM106 376zM106 376zM106 376zM107 375zM106 376zM107 376zM106 376zM106 376zM105 374l2 1h-1v-1h-1zM107 375zM106 375v1h1s-1 0 0 0l-1-1 1 1v-1h-1zM104 375zM105 375v1l-1-1 1 1v-1zM105 375zM107 375zM107 375zM104 374zM104 374zM107 368v-1l-1 1h1zM103 370zM104 371zM103 376h0zM108 372s-1 0 0 0zM100 373zM108 372zM98 381zM94 379zM108 374zM106 374zM106 371zM107 374h1-1zM108 374h-1 1zM108 374zM100 378zM104 370zM104 370v-1 1z" class="st21"/><path d="M104 375h1c-2 0 0 0-1-1h-1 1l-1-1h1-1 1c1 1 0 0 0 0h1l-1-1v-1c-1 0 0 0 0 0l-1-1h-1 1l1 1-1-1h2-1c1 0 0 0 0 0v-1 1a4 4 0 0 1 0-2v2l1-1-1 1 1-1h2l-2 1h-1v1h-1l1-1v1l1-1-1 1c0-1 0-1 0 0 0 0 1-1 0 0l3-1-1 1h-2 2l-1 1c1 0 0 0 0 0h1l1 1h-1v-1l-1 1h1v1s-1 0 0 0l1 1v-1h1s-1 0 0 0h-1v-1 1-1l1 1v-1-2-1h-1v-1c1 0 0 0 0 0v-1h-1c0-1 0 0 0 0v-1l-1 1v-1l-1 1v-1 1h-1l-1 1s-1 0 0 0h-1l1 1h-1l1 1c-1 0-1 0 0 0h-1 1-1 1c1 1-1 1-1 1h-1 0s1 0 0 0h1v1h-1 1-1v1h1-1v1s-2-1 0 0v1c0-1 0 0 0 0 1 0 0 0 0 0h-1-1l1 1-1-1 1 1-1-1v1s0-1 0 0c0 0 0 1 0 0l-1 1h1l-1-1v1h-1v1-1s0 1 0 0v1h-1-1 1v1l-1-1v1l1 2 1-1v1h1v-1s0 1 0 0h1-1 1c0 1 0 0 0 0l1-1h-1 1v-1 0h0v-1l1 1h1l-1-1 1 1s-1-1 0 0v-1h1-1 0v-1h1v-1 1h0v-1 0l1 1v-1-1h1-1 1zm0-2zm0-3h-1 1zm3 3c1 0 1 0 0 0zm0 0zm-9 4zM104 371zM103 376zM104 371zM108 375l-1-1 1 1zM105 374zM106 374zM106 374zM107 374h0zM105 374h1-1zM106 373zM106 373v0zM105 374v-1zM106 372zM105 372zM105 372zM106 370v1-1zM104 370v1s0-1 0 0v-1zM104 370zM94 379zM94 379zM105 373zM104 374zM104 376v-1 1z" class="st21"/></g><g class="st1"><path d="M204 419l1-1-1 1zM203 418zM202 417l1 1h-1 1l-1-1zM203 416zM203 416zM202 416h0zM202 416zM202 416zM202 416c0 1 1 0 0 0zM202 418zM202 415zM202 415h-1 1zM202 416h-1zM202 415v-1l-1 1zM201 414h0zM201 414zM201 415zM201 415zM201 415zM201 416zM201 416v-1 1zM201 416v-1zM201 414c0 1 0 0 0 0v0zM201 415zM200 414zM201 415zM201 414h-1 1zM201 415zM201 415zM198 415h1l1-1h-1v0l-1 1zM200 414zM200 414v0h1-1zM200 417zM200 417v-1 1l1-1-1 1zM200 415v0zM200 414v-1 1zM200 413zM181 406zM181 406zM193 408v-1l-1 1h1zM186 406v1l1-1h-1zM186 408v-1 1zM178 405c0 1 0 0 0 0zM197 411zM183 402l-1 1 1-1zM196 410v1h1l-1-1zM167 402zM164 399v-1 1zM199 412zM198 414zM194 412zM199 412zM199 412zM199 412zM173 403v-1 1zM189 410zM189 410v-1 1z" class="st21"/><path d="M180 405v1l-1 1 1-1h2v0l1 1h-1 1v0h2v1l1-1v-1h1l-1 1c0 1 0 0 0 0v1l2-1-1 1h-1 1v1l1-1-1 1 1-1v1h1v1l1-2-1 2 1-1v2-1h2l-1 1 2-2-2 2v1l1-1-1 1 1-1v1c0-1 0 0 0 0s0-1 0 0c0 0 0 1 0 0l2-2v1l-1 1s0 1 0 0h1l1-1v2c1 0 0 0 0 0l1-1c1 0 0 0 0 0h2l-1 1c-1 0 0 0 0 0h-1l1 1 1-1v1c0-1 0 0 0 0h1c0-1 0-1 0 0l1-1h-1v-1s0 1 0 0v1-1 1h-1v-1s0-1 0 0v-1h-1s-1 0 0 0l-1-1-1-1h-1c0 1 0 0 0 0l-1-1h-1-1v-1 0h-1l-1-1h-1l1-1h-1l-1 1c0-1 0-1 0 0v-1h-2v-1 1l-1-1v-1c0-1 0 0 0 0h-1-1l-1-1h-1-1l-1-1h-1v1c-1 0-1 0 0 0l-1-1-2-1c-1 0 0 0 0 0h-1-2l-1-1v0h-4l-1-1v1h-1v2h1v0l1 1v-1l1 1s1 0 0 0l1 1v-1h2v1l1-1 1 1v-1l1 1h-1 1l1-1-1 1h1-1 1v1c0-1 0 0 0 0v-1l1 1s-1 0 0 0v-1 1l1-1v1h1s-1 0 0 0h-1l1 1v-1 1h2v1h1v-1zm2 1s0 1 0 0zm4 1zm12 5zm0 0zm-25-12zM186 408v-1 1zM178 405zM193 412zM199 413zM199 415zM199 414c-1 0 0 0 0 0zM199 414zM198 412h0zM198 415v-1 1zM197 414h0zM198 414zM198 415v-1zM196 412v0zM196 414v-1 1zM195 413v0zM193 411l1-1zM190 411h1-1zM191 411zM164 398zM163 399v-1 1zM182 407zM181 406zM179 406z" class="st21"/></g><path fill="#878787" stroke="#9e9d9c" stroke-miterlimit="10" d="M235 245c-3-8-11-8-18-7a21 21 0 0 0-15 13l-2 2c-3 6-5 14 2 18 5 3 14 4 19 2 13-3 18-17 14-28z"/><path d="M248 229c0-7-3-13-8-18l-1-1v-2c0-4-3-8-6-9-3-2-6-2-9-1-6 1-11 2-16 5a22 22 0 0 0-5 3 35 35 0 0 0-23 12c-8 6-13 13-16 22-4 11-2 29 12 31 4 0 8-3 9-7a113 113 0 0 1 8-23c4-4 7-7 12-8 6-2 12-1 18-1l8-2v1c2 4 5 7 10 6 4 0 8-4 7-8zM233 272c-8 8-20 6-30 5-4 0-8 4-8 9s4 8 8 8c15 2 31 1 42-10 8-7-4-20-12-12zM154 358l-5-2-6-1-1-3c-2-4-6-6-10-7l-6 1v-9c0-5-4-8-9-8v-1l2-8c1-4 0-7-3-8 3-7-4-16-12-11l-13 8c-5 5-6 13-3 19 2 3 5 5 8 5l3-1 2 8c1 4 4 7 8 8 0 4 0 8 2 11 2 4 6 6 10 5l6-1h1v1c1 3 3 5 5 6l8 2h3l1 1c10 5 18-10 9-15zm-37-24c1 1 0 1 0 0zM304 320c-6 10-14 19-24 26s-21 11-33 15c-11 4-6 20 4 17 14-5 27-9 39-18s21-19 29-31c6-9-9-18-15-9zM334 150c-5 0-8 4-9 9-1 7-2 16-9 20-5 3-6 10-2 14l1 1-4 5c-1 4 2 9 6 10 9 2 18 0 20-10 1-4-2-8-5-12 7-7 9-18 10-28 1-5-4-9-8-9zM401 121c11-20 27-43 22-67-1-7-6-11-13-11-6 0-13 3-18 6-10 6-14 17-21 24-4 4-8 7-10 11-3 7-1 12 1 19l-3 2c-7 3-7 10-6 17l1 5-1 1-3 3c-2 4-2 8 0 11l3 3-9 44c-1 4 1 9 6 11h3c3 5 11 6 15 0 2-2 5-5 6-9 2-1 2-3 2-4l1-3-1-7 8-25 17-31zm5-60l1 1h-3l2-1zM365 41c-2-7-8-13-15-13-8 0-14 6-18 11-10 12-17 25-24 38-8 15-17 32-18 49-1 8 12 13 16 5 8-20 26-33 38-51l1-4 13-15c5-6 8-12 7-20z" class="st16"/><path d="M224 448v0z" class="st23"/><path d="M339 339v-1c1-5 1-10-2-15-2-5-9-6-13-2-7 9-16 16-24 24-28 13-54 29-78 49l-7 1c-11 1-23-1-34-4-10-2-14 11-7 15v2l4 11v5a144 144 0 0 0 37 57c1 3 3 5 7 5h4c35-3 55-35 69-63 2-2 2-4 1-6a833 833 0 0 0 45-68c3-3 2-8-2-10zM416 221c-2-6-8-9-14-8l-5 2c-2-3-5-4-9-3l-1 1-9-1c-10 3-6 18 3 16v8l-1 1-6 3c-7 6-13 12-17 20l-6 22-4 7-9 8c-5 10 3 22 14 18a445 445 0 0 0 18-21c11-16 21-32 32-46l9-12c4-5 7-9 5-15zm-15 2l-1 1c-1-4 2-1 1-1z" class="st24"/><g class="st1"><path d="M225 260zM224 259zM223 258h0zM224 256v0zM224 256c0 1 0 0 0 0zM223 256h0zM223 256zM223 256zM223 256v0zM223 258zM223 255h-1 1zM222 255zM222 257l1-1h-1v1zM222 254zM222 254v-1h-1l1 1zM221 254v-1 1zM222 255zM222 255zM222 255zM222 256zM222 255v0zM222 255zM221 254zM222 255zM219 253zM221 254v0zM221 253v0zM222 254zM222 254l-1 1h1v-1zM218 255h1v-2 1l-1 1zM220 254v-1h-1l1 1zM221 254l-1 1v-1s1 0 0 0h1c-1 0 0 0 0 0h-1 1zM221 257zM221 256v0zM221 255h-1 1c0 1 0 0 0 0zM219 253zM218 253zM228 254zM225 253zM220 265zM223 259h0zM222 259zM228 259zM215 259s1 0 0 0zM226 255zM215 260v-1 1zM215 263v-1 1zM218 258zM215 255zM217 255zM218 260zM215 255zM215 255zM215 255zM223 264zM222 261zM222 261c1 0 0 0 0 0l1 1-1-1z" class="st17"/><path d="M228 257h1v-1h-1l1-1v0l-1-1s0-1 0 0l-1-1h-1-1v1-1l-1 1v-1h-1l1 1h-1v1l-1-1 1 1v1h-1l1 1h-1v2h0v1l2 1h-1l-1-1v1h1-1 1s-1 0 0 0c-1 0-1 0 0 0v1l-1-1 1 3v-2l-1-1v0h-1 1l-1 1v-1l-1 1-1 1a14 14 0 0 0 2-2v-1l-1 1h1l-1 1v-1-1s0 1 0 0l-2 2v-1l1-1h-2 1v-1-1s0 1 0 0v1l-2-1s1 0 0 0v-1h1v-1h-1l1-1v-1l1-1h-1v1c-1 0-1 0 0 0h-1l-1 1s0-1 0 0h1v1h-1 1-1v4h1-1l1 1v1h1v1l1-1v1c0 1 0 0 0 0l1 1h1v0h1v1l1-1h1l1-1v0l1-1 1-2h-1 1l-1-1h1s-1 0 0 0h-2 1-1 1v-1l-1-1h1s-1 0 0 0v-1l1 1v-1l1 1v-1h-1v-1h-1 1-1v1 1 1l-1-1v1c0 1-2 1-1 2h1c0 1 0 0 0 0h-1l-2 2h1-1v1h-1l-1 1 1-2-1 1v-1h-1l1-1h-1v-1l1-1-1-1c0 1 0 0 0 0v-1 1h-2v1l-1-1v3h1-1v1h1-1 1l-1 1h1v1l2 1h1v1h1v-1 1h2l-1-1s0-1 0 0h2v-1-1 1h1l-1 1h1v-1h1v-1h-1 2l-1-1c1 0 0 0 0 0h1l-1-1 1 1v-1-1s0 1 0 0v1h1l-1-1h2v-1-1-1zm-4-3zm-1 6v-1 1zm-8-3zm0-1v0zm6 6c0 1 0 0 0 0zM222 259zM228 259zM220 260zM216 253v0zM219 255zM217 254h0zM218 254zM215 256zM218 255zM217 256v-1 1zM217 255zM218 255zM217 258zM218 257h-1 1zM218 258zM219 261h-1zM222 261h-1 1zM221 261zM219 258zM218 257h1-1zM223 254zM229 254l-1 1 1-1zM229 258v-1 1z" class="st17"/></g><g class="st1"><path d="M229 260s0-1 0 0zM230 259zM230 259c0-1 0 0 0 0zM231 260zM231 260zM231 259v1h1l-1-1zM231 259zM231 259zM231 259s0 1 0 0zM230 258zM232 259zM232 259zM231 258v0zM233 259h-1zM233 259zM233 258v0zM232 259zM232 259zM232 259zM231 259v-1 1zM232 258h-1l1 1v-1zM232 258zM232 258zM232 258zM233 258zM232 258zM233 258zM232 258c0 1 0 0 0 0zM232 258zM231 256v1l2 1-1-1c-1 0 0 0 0 0l-1-1v0zM232 258h0z" class="st17"/><path d="M232 258v-1 1h1-1 1-1zM231 257zM231 258v-1 1zM231 258v-1 1zM233 258v-1zM233 257v1-1zM226 253zM227 253zM232 252zM229 252zM228 253zM225 253zM233 255zM228 250zM233 255zM226 248zM227 252zM233 256zM232 256zM231 255zM233 256zM233 257zM233 256zM224 251zM229 254zM228 254h1-1zM226 253l-1 1 1-1h1-1 1v-1 1c-1 1 0 0 0 0h-1v1l1-1v0c0 1 0 0 0 0v1-1h1c0-1-1 1 0 0l-1 1 1-1 1-1v0l-1 1v1-1 1l1-1-1 1c1-1 0 0 0 0l1-1-1 1h1c0-1 0 0 0 0l1-1-1 1h1l-1 1c0-1 0 0 0 0v-1h1l-1 1 2-2h1l-3 2 1-1-1 1s1 0 0 0c0 0 1 0 0 0l3-1h-1l-1 1h1-1 2l1 1h-2 1-1 1v1-1 1h2-1v-1h-1 1-1 1c1 0 1 0 0 0v-1-1-1h-1c0 1 0 0 0 0 1-1-1 0 0 0v-1 1-1 1h-1l1-1-1 1s0-1 0 0v-1 0h-1 0v-1c0 1 1 0 0 0l-1 1c1-1 1-1 0 0l1-1h-1c0 1 0 0 0 0-1 1 0 0 0 0h-1l1-1c0-1 0 0 0 0h-1s0-1 0 0c0-1-1 1 0 0h-1v-1 1c0-1 0-1 0 0l-1-1h1-1v1c-1 0 0 0 0 0v-1l-1-1v1c0-1 0 0 0 0v-1 1-1h-1v3c0 1 0 0 0 0h1v1h1v-1 1s0-1 0 0v-1l1 1v-1-2c0 1 0-1 0 0l-1-1v1-1 0l-1 1v-1 1h-1c1 0 0 0 0 0v-1 4s0-1 0 0v-1s0-1 0 0v1s0-1 0 0c0-1 0 0 0 0s0 1 0 0v1l1-1-1 1 1-1s0-1 0 0c0 0 0 1 0 0v1-1 1h1s-1 0 0 0c0-1 0 0 0 0s0-1 0 0zm1 0zm1 0zm5 3zm0 0zm-9-7zM228 253zM225 253zM229 255h0zM233 257zM231 257zM232 257zM232 257zM233 256s1 0 0 0c1 0 0 0 0 0zM231 256v1-1zM231 256s1 0 0 0zM231 256zM231 256zM232 255h-1 1zM230 256h1-1zM230 256zM231 255v-1zM229 255c-1 0 0 0 0 0zM229 255zM227 252zM227 252zM226 254c1 0 1 0 0 0zM226 253zM225 254s1-1 0 0z" class="st17"/></g><g class="st1"><path d="M232 259v0zM232 255l-1-1 1 1zM228 254v-1l2-1 1-1v2h1v-1l-1-2-1 1-2 2v1zM227 258v-1 1zM227 257c-1-1 0 1 0 0zM230 259h-2l1 1h1v-1zM231 259h-1 1zM229 259h0zM228 259v-1h1l-1-1v2z" class="st17"/><path d="M228 254h1v-1l-1 1zM234 255v0zM234 255l-1-1 1 1zM231 259h-2 2zM233 252h1-1zM232 250h1l-1-1v1zM231 249h1-1zM233 253zM233 253v-1 1zM233 253zM233 256s0-1 0 0zM233 254v1s0-1 0 0v-1zM233 254zM232 250l-1-1v1h1zM232 252v-1 1zM228 247zM231 251h1l-1-1v1zM230 248v0zM232 251zM232 251zM226 248h1c1 1 1-1 1-1h-1v0h-1-1 1v1zM229 248v-1h-1l1 1zM230 249h-1l1 1v-1h0c0-1 0 0 0 0l-1-1 1 1zM232 256c0-1 0-1 0 0zM232 255v-1 1zM231 252v-1 1zM228 246h-1 1zM227 245h-1zM206 259zM208 262zM217 252l-1-1 1 1zM206 261zM204 262zM207 259h-1 1zM224 259v0zM210 259h-1 1zM224 260s-1 0 0 0zM208 254zM221 255h-1 1zM223 251zM224 249h1-1zM224 263zM223 251zM223 251v-1 1zM223 251zM212 259zM216 257zM216 259v-2l-1 1 1 1z" class="st17"/><path d="M207 258h-1l-1 1h1v-1 0h1v1h-1v1h0l-1 1 2-1-2 1 1-1h1v1l1 1 2-1v1h1-2 4l-1 1 2-1 2-1-2 1v-1l1-1h1v-1h1a2 2 0 0 0-1-1v-1-1c0-1 0 0 0 0v-1 1l-1-1-1-1h-2l-1-1v1h-1v1h-1l-1 1-2 2-1 1v2h1l1-1v1h-1v1h-1l1-1h-1v1l-1 1 1 1 2 1h2v1h-1l-2-1v1h4l1-1-1 1 1-1 1-1v1l1-1 2-3v-2l1 1-1-2-2-1h3v-1h-1v-1-1h-1 1l-2-1v-1 3h1l1-1h1v1h1l2 1v1l-1-1-2-1v1h-1l1 1h1l-1-1 1 1 1 1h-1-1v4h1l1-1 1-1v1l1 1h-1v1h1s1 1 0 0h1l1 1v-1h3l1-2h1l-1-1h1v-2l-1 1v1l-1-2v-1l-1-3h2l-1 2 1-1v-4h-1c0 1 0-1 0 0l-1-2v-1l-1-1-2-3 4 1h0v-1l-3 3 1 1v2l1 2v1 8l-1-1h-1-1v-1 1l-1-1-1 1v-1h1v-1-3l-2-2-1-1h-1v-1l-1 1-1-1h-1l-1 1v3h1v2h-1l1 1v1l-1 2h-2c0 1 0 1 0 0l-1 1 1-2h-1l1-1-3 2v-1h1l1-1v-1l1-1 1-1h2v2h-1v0l-1 1h-2c1-1 0 0 0 0h1v-1h-1v-1-1h1v-1h3l1 1v2h-2s0 1 0 0h-1-1l-1-1h1v-1h-1-1v-1h-1-1c0 1 0 0 0 0l1 1v-1l-1-1h1s1 0 0 0l1 1h1c1-1 2 0 2 1v1h-1 0-1s1 0 0 0v-1a3 3 0 0 1 1-1s0-1 0 0l2 1 1 2 2 1h1v1l1-2h-2c1 0 0 0 0 0l-1 1v-1h-2v-1h-1l1-1v-1h-1 1v-1l1-1 1 1h1l2 1 3 1v-1h2l2-1h-1c1-1-1-1-1-2h-1l-2 1v-1l-1 1-2-1s-1-2-3-2h-1 1v1l-1-1-1 1-2 2v1l-1 1v-1 3a6 6 0 0 0 6 4h3l3-1-2-2h-1v-1l-2-1h-1v-1l-1-1-1-1v1l-1-1h1v1l1 1v3l-1 1h-1l1-1v-2l-1 2h1v1h0l1 1v-1l1-1 1-1v-1-2 2s0-1 0 0l-1-1v-1-1l-2-1h1v1l-1-2h-1v1h-2-1-1v0h-1l-1 1-1 1v3h1-1v-2l-1-1v2l1 2h2v1s0-1 0 0h-1 2l1-1-2 1 1-1h0c1-1 0-1 0 0zm7 3l-2 1 2-1zm-9 2v-1 1zm19-9zm0-1zm-14 3zM204 262l1-1-1 1zM207 259zM219 263z" class="st17"/><path d="M222 248l1 1v-1h-1zM228 249zM224 247l-1-2 2 1v-1l-3-1 1 3h1zM225 246h0zM224 252h-1 1zM224 247zM225 250v-1 1zM225 249zM225 248zM226 258c0 1 0 0 0 0zM227 255l-1 1h1v-1zM227 258s0 1 0 0c0 0 0-1 0 0zM219 261zM215 255c0 1 0 0 0 0zM215 255zM223 255h1zM224 254h0zM217 260h-1v1-1 1-1 1l1-1zM206 259zM205 259s2-1 0 0z" class="st17"/></g><g class="st1"><path d="M229 246zM229 247zM228 247h0zM229 246zM229 246zM229 246v-1 1zM229 246zM229 246s-1 0 0 0zM229 246h-1 1zM228 247v1-1c0 1 0 0 0 0zM229 246zM229 246h-1 1zM228 247v-1 1zM229 246zM228 246zM228 246zM229 246zM229 246zM229 246s-1 0 0 0zM228 246v0zM228 246v0zM228 247v-1zM228 246zM228 246zM228 247zM228 246zM228 246zM228 246zM228 246zM227 247h1-1zM228 247zM228 246v1-1zM227 248h1-1zM228 247v0zM228 247h-1 1zM228 247zM228 247zM232 249zM232 249zM229 246h1-1zM231 246zM232 246zM230 251zM229 246s-1 0 0 0zM230 247zM229 246zM225 247zM229 246zM229 246zM228 246h-1 1zM227 245zM229 246zM229 246zM229 246zM228 250c-1 0 0 0 0 0zM229 246zM229 246zM231 250h1v-1-1 0s1 0 0 0h2l-1-1 1 1-1-1c1 0 0 0 0 0h1-1v-1c-1 0 0 0 0 0h-1-1 1-2 1-1-1c1 0 0 0 0 0v-1 1l-1-1 1 1-1-1 1 1-1-1 1 1-2-1 1 1h0l-1-1h-1 0s1 0 0 0c0 0 1 0 0 0h-1l4 1h-1l-2-1h0a44 44 0 0 1 2 1l-1-1v1l-1-1v1c1 0 0 0 0 0h1-1 2l-1 1v-1 1l1-1v1l1-1h-1 1s-1 0 0 0c0 0-1 0 0 0h2v1l-1-1v2-1c0 1 0 0 0 0l-1 1v-1 1h-1v-1c0 1 0 0 0 0v1l1-1h-1 1c-1 0 0 0 0 0h-1 0l1-1h-1 1-1l-2-1v1h-1 1-1 1l-1 1h1-1l1 1v1h1-1 0v1l1-1v1l1-1v1c-1 0 0 0 0 0h-1 1-1 1l-1 1h1v-1 0h1l-1 1 1-1v1-1 0c0 1 0 1 0 0v1l1-1v1s0-1 0 0v-1h1v0h0zm2-2c-1 0 0 0 0 0zm-2-2zm-2 0zm-1 0h1-1zm1 1zM232 246zM230 251zM226 245zM229 246zM227 247zM228 247c-1 0 0 0 0 0zM228 247zM229 246s-1 0 0 0zM227 247zM227 246v0zM227 247zM227 247zM227 246zM226 246zM226 246zM228 245v1zM227 245s1 0 0 0h0zM228 245zM229 246zM229 246zM234 248zM232 249zM231 251h0z" class="st26"/></g><g class="st1"><path d="M228 257h-1 1zM228 258zM228 258c1 1 0 0 0 0zM227 258zM227 258s-1 0 0 0zM227 258h-1 1zM227 258zM227 258s0 1 0 0zM227 258zM229 259s-1 0 0 0zM226 258l1 1-1-1zM227 259zM228 259l-1-1 1 1zM226 259v-1 1zM226 259zM226 259zM227 259h-1 1zM227 259zM227 259zM227 259h0zM227 259zM227 259zM227 259zM227 259zM227 260zM227 259zM226 259h1-1zM227 259zM227 259zM229 261c-1 0-1-1 0 0l-2-1h0l2 1h-1 1zM227 260v-1h-1l1 1v-1 1zM227 259l1 1h-1v-1zM229 260zM229 260l-1-1 1 1-1-1 1 1zM228 260z" class="st27"/><path d="M226 260v-1l1 1zM226 260v-1 1zM222 268zM222 268zM224 263v-1 1c0-1 0 0 0 0zM224 266zM225 267zM220 268v0zM226 261zM222 264zM225 261h1c-1 0-1 0 0 0h-1zM215 266zM215 262zM226 260zM227 261h1-1zM227 263zM226 260zM226 260zM226 260zM218 266zM227 266zM227 266l-1-1 1 1z" class="st27"/><path d="M221 268v0s0 1 0 0h1v-1 1-1 1c0 1 0 0 0 0v1l1 1-1-2h1v0h1v-1s0 1 0 0v-1-1 1l1 1h-1 1v-2 2c0-1 0 0 0 0h1l-1-1 1 1v-1-1l1 1-2-2 2 2-1-1 1 1-1-1 1 1-1-1 1 1v-1l-1-1 1 1-2-2h1-1l3 2v1l1-1h-1l-1-1 1 1s0-1 0 0v-1l1 1-3-2h1l1 1c0-1 0 0 0 0l-1-1h2-1c0-1 0 0 0 0l-1-2v0l1 1h-1 1v-1h-1s0-1 0 0h1-1s1 0 0 0v-1s-1 0 0 0h-1 1-1l1 1h-1 1l-1-1v1h-1c-1 0 0 0 0 0v1c1 1 0 0 0 0v1h-1 1-1 1-1l1 1-1-1 1 1-1-1 1 1h-1 1-1c0 1-1 0 0 0h-1s0-1 0 0v-1l1 2c-1 0-1 0 0 0l-1-1v1c0 1 0 0 0 0 0 1 0 0 0 0l-1-1c0-1 0 0 0 0 0-1 0 1 0 0v1s0-1 0 0v-1 1c0-1-1 1-1-1v1c0-1 0-1 0 0v-1h-1s0-1 0 0l-1 1v-1-1l-1 1h0v-1 1l-1-1v0l-1 1 1-1h-1v-1 1l-1-1-1 1v-1 1l-1 2h1v1h0l1 1v-1h1v0h0l1 1v-1 1l1-1v1h-1 1-1 1l-1 1h1v-1 0c0 1 0 0 0 0v1l1-1-1 1 1-1-1 1h1v-1 2-1 1l1-1s0 1 0 0v1l1-1zm1 0zm3-2c0 1 0 1 0 0zm1-5zm0 0v-1 1zm-8 2c0 1 0 0 0 0zM225 267zM220 268zM228 264zM226 260zM229 260h-1 1zM227 260c1 1 0 0 0 0zM227 260zM226 260s0 1 0 0zM228 261zM228 261zM228 261zM228 261zM227 262h1-1zM228 262h1-1zM228 263h0zM227 263h-1z" class="st27"/><path d="M228 266v-1h-1l1 1zM227 265zM215 261l-1 1zM214 262v-1 1zM223 269zM221 269v-1zM220 269z" class="st27"/></g><g class="st1"><path d="M222 256v-1 1zM221 256v1zM221 256c0 1 0 0 0 0v1-1zM221 255zM221 255zM221 255zM221 255zM221 255s-1 1 0 0zM221 255v0zM221 257zM221 255h-1 1zM220 255zM220 256h1-1zM220 255v-1 1zM220 254zM220 255v-1 1zM220 255zM220 255zM220 255zM220 256zM220 256v-1 1zM220 256zM220 255zM220 255zM219 255zM220 255zM220 255zM220 255zM220 255zM218 256l1-1v1-1l-1 1zM219 255l1-1-1 1zM220 255l-1 1v-1h1-1 1zM219 257zM219 257h0l1-1-1 1zM219 256zM219 255l1-1-1 1zM219 254zM225 256h0zM225 255zM218 254h-1 1zM221 254zM222 253zM225 260zM218 253zM223 257zM218 253c1 0 1 0 0 0zM216 259zM218 256zM219 254zM218 255zM216 253zM219 254zM219 254zM219 254zM221 262zM220 251zM220 251l-1 1 1-1z" class="st17"/><path d="M225 258h1l-1-1h1l-1-1v-1h-1 1-1 1v-1-1l-1 1v-1 1h-1v-1 1l-1-1h1-1l-1 1 1-1v-1l-2 1 1-1v1l1-1h-1c0 1 0 0 0 0h-1 1-1 1-1v-1l-1 2 1-2-1 1v-1 0s0-1 0 0l-1 1v-1a9 9 0 0 0-1 2v-1l1-2h-1l-1 1 1-1v2l-1-1h-1l2 2h-1v-1h-1v1h2-1v1l-1 1h1v-1h1c1 0 0 0 0 0h1l-1 1v0h1s0 1 0 0h1v-1 0l-1 1v-1h1s-1 0 0 0h-1v-1a1 1 0 0 1-1 0l1 1v-1 1l1-1-1 1 1-1v1s0-1 0 0v1h1v0l-1 1 1-1h2-1l1 1c0-1 0 0 0 0v1h-1 2-1s1 0 0 0v1s-1 0 0 0h-1 1v1h-1v-1 1s-1 0 0 0h-1v-1 1h-1s0 1 0 0l1-1-1 1v-1-1 0h-1l1-1h-2-1v4l1 1h1v1l1-1v1c1-1 0 0 0 0l1-1v1c0 1 0 0 0 0h0l1-1v1h-1l1 1v-1 1h1v-1c0-1 0 1 0 0 0 1 0 0 0 0h0l1-1v1l1-1-1-1 1 1v-1 0l1 1v-1-1h1l-1-1h1-1zm-1-4s1 0 0 0c0 1 0 1 0 0zm-3-1c1 0 1 0 0 0zm-3 1c1 0 1 0 0 0zm0 0h1-1zm2 5zM222 253zM225 260zM215 252zM219 254zM218 256zM218 255c1 0 1 0 0 0zM218 255c1 0 0 0 0 0zM219 254s-1 0 0 0zM218 256zM218 255zM218 255zM218 256zM217 254zM216 255zM216 255h-1 1zM216 253h0zM218 250v0zM218 251zM217 256zM217 256zM225 253v1-1zM226 256v1-1zM226 259z" class="st17"/></g><g class="st1"><path d="M215 254zM215 255zM215 255c0 1 0 0 0 0s0 1 0 0zM214 255zM214 255zM214 255h-1 1zM214 256v-1 1zM214 255s0 1 0 0zM214 255zM215 256h1-1zM213 256h0zM214 256zM215 256h-1 1zM213 256zM213 256zM213 256zM214 256h-1 1zM214 256zM214 256zM214 256h0zM214 256zM214 256zM214 256zM214 256zM214 257zM214 256zM213 257l1-1-1 1zM214 256zM214 256zM216 257s-1 0 0 0h-2 2zM214 257h-1 1zM214 257h0s0-1 0 0v-1 1zM216 256zM215 256h1-1zM215 256v0zM214 257h-1 1zM214 257h-1zM219 258zM219 258zM215 260v1-1zM217 260v-1 1zM218 258zM219 258v-1 1zM214 258v0zM218 262zM214 259s-1 0 0 0zM220 257zM222 258zM213 258zM215 257zM216 258zM214 258h-1 1zM213 258zM213 258zM220 259c0-1 0-1 0 0zM218 258zM218 258l-1 1 1-1zM219 258v-1 1c0-1 0 0 0 0v0c0-1 0 0 0 0v-1 1h-1 1v-1l-1 1 1-1-1 1v1-1l-1 1v1l1-1h-1a14 14 0 0 0 1 0v-1 1-1l-1 1 1-1c-1 1 0 0 0 0l-1 1 1-1h-1 1l-1 1 1-1-2 2 2-2-1 1 1-1a7 7 0 0 1-1 0h1-1l-1 1 1-1-2 1 2-1h1v-1l-1 1 1-1-2 1h1c1-1 0 0 0 0l1-1-3 2 1-1h1-2 2-1-1c-1 0 0 0 0 0h-1 1c1 0 0 0 0 0h1v-1h-1-1 1-2 1-1l1 1v-1 1h-1 1v1s-1 0 0 0v1-1 1l1-1v1c-1 0 0 0 0 0s1 0 0 0h1v1c1-1 0 0 0 0h1-1v1l1-2c0 1 0 1 0 0v1c1-1 0 0 0 0h1c0-1 0 0 0 0v1s0-1 0 0v-1s0 1 0 0v1l1-1c-1 1 0-1 0 0v0c0 1 0 0 0 0h1v-1 1h1v-1 1h1l-1-1h1-1v-1l1 1-1-1 1 1v-1l1-1h-2l-1-1s-1 0 0 0v1-1 0c-1 0 0 0 0 0v1c-1 0 0 1 0 0 0 1 0 0 0 0v1-1 1c0-1 0 0 0 0v-1h-1 1-1 1-1s0-1 0 0h0v1-1-1 1s0-1 0 0v-1 1zm0 0zm-1 1zm-4-1zm0 0zm7 3zM218 258v0zM219 258zM217 258zM213 257zM216 257h-1 1zM215 257c-1 0-1 0 0 0zM215 257c-1 0 0 0 0 0zM214 258h-1 1zM216 257h-1 1zM215 257zM215 257zM216 257zM215 258h0zM216 258l1-1-1 1zM217 258v-1 1zM216 258l-1 1z" class="st17"/><path d="M218 257v1h-1l1-1zM217 258zM223 258zM222 258h1-1zM219 257zM219 257v1zM219 257z" class="st17"/></g><g class="st1"><path d="M213 258h0zM213 258h-1zM213 258h-1 1s-1 0 0 0zM214 258zM214 258zM214 258zM213 258zM213 258zM213 258zM212 258zM214 258h-1 1zM213 258zM213 258zM214 258zM214 258zM214 258zM213 258h1-1zM213 258zM213 258zM213 258h-1 1zM213 258zM213 258zM213 258zM213 258zM213 258zM213 258zM214 258h-1 1zM213 258zM213 258zM211 258s1 0 0 0h2-1-1zM213 258h1-1zM213 258h-1 1zM211 258zM212 258h-1 1zM212 258zM213 258h1-1zM213 258h1-1zM210 256zM210 256zM213 258h1-1zM211 257h0zM210 256zM210 255h-1 1zM213 258zM213 257zM213 258c1 0 1 0 0 0zM211 254zM214 256zM214 258zM212 258zM211 258zM213 258zM214 258h-1 1zM213 258zM211 255zM210 257zM210 257h1-1zM210 255h-1l1 1v0c-1-1 0 0 0 0h-1v-1l1 1h-1 1c1 0 0 0 0 0h1-1l1 1h0l-1-1 1 1h-1v-1 1c-1-1 1 0 0 0 1 0 0 0 0 0h1-1 1a20 20 0 0 0 1 1h1l-3-1h-1 1-1 1c-1 0 0 0 0 0h-1l3 1h-1a80 80 0 0 0-1-1c1 0 0 0 0 0l2 1h-1-1 1-1 3-2 1-1 1s1 0 0 0c0 0-1 0 0 0h2-1-1 2c-1 0 0 0 0 0h-1c1 0 0 0 0 0 1 0 0 0 0 0s-1-1 0 0l-1-1s1 0 0 0h1-1l1 1-1-1h1c-1 0 0 0 0 0s1 0 0 0h-1c1 0 1 0 0 0h1-1 1-1c-1 0 1 0 0 0h1s1 0 0 0h-1 1s1 0 0 0c0 0 1 0 0 0v-1h-1l1 1c0-1 0 0 0 0v-1 0l1 1h-1v-1a4 4 0 0 0 0 1h1l-1-1c0 1 0 0 0 0s-1 0 0 0l1 1-1-1h1-1 1-1l-1-2c0 1-1 0 0 0h-1 1-1l1 1-1-1v1h1-1c-1-1 0 0 0 0h0c-1 0 0 0 0 0s1 1 0 0c-1 0 0 0 0 0h-1 1-1 1-1c1 0 0 0 0 0h1-1 1-1-1 1s-1 0 0 0h-1 1c0 1 0 0 0 0s0 1 0 0zm0 1zm1 1zm2 1zm0 0zm0-1v-1 1zM210 256zM210 255zM210 257zM214 258h-1 1zM211 258zM212 258c1 0 1 0 0 0zM212 258zM213 258h0zM211 258h1-1zM212 258h-1 1zM212 258zM211 258zM212 258h-1 1zM211 258h-1 1zM210 258zM211 258h1zM209 257s1 0 0 0h0zM210 257zM214 256v1-1zM214 256zM209 256zM209 255l1 1zM209 255z" class="st17"/></g><g class="st1"><path d="M220 253h-1 1zM221 253zM221 254v-1 1zM220 254zM220 254zM220 254h-1 1zM220 254zM220 254s1 0 0 0zM220 254h1-1zM222 253h-1 1zM220 255zM220 255zM221 254zM220 255h-1 1zM220 255h-1 1zM220 256v-1 1zM220 255zM220 255zM220 255zM221 255v-1 1zM221 255zM221 255zM220 255v1l1-1h-1zM220 255zM220 256h1-1zM221 255h-1 1zM220 256zM220 255zM220 255zM223 256h-1-1 2-1 1zM221 256h-1 1zM221 256s0-1 0 0h-1 1-1 1zM222 255zM222 255c0-1 0 0 0 0s0-1 0 0h-1 1zM221 255h0zM220 256zM220 256zM214 257zM214 257zM219 257v-1l-1 1h1zM215 257v-1 1zM214 258zM214 258h-1 1zM220 257zM218 251zM220 257s0-1 0 0zM212 259zM207 259zM220 256zM222 257zM221 259zM220 256zM220 256zM220 256zM213 256c0 1 0 0 0 0zM216 260zM216 260l1-1-1 1z" class="st17"/><path d="M214 257v1l-1 1 1-1v-1l1-1-1 1 1-1-1 1 1-1-1 1c-1 2 1-1 0 0v1l-1 1 1-2v0l-1 1 1-1c0 1 0 0 0 0v1-1 0c0-1 0 0 0 0s0 1 0 0v1l1-1v-1l1-1h1l-2 1h0v1h-1v1l2-1-1 1h-1 1l-1 1 1-1v1c-1 0 1-1 0 0 0 0 0-1 0 0 0-1 0 0 0 0h1v1l1-2-1 2h1v-1 1h1-1l1-1v1l1-2-1 2v1h1v-1l-1 1 1-2v2h1v-3 2h1-1 1v-1h1v0l-1-1c0-1 0 0 0 0v-1l1 1h1l-1-1-1-1 1 1h-1l1-1h-1s-1 0 0 0h-1 1-1 1v1l-1-1s0 1 0 0v1s-1-1 0 0l-1-1v1c0 1 0 0 0 0 0-1 0 1 0 0h-1c0-1 0 0 0 0s0 1 0 0v1c0-1 0-1 0 0v-1l-1 1 1-1h-1v-1h1l3-3v-1l2-1h1v-1h0l1-1v1a11 11 0 0 1-1 0 3 3 0 0 1-1 0h-1l-2 1 2-1h-1l2-1-3 2-2 3v-1l-1 1 1-1h-2v0l1-2v1l1-2v1l-1 1 1-1-1 1 1-1h1-1v-1 1l-1 1v-1c0 1 0 0 0 0h-1l-1 1v0l-2 1c0-1 0 0 0 0v1l-1-1v1l-1 1v1l-1-1v1h-1v1l-1 1-1 1h1-1l1 1h2c-1 0 1 1 0 0l1-1h-1 2v-1-1-1 1h0v-1l1 1v-1 2c0-1 0 0 0 0v-1 1l1-1v-1 1c0 1 0 0 0 0v-1 1l-1 1 1-1s0 1 0 0v1l1-2-1 2 1-1h-1zm0 0c1-1 0 0 0 0zm1 0zm5 0zm1 0l-1-1v1h1zm-9-4c0 1 0 1 0 0zM214 258v-1 1zM214 257v1-1zM220 261v-1 1zM220 256zM222 256zM221 256c1 0 0 0 0 0zM221 256zM220 256s1 1 0 0zM222 257zM222 257zM222 257zM222 257zM221 258h0zM223 259l-1-1 1 1zM222 259h1-1zM220 259v-1zM218 261s0-1 0 0v-1 1zM218 260zM207 259zM207 260v-1 1zM213 259v-1 1zM214 258v-1zM213 259s1-1 0 0z" class="st17"/></g><g class="st1"><path d="M224 249h-1 1zM224 250zM223 250h1-1s1 0 0 0zM222 249c1 0 1 0 0 0zM222 249zM222 249zM223 250zM223 250zM223 250s0-1 0 0zM224 251v-1 1zM222 249v0zM222 250zM223 250zM222 250v-1 1zM222 250l-1-1v1h1zM222 250h-1 1zM222 250zM222 250zM222 250zM223 250v0zM223 250h-1 1zM223 250zM222 250zM222 250zM222 251zM222 250zM222 250zM222 250zM222 250zM223 252l-1-1 1 1-1-1 1 1zM222 251v-1 1zM222 250l1 1h-1v-1 0zM224 251zM223 251h0zM223 251zM222 251l-1-1 1 1zM221 251v-1 1zM224 255zM224 254zM221 253zM222 252zM224 253h-1 1zM224 256v0zM220 252s1 1 0 0zM220 254zM220 253h1l-1-1v1zM218 259zM218 255zM221 251zM222 252zM222 253zM221 251zM221 251zM221 251zM221 258zM223 253zM224 253h-1l-1-1 2 1z" class="st17"/><path d="M224 255l1 1-1-1h-1 1v-1h-1 1l-1-1s1 1 0 0l1 1-1-1-1-1h0l1 1h1-1 1l-2-1 1 1c0-1 1 0 0 0h1-1 1-1v-1 1c1 0-1-1 0 0 0 0 0-1 0 0 0-1 0 0 0 0l-1-1 1 1-1-1h-1 1l1 1s1 0 0 0h-1 0l1 1c0-1 0 0 0 0v-1h-2l2 1-2-1 2 1h1-1 1l-2-1 1 1c1 0-1 0 0 0h1-3 2-1 1-1l-1-1h1l1 1-1-1 1 1v-1c-1 0-1 0 0 0h-2c0-1 0 0 0 0v-1l1 1h1l-1-1v0s-1 0 0 0c0 0 1 0 0 0v-1h-1c1 0 0 0 0 0v1l-1-1v1c0-1 0 0 0 0v1h1v1a2 2 0 0 1 0-1v-1h1v1h-1 0-1v1h1s-1 0 0 0h-1 1-1l1 1h-1 1-1c1 0 0 0 0 0-1 0-1 0 0 0v1h1-1-1 1-1 1l-1-1v1h-1v-1 0l-1 1v1c0-1 0 0 0 0h-1 1v2l1-1v1-1 1h1c0-1 0 0 0 0s0-1 0 0c0 0 1 0 0 0l1-1v1s0-1 0 0v-1l1 1s0-1 0 0v-1s-1-1 0 0v1s0-1 0 0v-1h1-1l1 1v-1h-1 1v-1 0l1 1v-1h-1 2v-1h-1 1v-1zm0-1c-1 0 0 0 0 0zm-1-1zm-3-1h1-1zm1 0zm-2 4zM223 253zM224 256zM223 254zM221 251zM223 252zM222 252c0-1 0-1 0 0zM222 252c0-1 0 0 0 0zM221 251h-1 1zM223 252h-1 1zM222 252zM222 252zM223 252zM222 253zM223 253zM223 253v0zM221 254zM224 254s-1 0 0 0h-1 1zM223 254v-1 1zM218 255zM218 255zM225 254zM224 255zM225 256s-1 0 0 0z" class="st17"/></g><g class="st1"><path d="M226 252v-1 1zM226 252v1zM225 252v1l1-1h-1zM225 251zM225 251zM225 251zM225 252zM225 252zM225 252zM225 253zM225 251v1-1zM225 252zM225 252zM224 251zM224 251zM224 251zM225 252l-1-1v1h1zM224 252zM225 252zM225 252v0zM225 252zM225 252zM224 252zM224 252zM224 252zM224 252zM224 251v0zM224 252c0-1 0 0 0 0zM224 252zM224 254s0-1 0 0v-2 2zM224 252v-1 1zM224 252v0zM225 254v-1 1zM225 253zM224 253zM224 252v-1 1zM224 252v-1zM217 256zM217 256zM221 252v-1 1zM219 254zM219 255h-1 1zM216 256zM222 252zM217 252zM222 252c0-1 0-1 0 0zM212 256zM210 252zM223 251zM223 253zM222 254zM223 252zM223 251zM223 251v0zM214 255zM220 255zM220 256v-2 2zM216 256v0h1-1l1-1v1-1 0s0 1 0 0v1h1s-1 0 0 0v-1 1-1 0c0-1 0 1 0 0v0l1-1-1-1h1v2c0-1 0 0 0 0 0 1 0-1 0 0l1-1v1-2 2s0 1 0 0v-1 1-1 1l1-1v-1 2c0 1 0 0 0 0v1a45 45 0 0 1 1-2l-1 1h1s-1 0 0 0v-2 0h1v-1 1s0-1 0 0c0 0 0 1 0 0l1-1-1-1v1h-1v-1c0 1 0 0 0 0h-1v1c0-1 0 1 0 0h-1s0 1 0 0v1-1 1l-1-1c0 1 0 0 0 0s0-1 0 0v-1 2h-1v-1 1c0-1 0 0 0 0h-1v-1c0-1 0 0 0 0v-1 1c0 1 0 0 0 0l-1 1v-1 1-1h-1c0 1 0-1 0 0v1l-1-1v1-1h-1 1-1v1h-1v-1 0c0 1 0 0 0 0v1-1h-1v1l-1-1v1-1 3h1s-1 0 0 0v1-1 1-1l1 1v-1h1v-1 2s0-1 0 0l1-1h-1 1v1s0-1 0 0v-1 1l1-1v1-1 1-1 1c0 1 0 0 0 0h1v0c0-1 0 0 0 0s0-1 0 0zm1 0c0-1 0-1 0 0zm2-1v-1 1zm4-3zm0 0zm-10 0zM219 255zM216 256zM222 255zM223 251v0zM224 254v-1 1zM224 253c0-1 0-1 0 0zM224 253zM223 252v-1 1zM224 254v-1l-1 1zM223 253zM223 253zM223 254z" class="st17"/><path d="M223 253h-1v1l1-1zM223 254v1-1zM223 255s-1 0 0 0zM221 254h1v-1zM221 256s0-1 0 0v-1 1zM221 255zM210 252zM210 252zM217 257v-1 1zM217 256zM216 257s0-1 0 0z" class="st17"/></g><g class="st1"><path d="M210 266s-1 0 0 0zM209 266zM209 265v0zM210 266zM210 266zM210 266h1-1zM210 265v0zM210 266s-1-1 0 0zM210 266h-1 1zM208 265s1 0 0 0zM210 266v-1 1zM210 265zM209 265zM210 265l1 1-1-1zM210 265l1 1v-1h-1zM210 265h0zM210 265zM210 265zM210 265zM209 265zM209 265h1-1zM209 265zM210 265zM210 265zM210 265zM210 265zM210 265zM210 265zM210 265zM208 264l2 1h-1c0-1 0 0 0 0l-1-1zM210 265zM210 265h-1 1zM208 265zM208 265h0zM209 265h-1 1zM210 265zM210 265zM207 260zM207 260zM210 263h0zM209 261v0zM207 261h1-1zM207 259zM210 264zM211 261zM210 264s1 0 0 0zM208 257zM211 257zM210 265zM209 264zM208 263zM210 265zM210 265zM210 265zM208 259zM207 262zM207 262h1-1z" class="st17"/><path d="M207 260l-1-1 1 1h0c-1 0 1 0 0 0h-1 0l1 1c0-1 0 0 0 0h1s-1 0 0 0h-1 2v1l-1-1h1a19 19 0 0 0-1 0h-1l2 1-2-1c1 1 0 0 0 0l1 1-1-1 1 1h-1 1-1 0l1 1-1-1 3 1h-1 1l-3-1h-1 1-1l2 1-1-1v1 0h-1 1c1 0 0 0 0 0a13 13 0 0 1 1 0h-1 1-1 1c0 1 0 0 0 0l1 1s1 0 0 0h-1 1-1 1s-1 0 0 0l1 1-1-1h1-1l1 1v-1s1 0 0 0h1-1v-1c1 1 0 0 0 0h-1 1-1 1l-1-1h1s-1 0 0 0c0 1 0 0 0 0-1 0 1 0 0 0h1-1 0v-1c-1 0 0 0 0 0-1 0 0 0 0 0h1s-1 0 0 0h-1s1 0 0 0h1-1 1v-1 1l-1-1c1 0 1 0 0 0h1c-1 0 1 0 0 0h-1l-1-1 1 1v-1l1 1v-1h-1 1v-1h-1 1c1 0-1-1 1-1h-3s-1 0 0 0h-1 1-1c1 0 0 0 0 0h1-1c-1 0 0 0 0 0v1c1 0 0 0 0 0h1-1 0c-1 0 1 0 0 0 1 0 0 0 0 0h0v1-1l1 1h-1v-1h-1l1 1v-1 1l-1-1v1h1c-1 0 0 0 0 0-1 0 0 0 0 0h-1c1 0 0 0 0 0h1s-1 0 0 0h-1 1-1c-1 0 0 0 0 0v1zm0 0c1 0 0 0 0 0zm1 1zm2 3zm0 0zm1-5zM207 261h0zM207 259zM207 263zM210 265zM208 264zM209 264c0 1 0 1 0 0zM209 265z" class="st17"/><path d="M210 265c0-1 0 0 0 0 1 0 0-1 0 0zM208 264zM208 264s1 0 0 0zM208 264zM208 264zM209 264h-1 1zM207 264h1l-1-1v1zM207 263zM208 263h1zM206 262h0zM207 262zM212 257zM211 257h1-1zM206 260h1-1zM207 260zM206 259s1 1 0 0z" class="st17"/></g><g class="st1"><path d="M233 247zM233 248zM233 248zM232 247c0 1 0 1 0 0zM232 247zM232 248v-1 1zM232 248zM232 248s1 0 0 0zM232 248h0zM233 248l1 1v-1h-1zM232 248zM232 248zM233 248zM232 248l-1-1 1 1zM232 248l-1-1v1h1zM232 248h-1 1zM232 248zM232 248zM232 248zM233 248v0zM232 248h1-1zM233 248h-1zM232 248zM232 248zM232 248zM232 248zM232 248zM232 248zM232 248zM234 250v-1a20 20 0 0 0-2 0h1l1 1v-1 1zM232 248z" class="st17"/><path d="M232 248l1 1-1-1c0 1 0 0 0 0zM234 249zM234 249h-1 0v-1l1 1zM233 249zM232 248h-1 1zM232 248h-1 1zM232 254zM232 254v-1 1zM231 249zM232 251v0zM233 253v-1 1zM231 254v0zM232 249h-1 1zM231 250zM231 249zM229 254zM229 250zM231 249zM233 249zM233 250zM232 249zM232 249c-1-1-1-1 0 0zM232 249h-1 1zM230 253zM234 252zM234 252l-1-1 1 1z" class="st17"/><path d="M232 254v-1 1-1 1-1 1h1l-1-1h1v0c-1-1 0 0 0 0v-1 1l-1-2a8 8 0 0 1 0 1h1v0l-1-1 1 1v1-1l1 1-1-1c1 1 0 0 0 0v-1l1 1-2-2 2 2-1-1 1 1-1-1 1 1-1-1 1 1-2-2 2 2h1l-1-1 1 1-2-1h1c1 1 0 0 0 0h1l-3-1h1l1 1-1-1h1v0c-1 0 0 0 0 0l-2-1 1 1-1-1 1 1h0v-1h-1 1-1v-1 1l-1-1 1 1h-1s1 0 0 0h1-1c1 0 1 0 0 0l1 1-1-1v1-1l1 1h-1 1-1c1 1 0 0 0 0v-1a57 57 0 0 0 1 2l-1-1v1c0-1 0-1 0 0 0 0 0-1 0 0 1 0 0 0 0 0 0-1 1 0 0 0 1 1 0-1 0 0v-1c-1-1 0 0 0 0 0-1 0 0 0 0 0 1 0 0 0 0v1l-1-1v1c0-1 0 0 0 0h-1v-1 0c0 1 0 0 0 0v1-1s0 1 0 0v1-1l-1 1v2c0-1 0 1 0 0l1 1v-1 1-1 0h1v-1 2s0-1 0 0v-1s0-1 0 0v1s0-1 0 0v-1 0l1 1v-1s0 1 0 0v1-1 1c0 1 0 0 0 0h1s-1-1 0 0zm0-1s0 1 0 0zm1-1zm-1-3zm0 0zm-2 1v0zM233 253v-1 1zM231 254zM234 251zM231 248h0zM234 249h-1 1zM233 249c-1 0-1 0 0 0zM233 249zM232 249h-1 1zM234 250l-1-1zM233 249v0zM233 249zM234 250h-1zM233 250zM234 250zM234 250v0zM233 250h-1zM235 252h-1 1zM234 252zM229 250zM228 250h1-1zM233 254zM232 254zM232 255s0-1 0 0z" class="st17"/></g><g class="st1"><path d="M225 255h-1 1zM225 255h1zM226 255h-1 1zM225 256zM225 256zM225 256zM225 256zM225 256s1 0 0 0zM225 256zM226 255zM225 256zM225 256h0zM226 255l-1 1 1-1zM225 257zM225 257v-3 3zM225 254zM226 256h-1 1zM226 256zM226 256zM226 256v-1 1zM226 256zM226 256zM226 256v-2 2zM226 256zM225 255h1-1zM226 256zM225 254zM226 256zM226 256zM227 256v-1h-1 0l1 1zM226 254h-1 1zM226 254v0c0 1 0 0 0 0h-1 1zM227 255zM227 255l-1 1 1-1z" class="st17"/><path d="M226 256h1v-1 1h-1zM225 254v1zM225 255v-1zM221 255zM221 255zM224 256v-1 1zM223 257zM222 258v-1 1zM221 253h-1 1zM225 255s0 1 0 0zM225 255h-1 1zM225 255s-1 0 0 0zM224 249v0zM226 253zM225 255zM226 255v0zM226 257zM225 255zM225 255zM225 255zM222 251zM224 259zM224 260v-2 2z" class="st17"/><path d="M221 254h-1l1 1c-1 0 0 0 0 0h1-1c-1 0 0 0 0 0h-1 1v1c0-1 0 0 0 0h-1 2l-1 1h2-1v1l1-1-1 1c1 0 0 0 0 0v1l1-1v1-1 1l1-1v-1 1l1 1v-1-2 4h1v-1l-1-1 1 1s0-1 0 0h1l-2-3 1 1v1h1-1v-1h1v0c-1 0 0 0 0 0l-1-1-1-1 1 1c1 0 0 0 0 0s1 0 0 0h1-1v-1s1 1 0 0c0 0-1 0 0 0l-1-1 1 1h-1 1-1s0 1 0 0c0 0 0 1 0 0h-1c1 0 0 0 0 0l1 1c-1 0 0 0 0 0h-1c1 0 1 0 0 0 0-1 0 0 0 0v1s0-1 0 0v-1 1-1 0c-1 0 0 0 0 0s-1 0 0 0h-1 1-1 2v-1h-1s1 0 0 0c1 0-1-1 0 0v-1s1 0 0 0h1c-1 0 0 0 0 0h-1v-1h-1 1-1l1 1 1-1h-1 0l1 1v-1h-1 1-1v-1l1 1c-1-1 0-1 0 0l-1-1 1 1v-1 1h1s-1-1 0 0h-1 1v-3c0 1 0-1 0 0h-1l-1-1v1h-1v1-1 0h-1l1 1-1-1s0 1 0 0v1h1-1v-1s0 1 0 0v1h-1c1 0 0-1 0 0h0l1 1h-1 1-1 1-1v1l-1-1 1 1h-1 1v1h-1 1zm0 1zm1 2c0 1 0 0 0 0zm3-2zm0 0zm0-2c-1 0 0 0 0 0zM222 258v-1 1zM221 253zM227 259l-1-1 1 1zM225 255zM227 255zM226 255zM226 255zM225 255zM227 256zM227 256s-1 0 0 0zM227 256zM227 256zM226 256v0zM227 257zM227 257zM226 257h-1zM225 260s0-1 0 0v-1 1zM225 259zM227 254v-1zM227 253zM220 256zM220 255h1zM220 254z" class="st17"/></g><g class="st1"><path d="M223 256zM224 256zM224 257v-1 1zM223 257zM223 257c0-1-1-1 0 0zM223 257h-1 1zM223 257zM223 257zM223 257zM225 257h-1 1zM222 257h0zM223 257zM224 257h-1 1zM222 257zM222 257c-1 0 0 0 0 0zM222 258v-1 1zM223 257h-1 1zM223 257v0zM223 257zM223 257l1 1-1-1zM223 258v-1 1zM223 258zM222 258zM222 258s1 0 0 0zM222 258v1-1zM223 258h-1 1zM222 258zM222 258zM222 258zM223 260l-1-1h1-1l1 1zM222 258zM222 258l1 1v-1h-1zM224 258zM224 258h-1 1zM223 258v0zM222 258h-1l1 1zM221 259v-1zM222 256zM222 256zM214 259v0zM221 260zM220 259h0zM226 252c0-1 0 0 0 0zM220 259s0 1 0 0zM226 257v-1 1zM219 259h0zM218 263zM217 259zM221 259zM221 260zM218 261zM221 259zM221 259zM221 259zM224 259zM218 259zM218 259v0z" class="st17"/><path d="M222 255h-1 1v1h1-1l1 1-1-1c-1 0 0 0 0 0h-1l1 1h-1 0s1 0 0 0v1h0v1h-1v2l-1-2h1-1v0l-1 1v-1l-1 2 1-1v-1 0l-1 1 1-1h-1-1 1l-1-1h2-1 1l-2 1h2-4 2l-1 1s1 0 0 0h1l-1 1 3-2-1 1-1 1h1l1-1v1h1v1c0-1 0 0 0 0l1-2s0 1 0 0c0 1 0-1 0 0l1 1h-1 1v-1s0-1 0 0h1-1v-1-1 2l-1-1h-1s0-1 0 0l1-1h-1v0l-1 1v-1c1 0 0 0 0 0l-3-2v3h-1l1 1h-1 1v1h2l-1 1h1l1-1-1 1h3c0-1 1 1 0 0h2l-1-1h1s1 0 0 0l1-1 1-1h-1 2v-1h1v-1h-1v-1h1-1v-1h1l-1-1h0c0-1 0 0 0 0v-1l-2 2 1-1-1 1h1l1 1h-1-1l-1 1h1-1-1l1 1s-1 0 0 0h-2v1s1 0 0 0l-1-1v1h-1v0s0 1 0 0v1l-1-1v-1l-1 1v-1c0 1 0 0 0 0v1h-2v1h1l-1 1h1v1h2l1 1v-1 1-1 1h1l1-1v-1h2v-1h0v-1l2 1v-1-1 1c1 0 0 0 0 0 0 1 0 0 0 0h2l-1-1h1v-1c0 1 0 0 0 0v-1 0h1l-1-1s1 0 0 0h1l-1-1h1v-1l-1-1h-1l-1-1-2-1v4c-1 0 0 0 0 0h-1 1v1zm0 2s0-1 0 0zm-2 3h0zm0-1zm0 0zm2-2c0 1 0 0 0 0zM221 259zM226 252zM216 261zM221 258v0zM223 260zM222 260c0-1 0-1 0 0zM222 260c0-1 0 0 0 0z" class="st17"/><path d="M221 259s-1 0 0 0c-1-1 0 0 0 0zM222 260zM221 261h1v-1l-1 1zM222 260zM222 261zM220 261c-1 0 0 0 0 0zM220 262zM220 262s-1 0 0 0zM217 260h1zM218 259zM218 259zM217 258zM216 258h0zM221 256v1-1zM222 256zM221 255s1 0 0 0z" class="st17"/></g><g class="st1"><path d="M219 261c1 0 1 0 0 0zM222 260v-1 1zM223 259h-1 1s-1 0 0 0zM224 258v0zM224 259zM224 258zM223 257zM224 258l-1-1v1h1zM223 258s1 0 0 0zM222 258zM224 256h-1 1zM223 256zM223 257zM223 255h1-1zM222 254h1l-1-1v1zM222 253zM223 255zM223 255zM223 256v-1 1zM223 257l-1-1 1 1zM222 256h0zM222 256zM222 254h-1 1zM222 255zM220 253zM222 254v0zM221 253v0zM222 255zM222 255zM219 255l1-2-1 1h1-1v1zM220 253zM221 254h-1 1c-1 0 0 0 0 0l-1-1 1 1zM221 256zM221 256h0zM221 255zM220 253h-1 1zM219 253v-1 1zM222 258zM222 258zM215 261zM221 262zM221 260v0zM226 258h0zM214 255s1 0 0 0zM225 259zM214 256v-1 1zM215 263zM216 259zM216 253zM218 254zM216 257zM217 253h-1 1zM217 253zM216 253zM221 262zM219 260zM219 260l-1 1 1-1z" class="st17"/><path d="M222 257h-1s0-1 0 0h1v1l-1 1v-1h-1l2 1s-1 0 0 0h-1c-1 0 0 0 0 0v1c1 0 0 0 0 0v1l-1-1 1 1-1-1v1s0-1 0 0h-1c0-1 0-1 0 0v-1l-2 2 2-2-1 1 1-1h-1 1-1l1-1h-1l-1 1 1-1h-3 1-1 4v-1h-1l-1 1 1-1s-1 0 0 0v-1l-3 1h1l1-1s1 0 0 0h-1v-1h1c-1-1-1 0 0 0l-2-1h1v-1s-1 0 0 0l1 1h-1 2l-1-1h1l1-1-1-1v1h-1v1l-1-1v0h-1v1l-1 1v2l-1 1h1v1l1-1v1 2h1c-1 0 0 0 0 0h1v1h1-1 1v1l2 1v-1 1h1v-1s1 0 0 0h1v-1c0 1 0 0 0 0h1c-1-1 0 0 0 0l1-1h-1 1 1v-1s0 1 0 0v-1s1 0 0 0v-1-1c1 0 0 0 0 0h-3 1c-1 0-1 0 0 0l-1 1v1h1c0 1 0 0 0 0h-1-1v1-1h-1 1-2l1 1s-1 0 0 0h-1-1v1l-1-1s-1 0 0 0h-1v-1h-1 1l-1-1h-1l-1 1c1 0 0 0 0 0v1l1 2v-1 1l1 1v-1 1-1 1h1-1 4v-1l1 1s0-1 0 0v-1-1l1 1c0 1 0 0 0 0v-1 1h0v1l1-1v1h1l-1-1h2v-1c0 1 0 0 0 0v-1 1h1v-1h-1 1v-1h1v-1-1-1h-4-1l1 1zm0 2s-1 0 0 0zm-1 2zm-6-7h1-1zm1 0v-1 1zm4 5c0 1 0 0 0 0zM221 261zM226 258zM218 257z" class="st17"/><path d="M218 252l-1 1h1v-1zM220 255zM218 254h0zM219 254zM216 253s0 1 0 0zM219 255v-1 1zM218 255v-1 1zM218 254zM219 255h-1 1zM216 255zM217 255v1-1zM217 256zM216 258zM219 259s-1 0 0 0h-1 1zM218 259zM216 259v-1 1zM216 258zM221 259zM221 258h1zM221 256z" class="st17"/></g><g class="st1"><path d="M218 247c-1 0 0 1 0 0zM217 249zM216 250h1v-1l-1 1zM215 250zM215 250c0-1 0 0 0 0zM214 250zM214 251v-1 1zM215 250l-1 1v-1h1zM215 250zM216 251h1v-1l-1 1zM217 255l-1-1v1l-2-4 2 3v1h1zM216 254h1-1zM215 251zM217 254l1 1-1-1zM218 254zM218 254zM217 254zM217 254zM217 254z" class="st17"/><path d="M214 251v1l3 7-1-5v-1l-6-3 4 2h1l-1-1zM217 254h-1 1zM217 253v1zM218 253s0 1 0 0zM217 254zM219 253zM218 253h-1 1zM219 253h-1 1zM217 254c1 0 0 0 0 0zM217 254v-1 1zM218 250v1l1 2v-1h-1 1v-2l-1 1v-1zM219 253z" class="st17"/><path d="M218 253v-1 1c0-1 0 0 0 0h1-1zM215 253zM216 253h-1 1zM217 253v-1 1zM219 253v-1zM220 252v1zM221 250zM222 254v-1 1zM220 250s1 0 0 0zM223 245zM224 244zM221 248zM219 251h-1 1zM224 252zM218 251zM215 251zM210 253zM221 252zM220 251zM219 253zM221 252zM221 252zM221 251v0zM221 246h-1 1zM217 246zM217 246c1 0 1 0 0 0l1 1-1-1z" class="st17"/><path d="M221 249h-1 1v2l-1 1 1 1h3l1 1-1-1v-1h1v-1h1l-1-1c0 1 0 1 0 0v-2c0-1 0 0 0 0v-1h-1v-1c1 0 1 0 0 0l1-1h-1v-1l-1 1v0l1-1h-1 1-1v-1l-2 2v-1l1-1-1 1v-1l-1 1c0-1 0 0 0 0v0l-1 1v-1 2h-1l1 2-2-1h1l-1 1h1-1l-1 1h1l1 1h-2l3 1h-1l1 1-3-2h-1v1l1 1v-1l1 1h-1v1h2l-1 1h-1 1v1h2v-1-1h2s-1 0 0 0v0l-1-2v-1h1v0h-1 1l-1 1s-1-1 0 0l-1 1 1 1v-1h1c-1 0-1 0 0 0h-1v-1c1 0 0 0 0 0h1l-2-1-1 1v1-1 2h1c1 0 0 0 0 0v-1-1l1-1h-1 1l-1-1v-1l1 1-1-1h1v-1 0h1c0-1 0-1 0 0l1-1v0h1l-1 1h1v2h-1v2l1 2v-1-1h1l1-1v-1-1-1l1-1v-1-2h-1l-1 1 1-1-1-1h-2l-1 1-1 1v-1 1l-1-1v2h-2l-1 1v1l-1-1v1l-2 1v1l-1-1v1h1l-2 2-2 1 1 1h-1v1h3c-1 0 0 0 0 0v-1l2-1h-1l2-1s-1 0 0 0h1-1l2-2h-1l1-1h1v-1l1 1v-1c0-1 0 0 0 0v-1l1 1v-1 1c0-1 0-2 1-1h-1 1l-1 1s0-1 0 0l1-1-1 1h0s0 1 0 0l1-1v1c0 1 0 0 0 0v-1h1-1 1s1-1 0 0l-1 1h1l1-1-1 1s-1 0 0 0h-1v0h1a29 29 0 0 1-1 1c-1 0 0 0 0 0v1h-1 1c1 0 0 0 0 0s1 0 0 0zm3 4c-1-1 0 0 0 0zm-1-9zm-4 6h1-1zm2 1l-1-1 1 1zm-1-7c-1 0-1 0 0 0zM224 244zM221 248zM217 255v0zM220 252zM218 251zM220 251h-1 1zM219 251c0 1 0 0 0 0zM221 251zM219 250v1-1zM220 250zM220 250zM219 250h0zM220 251v0z" class="st17"/><path d="M222 251h-1l1 1v-1zM221 252h0zM217 253h0zM216 249c0 1 0 0 0 0zM216 249v0zM209 254zM209 254v0zM225 253zM220 250h1zM220 249s1 0 0 0z" class="st17"/></g><g class="st1"><path d="M231 242h1-1zM231 243zM231 243c0 1 0 0 0 0zM231 242zM231 242zM231 242v-1 1zM231 242zM231 242s0 1 0 0zM231 242v0zM231 244s0-1 0 0zM231 242zM231 242zM231 243zM231 242v-1 1zM231 242v-1 1zM231 242v-1 1zM231 242zM231 242zM231 242zM231 243zM231 243v-1 1zM231 243zM231 242zM231 242zM231 242zM231 242zM231 242zM231 242zM231 242zM230 244l1-2v1h-1 1l-1 1zM231 242zM231 242v0zM231 244zM231 244v-1 1zM231 243v1-1c0 1 0 0 0 0zM231 242zM231 242zM228 246zM228 246zM230 242s0-1 0 0zM229 244zM229 245zM228 246v0zM230 242zM229 242zM230 242zM227 246zM227 242zM231 242zM230 243zM230 244zM231 242zM231 242zM231 242zM228 245zM229 246zM229 246c0-1 0-1 0 0v-1 1z" class="st17"/><path d="M228 246v-1 1l1-1-1 1h1-1v1l1-1v-1 1-1 0c0-1 0 1 0 0v-2 3-1-1 2-1 0c0 1 0-1 0 0v1-3 3-1 1-1-1a28 28 0 0 0 1-1l-1 3v-1 1l1-1-1 1v-1 1s0-1 0 0l1-3a15 15 0 0 1-1 2h1v-1 1c0-1 0 0 0 0v-2c0 1 0-1 0 0v0s0 1 0 0l1-1v0l-1 1v-1 1l1-1h-1s0 1 0 0c0 0 0-1 0 0v-1 1c0 1 0 0 0 0 0-1 0 1 0 0v1h-1l1-1-1 1 1-1-1 1v-1 0a11 11 0 0 0 0 1s0-1 0 0v-1c0-1 0 0 0 0 0-1 0 0 0 0v1c0-1-1 1-1-1v1-1c0 1 0 0 0 0v1h-1v-1 0c0 1 0 0 0 0v1-1s0 1 0 0v1-1 3c0-1 0 1 0 0v1-1 1-1 1l1-1v-1 2s0-1 0 0v-1s0-1 0 0v1s0-1 0 0v-1 0s0 1 0 0v1-1 1c0-1 0 0 0 0s0-1 0 0zm1 0c0-1 0 0 0 0zm0-1zm1-3zm0 0zm-2 0c0 1 0 0 0 0zM229 245zM228 246zM229 246v-1 1zM231 242zM230 244zM230 243c1 0 1 0 0 0zM230 243c1 0 0 0 0 0z" class="st17"/><path d="M231 242c0-1-1 0 0 0zM230 244zM230 244zM230 244zM230 244zM230 244zM230 245v-1 1zM230 245zM230 244v-1zM229 246zM229 246zM227 242zM227 243v-1 1c0-1 0-1 0 0zM229 247v-1 1zM228 246zM228 247s0-1 0 0z" class="st17"/></g><g class="st1"><path d="M231 391c-29 6-60 7-88-1-13-4-25-10-34-19-5-5-9-11-11-18-3-5-3-12-6-18s-7-11-7-18c-1-7 4-13 9-18l10-13 9-18c6-12 14-24 22-36 8-11 17-21 29-28s25-11 39-14c11-2 22-6 33-12 10-5 19-11 26-19 8-9 13-19 17-31 8-26 8-56 26-78 8-10 19-18 29-25 11-8 27-17 36-3 4 7 4 14 4 21-1 4-1 8-3 11l-6 7-5 4a259 259 0 0 0-21 24l-25 34-12 17-13 17c-5 4-12 6-19 8-2 1-1 5 2 4 6-2 12-4 18-8 5-4 9-9 13-15l26-37c9-13 19-25 30-37l12-12c5-5 6-9 7-16 1-12-1-26-13-32-13-6-26 4-36 11-10 8-21 16-29 26-8 12-13 25-16 38-3 15-6 31-11 45-4 13-12 24-22 32s-22 14-34 18c-13 5-28 6-41 12-12 5-24 13-33 22-10 11-17 23-25 35l-11 20c-3 7-6 13-10 18-8 10-19 18-16 32 1 7 5 12 8 17l3 11 4 10c5 12 15 21 27 27 26 14 58 15 86 13l23-4c3 0 2-4-1-4z" class="st5"/></g><g class="st1"><path d="M370 62a287 287 0 0 1 44-34c3-1 7-3 10-1 4 1 6 6 8 9l4 10 1 4v1l-1 6c-3 20-7 40-13 60-6 25-15 51-29 73l-12 13c-4 4-9 6-11 10-1 4-1 6 1 9s4 4 4 8l-1 5c0 2-1 2-3 4l-5 5c-2 2-1 3 0 4l8 3v-4l-15 4c-1 1-2 3-1 4l8 6 1-3-12 6c-2 0-1 3 0 3l11 4v-4l-14 6c-2 0-3 3-1 4l13 5 1-4-16 2c-2 0-3 3-1 4l10 7 1-4h-14c-2 0-3 1-2 3l7 11 2-3-8 1c-2 0-5 0-6 2l-2 3a215 215 0 0 1-18 30c-5 6-11 13-19 17-3 1 0 5 2 4 7-4 13-10 18-17a182 182 0 0 0 20-30l2-5v1l4-1 8-1c1 0 2-2 1-3l-8-11-1 3h14c2 0 2-3 1-4l-10-7-1 4 16-2c2 0 3-3 1-3l-13-6v4l14-6c1-1 2-3 0-4l-11-4 1 4 12-5v-4l-8-6-1 3 15-4c2-1 2-4 0-4l-7-3v3c3-2 7-5 9-9 3-4 3-12-1-16-1-3-4-4-2-7l3-3 4-4c5-3 8-7 12-11 16-21 25-48 32-74 6-21 10-43 14-65l1-11c-2-7-6-15-11-21-3-3-6-5-10-4-6 1-11 4-16 7l-17 12c-7 6-14 11-20 18-2 1 1 4 3 3z" class="st5"/></g><g class="st1"><path d="M112 329zM111 328zM111 328c-1 0 0 0 0 0zM112 327zM112 327zM112 327zM111 327zM112 327h-1 1zM111 327s1 0 0 0zM110 328zM112 326l-1 1h1v-1zM111 327v-1 1zM111 327zM112 326zM112 326zM111 326h0zM111 326zM111 326zM111 326zM111 327h-1 1zM111 326v1-1zM111 326zM111 326zM111 326zM111 325zM111 326zM111 326zM111 326zM111 326zM109 326l2-1h-1v1-1l-1 1zM111 326v-1zM111 326h-1 1zM109 327zM110 327h-1 1zM110 326zM111 325zM111 325zM107 328zM107 328zM106 321h-1 1zM107 324h-1 1zM108 325zM106 330zM110 323zM104 326zM110 323s1 0 0 0zM101 335zM97 333h1-1zM111 324zM110 325zM108 323zM111 324zM111 324zM111 324zM103 332zM109 323zM109 323h-1 1z" class="st17"/><path d="M106 329h1v-1 1l-1-1h1l-1-1h1-1l1 1v-1 1h1l-1-1h0v-1h1-1 0s1 0 0 0h1l-1-1h1l-1-1h-1l1 1h1l-1-1h1v1c0-1 0 0 0 0v-1c1 0-1 0 0 0 0 0 0-1 0 0v-1h1l-2-1 2 1-1-1h1-1 1l-1-1 1 1v-1h-2 2-1 1l-3 1h-1 1v1l3-1h-1l-1 1s-1 0 0 0h1v1h-1 1-1 2c1 0 0 0 0 0h1-1c-1 0 0 0 0 0s-1 0 0 0l-1 1h2-1 1s-1 0 0 0h1s-1 0 0 0h-1l1-1s0 1 0 0l-1 1v-1h1s-1 0 0 0h-1v-1-1c1 0 0 0 0 0h-1v-1h0l-4-1 1 1h-1 1c-1 0 0 0 0 0l1 1h-1 1-1s0 1 0 0l-1 1c1 0 0 0 0 0v0s0 1 0 0h-1l2 1c-1 0-1 0 0 0h-1v1c1 0 0 0 0 0v1l-1-1v0 1s-1 0 0 0v1h-1l1 1-1-1v1s-1 0 0 0c0 1-2 0-1 1h1v0h-1l-1 1h1-1v1h-1c1 0 1 0 0 0l1 1-1-1v1h-1s0 1 0 0v1h-2 1v1l-1-1v1l2 2v-1 1l1-1h1v-1 1l1-1v-1-1 1h1l-1-1h1c0 1 0 0 0 0s1 0 0 0v-1 1h1s-1 0 0 0c-1 0 0 0 0 0h1-1 1l-1-1c1 0 0 0 0 0h1v-1 1c1 0 0 0 0 0v-1l1 1v-1c0 1 0 0 0 0v-1l1 1-1-1h1-1c1 0 0 0 0 0zm1-2zm0-2zm3-1zm0 0zm-9 6zM108 325zM106 330zM106 323h1-1zM111 325zM109 326zM110 325zM110 325zM111 324c-1 0 0 0 0 0s-1 0 0 0zM109 325zM109 325zM109 325zM109 325zM109 324h-1 1zM108 324zM108 324h-1 1zM108 322h1zM110 322h-1 1zM109 322zM97 333zM97 334v-1 1zM108 328v-1 1zM107 328zM107 330s0-1 0 0z" class="st17"/></g><g class="st1"><path d="M236 242c0-1-1 0 0 0zM234 240zM233 239l1 1-1-1zM233 237l1 1v-1h-1zM234 238s0-1 0 0zM233 237zM232 237h0zM233 237s-1 1 0 0zM233 237v0zM233 239zM232 236zM232 236l-1 1 1-1zM232 238h1-1zM231 236v-1 1zM230 235zM229 235h1-1zM231 236zM231 236zM231 236zM232 237l-1 1 1-1zM231 237zM231 237zM230 236h-1 1zM230 236zM228 236zM230 236zM229 235v0zM230 236zM230 236zM227 238h1v-2 1h-1v1zM228 236v-1 1zM229 236v0h-1 1zM231 238zM231 238v-1 1zM230 237h-1 1zM228 235v1-1zM227 236v-1zM207 249v0zM207 249zM216 238s-1 0 0 0zM210 244zM211 245zM205 253zM222 236s0 1 0 0zM204 247zM222 236zM202 265zM199 270v-1 1zM225 235zM226 237zM221 239zM225 236zM225 235zM225 236v-1 1zM201 258zM215 243zM215 243v-1 1zM206 251h1l-1-1h1l-1-1h1v-1 1-1 1l1-1v1h1l-1-1h1v-1h1l-1-1 1 1-1-1h1v-1h1l-1-1v-1 0l1 1h-1l1 1h1v-2l1 1h-1v0h1v-1 0h1v-1l1 1-1-2 1 2h1l-1-1h1v-1 1-1l1 1c-1 0 0 0 0 0v-2l1 2-1-3h1v3h1v-1l-1 1 1-2v1h1l-1-3 1 1v1h1c-1 0 0 0 0 0v-2 1h2v0c0-1 0 0 0 0v-2 1c1 0 0-2 1-1v1h1s1 0 0 0v-1h1s0 1 0 0l1-1v-1l-1 1-1-1v1h-2l-1 1h-1v-1l-1 1h-1v1h-1c-1-1-1 1-2 1 0-1 0 0 0 0h-1v1h-1v1h-1-2v0l-1 1v1h-1v1c0-1 0 0 0 0h-1v1h-1 0v1l-1-1v1l-1-1v2h-1v1l-1 1v1l-1 1-1 1s-2 0 0 1v1h0-1l-1 3v1l-1-1v1h0v1h1l-1 1 1 1v1h-1l1 1h-1v2s1 0 0 0h1l-1 1 1 1v3c0-1 0-1 0 0v-1 1l1 1v-1l2-1-1-1h1-1l1-2-1 1v-1 1l1-2h-1 1v-1l-1 1v-2-1s0-1 0 0v-1l-1-1 1 1 1-1h-1l-1-1h2v-1h-1 1v-1h1c-1 0 0 0 0 0h-1l1-1s0 1 0 0v-1 0h1l-1-1c1 0 1 0 0 0l1 1v-1-1 0l1 1v-1-1s1 0 0 0h1l-1-1h1s-1 0 0 0zm2-3s0 1 0 0c-1 0 0 0 0 0zm3-4zm13-8zm0 0zm-25 22zM211 245zM205 253zM221 241l-1-1 1 1zM226 235zM228 238v-1 1zM227 237c0-1 0-1 0 0zM227 237c0-1 0 0 0 0z" class="st17"/><path d="M225 236s0-1 0 0c0-1-1 0 0 0zM227 238v-1 1zM226 237zM226 237zM226 238zM223 238zM224 239v-1 1zM223 239h0zM220 239zM217 242h0zM217 242zM199 271zM200 271h-1 1s-1 0 0 0zM209 249c0-1 0-1 0 0zM207 250zM206 252z" class="st17"/></g><g class="st1"><path d="M239 253zM240 255h-1 1zM239 256l1-1h-1v1zM238 256zM238 256zM238 256h-1 1zM238 256zM238 256zM238 256h0zM240 256zM237 257h0zM238 257zM239 257v-1 1zM237 258v-1 1zM237 258h-1 1zM237 258zM238 258h-1 1zM238 258zM238 258zM238 257h0zM238 258v-1 1zM238 258zM237 258v1l1-1h-1zM237 258h0zM237 260v-1 1zM238 258zM237 259zM237 258zM237 258h1-1zM239 261v-1h-2 1l1 1h-1 1zM237 259zM237 259h0zM240 258zM239 258h1-1zM238 258v1h1l-1-1zM237 259h-1l1 1zM237 260h-1zM221 275zM222 275zM232 267h-1 1zM227 272zM227 273zM217 276c1 0 0 0 0 0zM235 263v0zM221 271v0zM234 264h1-1zM204 273zM202 268zM236 261zM237 261v0zM236 266zM236 261zM236 261zM236 261zM211 274zM232 271zM232 272v-1l-1-1 1 2z" class="st17"/><path d="M220 276v-1l1 1v-1h1v-1 1-1 1h1v0h1c1 0 0 0 0 0l1-1 1-1v1l1-1v-2 2h1v-2l1 1-1 1h1v-1 0c1 0 1 0 0 0h1l1-1v-2l1 2v-1 0l1 1-1-1 1 1v-1-1l1 1-1-3 1 3h1v-1 1l-1-2 1 1s0-1 0 0l1-1-2-2h1l1 2v-1s1 0 0 0l-1-2 1 1 1-1h1l-1-1v1l-1-1c0-1 0 0 0 0v-2l1 1v1l1-2h-1v-1s1 0 0 0v-1h-1l1 1h-1v1h-1s0 1 0 0v1l-1 1s1 0 0 0v1h-1v1l-1 1h-1l1 1h-1v1-1 1l-1-1v1s0 1 0 0h-1l-1 1s-1-1 0 0h-1s0-1 0 0v1h-1s-1 0 0 0h-1v1l-1-1v1h-1 1l-1-1c-1-1 0 0 0 0h-1s0 1 0 0v1h-1-1-1l-1 1v-1l-1 1v-1h-2v1l-1-1h-3 0v-1 0h-1v1l-1-1-1 1v-1h-1l-1-1-1 1v-1s0 1 0 0h-2l-1-2c0 1 0 1 0 0v1-1h-1l-1 2c1 0 0 2 1 1l2 1s-1 0 0 0l1 1v1-1l2 1v-1l1 1h1-1l1-1v1l1-1-1 1 1 1v-1h1v1h1v-1c0 1 0 0 0 0v1h1v0c1-1 0 1 1 1v-1 0h1c0 1 0 0 0 0v1h1v-1s0 1 0 0v1h0l1-1v1h3v-1 1l1-1v1zm3-1c0-1 0 0 0 0zm5-3h-1 1zm8-10c-1 0-1 0 0 0zm0 0zm-25 10zM227 273zM217 276zM236 268zM236 260v0zM239 260zM237 261c0-1 0 0 0 0zM237 261l1-1-1 1zM236 262v0zM238 261zM238 262s-1 0 0 0zM238 262zM238 261v1zM236 264h0zM238 264h-1 1zM238 264v0zM235 267l-1-1zM234 271v-1 1zM234 270zM202 268zM201 268zM224 276l-1-1 1 1zM221 276v-1zM219 277s0-1 0 0z" class="st17"/></g><g class="st1"><path d="M210 371zM209 371zM208 370v1h1l-1-1zM209 369c-1 0-1 0 0 0zM209 369zM208 369h1-1zM208 369zM208 369s0 1 0 0zM208 369v0zM208 371zM208 368l-1 1h1v-1zM207 369zM207 370h1-1zM207 368h1-1zM207 368v-1 1zM207 368v-1 1zM207 369v-1 1zM207 369v-1 1zM207 369zM207 369v0zM207 369zM207 369zM207 368h-1 1zM207 368zM206 367zM206 368h0zM206 368s0-1 0 0zM207 368zM207 368zM204 369s1 0 0 0l2-2-1 1-1 1zM206 368v-1 1zM206 368h-1 1zM206 370zM206 370l1-1-1 1zM206 369zM206 367zM205 367h1-1zM188 361h-1 1zM188 361zM199 362zM193 361zM192 363v-1 1zM185 360v0zM203 365s-1 0 0 0zM189 358zM202 365h0zM175 358zM172 355zM204 366c1 0 0 0 0 0zM204 367zM200 366zM204 366zM205 366zM204 366zM181 358c-1 0 0 0 0 0zM195 364zM195 365v-1h1l-1 1z" class="st17"/><path d="M186 361v1l1-1h1l1 1h-1l1 1v-2s0 1 0 0v1c1 0 0 0 0 0h1c1 0 0 0 0 0h1c0-1 0 1 0 0h1l1-1v0l-1 1v1l2-1-1 1c1-1 0 0 0 0h1c0 1 0 0 0 0v1l1-1v1l2-2-2 2 1 1v-1 1l1-1-1 1 2-1-1 1 2-2v1l-2 2v1l1-1h-1l1-1v2l2-3v1l-1 2v-1 0l1 1 1-1h-1l1 1v0c1 0 0 0 0 0l1-1c1 0 0 0 0 0h1v1h-1l1 1 1-1v1-1h1s0-1 0 0v-1h-1v-1h-1-1v-1l-1-1v1l-1-1v0h-1v-1h-1 1l-1 1v-1l-1 1v-1h-1l-1-2v0h-1v-1l-1 2c1-1 0-1 0 0v-1h-1l-1-1v-1h-1 0-1-1v-1h-1-1-1v-1h-1v2-1l-1-1-2-1v1l-1-1v1l-1-1h-1v0h-1-1l-1-1v1c-1-1-2 1-3-1v1h-1l1 2h1v0l1 1v-1l1 1h1-1 3-1 1v-1 1l1-1v1c0 1 0-1 0 0 1 0 0 0 0 0v-1l1 1v0h1l-1 1s1-1 0 0l1-1v1s0 1 0 0c1-1 0 1 1 1v-1 0h1-1 1v1c0-1 0-1 0 0l1-1s-1 0 0 0h-1v1h1v-1 2l1-1h1v1h0zm3 0s0 1 0 0zm4 1zm11 4zm0 0zm-24-11zM192 362zM185 360zM199 367zM205 366v0zM205 369z" class="st17"/><path d="M204 368h1-1c1-1 1 0 0 0zM205 368zM204 366c1 0 0 0 0 0zM204 368zM203 368h1-1zM204 368zM204 368zM202 367zM202 368zM201 368zM199 365h1zM196 366h1v-1l-1 1zM197 365zM171 354zM171 355v-1 1zM189 362zM187 361zM186 361c0 1 0 0 0 0 0 1 0 0 0 0z" class="st17"/></g><g class="st1"><path d="M252 349zM250 350h1-1zM249 349l1 1v-1h-1zM248 348h0zM249 348zM248 348v-1 1zM247 348h0zM248 348zM248 348v0zM249 350zM247 347v0zM247 348h-1 1zM247 349l1-1-1 1zM246 347zM245 347v-1 1zM244 347h0zM246 348v-1 1zM246 348zM246 348zM247 348l-1 1 1-1zM246 348zM246 348zM245 347h-1l1 1v-1zM245 348zM243 347zM245 348zM244 347zM245 347zM245 347v0zM242 349h1v-2 1h-1v1zM243 347h1-1zM244 347v0zM246 350zM246 349v0zM245 349h-1 1zM243 347zM242 347h1-1zM212 345zM213 345zM230 344h-1 1zM220 345h0zM220 346zM207 345c1 0 0 0 0 0zM237 346zM213 342zM236 345v1h1l-1-1zM190 343zM186 339zM240 346zM241 348zM235 347zM241 346h-1 1zM241 346zM240 346zM200 343zM226 347zM226 348v-2 2z" class="st17"/><path d="M210 345v1l1-1h2l1 1v0l1-1v1l1 1v-1h1l1-1 1 1h1v-1-1h1v1h-1v1l1 1 2-2-1 1v1-1 1l1-1v1l1-1v1l2-1-1 1 2-2-1 2h1v-1 1s0-1 0 0v1l1-1v1-1c1 1 1-1 1-1v2l2-3v1-1l-1 3s-1 0 0 0l-1 1h1l1-1h-1l1-1v1h1v1l1-3v2s0 1 0 0c0 0 1 1 0 0h1l1-1 1 1v1l1-1h-1l1-1h2v1h-1l2 1v-1l1-1v1s0 1 0 0l1-1h-1v-1c0 1 0 1 0 0v1h-1v-1h-1s-1 0 0 0h-1-2v-1h-1l-1-1v1h-3 1-2v-1l-1 1v-1 0l-1 1h-1v-1 0l-1 1v-1l-1 1-2-2v0h-1c-1 0 0 0 0 0-1-1-1 0-1 1h-1l1-1h-1-3-1v-1h-1s1 0 0 0h-1-1-1-2v-1l-1 1h-1v-1h-4v0l-4-1v1-1c-1 0 0 0 0 0h-2v1l-2-1h-1v1l-1-2v0h-2l-1 1v-1s0 1 0 0c-2 0-3 1-5-1v1h-1s0-1 0 0v2h1v1l1-1v1h2v-1l1 1 1 1h-1 1l3-1h-1 2v1l1-1h1l-1 1h2l-1-1h1l1 1h-1 1l1-1v1h-1l1 1 1-1-1 1 1-1-1 1h1v-1l1 1h1v-1 1l1-1v1h1v0h1v1h3v0c1 0 0 0 0 0h1zm4 1c0-1 0-1 0 0zm7 0c0-1 0-1 0 0zm18 0zm0 1v-1 1zm-40-7zM220 346zM208 345h-1 1zM233 349v-1 1z" class="st17"/><path d="M242 346h-1v1l1-1zM243 349zM242 348c-1 0 0 0 0 0 0-1 0 0 0 0zM242 348zM240 346c0 1 0 0 0 0s-1 1 0 0zM241 349v-1 1zM240 348zM240 348h0zM241 349zM237 348zM238 349v-1 1zM237 349zM233 347v-1zM229 348c0 1 0 0 0 0zM229 348zM185 338zM185 339v-1l-1 1h1zM215 347v-1 1zM212 346v-1zM209 346h1-1z" class="st17"/></g><g class="st1"><path d="M285 325zM282 325zM280 324h1v1l1-1h-2zM279 322h0zM280 322s-1 0 0 0zM278 322h1-1zM278 322zM279 322h-1c0 1 0 1 0 0h1zM279 323zM280 324v0zM277 321v0zM277 322h-1 1zM278 323zM275 321h1-1zM274 321l1-1h-1v1zM273 320h0zM276 322v-1 1zM276 322l-1-1 1 1zM276 322zM277 322v0zM276 322zM276 322zM274 321h-1 1zM275 321zM272 320zM274 321zM273 320v0zM275 321zM275 321h-1 1zM270 322h1l1-2-1 1v0l-1 1zM272 321v-1 1zM273 321v0h-1 1zM276 324zM276 323v-1 1zM274 322v1-1c0 1 0 0 0 0zM272 320h-1zM271 320zM227 318zM228 318zM252 316l-1-1v1h1zM239 316zM238 318zM220 319zM263 318h-1 1zM227 314zM262 318c0-1 0-1 0 0zM196 322zM188 320zM268 319zM268 320v0zM260 319zM268 319zM268 319zM268 319zM209 318c-1 1-1 1 0 0zM247 319zM247 319v-1 1z" class="st17"/><path d="M224 318v1l2-1h2l1-1v1h1l1 1-1-1h2v1l1-1h2v-1h1v1l2-1v1l1-2h-1 1v0l-1 1h1c0 1 0 0 0 0v1h1l2-1v1h-1 5v1l2-3-1 3h1v-1l1 1v-1 1l1-1v1l2-1v1l2-2h1l-3 2 1 1h-1 1l2-1-1 1h2v1l1-3 1 1-1 1h2l1-1 2 1v1h1l-1-1 2-1v1l2-1v1h-1-1l3 1v-1h2v1h-1 1v-1h0v-1h-1l-1 1v-1 0h-1v-1h-2-2l-1-1h-1l-2-1v1h-2l-1-1h-2-2-1-3-1l-4-1c0 1 0-1 0 0 0 0-1 0 0 0h-2v-1l-1 1c-1 0-1 0 0 0h-3-2-2 1c-1 1-1-1-1-1-1 0 0 0 0 0h-1-2v1l-1-1h-1l-1 1c0-1-2 1-2-1l-1 1v-1l-1 1h-2-2-2l-1 1c1 0 0 0 0 0 0 1-1 0 0 0l-1-1-5 1h-1 1-1v-1 1h-1-1v1h-2-1-1v1l-2-1v1l-1-1-3 1v1l-1-1s0 1 0 0v1h-3l-4 1c1 0 0 0 0 0v1l-1-1-1 1h1c-1 1 1 1 1 2 0-1 1 1 2-1v0h3v-1l2 1v-1l1 1v-1 1h1v-1l3-1h2s1 0 0 0l1-1h2l1-1 1 1h1v-1 1l1-1c0 1 0 0 0 0l-1 1h5-1 1v-1h2v1l1-1h0v1h1v-1h1v1-1l1 1 1-1h2l1 1v-1h2-1zm6 0c0-1 0 0 0 0zm9-1zm27 2zm0 0zm-60-3h1-1zM238 318v-1 1zM220 318v1-1zM257 320zM269 319zM272 322zM269 321h0zM270 321z" class="st17"/><path d="M267 319c1-1-1 0 0 0zM269 322v-1 1zM268 321zM268 321zM269 322l-1-1zM263 320zM264 321zM263 321s-1 0 0 0zM257 319v-1zM251 320s0-1 0 0v-1 1zM251 319zM186 320zM186 321v-1 1zM231 319zM227 318zM223 319z" class="st17"/></g><g class="st1"><path d="M375 173c1 0 0 0 0 0s1 0 0 0zM372 178v1zM368 183l2-2h1l-1-1-2 3zM365 185l1-1-1 1zM366 184s-1 1 0 0zM364 187l1-1h-1v1zM364 188v-1 1zM365 186l-1 1h1v-1zM365 186h0zM369 184v-1 1zM361 191h1v-1l-1 1zM362 191v0zM365 188v-1 1zM360 194v-1 1zM359 196h-1v2l1-2zM358 198zM361 193l-1 1 1-1zM361 193zM361 193zM363 190v0zM361 193l1-1-1 1zM361 193zM359 197l-1 1 1-1zM360 195zM357 201zM359 197v-1 1zM357 200v-1h0v1zM359 195zM359 195v1l1-1h-1zM357 206l1-2v-1-1l-1-1v1h1l-1 1v3-1 1zM357 200v1-1zM358 199v1h1v-1c-1 0-1 0 0 0h-1v-1 1c-1 1 0 0 0 0l-1 1 1-1zM364 192zM363 193v-1h0l-1 1h1zM360 196v0zM357 201v-1 1zM357 201zM353 126zM354 131zM356 163l1-1h-1v1zM352 140zM350 141l-1-1 1 1zM356 108c-1 0 0 0 0 0zM353 190v-1 1zM357 127v-1 1zM353 187v0zM397 59zM415 54h-1 1zM356 200zM355 203zM351 183zM356 200zM356 200zM356 200zM372 83c0-1 0 0 0 0zM351 155zM350 155h1v-1l-1 1z" class="st17"/><path d="M354 118l-1 1v-1 5l1 3h-1l1 2h-1l1 2v1l2-1v1l2-1v1h-2 4-1l3 1-2-2 2 2-2-1h2l-2-1-1-1v1h-1v1l-4 2c-1 0 0 0 0 0h-1l-1 1-1 1-3 1h-1l-1 1 3 1v2l1-1 2 1v-1 1h0l1 1h-1v-1h-2l1 1v1h1l1 2h2l1 1 1 1h-1v-1h-1-1l2 1h-1v1h-1 1-1l-1 1h1l-2 1-4 2-1 1 1 1h2l-1 1 4-1-1 2h-1l1 1h1v-1 1h1l-1 1 1 1h-1v1l1 4h-2l2 5v1l-2-5-1 2v-1l-1 2 1 2v-3l1 4-1-1-1 2v3l-1 1h3l-1 3-1-1v1s0-1 0 0v3l1 2v5l-1 1 1 1c-1 1-1-1-1-1l1 3-1-3 3 3-1 1 1 2 1 2-1 1v-3 1l-1-1 1 3v2l1 2v-1h1v1l1 1v1l-1-1 1 1v-1l1-1h-1v-1-1s0 1 0 0v1l-1-1v-2-2l-1-1v-2l-1-6v-2-3l1-2v-3h-1v-1-2-2l1-2v1l1-6 1-1h-1 1v-2c0-1 0-1 0 0v-1-2-2-1l-1-1 1 1v-1-1h-1v-1h-2v-1h-2-1l-1-1v2h1l4-2 2-2 2-1 1-1v-1l-1-1 1-1-2-2-2-1h1l-1-1 1 1c-1-2-2-1-3-1v-1h-1 1l-1-1h-1v-1h2-1l1-1h1l3-1v-1h1l2-1h-1 2l2-1-1 1 1-1v-1-1h1v-3h-6v1h-1v-1-2l-1-1 1-3v-1-1l1-2v-3l1-2v-2l2-5c1-2 4-5 3-6v-2c-1 2 0 0-1 0h1l1-1 1-1 7-10 1-1v-1c2-1 0 1 1 1v-1 1l1-2h1v-1l1-1h-1l1-1 3-2 2-2 3-3v-1l3-1 1-2 1 1 6-5v-1h1l1-1 7-4c3-2 5-3 8-3v-1l2-1 3-1h-1l-1-1h-1-2l-2 1c-1 0 0 0 0 0l-2 1-7 3h-1 2l-6 3c-1 0 1 0 0 0v1h-2l1-1-3 2h1l-7 6-3 2-1 2-1-1-1 3-1 1h-1l-3 3 1-1-1 2-3 1-1 2-1 1 1-1c0 1 0 2-2 3l1-1-1 1 1-3-1 1-1 3h-1v1-1l-2 2h1c-1 2-2 0-3 3l1-1-2 2h1l-1 2c-2 2 0 1-1 3v-1l-1 1v-1l-1 3v1l-1 1v-1-1l-1 2v2l-1 1v-1 2h-1l-1 4v1l-1 2v2l-1 1c0 1 1-1 1 1s-1 1-1 1v2zm6 13h-1 1zm-7 11h-1 1zm2 55zm0 2v-1 1zm22-118h-1 1zM350 141v-1 1zM356 108zM349 177h0zM356 201zM359 202v-1 1zM356 204v1h1-1v-1zM357 205v-1 1zM355 200h1-1zM356 207v-1 1zM355 202v0zM355 203v0zM356 206l-1-1 1 1zM352 192v0z" class="st17"/><path d="M351 196l1-1h-1v1zM351 193l-1-1 1 1zM351 176h1zM352 161v0zM352 162v0zM418 53h1-1zM419 52v1l1-1h-1zM360 129h-1 1c0 1 0 0 0 0zM353 125zM353 115v0z" class="st17"/></g><g class="st1"><path d="M213 477c-18-25-30-52-40-81 0-2-4-1-4 1 10 29 23 57 41 82 1 1 4 0 3-2z" class="st5"/></g><g class="st1"><path d="M373 214c23 2 47-3 67-14 1-1 0-2-1-2-20 11-43 16-66 14v2z" class="st5"/></g></g><g id="WW"><circle cx="272" cy="287" r="204" class="st2"/><path d="M15 539h519v144H15z" class="st6"/><text class="st5 st7 st8" transform="translate(71 587)">WORKPLACE</text><text class="st5 st7 st8" transform="translate(90 661)">WELLBEING</text><path d="M382 170c-3 3-1-6-4-2l3-24c8-26 10-41 4-45-5-3-18 9-24 13-4 3 3-30 2-24l-1 6v-8c-1-8 3-7-3-14-7-7-4-4-10-5l-11 7c-4 2-8 3-9 7-13 33-7 47-16 81-1-1-1 13-2 12-3-1-1 14-4 13-1-5 3 7-2 6-12-4-4-11-17-14-4-1-7-9-11-7-1 1-18-10-19-9-9-3-47-4-59-1-11 3-17 10-12 19 5 10 10 16 21 18 5 1 13-2 18 0l29 14 11 17c0 2-3 20-2 22-6 7-13 29-19 35-7 7-14 18-22 24l-8 5-9 7-9-3h-2l-4-4-5-9c0-4-2-6 0-16 0-24 5-47 5-76 0-9-8-20-16-17-4-3 0-2-6-1-4 2-7 3-10 7l-5 6c-3 5-5 6-8 13-6 11-5 7-8 17-2 11-1 21-3 31-3 21 1 42 3 62 2 22 3 43 10 63s14 40 29 54c6 6 5 11 12 16 0 3 9 8 11 10 12 9 16 14 31 16 15 1 22-2 40-4l5-1c27-10 40-18 57-44 8-12 17-29 22-42 4-14 10-30 13-44l27-90c10-34 12-66 14-101 1-11-19-4-27 4zM178 416l-1-2-2-4c2-2 2-4 2-7l-1-8 3 8c3 8 6 16 11 23l-5 2-7-12zm136-53l-4 8-11 10a565 565 0 0 1-33 25l-3 2-18 6a248 248 0 0 1-15-17l-12-23c-2-3-5-5-8-6a504 504 0 0 0-15-15l1-8v-1l6-4 12 2c22 0 41-14 52-32l2-5c2 4 6 8 11 8 6 1 13-3 14-9v-2h1l6 3v15c-1 7 6 14 13 13h1v30zm21-170l-1 12-4 4-5 12 1-6 8-32 3-8-2 18zm43 25v-1l1-1-1 2z" class="st19"/><path d="M239 391zM238 390h-1zM237 388v1h1l-1-1zM238 387zM238 387zM237 386h0zM237 386zM237 386zM237 387s1 0 0 0zM236 388l1 1-1-1zM237 385zM237 385zM236 386l1 1-1-1zM237 384zM237 383zM236 383h0zM236 384h1-1zM236 384zM236 384zM236 386s0-1 0 0zM236 385zM236 385zM236 383zM236 384zM235 382zM236 383v0zM236 382v0zM236 384zM236 384zM233 382h2v-1l-1 1h-1zM235 382h0zM236 383h-1 1c0-1 0 0 0 0l-1-1 1 1zM235 386zM235 385v1l1-1h-1zM235 384zM235 381h1-1zM235 381h1-1zM219 352zM220 353zM230 368v-1 1zM224 360h0zM223 360zM217 348zM233 375zM223 351zM233 375zM210 331v-1 1zM211 324zM235 379zM233 380zM230 374zM234 379zM235 379zM234 379h1-1zM215 339zM225 366zM225 366c1 0 0 0 0 0h1-1zM218 350v1h-1 2v0c-1 1 1 0 1 1h-1l1 1h1-1 1-1v1l-1 1 1-1 1 1c-1 0-1 0 0 0h-1l1 1h-1 1l1 1h-1 1c0 1 0 0 0 0l1 1-1 1h1v1h1l1-1v1h-1-1 1-1 1-1v1l2 1h-1v-1l-1 1h1v1h1v1l1 1h-1 3l-3 1 1 1v-1 1h1l-1 1 2 1h-1 3v1h-3-1v1h2l-1-1 1 1h-1l1 1-1-1 1 1v1l2-2v2h-2 1s-1 0 0 0c0 0 0 1 0 0v1h2-1l1 2h-1c0 1 0 0 0 0l1 1-1-1h2v1l1 1h-1v-1 0 2s0 1 0 0h1l1 1h-1s1 0 0 0h1l1 1v-1h-1l1-1h-1-1 1l-1-1h1v-1s-1 0 0 0l-1-1v-1l-1-1h1l-1-1v-2 1l-1-1-1-1h1l-1-2v-1l-1 1v-1c1 0 0 0 0 0l-1-1v-1h-1l1-1h-1v-3h-1 1l-1-1h1c0-1 0-1 0 0h-2v-1h1l-1-1v-1h-1v-1l-1-1 1-1c1-1 0 0 0 0v-1l-1-1s0 1 0 0v-1h-1v-2l-1-1h1-1l-1-1v-2l-1-2h-1c1 1 0 0 0 0v-1l-1-4v1-1c0-1 0 0 0 0l-1-1h1v-1l-1 1s0-1 0 0l-1-2v-1h-1l1-1-1-1-1-2v-1l-2-5c0 1 0 1 0 0l-1 1 1-1-1-1-2 2 1 1h-1l1 1v2-1 1l1-1v3l2 2v1l1 1h-1 1v1h1-1v2l1-1v1 1h1-1 1v1l-1-1v1h1-1l1 1h-1v1l1-1v2s0-1 0 0h1v2h1s-1 0 0 0h-1l1 1h-1 1l-1 1 1 1 1 1h-1 1v1l1 1-1-1zm2 4c1 0 1 0 0 0zm4 6zm10 18c0-1 0-1 0 0zm0 0zm-17-41c-1 0 0 0 0 0zM223 360zM217 348zM228 373zM235 380zM234 383zM234 380v0zM234 381zM234 378s1 0 0 0c1 0 0 0 0 0zM233 381zM233 380s0-1 0 0zM233 380zM233 381v-1zM232 377l-1-1 1 1zM231 378zM231 377h-1 1zM229 372h1zM226 369h1-1zM227 369zM211 323zM210 323zM220 355zM219 352zM217 350s1 0 0 0z" class="st28"/><path d="M222 439c-6-7-14-12-21-19s-14-14-19-23c-13-22-18-48-31-70-2-2-8-15-12-14-6 2 0 36 1 48 0 10 5 19 9 30-2 2 1 6 2 10 5 16 13 30 23 43l17 21c5 6 10 13 18 15 9 2 18-3 21-11 5-11 0-22-8-30zM186 215v-3c-2-4-7-2-10 0-10 8-18 18-23 31-2 6-4 13-1 19 5 8 16 7 23 6 6 0 7-6 7-11l3-21c1-6 2-15 1-21zM227 345v-5l2-15c0-2 10-23 8-23l-13 6c-1 2-7 9-9 8l-11 7-13-7c-11-14-5-38-9-21-6 25-3 46 11 68 9 18 21 34 34 49 4 4 13 13 14 3 1-5-3-12-4-17-4-14-11-30-11-45l1-8z" class="st3"/><path d="M324 326a147 147 0 0 0-22-33c-8-7-17-10-27-10l-7-1v-1c0-5 2-9 3-13a309 309 0 0 0 5-45c1-5 1-11-1-16s-8-11-12-14c-5-3-19-5-23-6-18-4-16-2-33-11l-10-5h-4l-2 3 1 7c1 3 2 6 5 8l8 5c9 2 19 0 29 3 9 3 19 8 26 15 5 5 8 15 8 23l-5 20c-2 12-2 3-7 16-8 12-20 25-28 38-5 8-3 22-4 31l2 34 5 36c2 7 5 15 14 16 12 2 28-10 38-16 9-6 19-12 27-19 9-7 17-16 20-27 4-13 0-26-6-38zm-50 3l1-2 1 1-2 1zM405 171c-1-12-2 8-3 20l-6 35c-4 19-8 38-15 56l-22 53-18 57c-6 21-16 40-30 56-3 4-4 17 0 13l9-11c14-15 21-28 28-48l19-57c12-39 25-72 32-112 4-22 9-38 6-62zM385 105c-4-2-10 1-11 6-9 57-25 112-40 167-3 12 11 16 14 5 15-55 31-89 40-145 1-5 3-32-3-33z" class="st3"/><path d="M354 76c-6 0-9 4-10 9-7 61-22 120-43 177-2 5 2 11 6 12 6 1 7-12 9-17 26-70 49-166 43-165-5 1-1-16-5-16z" class="st3"/><g><path d="M211 482a182 182 0 0 1-70-121l-3-47c0-3-4-3-4 0 2 27 3 55 11 81a182 182 0 0 0 64 90c2 1 5-2 2-3z" class="st5"/></g><g><path d="M139 323c-1-20-3-41-2-61 1-19 7-37 19-52 6-6 14-14 23-10 4 1 7 5 9 9 2 5 1 10 0 15-1 21-5 41-5 62 0 9 0 20 5 28 4 7 11 10 18 11 3 0 3-4 0-4-24-2-20-34-18-51l3-32 2-16c0-4 1-9-1-13-2-7-8-13-15-14-8-1-16 3-21 9a88 88 0 0 0-22 48l-1 31 2 40c0 2 4 2 4 0z" class="st5"/></g><g><path d="M208 324a150 150 0 0 0 55-66l6-18c1-10-5-22-13-28-2-2-5 1-3 2 8 7 14 20 10 30s-7 21-13 31c-11 18-27 33-44 45-2 2 0 5 2 4z" class="st5"/></g><g><path d="M257 212l-18-11c-8-4-16-4-24-4s-17-2-22-9c-4-6-6-14-3-20 1-3-2-5-3-2-6 13 1 29 15 33 10 3 20 1 29 3 9 3 16 9 24 14 3 1 5-2 2-4z" class="st5"/></g><g><path d="M191 166c1-5 11-3 14-3h16c10 0 21-1 31 1 11 2 19 7 28 13 8 4 16 10 22 17 1 3 5 1 3-2-6-8-15-14-23-19-10-7-21-12-32-14h-55c-4 0-7 2-8 6 0 2 4 3 4 1z" class="st5"/></g><g><path d="M287 251a401 401 0 0 0 32-123l4-27c1-7 5-14 10-20 4-5 11-11 18-10 6 0 7 5 7 10v10l-1 24c0 2 4 2 4 0l1-23V81c0-3 0-7-2-10-3-5-10-5-15-3-7 2-13 7-17 12-11 14-11 32-13 49a389 389 0 0 1-31 120c-1 3 2 5 3 2z" class="st5"/></g><g><path d="M313 273l21-56 8-28 5-28c3-16 7-35 16-48 5-6 11-12 19-12 2 0 4 0 5 3v5l-1 12-5 54c-1 2 4 2 4 0l5-53 1-13c0-3 1-7-1-10-4-5-14-2-18 1-15 8-21 26-25 41-5 20-6 41-12 61-7 24-17 46-26 70-1 2 3 3 4 1z" class="st5"/></g><g><path d="M347 291l18-57 19-56 5-10c3-3 8-8 13-6 4 2 5 9 5 13l1 14c-1 20-4 40-9 59-5 21-12 41-18 62-1 3 3 4 4 1 12-41 26-81 27-125l-1-15c-1-4-1-8-5-11-5-5-14-2-18 3-6 6-8 15-11 23a2820 2820 0 0 0-34 104c-1 2 3 3 4 1z" class="st5"/></g><g><path d="M381 311c-9 29-17 59-28 88-10 26-24 51-46 69-12 9-26 16-41 18-3 0-3 4 0 4 26-4 49-20 65-41 19-25 29-55 38-84l16-53c1-3-3-4-4-1z" class="st5"/></g></g><g id="CD" class="st0"><circle cx="272" cy="288" r="204" class="st10"/><g class="st1"><path d="M280 71l7-4c3-2 5-3 8 0l8 13c4 8 6 18 9 28 7 21 14 42 23 62 1 3 5 1 4-2-11-23-19-48-26-72-3-10-6-20-12-28-2-3-5-8-9-8l-5 2-9 6c-2 1 0 5 2 3z" class="st29"/></g><g class="st1"><path d="M279 122c-1 17 3 33 10 47 1 3 5 0 4-2-7-14-10-29-10-45 1-2-4-2-4 0z" class="st29"/></g><g class="st1"><path d="M280 198c0-7 0-15 3-21s10-10 16-8 9 8 11 14l7 19 11 44c3 15 6 29 12 43l20 47c1 2 4 0 3-2l-21-49c-6-16-9-33-12-49l-14-49c-3-10-8-24-21-23-17 2-20 21-19 34 1 2 5 2 4 0z" class="st29"/></g><g class="st1"><path d="M276 345c-1-13 2-25 6-37 3-12 5-24 6-37 1-25-4-51-8-76-1-3-5-2-4 1 4 25 9 51 8 77-1 13-4 25-7 37s-6 23-5 35c1 3 5 3 4 0z" class="st29"/></g><g class="st1"><path d="M265 413c-1 10-1 21 2 31 2 7 6 14 10 21 10 14 23 25 29 41 1 3 5 2 4-1-6-15-17-27-27-39-5-7-9-14-12-22-3-10-3-20-2-31 0-3-4-3-4 0z" class="st29"/></g><path fill="#fff" d="M274 78v-8c3-1 5-5 2-8l-2-3c3-7-3-14-11-15-4-1-8 0-10 5l-5 12a8084 8084 0 0 0-12 31l-21 55c-2 2-1 6 0 8l-17 28-11 14c-6 7-12 15-15 23l-2 2c-2 1-3 3-3 5-6 2-10 6-13 13-8 8-16 17-16 29v16l2 19 4 8c-1-1 0 0 0 0v3l4 20 9 33 2 3 3 18-1 3v3a132 132 0 0 1-4 17l-2 4-1 3a81 81 0 0 1-8 12l-2 6c-7 9-12 18-15 29-1 4 0 7 2 9l-3 6c-2 4 1 8 5 10 6 4 14 2 19-3 4 1 7 1 10-1h8l-4 12c-3 9 9 15 15 10 3 0 6 0 8-3l9-12c4 0 7-1 10-4a423 423 0 0 0 15-29l11-7c7-6 13-15 18-24s8-19 9-31v-29l-4-58a331 331 0 0 1 1-37l1-3a174 174 0 0 0 1-8l1-8 9-31a100 100 0 0 0 2-26l-1-2 3-6c2-6 0-11-5-15a15 15 0 0 0-12-6l16-41v-9l7-26c1-6-1-12-6-16zm-8 95v1l-2-1h2zm-49 58l-7-5 15-17-8 22z"/><path d="M381 433c-3-14-3-28-2-41 4-35 16-68 24-102 2-9 3-18 1-27-3-9-10-17-17-24-33-35-56-79-68-126-5-22-8-46-18-66-2-5-6-11-12-10-4 0-7 4-9 8-4 8-5 18-2 27h-7c-2 0-5 2-6 4v11a411 411 0 0 1-13 70c-3 4-9 7-14 10-16 13-14 40-29 53-4 3-8 6-8 10l2 8c4 10-4 22-15 22-3 1-6 0-8 2-3 2-2 7-1 11 4 7 9 13 15 18l6 3c6 0 9-6 11-11 8-19 14-38 18-59 3-18 7-40 23-49l13-7c3-3 4-7 5-11 8-24 12-49 8-73 5 25 6 50 5 76l-2 42c-2 51 10 104-11 150-13-55 8-113 4-170-16 26-20 59-20 90s5 62 2 92c-4 52-27 101-64 138l29 14c17-28 31-59 43-90 5 24 15 46 30 65 6 8 14 15 23 19 8 3 17 3 26 2 24-1 47-10 66-24a96 96 0 0 1-28-55zm-115-20v-1l2-11 1 11-3 1zm52-238l1 1-1-1z" class="st16"/><path d="M324 501c-9-17-21-32-30-49-4-5-5-8-8-15v-7c-1-30-2-61 2-91 4-28 11-56 11-84 1-16-1-32-7-47-1-4-9-30-13-29s-3 29-2 33c10 26 7 54 3 80l-7 42a389 389 0 0 0-4 59c-2 0-3 2-4 4v21l-2 4c-2 16 7 31 16 44l31 43c6 8 18 1 14-8zM357 257l-2 3c-3 2-8-2-9-6s0-8-2-12-6-7-9-10c-4-6-4-14-5-21-1-14-5-27-12-39s-17-22-22-35c-7-19-1-41-4-61-1-4-3-8-7-8-3 0-5 5-5 8-3 28-2 57 4 84 1 4 2 7 5 9h9c5 1 8 6 10 10 23 50 22 110 53 155a3194 3194 0 0 0 2-66c0-1 1-18-4-13l-2 2z" class="st31"/><path d="M311 74c-1-3-3-7-6-10-2-3-4-7-7-9s-6-1-9 1l-14 7c-4 2-1 13 4 11 4-2 7-8 10-9l5-3 2 3c4 6 8 11 10 17 6 12 12 27 11 40 0 6 3 8 3 3 1-17-1-37-9-51z" class="st31"/><path d="M-134 540h818v152h-818z" class="st14"/><text class="st15 st7 st8" transform="translate(33 587)">CHAMPIONING</text><text class="st15 st7 st8" transform="translate(111 661)">DIVERSITY</text><g class="st1"><path d="M122 471c18-22 38-45 41-74a573 573 0 0 0-9-50c-5-18-12-36-15-53-1-9-2-19 0-28 1-8 7-15 12-21 11-12 23-24 33-37 20-27 32-58 43-89 7-18 12-36 20-53l5-13c2-5 6-8 11-8 10 1 14 15 9 23-1 2 3 4 4 2 6-11 0-30-15-29-6 0-11 6-13 11l-10 24c-13 34-22 70-40 102-8 16-19 31-31 44-11 12-25 23-31 38-3 9-2 18-2 26 1 10 3 18 6 27l15 56c2 11 5 21 3 31-2 9-5 18-9 26-8 15-19 29-30 43-2 2 2 4 3 2z" class="st5"/></g><g class="st1"><path d="M205 174c13-25 29-47 43-71l10-18c2-5 4-16 11-15 9 0 9 13 9 19a158 158 0 0 1-11 68c-1 2 3 3 4 1a164 164 0 0 0 11-71c0-6-1-13-5-18-4-3-10-5-14-2-5 4-7 12-10 17-7 14-15 28-24 41-9 16-19 31-27 47-1 2 2 4 3 2z" class="st5"/></g><g class="st1"><path d="M267 157l-5 12c-1 2 3 4 4 2l5-13c1-3-3-4-4-1z" class="st5"/></g><g class="st1"><path d="M186 334c19-28 33-61 40-94 4-17 5-36 15-51 4-7 10-12 18-14 4-2 10-2 11 3 2 4 2 9 2 14 1 19-2 38-5 57-3 18-4 37-4 55 1 19 3 38 3 58 1 19-1 39-5 58l-7 31c-3 8-8 16-12 23-10 14-20 27-22 44 0 2 4 2 4 0 3-17 13-30 22-43 4-6 8-13 11-21 4-9 5-19 7-28 5-20 7-39 6-59l-3-61c0-20 2-40 5-61 2-19 5-38 4-57-1-7-1-16-8-18-6-2-14 1-19 5-14 9-19 25-22 41a278 278 0 0 1-44 116c-2 3 2 5 3 2z" class="st5"/></g><g class="st1"><path d="M404 478c-10-14-19-30-23-47-4-19-3-38 2-57 4-18 10-36 15-53l8-28c2-7 3-15 1-23-2-14-13-24-22-35a289 289 0 0 1-68-146l-7-29c-2-8-5-16-11-21-5-4-12-5-17 0-4 5-6 13-7 19-1 3 4 3 4 0 1-5 3-16 10-18 8-2 13 9 15 15 6 15 9 33 12 49a306 306 0 0 0 65 133c10 11 21 22 23 37 1 8-2 17-4 25l-7 25-15 51c-4 18-5 38-1 56s13 34 23 49c2 2 6 0 4-2z" class="st5"/></g><g class="st1"><path d="M281 73c3-5 9-11 15-6 4 4 7 10 8 15l9 30c6 21 17 41 26 62 1 2 5 0 4-3-11-24-24-47-30-73-3-11-5-23-13-32-3-4-7-6-12-5s-8 6-11 10c-1 3 2 5 4 2z" class="st5"/></g><g class="st1"><path d="M277 123c-1 16 3 31 10 45 1 3 4 1 3-2-6-13-10-28-9-43 0-3-4-3-4 0z" class="st5"/></g><g class="st1"><path d="M279 199c-1-7-1-15 3-21 3-6 9-10 16-8 6 2 9 8 11 14l6 19c5 14 8 29 11 44s6 29 12 43l20 47c1 2 5 0 4-2l-21-49c-6-16-9-33-13-50-3-16-8-32-13-48-4-10-9-24-22-23-16 2-19 21-18 34 0 2 4 2 4 0z" class="st5"/></g><g class="st1"><path d="M271 367c0-19 5-37 9-55l5-30c2-13 2-27 0-40-1-16-4-31-7-46 0-3-4-2-4 1 5 27 10 55 8 82-1 11-4 20-6 30a821 821 0 0 0-9 58c0 3 4 3 4 0z" class="st5"/></g><g class="st1"><path d="M263 414c0 10-1 21 2 31 2 7 6 14 11 21 10 13 22 25 29 41 1 2 5 1 4-1-7-15-18-27-28-40-4-6-9-13-11-21-4-10-3-21-3-31 0-3-4-3-4 0z" class="st5"/></g><g class="st1"><path d="M170 527c-1 0 0 0 0 0zM170 525zM171 524h-1l1 1v-1zM172 523v0zM172 524zM172 523zM172 523zM172 523zM172 523zM171 524zM173 522zM173 522zM172 522v1-1zM174 521zM174 521v-1 1zM174 520zM173 521zM173 521zM173 521zM172 522zM173 521v1-1zM173 521zM174 520s0 1 0 0zM173 521zM175 519zM174 520l-1 1 1-1zM174 520zM174 521zM174 521h-1 1zM174 518v1h1-1c0-1 0 0 0 0v-1zM174 519v1l1-1h-1zM174 520v-1 1zM172 521zM172 521s0 1 0 0h1-1zM173 521v-1 1zM175 519zM175 519zM189 494zM189 495zM182 508zM186 501zM185 500zM192 490c-1 0 0 0 0 0zM178 514zM191 495zM178 514zM201 477zM204 473zM176 517zM175 517zM178 512zM176 517zM176 517zM176 517zM196 484zM182 505zM182 505zM190 492v1l-1 1v1c-1 0 0 0 0 0l-1 1v-1l-1 1h1-1v2h-1l1 1h-1v1h-1l1 1h-1 1l-1-1v1-1 3l-1-1v-1c0 1 0 0 0 0v2h-1 0v2l-1-1 1 2-1-1v1h-1 0v2h-1l1 1v1l-1-2h-1v1l1-1v1h-1v1h-1l2 1h-1-1v1l-1 1c0 1 0 0 0 0v2 1l-1-1h1-1l-1 1 1 1h-1v1-1 1s1 0 0 0l1-1v-1s0 1 0 0h1v-1l1-1 1-1 1-1v-1l1-1 1-1v-1-1s1 0 0 0c0 0 1 0 0 0l1-1v-1h1l1-2s1 0 0 0h1v-1-1s1 0 0 0l1-1v-1h1v-1h1-1l1-1v0h1v-1l1-1v-1l1-1v-1l1-1 1-1 1-1v-1h-1 1l2-3s1 0 0 0h1c0-1 0 0 0 0v-1h1-1v-1l1-1 1-1s-1 0 0 0h1l-1-1h1l1-2v-1l2-4c0 1 0 0 0 0v-1h-1v1l-1 1v1h-1 1l-1 1v1h-1l-1 2h1l-1 1v0 1h-1v0l-1 1h1v1h-1l-1 1c1 0 0 0 0 0h1l-1 1v-1 1h-1l-1 1h1l-1 1-1 1c1 0 1 0 0 0v1h-1v1l-1 1v1h-1v0zm-2 4v-1 1zm-3 5zm-8 15zm-1 0h1-1zm22-32zM185 500zM192 490zM178 511zM176 518zM173 519h0zM175 518zM175 518zM176 517s0-1 0 0zM174 518h1v-1zM175 517zM175 517zM175 517zM177 514zM176 515zM176 514zM179 511z" class="st26"/><path d="M180 507c0 1 0 0 0 0s1 0 0 0zM180 507zM205 472zM204 472h1-1zM187 496h1-1zM189 494zM190 491v0z" class="st26"/></g><path id="SVGID_x5F_1_x5F_" d="M311 475c12 17 26 32 43 45" class="st14"/><text class="st32 st33 st34" transform="translate(345 513)"></text><text class="st32 st33 st34" transform="translate(348 515)"></text><text class="st32 st33 st34" transform="translate(14 5)"></text></g><g id="T" class="st0"><circle cx="272" cy="288" r="204" class="st10"/><path d="M15 540h518v106H15z" class="st14"/><text class="st15 st7 st8" transform="translate(15 587)">TRANSPARENCY</text><circle cx="216" cy="248" r="84" class="st36"/><circle cx="331" cy="250" r="84" class="st36"/><circle cx="275" cy="348" r="84" class="st36"/></g><g id="FP" class="st0"><circle cx="273" cy="288" r="204" class="st10"/><path d="M205 552l1-3-1 2v1z" class="st23"/><path d="M445 124l-4-14c-5-11-12-22-19-32-5-7-11-13-18-19l-10-5-4-2h-3c-7 1-13 0-19-2a139 139 0 0 0-9 10l-15 19-12 12-3 3-1 1-2 3-2 4c-2 5-6 7-10 9-4 5-7 11-12 15-6 5-11 8-19 8h-8-1a68 68 0 0 0-8 2l-1 1-6 6-4 4c0 11-9 20-20 20h-1a65 65 0 0 0-5 2l-2 3-1 1-3 4-4 8c-5 7-10 13-17 17l-7 13-9 8-2 1v1l-1 3v3c-1 7-1 15-3 22l-7 12-2 4-1 1-4 21-1 3v11l-2 7-4 7v3l1 11a45 45 0 0 0 1 7l2 6 1 2 5 9c3 4 3 10 2 15s-5 9-9 12l-1 1-3 2a84 84 0 0 1-13 10 257 257 0 0 0-5 2l-6 4h-1l-3 3-7 6-7 5c-2 2-5 1-7 3l-2 4-18 11-14 10 19 19c8 5 17 9 25 15 11 6 22 14 33 19 7 4 14 10 19 16l4-4c6-5 13-7 21-4l1 1v-2a81 81 0 0 1 11-25l3-4v-1 0l1-1c3-10 10-22 20-23 6 0 13 8 18 9l3 1 3-1 12-3 1-1h2l3-2 1-4 1-2-2-7a20 20 0 0 1 20-20l5 1c3-8 7-15 13-21l14-12 1-1 1-1 1-4v-3l1-2v-2-2c-2-1-4-3-4-5 0-8-1-16-4-22-3-7 2-11 8-12 2-4 12-8 15-12 0 0-6-1-5-2v-1c2-6 5-12 9-17l7-9 1-1a64 64 0 0 0 5-9l2-4c2-3 0 1 0 1l2-7a61 61 0 0 0 1-4v-3-3-6-10c1-7 2-13 5-19 4-6 9-10 14-14l28-20 14-11 3-2 4-3 6-4 25-17 1-1c-10-9-18-21-22-33z" class="st11"/><path d="M331 332c-5-6-42-10-49-7-9 5-16 11-23 18l-21 21-42 43-75 74 6 3c6 2 12 5 17 10l20 10 11 7 5-5c1-1-2-1-1-2l2-1 4-3-2 4c0 3 2 7 5 8 1 1 2 3 5 3 7 3 14-2 16-8l2-11c4-5 1-10 0-18l2-8c8-8 8-7 15-16 0 4 3 7 7 10 4 4 12 1 18 2 15 1 23-5 22-20l-1-6-2-2c-3-2-6 2-7 4l-2 5c-1 3-5 5-9 5s-7-1-10-3l-3-3v-7l-1-5s-2-3-3-2c1-4 3-1 4-5a81 81 0 0 1 4-8l3-2v-1l2-1h1l1-1h1l1-2c4 0 9 1 12-2l2 2c3 2 6 14 9 18 4 3 6-2 12-3 4-2 7-6 9-10a517 517 0 0 0 9-18c4 5 12-1 13-6l1-2 2-1 3-6c1-3 4-9 1-12l-3 2-2 1-2-1-9-15c-1-4-2-10-5-13l-1-2v-1c0-6 28-6 26-11zm-26 34l2 13 1 8c-2 3-6 5-9 7a86 86 0 0 1-15 10h-1c-4-4-10-12-12-18v5c-1 1-2-1-1-2l1-3-2-1 1-4c3-4 3-9 5-13 5-8 16-9 23-15 0 2 1 4 3 4l2 1 1 2 1 6zM450 141l-5-11-24 16c-23 16-47 33-67 54-11 12-17 15-22 31-2 7 1 22 7 30l1 2c0 4-4 1-1 3 3 1 7 9 10 8l-4 8-20 27c-5 4-5 12 0 16 4 5 12 5 17 0l20-26c6-9 12-19 13-31 0-6-2-6-3-12 0-2-3-4-4-6 2-4 3-14 0-17l8-7c9-10 22-16 32-24l7-5 9-6 11-9 8-7 18-14-11-20zM199 331c-6-14-7-29-8-45 1 1 1 28 3 28 3 0 8-29 8-33v-30c0-8-8-16-17-16-8 1-7 19 1 18l2-4 1 1v3c-4-1-9 12-10 17-1 22-2 33 4 54l6 16 7 13c2 4 3 8 1 12-2 3-5 6-9 6-3 1-6 3-6 7 0 3 3 7 6 6 11-1 21-9 23-20 2-12-7-22-12-33zM229 221c-7-6-15-14-24-15-4-1-5 3-7 6-5 12 2 8 7 7 2-1 5 3 6 4l9 7c2 2 6 3 9 0 2-2 3-7 0-9zM259 192c-10-8-22-12-34-11-8 1-9 14 0 13 9 0 19 7 26 12 3 2 7 1 8-5 0-3 3-7 0-9zM294 167c-3-4-8-7-11-9l-13-7c-10-2-20 7-15 17 1 3 5 3 8 3-2 2-2 5 0 8 5 6 11 14 19 16-4 2-1 5 3 8 8 8 12-3 14-10 3-9 1-20-5-26z" class="st16"/><g class="st1"><path d="M81 442c33-23 66-45 97-71 2-1-1-4-3-3-31 26-64 48-96 71-2 1 0 5 2 3z" class="st5"/></g><g class="st1"><path d="M178 369l-12-18c-2-4-5-9-6-14 0-6 2-11 3-16l4-18 1-19c0-14 14-23 25-30l-3-2c-2 26-3 54 6 78 5 12 16 26 11 39-2 6-7 11-13 14-9 5-12-7-15-13-1-2-5 0-4 2 3 5 4 10 8 14 4 3 9 3 13 1 8-5 15-13 16-22 1-13-7-23-11-35-5-11-7-23-8-35-1-14 0-29 1-43 0-1-2-2-3-1-10 6-23 14-27 26l-1 21c0 7-1 15-4 22-1 5-3 10-3 16 0 5 3 10 5 15l14 20c1 2 5 0 3-2z" class="st5"/></g><path fill="#878787" d="M193 251c-3-3-8 0-11 0s-3 4 0 4l4-1h4s1 0 0 0c2 2 5-1 3-3z"/><g class="st1"><path d="M183 252c-2-11-3-26 10-30 11-3 21 4 29 11 2 1 5-2 3-3-10-8-22-17-35-11-14 6-13 22-11 34 1 2 5 1 4-1z" class="st5"/></g><g class="st1"><path d="M199 217c0-5 4-11 8-15 5-4 10-5 16-5s11 3 16 5l13 7c2 2 4-2 2-3l-17-10c-6-2-13-4-19-3-12 1-23 12-23 24-1 3 3 3 4 0z" class="st5"/></g><g class="st1"><path d="M217 196c3-15 15-29 31-25 9 2 15 7 21 13 4 6 7 14 14 18l3-1c4-9 1-21-5-29-3-3-7-6-12-6s-9 1-12 4c-2 2 1 5 3 3 6-6 15-2 19 4s6 15 3 22l3-1c-5-2-7-6-9-11l-9-10c-6-6-14-10-23-11-17-1-28 14-31 29-1 3 3 4 4 1z" class="st5"/></g><g class="st1"><path d="M256 169c-4-11 3-26 14-31 12-6 27-1 37 7 5 4 8 9 10 15l4 19 7 40c2 16 4 32 10 47 0 3 4 2 3-1-10-31-10-64-18-96-2-6-3-13-6-19-3-5-7-9-13-12-11-6-26-9-38-3-11 7-18 23-14 35 1 3 5 2 4-1z" class="st5"/></g><g class="st1"><path d="M341 265c2-15 13-27 27-30l-2-2 2 17 6 16c2 7-1 11-5 15l-9 12c-5 10-8 20-15 28-8 8-17 13-27 16-3 1-1 5 1 4 10-3 20-8 27-16 8-8 12-18 17-28l10-15c3-3 6-7 6-11 0-6-3-11-5-17-2-7-4-14-4-21 0-2-1-3-3-2-16 3-28 17-30 34-1 2 4 2 4 0z" class="st5"/></g><g class="st1"><path d="M174 516l59-66c2-2-1-5-3-3l-59 66c-2 2 1 5 3 3z" class="st5"/></g><g class="st1"><path d="M181 504c0 12 16 16 24 10 6-3 7-11 8-17l2-25c-1-2-5-2-5 0 1 11 0 23-4 33-1 6-5 8-11 8-4 0-10-3-10-9 0-2-4-2-4 0z" class="st5"/></g><g class="st1"><path d="M234 451c0-11 5-23 12-31 4-4 10-8 16-7 7 1 10 8 11 14s0 13-1 19l-3 9c-1 4-2 6-6 7l-17 3c-9-1-11-8-12-15 0-2-4-1-4 1 1 6 2 11 7 15 4 3 10 3 15 3 6-1 13-2 17-5 4-4 5-11 6-16 2-10 5-25-3-34s-19-5-27 2c-9 8-15 22-15 35 0 2 4 2 4 0z" class="st5"/></g><g class="st1"><path d="M270 412l2-22c1-7 0-16 5-21 4-6 11-9 17-11 3 0 7-1 9 1 3 2 3 7 3 10 1 14 1 29-4 41-2 6-5 10-10 13-5 2-10 4-15 4-3 1-3 5 0 5 8-1 19-5 25-11 7-9 8-25 9-36l-1-22c-1-4-3-8-8-9-10-2-22 5-29 13-4 5-4 12-4 19l-3 26c0 3 4 3 4 0z" class="st5"/></g><g class="st1"><path d="M298 354c2-6 8-11 15-13 2 0 4-1 5 1 2 1 3 3 3 5l4 12c1 8 2 18-2 26-3 7-10 13-16 17-3 1 0 5 2 3 8-5 16-11 19-20 3-11 2-23-1-34-1-4-3-9-6-13-3-2-6-2-9-1-8 2-16 8-18 16-1 3 3 4 4 1z" class="st5"/></g><g class="st1"><path d="M297 137l77-92c1-2-1-4-3-2l-77 92c-2 2 1 4 3 2z" class="st5"/></g><g class="st1"><path d="M370 233l46-34c16-11 30-24 44-36 2-2-1-5-3-3l-44 37-45 33c-2 1 0 5 2 3z" class="st5"/></g><g class="st1"><path d="M270 441zM270 441v1zM270 442zM269 441c0 1 0 1 0 0zM269 441zM269 442v-1 1zM269 442zM269 442zM269 442zM270 442zM269 442zM269 442zM269 442zM268 442h1zM268 442zM268 442zM269 442zM269 442zM269 442zM269 442zM269 442zM269 442zM268 442h0zM269 442zM268 443zM269 442zM268 442zM269 442zM269 442zM268 444l1-1h-1v1zM268 443v-1 1zM268 442v1c1 0 0 0 0 0v-1 0zM269 443zM269 443v-1 1zM269 443zM268 443v-1 1zM268 443zM258 446zM259 446zM264 444zM261 445zM261 446zM257 446zM266 443s0 1 0 0zM259 444zM266 443zM251 444zM250 442zM267 443zM268 443v0zM266 445zM267 443zM267 443zM267 443zM254 445zM263 446zM263 446v-1 1zM259 446zm2 0zm6-3zm0 0zm-13 0zM261 446zM257 446zM266 445zM267 443h0zM269 443zM268 443zM268 443zM267 443zM268 444v-1 1zM268 444zM268 444zM267 444zM267 444v1-1zM267 445zM265 445v-1zM264 446zM264 446zM250 442zM249 442zM259 446zM258 446zM257 446z" class="st17"/></g><path d="M16 538h518v161H16z" class="st14"/><text class="st15 st7 st8" transform="translate(131 586)">FAIR PAY</text></g></svg>