<?xml version="1.0" encoding="UTF-8" standalone="no"?>
<svg
   xmlns:dc="http://purl.org/dc/elements/1.1/"
   xmlns:cc="http://creativecommons.org/ns#"
   xmlns:rdf="http://www.w3.org/1999/02/22-rdf-syntax-ns#"
   xmlns:svg="http://www.w3.org/2000/svg"
   xmlns="http://www.w3.org/2000/svg"
   version="1.1"
   id="svg2"
   viewBox="0 0 296.69604 468.02066"
   height="132.08583mm"
   width="83.734215mm">
  <defs
     id="defs4" />
  <metadata
     id="metadata7">
    <rdf:RDF>
      <cc:Work
         rdf:about="">
        <dc:format>image/svg+xml</dc:format>
        <dc:type
           rdf:resource="http://purl.org/dc/dcmitype/StillImage" />
        <dc:title></dc:title>
      </cc:Work>
    </rdf:RDF>
  </metadata>
  <g
     transform="translate(-3.7595229,-3.9547805)"
     id="layer1">
    <g
       transform="matrix(3.4795926,0,0,3.4795926,-426.87321,-516.8326)"
       id="g4147">
      <path
         id="path4267"
         d="m 164.06605,279.2675 c -1.45062,-3.32261 -2.63748,-6.67625 -2.63748,-7.45251 0,-2.03302 -11.06271,-24.35133 -14.99743,-30.25635 -1.83242,-2.75 -3.68997,-5.98438 -4.12789,-7.1875 -0.43792,-1.20313 -1.37637,-2.1875 -2.08545,-2.1875 -0.70907,0 -1.28923,-0.60178 -1.28923,-1.33728 0,-0.7355 -1.59297,-3.68863 -3.53993,-6.5625 -1.94696,-2.87387 -5.32196,-8.92592 -7.5,-13.449 -3.51589,-7.30138 -3.96007,-9.44718 -3.96007,-19.13108 0,-10.99342 2.51811,-19.71682 6.97925,-24.17796 0.94328,-0.94328 2.43072,-2.68273 3.30541,-3.86544 2.6912,-3.63889 11.31456,-9.69588 16.92814,-11.89021 3.39441,-1.32687 8.96018,-2.08653 15.2872,-2.08653 6.32703,0 11.89279,0.75966 15.2872,2.08653 5.61358,2.19433 14.23695,8.25132 16.92815,11.89021 0.87469,1.18271 2.55221,3.11225 3.72783,4.28786 4.64557,4.64558 6.55682,11.59708 6.55682,23.84818 0,11.07759 -0.28675,12.41114 -4.45447,20.7156 -2.44995,4.88171 -6.58388,12.00801 -9.18649,15.83623 -7.45859,10.97093 -12.60904,19.56038 -12.60904,21.02816 0,0.74189 -0.49411,1.5364 -1.09804,1.76556 -1.21733,0.46193 -8.10426,14.88351 -9.45138,19.79167 -0.47174,1.71875 -1.31743,4.25 -1.87933,5.625 -0.56189,1.375 -1.58967,3.90625 -2.28395,5.625 -1.23127,3.04807 -1.32726,2.9763 -3.89982,-2.91614 z m 28.08047,-91.38419 c 3.07034,-12.23319 -15.43419,-19.84453 -20.71795,-8.52177 -2.17116,4.65265 -3.26915,5.05634 -4.36465,1.60471 -1.14967,-3.6223 -6.70839,-7.53261 -10.70801,-7.53261 -5.48076,0 -11.17734,5.55578 -11.17734,10.90107 0,5.91504 3.36046,10.95119 12.32705,18.47393 4.09726,3.4375 8.08878,7.38743 8.87003,8.77762 1.32546,2.3586 2.20552,1.76642 13.16102,-8.85593 6.92311,-6.71257 12.09726,-12.8047 12.60985,-14.84702 z"
         style="fill-opacity:1" />
      <path
         id="path4265"
         d="m 164.06605,279.2675 c -1.45062,-3.32261 -2.63748,-6.67625 -2.63748,-7.45251 0,-2.03302 -11.06271,-24.35133 -14.99743,-30.25635 -1.83242,-2.75 -3.68997,-5.98438 -4.12789,-7.1875 -0.43792,-1.20313 -1.37637,-2.1875 -2.08545,-2.1875 -0.70907,0 -1.28923,-0.60178 -1.28923,-1.33728 0,-0.7355 -1.59297,-3.68863 -3.53993,-6.5625 -1.94696,-2.87387 -5.32196,-8.92592 -7.5,-13.449 -3.51589,-7.30138 -3.96007,-9.44718 -3.96007,-19.13108 0,-10.99342 2.51811,-19.71682 6.97925,-24.17796 0.94328,-0.94328 2.43072,-2.68273 3.30541,-3.86544 2.6912,-3.63889 11.31456,-9.69588 16.92814,-11.89021 3.39441,-1.32687 8.96018,-2.08653 15.2872,-2.08653 6.32703,0 11.89279,0.75966 15.2872,2.08653 5.61358,2.19433 14.23695,8.25132 16.92815,11.89021 0.87469,1.18271 2.55221,3.11225 3.72783,4.28786 4.64557,4.64558 6.55682,11.59708 6.55682,23.84818 0,11.07759 -0.28675,12.41114 -4.45447,20.7156 -2.44995,4.88171 -6.58388,12.00801 -9.18649,15.83623 -7.45859,10.97093 -12.60904,19.56038 -12.60904,21.02816 0,0.74189 -0.49411,1.5364 -1.09804,1.76556 -1.21733,0.46193 -8.10426,14.88351 -9.45138,19.79167 -0.47174,1.71875 -1.31743,4.25 -1.87933,5.625 -0.56189,1.375 -1.58967,3.90625 -2.28395,5.625 -1.23127,3.04807 -1.32726,2.9763 -3.89982,-2.91614 z m 28.08047,-91.38419 c 3.07034,-12.23319 -15.43419,-19.84453 -20.71795,-8.52177 -2.17116,4.65265 -3.26915,5.05634 -4.36465,1.60471 -1.14967,-3.6223 -6.70839,-7.53261 -10.70801,-7.53261 -4.27838,0 -10.677,5.15724 -11.45626,9.23365 -0.97884,5.12049 1.8785,9.74176 12.83986,20.76635 10.56406,10.625 10.56406,10.625 22.0509,-0.73093 6.61941,-6.54397 11.85519,-12.82354 12.35611,-14.8194 z"
         style="fill-opacity:1" />
      <path
         id="path4263"
         d="m 164.06605,279.2675 c -1.45062,-3.32261 -2.63748,-6.67625 -2.63748,-7.45251 0,-2.13393 -11.17523,-24.53274 -15.20788,-30.48157 -1.94816,-2.87387 -3.54212,-5.51019 -3.54212,-5.85849 0,-0.3483 -2.4229,-4.18445 -5.38423,-8.52478 -2.96133,-4.34033 -7.18008,-11.59221 -9.375,-16.11529 -3.55448,-7.32473 -3.99077,-9.41622 -3.99077,-19.13108 0,-10.99342 2.51811,-19.71682 6.97925,-24.17796 0.94328,-0.94328 2.43072,-2.68273 3.30541,-3.86544 2.6912,-3.63889 11.31456,-9.69588 16.92814,-11.89021 7.16575,-2.80107 24.0971,-2.70767 30.96431,0.17081 7.21978,3.02627 14.5446,8.65733 18.78465,14.44096 7.31695,9.98067 7.93009,11.89208 7.98584,24.8954 0.0497,11.60713 -0.17482,12.67075 -4.48735,21.25 -2.49686,4.96722 -6.28624,11.56255 -8.42084,14.6563 -10.54017,15.27624 -21.58935,35.55414 -23.83883,43.75 -0.47174,1.71875 -1.31743,4.25 -1.87933,5.625 -0.56189,1.375 -1.58967,3.90625 -2.28395,5.625 -1.23127,3.04807 -1.32726,2.9763 -3.89982,-2.91614 z m 28.07358,-91.27826 c 3.03048,-12.3458 -15.39432,-20.0211 -20.71106,-8.6277 -2.17116,4.65265 -3.26915,5.05634 -4.36465,1.60471 -1.14165,-3.59702 -6.69834,-7.53261 -10.63535,-7.53261 -4.0823,0 -9.74425,4.16458 -11.32906,8.33295 -1.86002,4.89223 1.23444,10.19688 12.63944,21.66705 10.56462,10.625 10.56462,10.625 22.04457,-0.625 6.95245,-6.8132 11.82549,-12.65771 12.35611,-14.8194 z"
         style="fill-opacity:1" />
      <path
         id="path4261"
         d="m 164.07938,279.2675 c -1.45795,-3.32261 -2.65081,-6.67625 -2.65081,-7.45251 0,-2.13393 -11.17523,-24.53274 -15.20788,-30.48157 -1.94816,-2.87387 -3.54212,-5.51019 -3.54212,-5.85849 0,-0.3483 -2.4229,-4.18445 -5.38423,-8.52478 -2.96133,-4.34033 -7.18008,-11.59221 -9.375,-16.11529 -3.55448,-7.32473 -3.99077,-9.41622 -3.99077,-19.13108 0,-10.99342 2.51811,-19.71682 6.97925,-24.17796 0.94328,-0.94328 2.43072,-2.68273 3.30541,-3.86544 2.6912,-3.63889 11.31456,-9.69588 16.92814,-11.89021 7.16575,-2.80107 24.0971,-2.70767 30.96431,0.17081 7.21978,3.02627 14.5446,8.65733 18.78465,14.44096 7.31695,9.98067 7.93009,11.89208 7.98584,24.8954 0.0497,11.60713 -0.17482,12.67075 -4.48735,21.25 -2.49686,4.96722 -6.28624,11.56255 -8.42084,14.6563 -10.49808,15.21525 -21.5187,35.42307 -23.85966,43.75 -0.48319,1.71875 -1.60921,4.8125 -2.50225,6.875 -0.89305,2.0625 -1.90546,4.59375 -2.2498,5.625 -0.39109,1.17126 -1.62099,-0.39239 -3.27689,-4.16614 z m 28.07217,-91.38387 c 0.652,-2.61224 0.22823,-4.96191 -1.46535,-8.125 -4.4174,-8.2503 -16.54333,-8.27968 -19.65059,-0.0476 -1.63403,4.32902 -2.87193,4.72025 -3.97169,1.25522 -1.14165,-3.59702 -6.69834,-7.53261 -10.63535,-7.53261 -4.08837,0 -9.74492,4.16636 -11.33514,8.34894 -1.87584,4.93385 1.66228,10.9977 12.8808,22.07591 10.32934,10.20015 10.32934,10.20015 21.79469,-1.04985 7.08656,-6.95345 11.81568,-12.65354 12.38263,-14.92501 z"
         style="fill-opacity:1" />
      <path
         id="path4259"
         d="m 164.07938,279.2675 c -1.45795,-3.32261 -2.65081,-6.67625 -2.65081,-7.45251 0,-2.13393 -11.17523,-24.53274 -15.20788,-30.48157 -1.94816,-2.87387 -3.54212,-5.48165 -3.54212,-5.79506 0,-0.31341 -2.26012,-3.95439 -5.02248,-8.09107 -2.76237,-4.13667 -6.98112,-11.34587 -9.375,-16.02043 -4.00218,-7.8151 -4.35252,-9.38989 -4.35252,-19.56479 0,-11.15831 2.49249,-19.84949 6.97925,-24.33625 0.94328,-0.94328 2.43072,-2.68273 3.30541,-3.86544 2.6912,-3.63889 11.31456,-9.69588 16.92814,-11.89021 7.16575,-2.80107 24.0971,-2.70767 30.96431,0.17081 7.21978,3.02627 14.5446,8.65733 18.78465,14.44096 7.31695,9.98067 7.93009,11.89208 7.98584,24.8954 0.0497,11.60713 -0.17482,12.67075 -4.48735,21.25001 -2.49686,4.96721 -6.28624,11.56254 -8.42084,14.65629 -10.49808,15.21525 -21.5187,35.42307 -23.85966,43.75 -0.48319,1.71875 -1.60921,4.8125 -2.50225,6.875 -0.89305,2.0625 -1.90546,4.59375 -2.2498,5.625 -0.39109,1.17126 -1.62099,-0.39239 -3.27689,-4.16614 z m 27.22219,-89.18918 c 2.11775,-4.1991 1.63946,-8.17909 -1.44171,-11.99684 -5.49288,-6.80599 -17.24591,-5.43097 -19.17195,2.24297 -0.93804,3.73745 -2.55081,4.02307 -3.62399,0.6418 -1.09585,-3.45272 -6.64269,-7.53261 -10.241,-7.53261 -4.88939,0 -10.02209,3.38368 -11.48101,7.56875 -2.09056,5.99698 1.03068,11.65774 12.71282,23.05625 10.24884,10 10.24884,10 21.05934,-0.625 5.94578,-5.84375 11.43015,-11.85365 12.1875,-13.35532 z"
         style="fill-opacity:1" />
      <path
         id="path4257"
         d="m 164.07553,279.2675 c -1.45582,-3.32261 -2.64696,-6.67625 -2.64696,-7.45251 0,-2.13393 -11.17523,-24.53274 -15.20788,-30.48157 -1.94816,-2.87387 -3.54212,-5.48165 -3.54212,-5.79506 0,-0.31341 -2.26012,-3.95439 -5.02248,-8.09107 -2.76237,-4.13667 -6.98112,-11.34587 -9.375,-16.02043 -4.0391,-7.88719 -4.34946,-9.31359 -4.3101,-19.80871 0.0456,-12.1483 1.2307,-15.88226 7.99582,-25.19195 8.17903,-11.25542 19.27849,-16.60288 34.46176,-16.60288 18.31738,0 30.36514,7.59952 40.2601,25.39539 1.59289,2.86474 2.14841,6.9441 2.1875,16.06308 0.0482,11.24074 -0.26072,12.84818 -3.84357,20 -2.14278,4.27727 -6.26609,11.4331 -9.16292,15.90185 -14.63566,22.57755 -24.44111,41.05986 -24.44111,46.06909 0,1.24533 -0.42187,2.67961 -0.9375,3.18729 -0.51562,0.50767 -1.57449,2.7108 -2.35304,4.89583 -1.41553,3.97279 -1.41553,3.97279 -4.0625,-2.06835 z m 27.22604,-89.18918 c 2.11775,-4.1991 1.63946,-8.17909 -1.44171,-11.99684 -5.49288,-6.80599 -17.24591,-5.43097 -19.17195,2.24297 -0.93804,3.73745 -2.55081,4.02307 -3.62399,0.6418 -1.09585,-3.45272 -6.64269,-7.53261 -10.241,-7.53261 -4.79585,0 -9.90487,3.30053 -11.65706,7.53068 -2.36128,5.70065 0.6355,11.05399 12.92815,23.09432 10.20956,10 10.20956,10 21.02006,-0.625 5.94578,-5.84375 11.43015,-11.85365 12.1875,-13.35532 z"
         style="fill-opacity:1" />
      <path
         id="path4255"
         d="m 164.04348,279.2675 c -1.4382,-3.32261 -2.61491,-6.73844 -2.61491,-7.59072 0,-2.35425 -10.75594,-23.94961 -15.00311,-30.12267 -2.06079,-2.99525 -3.74689,-5.70234 -3.74689,-6.01575 0,-0.31341 -2.18916,-3.86831 -4.86479,-7.89978 -2.67564,-4.03147 -6.89439,-11.24525 -9.375,-16.03063 -4.17437,-8.05282 -4.51021,-9.51564 -4.51021,-19.64509 0,-11.9658 1.51037,-16.70893 8.08953,-25.40422 5.10303,-6.74436 7.51399,-8.69889 16.17262,-13.11089 6.53336,-3.32906 8.64125,-3.76411 18.23785,-3.76411 9.5966,0 11.70449,0.43505 18.23785,3.76411 8.61295,4.38872 11.00803,6.32124 16.24894,13.11089 7.09501,9.19165 8.1617,12.64327 7.9191,25.625 -0.24593,13.16016 -2.18633,18.39336 -12.97758,35 -15.1462,23.30851 -20.153,32.90726 -26.73246,51.25 -2.46604,6.875 -2.46604,6.875 -5.08094,0.83386 z m 27.25809,-89.18918 c 3.45596,-6.8525 -0.50636,-14.69671 -8.14782,-16.13026 -5.69832,-1.06901 -9.8382,0.87796 -12.39983,5.83159 -2.0449,3.95439 -2.0449,3.95439 -4.36824,0.13397 -3.94972,-6.49482 -9.46286,-8.09257 -16.09312,-4.66393 -1.93152,0.99883 -4.23853,3.57041 -5.1267,5.71463 -2.36128,5.70065 0.6355,11.05399 12.92815,23.09432 10.20956,10 10.20956,10 21.02006,-0.625 5.94578,-5.84375 11.43015,-11.85365 12.1875,-13.35532 z"
         style="fill-opacity:1" />
      <path
         id="path4253"
         d="m 164.04348,279.2675 c -1.4382,-3.32261 -2.61491,-6.73844 -2.61491,-7.59072 0,-2.35425 -10.75594,-23.94961 -15.00311,-30.12267 -2.06079,-2.99525 -3.74689,-5.70234 -3.74689,-6.01575 0,-0.31341 -2.19852,-3.86831 -4.88559,-7.89978 -2.68708,-4.03147 -6.94007,-11.43071 -9.45109,-16.44276 -4.30941,-8.6017 -4.55121,-9.72348 -4.31106,-20 0.27545,-11.78707 1.78311,-16.43751 7.98727,-24.63718 5.10303,-6.74436 7.51399,-8.69889 16.17262,-13.11089 6.53336,-3.32906 8.64125,-3.76411 18.23785,-3.76411 9.5966,0 11.70449,0.43505 18.23785,3.76411 8.57879,4.37131 10.96045,6.28635 16.3055,13.11089 6.51139,8.31372 8.12125,13.66219 7.84918,26.07749 -0.27052,12.34379 -2.7057,18.84222 -12.94614,34.54751 -15.03,23.05079 -20.16313,32.8851 -26.75054,51.25 -2.46604,6.875 -2.46604,6.875 -5.08094,0.83386 z m 27.25809,-89.18918 c 2.37259,-4.70439 1.59969,-9.1143 -2.27685,-12.99083 -5.99871,-5.99872 -14.43985,-4.71609 -18.31799,2.78341 -1.99771,3.86314 -1.99771,3.86314 -4.32105,0.0427 -3.94972,-6.49481 -9.46286,-8.09257 -16.09312,-4.66392 -4.36253,2.25595 -6.81745,7.81699 -5.59716,12.67902 0.54874,2.18633 5.42326,8.10265 12.25955,14.87968 11.34862,11.25024 11.34862,11.25024 22.15912,0.62524 5.94578,-5.84375 11.43015,-11.85365 12.1875,-13.35532 z"
         style="fill-opacity:1" />
      <path
         id="path4251"
         d="m 164.04348,279.2675 c -1.4382,-3.32261 -2.61491,-6.73844 -2.61491,-7.59072 0,-2.35425 -10.75594,-23.94961 -15.00311,-30.12267 -2.06079,-2.99525 -3.74689,-5.70234 -3.74689,-6.01575 0,-0.31341 -2.19852,-3.86831 -4.88559,-7.89978 -2.68708,-4.03147 -6.94007,-11.43071 -9.45109,-16.44276 -4.30941,-8.6017 -4.55121,-9.72348 -4.31106,-20 0.27545,-11.78707 1.78311,-16.43751 7.98727,-24.63718 5.10303,-6.74436 7.51399,-8.69889 16.17262,-13.11089 6.53336,-3.32906 8.64125,-3.76411 18.23785,-3.76411 9.5966,0 11.70449,0.43505 18.23785,3.76411 8.57879,4.37131 10.96045,6.28635 16.3055,13.11089 6.17771,7.88769 7.96018,13.47323 7.92698,24.84015 -0.0334,11.44271 -2.46149,18.79915 -10.38983,31.47843 -2.55576,4.08728 -7.97796,12.77517 -12.04932,19.30642 -7.18534,11.52665 -12.2306,22.08131 -17.32799,36.25 -2.47338,6.875 -2.47338,6.875 -5.08828,0.83386 z m 27.25809,-89.18918 c 2.37259,-4.70439 1.59969,-9.1143 -2.27685,-12.99083 -5.99871,-5.99872 -14.43985,-4.71609 -18.31799,2.78341 -1.99771,3.86314 -1.99771,3.86314 -4.32105,0.0427 -3.94972,-6.49481 -9.46286,-8.09257 -16.09312,-4.66392 -4.36253,2.25595 -6.81745,7.81699 -5.59716,12.67902 0.54874,2.18633 5.42326,8.10265 12.25955,14.87968 11.34862,11.25024 11.34862,11.25024 22.15912,0.62524 5.94578,-5.84375 11.43015,-11.85365 12.1875,-13.35532 z"
         style="fill-opacity:1" />
      <path
         id="path4249"
         d="m 164.03632,279.2675 c -1.43426,-3.32261 -2.60775,-6.73844 -2.60775,-7.59072 0,-2.35425 -10.75594,-23.94961 -15.00311,-30.12267 -2.06079,-2.99525 -3.74689,-5.70234 -3.74689,-6.01575 0,-0.31341 -2.19852,-3.86831 -4.88559,-7.89978 -2.68708,-4.03147 -6.94007,-11.43071 -9.45109,-16.44276 -4.30894,-8.60076 -4.55082,-9.72257 -4.30451,-19.96397 0.38004,-15.80175 6.02125,-26.35118 18.49951,-34.59529 8.95728,-5.91787 14.92816,-7.37064 27.20402,-6.61897 14.27002,0.87377 22.86182,5.59542 31.96555,17.56675 8.61919,11.33419 9.71686,29.78787 2.65287,44.5993 -3.20356,6.71708 -12.3258,21.74901 -16.32063,26.89368 -3.2676,4.20813 -16.60864,30.56429 -16.61114,32.8165 -5.6e-4,0.50315 -1.07708,3.72732 -2.39225,7.16482 -2.39124,6.25 -2.39124,6.25 -4.99899,0.20886 z m 27.26525,-89.18918 c 2.37259,-4.70439 1.59969,-9.1143 -2.27685,-12.99083 -6.10456,-6.10457 -16.01124,-4.23522 -18.98337,3.58208 -1.22944,3.23366 -1.22944,3.23366 -3.60422,-0.67136 -4.00186,-6.58053 -9.48383,-8.19291 -16.14457,-4.74852 -4.36253,2.25595 -6.81745,7.81699 -5.59716,12.67903 0.54874,2.18633 5.42326,8.10264 12.25955,14.87967 11.34862,11.25025 11.34862,11.25025 22.15912,0.62525 5.94578,-5.84375 11.43015,-11.85365 12.1875,-13.35532 z"
         style="fill-opacity:1" />
      <path
         id="path4247"
         d="m 164.03632,279.2675 c -1.43426,-3.32261 -2.60775,-6.73844 -2.60775,-7.59072 0,-2.14027 -10.49743,-23.51873 -14.69061,-29.91807 -1.88891,-2.88272 -4.12976,-6.35703 -4.97965,-7.72069 -15.43725,-24.76909 -17.82974,-30.4692 -17.82974,-42.47938 0,-14.87415 6.32053,-26.72654 18.60832,-34.89473 8.93761,-5.94118 14.90599,-7.39934 27.20402,-6.64632 14.27002,0.87377 22.86182,5.59542 31.96555,17.56675 8.61919,11.33419 9.71686,29.78787 2.65287,44.5993 -3.20356,6.71708 -12.3258,21.74901 -16.32063,26.89368 -3.2676,4.20813 -16.60864,30.56429 -16.61114,32.8165 -5.6e-4,0.50315 -1.07708,3.72732 -2.39225,7.16482 -2.39124,6.25 -2.39124,6.25 -4.99899,0.20886 z m 27.26525,-89.18918 c 2.37259,-4.70439 1.59969,-9.1143 -2.27685,-12.99083 -6.10456,-6.10457 -16.01124,-4.23522 -18.98337,3.58208 -1.22944,3.23366 -1.22944,3.23366 -3.60422,-0.67136 -4.00186,-6.58053 -9.48383,-8.19291 -16.14457,-4.74852 -4.35095,2.24997 -6.81338,7.81447 -5.6109,12.67927 0.54483,2.20415 5.35967,8.04803 12.25955,14.87968 11.36236,11.25 11.36236,11.25 22.17286,0.625 5.94578,-5.84375 11.43015,-11.85365 12.1875,-13.35532 z"
         style="fill-opacity:1" />
      <path
         id="path4245"
         d="m 164.03632,279.2675 c -1.43426,-3.32261 -2.60775,-6.73844 -2.60775,-7.59072 0,-2.12165 -10.18152,-22.8771 -14.53323,-29.62656 -11.77606,-18.26458 -19.09016,-31.03568 -21.00581,-36.67809 -1.07853,-3.17672 -1.96096,-9.39279 -1.96096,-13.81349 0,-14.87415 6.32053,-26.72654 18.60832,-34.89473 8.93761,-5.94118 14.90599,-7.39934 27.20402,-6.64632 14.27002,0.87377 22.86182,5.59542 31.96555,17.56675 8.61919,11.33419 9.71686,29.78787 2.65287,44.5993 -3.20356,6.71708 -12.3258,21.74901 -16.32063,26.89368 -3.2676,4.20813 -16.60864,30.56429 -16.61114,32.8165 -5.6e-4,0.50315 -1.07708,3.72732 -2.39225,7.16482 -2.39124,6.25 -2.39124,6.25 -4.99899,0.20886 z m 27.26525,-89.18918 c 2.37259,-4.70439 1.59969,-9.1143 -2.27685,-12.99083 -6.10456,-6.10457 -16.01124,-4.23522 -18.98337,3.58208 -1.22944,3.23366 -1.22944,3.23366 -3.60422,-0.67136 -4.00186,-6.58053 -9.48383,-8.19291 -16.14457,-4.74852 -4.35095,2.24997 -6.81338,7.81447 -5.6109,12.67927 0.54483,2.20415 5.35967,8.04803 12.25955,14.87968 11.36236,11.25 11.36236,11.25 22.17286,0.625 5.94578,-5.84375 11.43015,-11.85365 12.1875,-13.35532 z"
         style="fill-opacity:1" />
      <path
         id="path4243"
         d="m 165.51416,282.72948 c -0.68866,-1.33147 -2.2499,-5.51459 -3.46941,-9.29584 -2.48109,-7.69295 -10.41133,-24.0563 -15.40805,-31.79313 -11.3901,-17.63625 -18.84715,-30.672 -20.74717,-36.26838 -4.22523,-12.44511 -1.75194,-28.5478 5.97419,-38.89588 16.86525,-22.58864 52.41823,-22.37036 69.45114,0.42641 5.81021,7.77636 7.97465,15.84826 7.39587,27.5817 -0.5655,11.46422 -3.45825,18.35215 -15.1735,36.12966 -12.57868,19.08772 -17.71035,29.15076 -24.34537,47.74046 -2.10226,5.89001 -2.59246,6.47316 -3.6777,4.375 z m 25.78741,-92.65116 c 2.37259,-4.70439 1.59969,-9.1143 -2.27685,-12.99083 -6.10456,-6.10457 -16.01124,-4.23522 -18.98337,3.58208 -1.22944,3.23366 -1.22944,3.23366 -3.60422,-0.67136 -4.00186,-6.58053 -9.48383,-8.19291 -16.14457,-4.74852 -4.35095,2.24997 -6.81338,7.81447 -5.6109,12.67927 0.54483,2.20415 5.35967,8.04803 12.25955,14.87968 11.36236,11.25 11.36236,11.25 22.17286,0.625 5.94578,-5.84375 11.43015,-11.85365 12.1875,-13.35532 z"
         style="fill-opacity:1" />
      <path
         id="path4241"
         d="m 165.54165,282.78083 c -0.70379,-1.3597 -2.27739,-5.56594 -3.4969,-9.34719 -2.48109,-7.69295 -10.41133,-24.0563 -15.40805,-31.79313 -11.3901,-17.63625 -18.84715,-30.672 -20.74717,-36.26838 -4.22523,-12.44511 -1.75194,-28.5478 5.97419,-38.89588 16.86525,-22.58864 52.41823,-22.37036 69.45114,0.42641 5.81021,7.77636 7.97465,15.84826 7.39587,27.5817 -0.57373,11.63132 -3.37305,18.16868 -15.90486,37.14341 -8.29087,12.55344 -20.888,36.29904 -21.96942,41.41244 -0.26387,1.24764 -1.27523,4.50592 -2.24747,7.24062 -1.59557,4.48795 -1.89235,4.73142 -3.04733,2.5 z m 25.77108,-92.70251 c 2.3594,-4.71647 1.58404,-9.11878 -2.28801,-12.99083 -6.10456,-6.10457 -16.01124,-4.23522 -18.98337,3.58208 -1.22944,3.23366 -1.22944,3.23366 -3.60422,-0.67136 -4.00186,-6.58053 -9.48383,-8.19291 -16.14457,-4.74852 -4.35095,2.24997 -6.81338,7.81447 -5.6109,12.67927 0.54483,2.20415 5.35967,8.04803 12.25955,14.87968 11.36236,11.25 11.36236,11.25 22.18402,0.625 5.95193,-5.84375 11.4363,-11.85365 12.1875,-13.35532 z"
         style="fill-opacity:1" />
      <path
         id="path4239"
         d="m 162.71157,274.99614 c -3.27004,-9.41886 -11.07426,-25.61278 -16.07487,-33.35563 -4.11906,-6.37788 -4.43032,-6.88201 -12.42498,-20.12354 -8.88547,-14.71699 -10.73767,-20.7805 -10.03827,-32.86217 0.63707,-11.00507 4.38392,-19.43329 12.04513,-27.0945 13.66119,-13.66119 37.70333,-15.79947 54.21492,-4.82181 13.23302,8.79793 19.08396,20.86838 18.30978,37.77301 -0.51791,11.30884 -3.70323,18.62163 -16.63918,38.19972 -7.30989,11.06324 -20.48053,35.83787 -21.17309,39.82764 -0.64034,3.68888 -3.52951,10.89478 -4.36821,10.89478 -0.50705,0 -2.24009,-3.79687 -3.85123,-8.4375 z m 28.60116,-84.91782 c 2.3594,-4.71647 1.58404,-9.11878 -2.28801,-12.99083 -6.10456,-6.10457 -16.01124,-4.23522 -18.98337,3.58208 -1.22944,3.23366 -1.22944,3.23366 -3.60422,-0.67136 -5.41338,-8.90159 -16.14311,-8.99814 -20.6999,-0.18628 -3.39063,6.55676 -1.45147,10.55154 11.16315,22.99671 11.40319,11.25 11.40319,11.25 22.22485,0.625 5.95193,-5.84375 11.4363,-11.85365 12.1875,-13.35532 z"
         style="fill-opacity:1" />
      <path
         id="path4237"
         d="m 163.82543,278.12114 c -0.9643,-2.92188 -1.72285,-5.59375 -1.68565,-5.9375 0.12973,-1.1987 -11.90135,-24.95396 -15.32996,-30.26889 -4.32115,-6.69854 -4.58592,-7.12723 -12.5981,-20.39778 -8.88547,-14.71699 -10.73767,-20.7805 -10.03827,-32.86217 0.63707,-11.00507 4.38392,-19.43329 12.04513,-27.0945 13.63626,-13.63626 37.77177,-15.75578 54.29637,-4.76817 13.14982,8.74364 19.00086,20.851 18.22833,37.71937 -0.51791,11.30884 -3.70323,18.62163 -16.63918,38.19972 -7.30989,11.06324 -20.48053,35.83787 -21.17309,39.82764 -0.65076,3.74897 -3.53624,10.89478 -4.3993,10.89478 -0.52415,0 -1.74196,-2.39062 -2.70628,-5.3125 z m 27.4873,-88.04282 c 2.3594,-4.71647 1.58404,-9.11878 -2.28801,-12.99083 -6.10456,-6.10457 -16.01124,-4.23522 -18.98337,3.58208 -1.22944,3.23366 -1.22944,3.23366 -3.60422,-0.67136 -5.41338,-8.90159 -16.14311,-8.99814 -20.6999,-0.18628 -3.39063,6.55676 -1.45147,10.55154 11.16315,22.99671 11.40319,11.25 11.40319,11.25 22.22485,0.625 5.95193,-5.84375 11.4363,-11.85365 12.1875,-13.35532 z"
         style="fill-opacity:1" />
      <path
         id="path4235"
         d="m 163.82543,278.12114 c -0.9643,-2.92188 -1.7207,-5.59375 -1.68088,-5.9375 0.14795,-1.27724 -13.05755,-27.04625 -16.20286,-31.61801 -1.79471,-2.60866 -3.26312,-5.03681 -3.26312,-5.3959 0,-0.35909 -1.3446,-2.44349 -2.98801,-4.63199 -1.6434,-2.18851 -5.72153,-9.0416 -9.0625,-15.2291 -6.07449,-11.25 -6.07449,-11.25 -6.07449,-23.75 0,-11.45556 0.30286,-13.04656 3.62461,-19.04128 7.60806,-13.73015 19.41669,-21.46435 34.4098,-22.5371 10.98608,-0.78605 19.69494,1.3382 27.92697,6.81187 13.14982,8.74364 19.00086,20.851 18.22833,37.71937 -0.51791,11.30884 -3.70323,18.62163 -16.63918,38.19972 -7.30989,11.06324 -20.48053,35.83787 -21.17309,39.82764 -0.65076,3.74897 -3.53624,10.89478 -4.3993,10.89478 -0.52415,0 -1.74196,-2.39062 -2.70628,-5.3125 z m 27.4873,-88.04282 c 2.3594,-4.71647 1.58404,-9.11878 -2.28801,-12.99083 -6.13392,-6.13393 -16.01226,-4.23245 -19.01295,3.65979 -1.20644,3.17311 -1.31464,3.20698 -2.59181,0.81136 -2.91161,-5.46142 -6.40835,-8.125 -10.66646,-8.125 -5.59698,0 -8.62434,1.7528 -11.01627,6.37829 -3.39063,6.55676 -1.45147,10.55154 11.16315,22.99671 11.40319,11.25 11.40319,11.25 22.22485,0.625 5.95193,-5.84375 11.4363,-11.85365 12.1875,-13.35532 z"
         style="fill-opacity:1" />
      <path
         id="path4233"
         d="m 163.82543,278.12114 c -0.9643,-2.92188 -1.7207,-5.59375 -1.68088,-5.9375 0.14795,-1.27724 -13.05755,-27.04625 -16.20286,-31.61801 -1.79471,-2.60866 -3.26312,-5.08681 -3.26312,-5.50701 0,-0.4202 -1.32745,-2.5046 -2.9499,-4.63199 -1.62245,-2.1274 -5.70057,-8.93049 -9.0625,-15.11799 -6.1126,-11.25 -6.1126,-11.25 -6.1126,-23.75 0,-11.45556 0.30286,-13.04656 3.62461,-19.04128 7.60806,-13.73015 19.41669,-21.46435 34.4098,-22.5371 10.98608,-0.78605 19.69494,1.3382 27.92697,6.81187 13.14982,8.74364 19.00086,20.851 18.22833,37.71937 -0.51937,11.34094 -3.72913,18.68683 -16.73377,38.29714 -7.49274,11.29863 -20.35308,35.48381 -21.06026,39.60594 -0.65719,3.83077 -3.53899,11.01906 -4.41754,11.01906 -0.52415,0 -1.74196,-2.39062 -2.70628,-5.3125 z m 27.4873,-88.04282 c 2.3594,-4.71647 1.58404,-9.11878 -2.28801,-12.99083 -6.13392,-6.13393 -16.01226,-4.23245 -19.01295,3.65979 -1.20644,3.17311 -1.31464,3.20698 -2.59181,0.81136 -2.91161,-5.46142 -6.40835,-8.125 -10.66646,-8.125 -5.59698,0 -8.62434,1.7528 -11.01627,6.37829 -3.39063,6.55676 -1.45147,10.55154 11.16315,22.99671 11.40319,11.25 11.40319,11.25 22.22485,0.625 5.95193,-5.84375 11.4363,-11.85365 12.1875,-13.35532 z"
         style="fill-opacity:1" />
      <path
         id="path4231"
         d="m 164.02911,278.12114 c -2.0321,-6.96659 -13.14211,-30.10386 -17.73667,-36.93767 -1.98763,-2.95634 -3.61387,-5.71574 -3.61387,-6.13201 0,-0.41626 -1.32745,-2.49744 -2.9499,-4.62483 -1.62245,-2.1274 -5.70057,-8.93049 -9.0625,-15.11799 -6.1126,-11.25 -6.1126,-11.25 -6.10376,-23.75 0.008,-11.43612 0.31658,-13.05673 3.62461,-19.04128 7.58422,-13.72059 19.40399,-21.46407 34.40096,-22.5371 16.38612,-1.17242 30.31055,5.12742 39.08465,17.6831 5.75783,8.2394 7.6636,15.60863 7.07107,27.3424 -0.5472,10.83611 -3.95252,18.52879 -16.73419,37.80288 -7.49274,11.29863 -20.35308,35.48381 -21.06026,39.60594 -0.65719,3.83077 -3.53899,11.01906 -4.41754,11.01906 -0.52415,0 -1.65031,-2.39062 -2.5026,-5.3125 z m 27.28362,-88.04282 c 2.3594,-4.71647 1.58404,-9.11878 -2.28801,-12.99083 -6.13392,-6.13393 -16.01226,-4.23245 -19.01295,3.65979 -1.20644,3.17311 -1.31464,3.20698 -2.59181,0.81136 -2.98085,-5.59129 -6.38964,-8.125 -10.93115,-8.125 -5.51155,0 -9.21303,2.43688 -11.27957,7.42595 -2.55212,6.16136 -0.57758,9.88198 11.62126,21.89795 11.47307,11.3011 11.47307,11.3011 22.29473,0.6761 5.95193,-5.84375 11.4363,-11.85365 12.1875,-13.35532 z"
         style="fill-opacity:1" />
      <path
         id="path4229"
         d="m 164.02911,278.12114 c -2.0321,-6.96659 -13.14211,-30.10386 -17.73667,-36.93767 -1.98763,-2.95634 -3.61387,-5.71574 -3.61387,-6.13201 0,-0.41626 -1.32745,-2.49744 -2.9499,-4.62483 -1.62245,-2.1274 -5.70057,-8.93049 -9.0625,-15.11799 -6.1126,-11.25 -6.1126,-11.25 -6.10376,-23.75 0.008,-11.43612 0.31658,-13.05673 3.62461,-19.04128 7.58422,-13.72059 19.40399,-21.46407 34.40096,-22.5371 16.38612,-1.17242 30.31055,5.12742 39.08465,17.6831 5.76098,8.24391 7.66867,15.62718 7.0522,27.29385 -0.5713,10.81177 -4.08427,18.75562 -16.73888,37.85143 -8.66857,13.08085 -20.38097,36.23496 -22.92114,45.3125 -0.81763,2.92188 -1.93648,5.3125 -2.48634,5.3125 -0.54986,0 -1.69707,-2.39062 -2.54936,-5.3125 z m 27.28362,-88.04282 c 2.3594,-4.71647 1.58404,-9.11878 -2.28801,-12.99083 -6.13392,-6.13393 -16.01226,-4.23245 -19.01295,3.65979 -1.20644,3.17311 -1.31464,3.20698 -2.59181,0.81136 -2.98085,-5.59129 -6.38964,-8.125 -10.93115,-8.125 -5.51155,0 -9.21303,2.43688 -11.27957,7.42595 -2.52607,6.09849 -0.56611,9.79338 11.58212,21.83439 11.46585,11.36466 11.46585,11.36466 22.3107,0.73966 5.96466,-5.84375 11.45947,-11.85365 12.21067,-13.35532 z"
         style="fill-opacity:1" />
      <path
         id="path4227"
         d="m 164.02911,278.12114 c -2.0321,-6.96659 -13.14211,-30.10386 -17.73667,-36.93767 -1.98763,-2.95634 -3.61387,-5.71574 -3.61387,-6.13201 0,-0.41626 -1.32745,-2.49744 -2.9499,-4.62483 -1.62245,-2.1274 -5.70057,-8.93049 -9.0625,-15.11799 -6.1126,-11.25 -6.1126,-11.25 -6.10376,-23.75 0.008,-11.43612 0.31658,-13.05673 3.62461,-19.04128 7.58422,-13.72059 19.40399,-21.46407 34.40096,-22.5371 16.38612,-1.17242 30.31055,5.12742 39.08465,17.6831 5.76098,8.24391 7.66867,15.62718 7.0522,27.29385 -0.5713,10.81177 -4.08427,18.75562 -16.73888,37.85143 -8.66857,13.08085 -20.38097,36.23496 -22.92114,45.3125 -0.81763,2.92188 -1.93648,5.3125 -2.48634,5.3125 -0.54986,0 -1.69707,-2.39062 -2.54936,-5.3125 z m 27.28362,-88.04282 c 2.3594,-4.71647 1.58404,-9.11878 -2.28801,-12.99083 -6.13392,-6.13393 -16.01226,-4.23245 -19.01295,3.65979 -1.20644,3.17311 -1.31464,3.20698 -2.59181,0.81136 -2.98085,-5.59129 -6.38964,-8.125 -10.93115,-8.125 -5.51155,0 -9.21303,2.43688 -11.27957,7.42595 -2.52607,6.09849 -0.56611,9.79338 11.58212,21.83439 11.46585,11.36466 11.46585,11.36466 22.3107,0.73966 5.96466,-5.84375 11.45947,-11.85365 12.21067,-13.35532 z"
         style="fill-opacity:1" />
      <path
         id="path4225"
         d="m 164.02911,278.12114 c -2.0321,-6.96659 -13.14211,-30.10386 -17.73667,-36.93767 -1.98763,-2.95634 -3.61387,-5.71574 -3.61387,-6.13201 0,-0.41626 -1.32745,-2.49744 -2.9499,-4.62483 -1.62245,-2.1274 -5.70057,-8.93049 -9.0625,-15.11799 -6.1126,-11.25 -6.1126,-11.25 -6.10376,-23.75 0.008,-11.43612 0.31658,-13.05673 3.62461,-19.04128 7.58422,-13.72059 19.40399,-21.46407 34.40096,-22.5371 16.38612,-1.17242 30.31055,5.12742 39.08465,17.6831 5.76098,8.24391 7.66867,15.62718 7.0522,27.29385 -0.5713,10.81177 -4.08427,18.75562 -16.73888,37.85143 -8.66857,13.08085 -20.38097,36.23496 -22.92114,45.3125 -0.81763,2.92188 -1.93648,5.3125 -2.48634,5.3125 -0.54986,0 -1.69707,-2.39062 -2.54936,-5.3125 z m 28.64946,-92.76942 c 0,-6.25916 -5.51276,-11.91808 -11.61027,-11.91808 -4.83324,0 -10.2944,3.65508 -11.59802,7.7624 -0.82006,2.58379 -0.93663,2.543 -2.77286,-0.97011 -2.64635,-5.06304 -5.15337,-6.70611 -10.30321,-6.75254 -5.40606,-0.0487 -9.12165,2.40492 -11.18497,7.3862 -2.52831,6.10388 -0.56839,9.79218 11.60531,21.8396 11.48902,11.36987 11.48902,11.36987 23.67652,-0.68361 11.03508,-10.91373 12.1875,-12.48942 12.1875,-16.66386 z"
         style="fill-opacity:1" />
      <path
         id="path4223"
         d="m 164.02911,278.12114 c -2.0321,-6.96659 -13.14211,-30.10386 -17.73667,-36.93767 -1.98763,-2.95634 -3.61387,-5.61067 -3.61387,-5.89852 0,-0.28784 -2.45851,-4.33777 -5.46335,-8.99983 -11.64441,-18.06648 -12.66261,-20.86101 -12.65281,-34.72648 0.008,-11.43612 0.31658,-13.05673 3.62461,-19.04128 7.58422,-13.72059 19.40399,-21.46407 34.40096,-22.5371 16.38612,-1.17242 30.31055,5.12742 39.08465,17.6831 5.76098,8.24391 7.66867,15.62718 7.0522,27.29385 -0.55918,10.58266 -4.31406,19.27415 -15.6206,36.15743 -11.9756,17.88235 -19.10826,31.86437 -23.6606,46.3815 -1.02405,3.26562 -2.31258,5.9375 -2.86341,5.9375 -0.55082,0 -1.69882,-2.39062 -2.55111,-5.3125 z m 28.64946,-92.76942 c 0,-8.78312 -9.91145,-14.72935 -17.64906,-10.5883 -1.3666,0.73137 -3.57751,3.122 -4.91315,5.3125 -1.42746,2.34107 -2.43036,3.15131 -2.43311,1.96567 -0.002,-1.10937 -1.48763,-3.5 -3.30013,-5.3125 -5.99667,-5.99666 -15.8591,-3.87207 -19.17388,4.1305 -2.57635,6.21988 -0.59602,9.95841 11.62664,21.94905 11.46769,11.25 11.46769,11.25 23.65519,-0.79827 11.03603,-10.90994 12.1875,-12.48385 12.1875,-16.65865 z"
         style="fill-opacity:1" />
      <path
         id="path4221"
         d="m 164.02911,278.12114 c -2.0321,-6.96659 -13.14211,-30.10386 -17.73667,-36.93767 -1.98763,-2.95634 -3.61387,-5.61067 -3.61387,-5.89852 0,-0.28784 -2.45851,-4.33777 -5.46335,-8.99983 -11.64441,-18.06648 -12.66261,-20.86101 -12.65281,-34.72648 0.008,-11.43612 0.31658,-13.05673 3.62461,-19.04128 7.58422,-13.72059 19.40399,-21.46407 34.40096,-22.5371 16.38612,-1.17242 30.31055,5.12742 39.08465,17.6831 5.76098,8.24391 7.66867,15.62718 7.0522,27.29385 -0.57118,10.80969 -4.08151,18.74899 -16.73581,37.85143 -11.81054,17.82872 -17.92075,29.93985 -22.54539,44.6875 -1.02405,3.26562 -2.31258,5.9375 -2.86341,5.9375 -0.55082,0 -1.69882,-2.39062 -2.55111,-5.3125 z m 28.64946,-92.76942 c 0,-8.78312 -9.91145,-14.72935 -17.64906,-10.5883 -1.3666,0.73137 -3.57751,3.122 -4.91315,5.3125 -1.42746,2.34107 -2.43036,3.15131 -2.43311,1.96567 -0.002,-1.10937 -1.48763,-3.5 -3.30013,-5.3125 -5.99667,-5.99666 -15.8591,-3.87207 -19.17388,4.1305 -2.57635,6.21988 -0.59602,9.95841 11.62664,21.94905 11.46769,11.25 11.46769,11.25 23.65519,-0.79827 11.03603,-10.90994 12.1875,-12.48385 12.1875,-16.65865 z"
         style="fill-opacity:1" />
      <path
         id="path4219"
         d="m 163.99431,278.12114 c -0.87141,-2.92188 -2.50356,-7.5625 -3.62699,-10.3125 -2.97554,-7.28371 -15.33888,-29.92871 -16.60641,-30.41667 -0.59529,-0.22916 -1.08234,-0.91475 -1.08234,-1.52352 0,-0.60877 -2.45851,-4.92127 -5.46335,-9.58333 -11.64441,-18.06648 -12.66261,-20.86101 -12.65281,-34.72648 0.008,-11.43612 0.31658,-13.05673 3.62461,-19.04128 7.58422,-13.72059 19.40399,-21.46407 34.40096,-22.5371 16.38612,-1.17242 30.31055,5.12742 39.08465,17.6831 5.76098,8.24391 7.66867,15.62718 7.0522,27.29385 -0.57118,10.80969 -4.08151,18.74899 -16.73581,37.85143 -11.81054,17.82872 -17.92075,29.93985 -22.54539,44.6875 -1.02405,3.26562 -2.31258,5.9375 -2.86341,5.9375 -0.55082,0 -1.71449,-2.39062 -2.58591,-5.3125 z m 28.68426,-92.76942 c 0,-8.78312 -9.91145,-14.72935 -17.64906,-10.5883 -1.3666,0.73137 -3.57751,3.122 -4.91315,5.3125 -1.42746,2.34107 -2.43036,3.15131 -2.43311,1.96567 -0.002,-1.10937 -1.48763,-3.5 -3.30013,-5.3125 -9.5136,-9.51359 -25.26387,2.24959 -18.74579,14.0004 0.8911,1.60647 6.35554,7.51272 12.1432,13.125 10.52304,10.20415 10.52304,10.20415 22.71054,-1.84412 11.03603,-10.90994 12.1875,-12.48385 12.1875,-16.65865 z"
         style="fill-opacity:1" />
      <path
         id="path4217"
         d="m 164.17968,279.28239 c -0.82561,-2.28319 -1.50111,-4.87229 -1.50111,-5.75358 0,-3.58391 -13.82582,-29.28645 -25.26603,-46.97017 -11.83286,-18.29066 -12.85997,-21.08821 -12.85013,-35 0.008,-11.43612 0.31658,-13.05673 3.62461,-19.04128 7.58422,-13.72059 19.40399,-21.46407 34.40096,-22.5371 16.38612,-1.17242 30.31055,5.12742 39.08465,17.6831 5.75489,8.23519 7.66362,15.60829 7.07225,27.31892 -0.54043,10.70228 -4.33968,19.14807 -17.62822,39.18776 -11.50646,17.35227 -16.92448,28.18331 -21.67303,43.3261 -1.02405,3.26562 -2.28962,5.9375 -2.81237,5.9375 -0.52276,0 -1.62596,-1.86806 -2.45158,-4.15125 z m 28.49889,-93.93908 c 0,-6.54061 -5.49361,-11.90967 -12.18595,-11.90967 -4.93052,0 -8.12622,2.2866 -11.35532,8.125 -1.08303,1.95817 -1.39094,2.06284 -1.42072,0.48295 -0.0209,-1.10937 -1.52096,-3.5 -3.33346,-5.3125 -9.5136,-9.51359 -25.26387,2.24959 -18.74579,14.0004 0.8911,1.60647 6.35554,7.51272 12.1432,13.125 10.52304,10.20415 10.52304,10.20415 22.71054,-1.85253 11.02649,-10.90813 12.1875,-12.49507 12.1875,-16.65865 z"
         style="fill-opacity:1" />
      <path
         id="path4215"
         d="m 164.17968,279.28239 c -0.82561,-2.28319 -1.50111,-4.82034 -1.50111,-5.63811 0,-2.61292 -12.39236,-26.71555 -19.38891,-37.71064 -18.02319,-28.32345 -19.98025,-33.23823 -19.00525,-47.72803 1.04882,-15.58679 8.92026,-27.24749 23.20236,-34.37183 6.26175,-3.12356 8.4196,-3.52514 18.9418,-3.52514 10.45155,0 12.70065,0.41206 18.76288,3.4376 8.071,4.02806 12.1957,7.62157 17.35433,15.1194 4.92364,7.15626 6.76485,14.91323 6.1991,26.11664 -0.54043,10.70228 -4.33968,19.14807 -17.62822,39.18776 -11.50646,17.35227 -16.92448,28.18331 -21.67303,43.3261 -1.02405,3.26562 -2.28962,5.9375 -2.81237,5.9375 -0.52276,0 -1.62596,-1.86806 -2.45158,-4.15125 z m 17.91397,-78.37716 c 11.62967,-10.32482 13.612,-17.13682 6.93107,-23.81774 -6.54841,-6.54842 -14.82142,-4.68846 -19.88742,4.47115 -1.08303,1.95817 -1.39094,2.06284 -1.42072,0.48295 -0.0209,-1.10937 -1.52096,-3.5 -3.33346,-5.3125 -9.5136,-9.51359 -25.26387,2.24959 -18.74579,14.0004 0.8911,1.60647 6.35554,7.51272 12.1432,13.125 10.52304,10.20415 10.52304,10.20415 14.93812,5.82915 2.4283,-2.40625 6.64705,-6.35654 9.375,-8.77841 z"
         style="fill-opacity:1" />
      <path
         id="path4213"
         d="m 164.17968,279.28239 c -0.82561,-2.28319 -1.50111,-4.82034 -1.50111,-5.63811 0,-2.61292 -12.39236,-26.71555 -19.38891,-37.71064 -17.98644,-28.2657 -19.97908,-33.2544 -19.01386,-47.60237 1.03168,-15.33592 9.20738,-27.51425 23.13396,-34.45982 6.35944,-3.17162 8.44767,-3.56089 19.01881,-3.54535 10.53724,0.0155 12.68793,0.42084 19.09115,3.5982 7.76503,3.85311 16.59071,12.66563 20.42815,20.39766 1.82794,3.68309 2.35138,7.51707 2.35326,17.23668 0.002,12.07658 -0.16555,12.83433 -4.95685,22.37 -2.7276,5.4285 -5.55452,10.491 -6.28206,11.25 -2.30699,2.40678 -13.84692,21.04702 -18.58982,30.02776 -2.51188,4.75626 -6.02828,13.05314 -7.81423,18.4375 -1.78596,5.38435 -3.63647,9.78974 -4.11229,9.78974 -0.4758,0 -1.54058,-1.86806 -2.3662,-4.15125 z m 16.79315,-77.27965 c 3.47449,-3.19325 7.52967,-7.34723 9.0115,-9.23107 6.29243,-7.99953 0.65273,-19.33803 -9.6186,-19.33803 -4.2582,0 -5.57836,0.69541 -8.84616,4.6598 -2.11255,2.5629 -3.841,3.94229 -3.841,3.06532 0,-0.87697 -1.48839,-2.97388 -3.30752,-4.65981 -9.80267,-9.08479 -25.18507,2.60002 -18.73372,14.23054 0.8911,1.60646 6.35554,7.51624 12.1432,13.13283 10.52304,10.21198 10.52304,10.21198 13.69904,7.07915 1.7468,-1.72306 6.01878,-5.74549 9.49326,-8.93873 z"
         style="fill-opacity:1" />
      <path
         id="path4211"
         d="m 164.17968,279.28239 c -0.82561,-2.28319 -1.50111,-4.82034 -1.50111,-5.63811 0,-2.73288 -12.43362,-26.95734 -19.35564,-37.71064 -10.55537,-16.3977 -16.76527,-27.64316 -18.29209,-33.125 -2.05417,-7.37526 -0.67783,-22.85635 2.60393,-29.28914 4.0903,-8.01766 11.78553,-15.66349 19.77499,-19.64805 6.35944,-3.17162 8.44767,-3.56089 19.01881,-3.54535 10.53724,0.0155 12.68793,0.42084 19.09115,3.5982 7.82864,3.88467 16.69775,12.77741 20.34348,20.39766 2.84812,5.95313 3.94843,23.27345 1.87717,29.54941 -1.78924,5.42145 -8.01221,16.60135 -18.3752,33.01203 -10.5369,16.68608 -14.87542,25.20889 -18.69601,36.72736 -1.792,5.40258 -3.64746,9.82288 -4.12328,9.82288 -0.4758,0 -1.54058,-1.86806 -2.3662,-4.15125 z m 15.37389,-75.82334 c 10.03515,-9.02744 13.125,-13.38017 13.125,-18.48941 0,-6.21088 -5.68371,-11.536 -12.31284,-11.536 -4.2582,0 -5.57836,0.69541 -8.84616,4.6598 -2.11255,2.5629 -3.841,3.94229 -3.841,3.06532 0,-0.87697 -1.48839,-2.97388 -3.30752,-4.65981 -9.48897,-8.79407 -24.80566,2.10707 -19.07975,13.57937 0.7495,1.50167 6.23387,7.54459 12.1875,13.42869 9.80475,9.69027 11.00146,10.50994 12.69977,8.69865 1.03125,-1.09986 5.25,-5.03583 9.375,-8.74661 z"
         style="fill-opacity:1" />
      <path
         id="path4209"
         d="m 164.17968,279.28239 c -0.82561,-2.28319 -1.50111,-4.82034 -1.50111,-5.63811 0,-2.73288 -12.43362,-26.95734 -19.35564,-37.71064 -10.55537,-16.3977 -16.76527,-27.64316 -18.29209,-33.125 -2.05417,-7.37526 -0.67783,-22.85635 2.60393,-29.28914 7.35454,-14.4161 22.40936,-23.84598 38.04283,-23.82889 17.17528,0.0188 31.87037,8.89311 39.628,23.93126 3.39413,6.57953 4.73767,23.27164 2.43477,30.2495 -1.78924,5.42145 -8.01221,16.60135 -18.3752,33.01203 -10.5369,16.68608 -14.87542,25.20889 -18.69601,36.72737 -1.792,5.40257 -3.64746,9.82287 -4.12328,9.82287 -0.4758,0 -1.54058,-1.86806 -2.3662,-4.15125 z m 15.37389,-75.82334 c 10.03515,-9.02744 13.125,-13.38017 13.125,-18.48941 0,-6.21088 -5.68371,-11.536 -12.31284,-11.536 -4.2582,0 -5.57836,0.69541 -8.84616,4.6598 -2.11255,2.5629 -3.841,3.94229 -3.841,3.06532 0,-0.87697 -1.48839,-2.97388 -3.30752,-4.65981 -9.48897,-8.79407 -24.80566,2.10707 -19.07975,13.57937 0.7495,1.50167 6.23387,7.54459 12.1875,13.42869 9.80475,9.69027 11.00146,10.50994 12.69977,8.69865 1.03125,-1.09986 5.25,-5.03583 9.375,-8.74661 z"
         style="fill-opacity:1" />
      <path
         id="path4207"
         d="m 164.17968,279.28239 c -0.82561,-2.28319 -1.50111,-4.82034 -1.50111,-5.63811 0,-2.71274 -12.40941,-26.91916 -19.33234,-37.71064 -9.44642,-14.72509 -16.33914,-27.23461 -18.17388,-32.98359 -2.12759,-6.66656 -1.01817,-21.24555 2.16264,-28.41942 12.12202,-27.33951 50.68414,-33.38483 70.81566,-11.10166 7.66583,8.48517 9.93302,14.30078 10.47888,26.87967 0.4882,11.25 0.4882,11.25 -5.20633,22.5 -3.132,6.1875 -8.99695,16.3125 -13.03323,22.5 -10.04926,15.40523 -15.8899,26.75251 -19.7318,38.33526 -1.78596,5.38435 -3.63647,9.78974 -4.11229,9.78974 -0.4758,0 -1.54058,-1.86806 -2.3662,-4.15125 z m 15.31723,-75.69263 c 13.7306,-12.01533 16.28589,-18.77515 9.94555,-26.31021 -2.69789,-3.20625 -4.13806,-3.84591 -8.659,-3.84591 -4.74048,0 -5.90623,0.58638 -9.26389,4.6598 -2.11255,2.5629 -3.841,3.94229 -3.841,3.06532 0,-0.87697 -1.48839,-2.97388 -3.30752,-4.65981 -9.48897,-8.79407 -24.80566,2.10707 -19.07975,13.57937 0.7495,1.50167 6.23387,7.54459 12.1875,13.42869 10.09051,9.97269 10.95905,10.55304 12.80435,8.5558 1.08876,-1.17841 5.23495,-4.99128 9.21376,-8.47305 z"
         style="fill-opacity:1" />
      <path
         id="path4205"
         d="m 164.17968,279.28239 c -0.82561,-2.28319 -1.50111,-4.82034 -1.50111,-5.63811 0,-2.71274 -12.40941,-26.91916 -19.33234,-37.71064 -9.44642,-14.72509 -16.33914,-27.23461 -18.17388,-32.98359 -2.29279,-7.18421 -1.02793,-21.59082 2.54332,-28.96804 9.05229,-18.69954 29.21179,-27.98579 49.60604,-22.85046 19.27709,4.85403 31.60686,21.04396 31.60686,41.50221 0,8.2927 -0.50034,10.10338 -5.59996,20.2656 -3.07998,6.13761 -8.90236,16.22178 -12.93864,22.40928 -10.04926,15.40523 -15.8899,26.75251 -19.7318,38.33526 -1.78596,5.38435 -3.63647,9.78974 -4.11229,9.78974 -0.4758,0 -1.54058,-1.86806 -2.3662,-4.15125 z m 15.31723,-75.69263 c 13.7306,-12.01533 16.28589,-18.77515 9.94555,-26.31021 -2.69789,-3.20625 -4.13806,-3.84591 -8.659,-3.84591 -4.74048,0 -5.90623,0.58638 -9.26389,4.6598 -2.11255,2.5629 -3.841,3.94358 -3.841,3.06819 0,-0.8754 -1.38069,-2.97231 -3.06819,-4.65981 -4.53882,-4.53883 -12.16578,-4.27651 -17.02796,0.58567 -3.87081,3.8708 -4.64684,8.27097 -2.29112,12.99083 0.7495,1.50167 6.23387,7.54459 12.1875,13.42869 10.09051,9.97269 10.95905,10.55304 12.80435,8.5558 1.08876,-1.17841 5.23495,-4.99128 9.21376,-8.47305 z"
         style="fill-opacity:1" />
      <path
         id="path4203"
         d="m 164.17968,279.28239 c -0.82561,-2.28319 -1.50111,-4.85192 -1.50111,-5.70831 0,-3.9512 -15.76405,-33.02546 -26.93658,-49.68018 -1.44437,-2.15312 -4.55265,-7.77812 -6.90728,-12.5 -3.92179,-7.86463 -4.28114,-9.52957 -4.28114,-19.83526 0,-9.3985 0.5018,-12.26967 3.04898,-17.44565 9.3001,-18.8982 29.27253,-28.12996 49.71916,-22.98144 19.19765,4.83403 31.60686,21.05494 31.60686,41.31544 0,8.05822 -0.5434,10.01525 -5.62706,20.26561 -3.09489,6.24032 -8.91729,16.40854 -12.93865,22.59604 -10.06004,15.47893 -15.87738,26.79651 -19.70469,38.33526 -1.78596,5.38435 -3.63647,9.78974 -4.11229,9.78974 -0.4758,0 -1.54058,-1.86806 -2.3662,-4.15125 z m 25.68639,-86.33969 c 6.19006,-8.24188 0.88733,-19.75906 -9.09746,-19.75906 -4.1703,0 -5.59125,0.7417 -9.02006,4.70826 -2.23849,2.58955 -4.06998,4.02648 -4.06998,3.19318 0,-0.83329 -1.38069,-2.89576 -3.06819,-4.58326 -4.53882,-4.53883 -12.16578,-4.27651 -17.02796,0.58567 -3.87081,3.8708 -4.64684,8.27097 -2.29112,12.99083 0.7495,1.50167 6.23387,7.5161 12.1875,13.3654 10.82477,10.63508 10.82477,10.63508 20.19977,1.9394 5.15625,-4.78261 10.64063,-10.38081 12.1875,-12.44042 z"
         style="fill-opacity:1" />
      <path
         id="path4201"
         d="m 164.17968,279.28239 c -0.82561,-2.28319 -1.50111,-4.85192 -1.50111,-5.70831 0,-3.9512 -15.76405,-33.02546 -26.93658,-49.68018 -1.44437,-2.15312 -4.55265,-7.77812 -6.90728,-12.5 -3.92179,-7.86463 -4.28114,-9.52957 -4.28114,-19.83526 0,-9.3985 0.5018,-12.26967 3.04898,-17.44565 9.3001,-18.8982 29.27253,-28.12996 49.71916,-22.98144 19.19765,4.83403 31.60686,21.05494 31.60686,41.31544 0,8.05822 -0.5434,10.01525 -5.62706,20.26561 -3.09489,6.24032 -8.91729,16.40854 -12.93865,22.59604 -10.06004,15.47893 -15.87738,26.79651 -19.70469,38.33526 -1.78596,5.38435 -3.63647,9.78974 -4.11229,9.78974 -0.4758,0 -1.54058,-1.86806 -2.3662,-4.15125 z m 25.68639,-86.33969 c 6.19006,-8.24188 0.88733,-19.75906 -9.09746,-19.75906 -4.12656,0 -5.59501,0.74606 -8.82654,4.48438 -3.87644,4.48439 -3.87644,4.48439 -5.32276,1.31005 -0.79549,-1.74588 -3.41383,-3.9964 -5.81854,-5.00116 -10.10527,-4.22225 -20.34657,6.40992 -15.50947,16.10141 0.7495,1.50167 6.23387,7.5161 12.1875,13.3654 10.82477,10.63508 10.82477,10.63508 20.19977,1.9394 5.15625,-4.78261 10.64063,-10.38081 12.1875,-12.44042 z"
         style="fill-opacity:1" />
      <path
         id="path4199"
         d="m 164.17968,279.28239 c -0.82561,-2.28319 -1.50111,-4.91397 -1.50111,-5.84621 0,-4.30459 -14.59108,-31.14104 -26.93634,-49.54228 -1.4445,-2.15312 -4.53337,-7.74967 -6.86415,-12.43679 -16.68004,-33.54308 12.16339,-69.46103 48.44363,-60.32556 19.19967,4.83454 31.60686,21.05466 31.60686,41.32019 0,7.84704 -0.59966,10.16323 -4.96771,19.18759 -2.73224,5.6448 -7.72461,14.42635 -11.09416,19.51455 -10.38644,15.68409 -18.57442,31.1866 -22.16588,41.96726 -1.88952,5.67187 -3.79202,10.3125 -4.22776,10.3125 -0.43575,0 -1.46776,-1.86806 -2.29338,-4.15125 z m 26.30315,-86.95984 c 5.40408,-8.09375 -0.20205,-19.13891 -9.71422,-19.13891 -4.12656,0 -5.59501,0.74606 -8.82654,4.48438 -3.87644,4.48439 -3.87644,4.48439 -5.32276,1.31005 -0.79549,-1.74588 -3.41383,-3.9964 -5.81854,-5.00116 -10.10527,-4.22225 -20.34657,6.40992 -15.50947,16.10141 0.7495,1.50167 6.23387,7.51157 12.1875,13.35532 10.82477,10.625 10.82477,10.625 20.82477,1.38891 5.5,-5.07985 10.98066,-10.70485 12.17926,-12.5 z"
         style="fill-opacity:1" />
      <path
         id="path4197"
         d="m 164.17968,279.28239 c -0.82561,-2.28319 -1.50111,-4.87218 -1.50111,-5.75331 0,-4.30216 -18.41066,-38.44694 -25.66319,-47.59544 -2.57399,-3.2469 -9.43798,-16.51042 -11.28141,-21.79946 -3.61349,-10.36759 -1.57678,-25.24008 4.82793,-35.25451 7.40985,-11.58606 21.23537,-19.19603 34.87467,-19.19603 25.09943,0 43.492,18.08644 43.492,42.7681 0,7.84704 -0.59966,10.16323 -4.96771,19.18759 -2.73224,5.6448 -7.76805,14.49195 -11.19069,19.66032 -11.02752,16.65215 -18.13126,30.0624 -21.83879,41.22669 -1.9922,5.99901 -3.98857,10.9073 -4.43638,10.9073 -0.44782,0 -1.4897,-1.86806 -2.31532,-4.15125 z m 26.30315,-86.95984 c 5.49149,-8.22467 0.0424,-18.9848 -9.75496,-19.26251 -3.93046,-0.11142 -5.33171,0.61219 -8.67495,4.47974 -3.98729,4.61263 -3.98729,4.61263 -5.43361,1.43829 -0.79549,-1.74588 -3.41383,-3.9964 -5.81854,-5.00116 -10.10527,-4.22225 -20.34657,6.40992 -15.50947,16.10141 0.7495,1.50167 6.23387,7.51157 12.1875,13.35532 10.82477,10.625 10.82477,10.625 20.82477,1.38891 5.5,-5.07985 10.98066,-10.70485 12.17926,-12.5 z"
         style="fill-opacity:1" />
      <path
         id="path4195"
         d="m 163.98511,277.49614 c -2.69409,-10.73386 -18.38613,-40.73494 -26.96973,-51.5625 -2.57399,-3.2469 -9.43798,-16.51042 -11.28141,-21.79946 -3.61349,-10.36759 -1.57678,-25.24008 4.82793,-35.25451 7.40985,-11.58606 21.23537,-19.19603 34.87467,-19.19603 25.09943,0 43.492,18.08644 43.492,42.7681 0,7.84704 -0.59966,10.16323 -4.96771,19.18759 -2.73224,5.6448 -7.76805,14.49195 -11.19069,19.66032 -11.02752,16.65215 -18.13126,30.0624 -21.83879,41.22669 -1.9922,5.99901 -4.0348,10.9073 -4.5391,10.9073 -0.50431,0 -1.58753,-2.67188 -2.40717,-5.9375 z m 26.49772,-85.17359 c 5.49149,-8.22467 0.0424,-18.9848 -9.75496,-19.26251 -3.93046,-0.11142 -5.33171,0.61219 -8.67495,4.47974 -3.98729,4.61263 -3.98729,4.61263 -5.43361,1.43829 -0.79549,-1.74588 -3.41383,-3.9964 -5.81854,-5.00116 -10.10527,-4.22225 -20.34657,6.40992 -15.50947,16.10141 0.7495,1.50167 6.23387,7.51157 12.1875,13.35532 10.82477,10.625 10.82477,10.625 20.82477,1.38891 5.5,-5.07985 10.98066,-10.70485 12.17926,-12.5 z"
         style="fill-opacity:1" />
      <path
         id="path4193"
         d="m 163.98511,277.49614 c -2.69409,-10.73386 -18.38613,-40.73494 -26.96973,-51.5625 -2.57399,-3.2469 -9.43798,-16.51042 -11.28141,-21.79946 -3.61349,-10.36759 -1.57678,-25.24008 4.82793,-35.25451 7.40985,-11.58606 21.23537,-19.19603 34.87467,-19.19603 25.09943,0 43.492,18.08644 43.492,42.7681 0,7.87485 -0.59524,10.15409 -5.06175,19.38189 -2.78397,5.75167 -7.79001,14.5115 -11.12454,19.46629 -10.42453,15.48987 -18.05171,29.90656 -21.8109,41.22642 -1.9922,5.99901 -4.0348,10.9073 -4.5391,10.9073 -0.50431,0 -1.58753,-2.67188 -2.40717,-5.9375 z m 26.49772,-85.17359 c 3.37495,-5.05469 2.8486,-11.56545 -1.24176,-15.36049 -1.89062,-1.75412 -4.81052,-3.52228 -6.48867,-3.92925 -4.13065,-1.00174 -10.6435,2.28842 -12.47145,6.30032 -1.49402,3.27901 -1.49402,3.27901 -3.80552,-0.52193 -7.73417,-12.71784 -27.82258,-2.03351 -21.18413,11.26712 0.7495,1.50167 6.23387,7.51157 12.1875,13.35532 10.82477,10.625 10.82477,10.625 20.82477,1.38891 5.5,-5.07985 10.98066,-10.70485 12.17926,-12.5 z"
         style="fill-opacity:1" />
      <path
         id="path4191"
         d="m 163.99337,277.49614 c -1.87932,-7.52948 -11.22806,-27.38418 -17.17328,-36.47238 -19.57966,-29.93059 -22.85172,-36.92135 -22.8598,-48.84012 -0.0192,-28.30636 25.62619,-48.0359 53.36142,-41.05209 19.19967,4.83454 31.60686,21.05466 31.60686,41.32019 0,7.85348 -0.59866,10.16114 -4.98917,19.23193 -2.74404,5.66919 -8.12993,14.99152 -11.96864,20.71629 -10.01981,14.94283 -17.29396,28.8785 -21.25564,40.72118 -1.89739,5.67187 -3.85254,10.3125 -4.34479,10.3125 -0.49223,0 -1.56186,-2.67188 -2.37696,-5.9375 z m 26.67889,-85.50599 c 1.30952,-2.06827 2.33222,-5.47482 2.27265,-7.57013 -0.12504,-4.39759 -5.2262,-10.39156 -9.82633,-11.54611 -4.12418,-1.03511 -10.99905,2.42396 -12.83763,6.45922 -1.49402,3.27901 -1.49402,3.27901 -3.80552,-0.52193 -7.7337,-12.71706 -27.79842,-2.0495 -21.19242,11.26712 0.74494,1.50167 6.22931,7.5331 12.1875,13.40316 10.83306,10.67285 10.83306,10.67285 20.82692,1.471 5.49662,-5.06102 11.06529,-10.89407 12.37483,-12.96233 z"
         style="fill-opacity:1" />
      <path
         id="path4189"
         d="m 163.99337,277.49614 c -1.87932,-7.52948 -11.22806,-27.38418 -17.17328,-36.47238 -19.57966,-29.93059 -22.85172,-36.92135 -22.8598,-48.84012 -0.008,-11.91188 4.94136,-23.66291 13.26409,-31.49183 1.96856,-1.85176 6.95419,-4.94551 11.07919,-6.875 6.3887,-2.98835 9.07434,-3.50551 18.125,-3.49021 9.0498,0.0153 11.79259,0.55442 18.5006,3.63652 15.18859,6.97863 23.9994,21.10881 23.9994,38.48862 0,7.83977 -0.6008,10.16556 -4.94371,19.13801 -2.71904,5.61753 -8.04524,14.82108 -11.83599,20.45233 -9.8807,14.67797 -17.46361,29.21108 -21.43375,41.07906 -1.89739,5.67187 -3.85254,10.3125 -4.34479,10.3125 -0.49223,0 -1.56186,-2.67188 -2.37696,-5.9375 z m 26.67889,-85.50599 c 1.30952,-2.06827 2.33222,-5.47482 2.27265,-7.57013 -0.12504,-4.39759 -5.2262,-10.39156 -9.82633,-11.54611 -4.12418,-1.03511 -10.99905,2.42396 -12.83763,6.45922 -1.49402,3.27901 -1.49402,3.27901 -3.80552,-0.52193 -2.60732,-4.28741 -8.0151,-6.66928 -12.9849,-5.71924 -4.20448,0.80374 -9.56196,7.04805 -9.56196,11.14476 0,4.96475 2.06522,7.90474 13.55655,19.29876 10.81845,10.72684 10.81845,10.72684 20.81231,1.471 5.49662,-5.09072 11.06529,-10.94807 12.37483,-13.01633 z"
         style="fill-opacity:1" />
      <path
         id="path4187"
         d="m 163.99337,277.49614 c -1.87932,-7.52948 -11.22806,-27.38418 -17.17328,-36.47238 -19.60172,-29.96431 -22.84189,-36.89559 -22.87333,-48.92995 -0.0336,-12.88175 6.12097,-25.73651 15.88935,-33.1871 13.5469,-10.33257 30.47287,-11.9443 45.86397,-4.36729 15.15523,7.4609 23.22849,20.68872 23.22849,38.05928 0,8.19545 -0.51536,10.09174 -5.33784,19.64061 -2.93581,5.81313 -8.48556,15.35058 -12.33278,21.19433 -10.11087,15.35792 -16.62008,27.93037 -20.54764,39.6875 -1.89475,5.67187 -3.84773,10.3125 -4.33998,10.3125 -0.49223,0 -1.56186,-2.67188 -2.37696,-5.9375 z m 27.48098,-87.33519 c 1.8717,-3.82692 2.22283,-5.91159 1.36857,-8.125 -1.41326,-3.66175 -6.09635,-8.02916 -9.81954,-9.15762 -3.82737,-1.16004 -10.90685,2.42613 -12.74243,6.4548 -1.49402,3.27901 -1.49402,3.27901 -3.82645,-0.55637 -4.57679,-7.52592 -14.30039,-7.96305 -19.86177,-0.8929 -5.4852,6.9733 -3.69228,11.19398 10.89239,25.64152 10.81845,10.71674 10.81845,10.71674 21.14501,1.25 5.71063,-5.23514 11.45194,-11.76774 12.84422,-14.61443 z"
         style="fill-opacity:1" />
      <path
         id="path4185"
         d="m 163.57738,276.24614 c -2.53423,-9.0573 -12.70969,-29.32122 -20.87045,-41.5625 -17.80562,-26.70872 -21.88923,-40.33218 -16.70044,-55.71483 2.71188,-8.0396 4.82387,-11.36923 10.97505,-17.3026 8.35323,-8.05745 16.91767,-11.35877 29.44703,-11.3509 8.9831,0.006 11.76896,0.54138 18.02776,3.46689 15.59328,7.28867 24.47224,21.37198 24.47224,38.8165 0,8.19545 -0.51536,10.09174 -5.33784,19.64061 -2.93581,5.81313 -8.48556,15.35058 -12.33278,21.19433 -10.11087,15.35792 -16.62008,27.93037 -20.54764,39.6875 -1.89475,5.67187 -3.82229,10.3125 -4.28343,10.3125 -0.46113,0 -1.74341,-3.23438 -2.8495,-7.1875 z m 15.70652,-72.10317 c 11.65032,-11.213 15.39232,-17.36115 13.51908,-22.21204 -1.37816,-3.56889 -6.09621,-7.9362 -9.7796,-9.0526 -3.82737,-1.16004 -10.90685,2.42613 -12.74243,6.4548 -1.49402,3.27901 -1.49402,3.27901 -3.82645,-0.55637 -4.57679,-7.52592 -14.30039,-7.96305 -19.86177,-0.8929 -5.4698,6.95372 -3.71647,11.10701 10.8945,25.80703 5.94899,5.98523 10.82277,10.90711 10.83062,10.9375 0.007,0.0304 4.94257,-4.68805 10.96605,-10.48542 z"
         style="fill-opacity:1" />
      <path
         id="path4183"
         d="m 163.57738,276.24614 c -2.53423,-9.0573 -12.70969,-29.32122 -20.87045,-41.5625 -17.80562,-26.70872 -21.88923,-40.33218 -16.70044,-55.71483 2.6573,-7.87779 4.84003,-11.27883 11.0359,-17.19568 11.30506,-10.79596 26.52842,-14.63691 40.82059,-10.2993 8.78685,2.66677 12.52813,4.94803 19.51784,11.90109 8.16788,8.12505 11.54775,16.67845 11.54775,29.22378 0,8.19545 -0.51536,10.09174 -5.33784,19.64061 -2.93581,5.81313 -8.48556,15.35058 -12.33278,21.19433 -10.11087,15.35792 -16.62008,27.93037 -20.54764,39.6875 -1.89475,5.67187 -3.82229,10.3125 -4.28343,10.3125 -0.46113,0 -1.74341,-3.23438 -2.8495,-7.1875 z m 28.58158,-87.24691 c 1.64444,-3.93572 1.62665,-4.86404 -0.1656,-8.64092 -4.57311,-9.63712 -16.81618,-10.0682 -21.77263,-0.76662 -1.61618,3.03304 -1.61618,3.03304 -3.36086,-0.29679 -3.79114,-7.23564 -13.52251,-8.76869 -18.94106,-2.98392 -7.37327,7.87161 -5.79424,12.50413 9.22559,27.0659 5.7938,5.6171 10.53417,10.65537 10.53417,11.19615 0,2.27153 22.79611,-21.54276 24.48039,-25.5738 z"
         style="fill-opacity:1" />
      <path
         id="path4181"
         d="m 166.04633,282.57643 c -0.34792,-0.56294 -1.84015,-4.60815 -3.31607,-8.98937 -3.3349,-9.89951 -11.74385,-26.20549 -20.70699,-40.15342 -13.91727,-21.65726 -18.0922,-31.19599 -18.09368,-41.33983 -0.004,-27.87982 27.54529,-48.62865 53.93339,-40.61998 8.91224,2.70483 12.68414,5.03793 19.65694,12.15873 8.16389,8.33717 11.40865,16.5755 11.40865,28.96614 0,8.19545 -0.51536,10.09174 -5.33784,19.64061 -2.93581,5.81313 -8.48556,15.35058 -12.33278,21.19433 -9.94273,15.10252 -16.55689,27.83265 -20.458,39.375 -3.71445,10.99004 -3.83947,11.24692 -4.75362,9.76779 z m 26.07039,-93.47612 c 1.69534,-4.05751 1.68294,-4.9355 -0.12337,-8.742 -2.36098,-4.97538 -8.99475,-8.61636 -13.59513,-7.46173 -3.38676,0.85002 -9.43869,6.26641 -9.51971,8.52001 -0.0275,0.76563 -0.88554,-0.14775 -1.90669,-2.02974 -2.44637,-4.50868 -8.48919,-7.57845 -12.97752,-6.59265 -3.66207,0.80433 -7.48848,4.29661 -9.96129,9.09147 -2.13411,4.13811 1.10154,10.04835 10.25621,18.73397 10.28846,9.7613 13.38935,13.01872 13.38935,14.06519 0,2.24441 22.77121,-21.59497 24.43815,-25.58452 z"
         style="fill-opacity:1" />
      <path
         id="path4179"
         d="m 165.99493,282.49326 c -0.31965,-0.5172 -1.78875,-4.52498 -3.26467,-8.9062 -3.3349,-9.89951 -11.74385,-26.20549 -20.70699,-40.15342 -13.91727,-21.65726 -18.0922,-31.19599 -18.09368,-41.33983 -0.004,-27.87982 27.54529,-48.62865 53.93339,-40.61998 8.91224,2.70483 12.68414,5.03793 19.65694,12.15873 8.16389,8.33717 11.40865,16.5755 11.40865,28.96614 0,8.19545 -0.51536,10.09174 -5.33784,19.64061 -2.93581,5.81313 -8.5358,15.39929 -12.44441,21.30257 -10.64085,16.07115 -19.2744,33.42336 -22.1803,44.57926 -1.39322,5.34866 -1.90349,6.09954 -2.97109,4.37212 z m 26.12179,-93.39295 c 1.70371,-4.07756 1.68496,-4.93125 -0.19532,-8.89366 -2.45877,-5.18147 -8.18992,-8.55829 -12.63265,-7.44324 -4.64899,1.16682 -8.90583,4.30719 -9.8436,7.26185 -0.79705,2.51127 -0.90222,2.48188 -2.58044,-0.72111 -2.31451,-4.41742 -8.39491,-7.49293 -12.8704,-6.50995 -3.66207,0.80433 -7.48848,4.29661 -9.96129,9.09147 -2.14233,4.15404 1.25771,10.37616 10.31868,18.88329 10.05501,9.44042 13.32687,12.85689 13.32687,13.91587 0,2.24441 22.77121,-21.59497 24.43815,-25.58452 z"
         style="fill-opacity:1" />
      <path
         id="path4177"
         d="m 165.99493,282.49326 c -0.31965,-0.5172 -1.78875,-4.52498 -3.26467,-8.9062 -3.3349,-9.89951 -11.74385,-26.20549 -20.70699,-40.15342 -13.91727,-21.65726 -18.0922,-31.19599 -18.09368,-41.33983 -0.004,-27.87982 27.54529,-48.62865 53.93339,-40.61998 8.91224,2.70483 12.68414,5.03793 19.65694,12.15873 8.16389,8.33717 11.40865,16.5755 11.40865,28.96614 0,8.19545 -0.51536,10.09174 -5.33784,19.64061 -2.93581,5.81313 -8.5358,15.39929 -12.44441,21.30257 -10.64085,16.07115 -19.2744,33.42336 -22.1803,44.57926 -1.39322,5.34866 -1.90349,6.09954 -2.97109,4.37212 z m 26.01742,-93.14314 c 1.71482,-4.10416 1.73367,-5.18368 0.15647,-8.95846 -1.79524,-4.29659 -7.33965,-8.21223 -11.61567,-8.20335 -3.5198,0.007 -10.05819,4.5293 -11.04514,7.63888 -0.8936,2.81547 -0.89413,2.81537 -2.6433,-0.52304 -3.79266,-7.23858 -13.5942,-8.79306 -18.87296,-2.99317 -7.21383,7.92601 -5.98943,12.84541 6.00192,24.11471 10.30956,9.68877 13.6849,13.19228 13.6849,14.20457 0,2.30145 22.63459,-21.21343 24.33378,-25.28014 z"
         style="fill-opacity:1" />
      <path
         id="path4175"
         d="m 165.99493,282.49326 c -0.31965,-0.5172 -1.78875,-4.52498 -3.26467,-8.9062 -3.3349,-9.89951 -11.74385,-26.20549 -20.70699,-40.15342 -13.91727,-21.65726 -18.0922,-31.19599 -18.09368,-41.33983 -0.004,-27.87982 27.54529,-48.62865 53.93339,-40.61998 8.91224,2.70483 12.68414,5.03793 19.65694,12.15873 8.16389,8.33717 11.40865,16.5755 11.40865,28.96614 0,8.19545 -0.51536,10.09174 -5.33784,19.64061 -2.93581,5.81313 -8.5358,15.39929 -12.44441,21.30257 -10.64085,16.07115 -19.2744,33.42336 -22.1803,44.57926 -1.39322,5.34866 -1.90349,6.09954 -2.97109,4.37212 z M 191.9745,189.9196 c 1.7424,-3.43841 1.8519,-4.88303 0.64688,-8.53424 -1.52732,-4.62784 -7.39555,-9.19238 -11.81781,-9.19238 -3.72892,0 -10.27722,4.42573 -11.29556,7.63421 -0.8936,2.81547 -0.89413,2.81537 -2.6433,-0.52304 -3.79266,-7.23858 -13.5942,-8.79306 -18.87296,-2.99317 -8.1921,9.00086 -6.79612,12.41131 12.57447,30.72017 3.91179,3.69738 7.11235,7.10685 7.11235,7.57659 0,1.874 22.33823,-20.82484 24.29593,-24.68814 z"
         style="fill-opacity:1" />
      <path
         id="path4173"
         d="m 165.99493,282.49326 c -0.31965,-0.5172 -1.78875,-4.52498 -3.26467,-8.9062 -3.3349,-9.89951 -11.74385,-26.20549 -20.70699,-40.15342 -13.91727,-21.65726 -18.0922,-31.19599 -18.09368,-41.33983 -0.004,-27.87982 27.54529,-48.62865 53.93339,-40.61998 8.91224,2.70483 12.68414,5.03793 19.65694,12.15873 8.65198,8.83562 11.77355,17.15563 11.20553,29.86636 -0.4918,11.00511 -4.42914,19.97965 -17.57679,40.0636 -10.88205,16.62308 -19.51815,33.94443 -22.2161,44.55862 -1.35866,5.34522 -1.86785,6.10306 -2.93763,4.37212 z M 191.9745,189.9196 c 1.7424,-3.43841 1.8519,-4.88303 0.64688,-8.53424 -1.49095,-4.51764 -7.3654,-9.18832 -11.56738,-9.19705 -3.75582,-0.008 -9.45889,3.57987 -11.31157,7.11584 -1.74917,3.33841 -1.7497,3.33851 -2.6433,0.52304 -1.03437,-3.25903 -7.58315,-7.63206 -11.43948,-7.63888 -3.41667,-0.006 -8.77365,4.23491 -11.14721,8.82488 -2.80694,5.42802 -0.36975,9.87159 12.61198,22.99462 11.17915,11.30083 11.17915,11.30083 21.9659,0.67583 5.93271,-5.84375 11.73059,-12.48757 12.88418,-14.76404 z"
         style="fill-opacity:1" />
      <path
         id="path4171"
         d="m 165.99493,282.49326 c -0.31965,-0.5172 -1.78875,-4.52498 -3.26467,-8.9062 -3.3349,-9.89951 -11.74385,-26.20549 -20.70699,-40.15342 -13.91727,-21.65726 -18.0922,-31.19599 -18.09368,-41.33983 -0.003,-17.69286 10.7137,-32.83979 27.89299,-39.42533 15.79032,-6.05309 32.63865,-2.17105 45.10187,10.39196 9.25748,9.33161 12.38387,17.39554 11.801,30.43848 -0.4918,11.00511 -4.42914,19.97965 -17.57679,40.0636 -10.88205,16.62308 -19.51815,33.94443 -22.2161,44.55862 -1.35866,5.34522 -1.86785,6.10306 -2.93763,4.37212 z m 26.6126,-93.74712 c 1.32885,-3.32347 1.33063,-4.77158 0.01,-7.96034 -1.69551,-4.09333 -7.74277,-8.58955 -11.56333,-8.59749 -3.75582,-0.008 -9.45889,3.57987 -11.31157,7.11584 -1.74917,3.33841 -1.7497,3.33851 -2.6433,0.52304 -1.03437,-3.25903 -7.58315,-7.63206 -11.43948,-7.63888 -3.41667,-0.006 -8.77365,4.23491 -11.14721,8.82488 -2.80694,5.42802 -0.36975,9.87159 12.61198,22.99462 11.17895,11.30083 11.17895,11.30083 22.51876,0.0508 6.2369,-6.1875 12.07078,-13.07813 12.96415,-15.3125 z"
         style="fill-opacity:1" />
      <path
         id="path4169"
         d="m 165.99493,282.49326 c -0.31965,-0.5172 -1.78875,-4.52498 -3.26467,-8.9062 -2.69051,-7.98665 -13.32614,-30.23074 -15.01501,-31.40342 -1.85467,-1.28781 -19.64187,-32.09951 -21.67239,-37.54179 -7.51745,-20.14855 4.15675,-43.68438 25.77972,-51.97337 15.79032,-6.05309 32.63865,-2.17105 45.10187,10.39196 9.26753,9.34174 12.39595,17.41475 11.77007,30.3732 -0.53559,11.0892 -4.70546,20.56563 -17.876,40.625 -10.76029,16.38843 -19.13984,33.25877 -21.88596,44.0625 -1.35866,5.34522 -1.86785,6.10306 -2.93763,4.37212 z m 26.6126,-93.74712 c 1.32885,-3.32347 1.33063,-4.77158 0.01,-7.96034 -1.69551,-4.09333 -7.74277,-8.58955 -11.56333,-8.59749 -3.75582,-0.008 -9.45889,3.57987 -11.31157,7.11584 -1.70785,3.25954 -1.76991,3.27483 -2.60557,0.64189 -1.21445,-3.82574 -6.68195,-7.7624 -10.78115,-7.7624 -4.2102,0 -10.29306,4.84738 -12.36752,9.8556 -2.14605,5.18102 -0.13291,8.54108 13.19267,22.0194 11.12251,11.25 11.12251,11.25 22.46232,0 6.2369,-6.1875 12.07078,-13.07813 12.96415,-15.3125 z"
         style="fill-opacity:1" />
      <path
         id="path4167"
         d="m 165.99493,282.49326 c -0.31965,-0.5172 -1.78875,-4.52498 -3.26467,-8.9062 -2.69051,-7.98665 -13.32614,-30.23074 -15.01501,-31.40342 -1.85467,-1.28781 -19.64187,-32.09951 -21.67239,-37.54179 -7.51745,-20.14855 4.15675,-43.68438 25.77972,-51.97337 15.7356,-6.03212 32.64407,-2.16559 45.00134,10.29063 9.18176,9.25528 12.57621,18.03226 11.89231,30.74985 -0.58036,10.7923 -4.93116,20.60101 -17.89771,40.34968 -10.76029,16.38843 -19.13984,33.25877 -21.88596,44.0625 -1.35866,5.34522 -1.86785,6.10306 -2.93763,4.37212 z m 27.22742,-94.93981 c 1.51908,-6.91634 -5.3113,-15.36981 -12.41878,-15.36981 -3.53661,0 -9.26116,3.68512 -11.06114,7.12051 -1.70785,3.25954 -1.76991,3.27483 -2.60557,0.64189 -1.21425,-3.82574 -6.68175,-7.7624 -10.78095,-7.7624 -4.23929,0 -10.29714,4.85724 -12.40523,9.94663 -1.36266,3.28976 -1.21305,4.32295 1.22546,8.46281 1.52769,2.59356 7.35632,9.21556 12.95252,14.71556 10.17491,10 10.17491,10 22.20191,-1.90893 8.26318,-8.18206 12.29763,-13.14111 12.89178,-15.84626 z"
         style="fill-opacity:1" />
      <path
         id="path4165"
         d="m 165.99493,282.49326 c -0.31965,-0.5172 -1.78875,-4.52498 -3.26467,-8.9062 -2.69051,-7.98665 -13.32614,-30.23074 -15.01501,-31.40342 -1.85467,-1.28781 -19.64187,-32.09951 -21.67239,-37.54179 -7.51745,-20.14855 4.15675,-43.68438 25.77972,-51.97337 15.7356,-6.03212 32.64407,-2.16559 45.00134,10.29063 9.18176,9.25528 12.57621,18.03226 11.89231,30.74985 -0.58036,10.7923 -4.93116,20.60101 -17.89771,40.34968 -10.76029,16.38843 -19.13984,33.25877 -21.88596,44.0625 -1.35866,5.34522 -1.86785,6.10306 -2.93763,4.37212 z m 27.22742,-94.93981 c 1.51908,-6.91634 -5.3113,-15.36981 -12.41878,-15.36981 -3.53661,0 -9.26116,3.68512 -11.06114,7.12051 -1.70785,3.25954 -1.76991,3.27483 -2.60557,0.64189 -1.2407,-3.9091 -6.71304,-7.7624 -11.02393,-7.7624 -4.31673,0 -13.43855,8.17925 -13.42795,12.04044 0.0109,3.97196 5.19706,11.03331 15.61859,21.26588 10,9.81868 10,9.81868 22.027,-2.09025 8.26318,-8.18206 12.29763,-13.14111 12.89178,-15.84626 z"
         style="fill-opacity:1" />
      <path
         id="path4163"
         d="m 166.07741,282.62673 c -0.36501,-0.59062 -1.87123,-4.65845 -3.34715,-9.03967 -2.64273,-7.84478 -13.29615,-30.18416 -14.97599,-31.40342 -1.88116,-1.36539 -19.73134,-32.22907 -21.7125,-37.54179 -7.51481,-20.15186 4.15833,-43.68457 25.78081,-51.97337 15.7356,-6.03212 32.64407,-2.16559 45.00134,10.29063 16.11028,16.23926 16.26276,34.99354 0.49555,60.94588 -2.13977,3.52201 -4.25246,6.6849 -4.69485,7.02865 -1.51062,1.17378 -13.46664,21.85983 -16.61677,28.75 -5.79255,12.66977 -7.07917,15.98925 -7.09842,18.31391 -0.0241,2.91106 -1.94915,6.05769 -2.83202,4.62918 z m 27.14494,-95.07328 c 1.51908,-6.91634 -5.3113,-15.36981 -12.41878,-15.36981 -3.53661,0 -9.26116,3.68512 -11.06114,7.12051 -1.70785,3.25954 -1.76991,3.27483 -2.60557,0.64189 -1.2407,-3.9091 -6.71304,-7.7624 -11.02393,-7.7624 -4.31673,0 -13.43855,8.17925 -13.42795,12.04044 0.0111,4.03895 5.27349,11.22312 15.61859,21.32229 10,9.76227 10,9.76227 22.027,-2.14666 8.26318,-8.18206 12.29763,-13.14111 12.89178,-15.84626 z"
         style="fill-opacity:1" />
      <path
         id="path4161"
         d="m 166.18168,282.79544 c -0.42236,-0.6834 -1.9755,-4.82716 -3.45142,-9.20838 -2.93981,-8.7267 -12.57367,-28.54273 -16.7767,-34.50827 -1.46095,-2.07358 -3.33141,-4.89515 -4.15658,-6.27015 -0.82518,-1.375 -4.22807,-7 -7.56198,-12.5 -7.82552,-12.90986 -10.30643,-19.71165 -10.30643,-28.25662 0,-17.65206 10.73206,-32.80464 27.89401,-39.38354 15.7356,-6.03212 32.64407,-2.16559 45.00134,10.29063 15.97346,16.10135 16.10175,37.89186 0.35823,60.84254 -1.78947,2.60866 -3.25358,5.23366 -3.25358,5.83333 0,0.59968 -0.47352,1.27783 -1.05229,1.50699 -1.51276,0.599 -13.11435,20.32904 -17.15047,29.16667 -5.10388,11.17562 -5.4391,12.02185 -7.17579,18.11467 -0.88022,3.08807 -1.94597,5.05553 -2.36834,4.37213 z m 27.03338,-95.20882 c 1.5973,-7.27246 -5.31439,-15.40298 -13.09395,-15.40298 -3.51221,0 -9.57514,4.37321 -10.61793,7.65876 -0.77137,2.43038 -0.96872,2.3546 -3.13203,-1.2027 -4.89044,-8.04168 -11.81209,-8.63066 -18.83964,-1.60312 -2.66911,2.66912 -4.85006,5.90349 -4.84653,7.1875 0.0111,4.03895 5.27349,11.22312 15.61859,21.32229 10,9.76227 10,9.76227 22.01971,-2.11349 8.32308,-8.22339 12.28792,-13.09687 12.89178,-15.84626 z"
         style="fill-opacity:1" />
      <path
         id="path4159"
         d="m 166.15181,282.74711 c -0.40593,-0.65682 -1.9412,-4.84917 -3.4117,-9.31635 -2.82794,-8.59084 -12.36376,-28.08869 -16.79772,-34.34619 -1.45135,-2.04824 -3.20132,-4.6891 -3.88882,-5.86858 -0.6875,-1.17948 -4.0918,-6.81615 -7.56511,-12.52593 -8.07051,-13.26711 -10.55989,-20.01821 -10.55989,-28.63804 0,-17.65206 10.73206,-32.80464 27.89401,-39.38354 10.18128,-3.90291 19.86467,-3.71249 31.02667,0.61013 7.16591,2.77509 17.93995,12.08898 20.70305,17.89728 5.21755,10.96777 5.62058,12.69379 5.15751,22.08701 -0.40665,8.24853 -1.19871,10.9879 -5.82856,20.15811 -2.94688,5.8368 -6.16678,11.50609 -7.15532,12.59842 -0.98855,1.09233 -1.79736,2.59802 -1.79736,3.34597 0,0.74795 -0.4664,1.54741 -1.03644,1.77657 -1.33666,0.53737 -12.03472,18.21824 -16.89137,27.91667 -2.06566,4.125 -4.96065,11.4111 -6.43331,16.19134 -1.47267,4.78023 -3.0097,8.15395 -3.41564,7.49713 z m 27.06325,-95.16049 c 1.5897,-7.23786 -5.31135,-15.40298 -13.01839,-15.40298 -3.55367,0 -8.50505,3.42583 -10.64696,7.36659 -1.2073,2.22122 -1.78698,2.59747 -1.82109,1.18203 -0.0717,-2.97312 -7.17462,-8.54862 -10.89059,-8.54862 -4.55093,0 -9.92167,3.57525 -12.46493,8.29778 -2.11273,3.92311 -2.11099,4.29988 0.0406,8.81184 1.23624,2.59243 7.11719,9.50643 13.06878,15.36444 10.82107,10.65094 10.82107,10.65094 22.84078,-1.22482 8.32308,-8.22339 12.28792,-13.09687 12.89178,-15.84626 z"
         style="fill-opacity:1" />
      <path
         id="path4157"
         d="m 165.39241,281.24614 c -0.85349,-1.54687 -1.27075,-2.8125 -0.92724,-2.8125 0.3435,0 -0.46046,-2.53125 -1.7866,-5.625 -1.32614,-3.09375 -2.18102,-5.625 -1.89975,-5.625 0.79058,0 -11.80864,-23.90358 -14.8106,-28.09907 -1.46556,-2.04824 -3.22715,-4.6891 -3.91465,-5.86858 -0.6875,-1.17948 -4.0918,-6.81615 -7.56511,-12.52593 -8.06142,-13.25216 -10.55989,-20.01803 -10.55989,-28.5962 0,-17.57991 11.25125,-33.1451 28.7726,-39.80453 16.68699,-6.34232 36.37376,-0.096 48.10006,15.2615 2.40754,3.15306 4.37734,6.26478 4.37734,6.91494 0,0.65015 0.84029,2.79327 1.8673,4.76249 2.5516,4.89246 2.46081,19.40965 -0.15801,25.26647 -5.5007,12.30192 -7.30851,15.78228 -11.01208,21.20013 -14.07838,20.59491 -26.451,44.87074 -28.47197,55.86378 -0.44071,2.39726 -0.52338,2.38442 -2.0114,-0.3125 z m 27.82265,-93.65952 c 1.5897,-7.23786 -5.31135,-15.40298 -13.01839,-15.40298 -3.55367,0 -8.50505,3.42583 -10.64696,7.36659 -1.2073,2.22122 -1.78698,2.59747 -1.82109,1.18203 -0.0712,-2.95185 -7.16352,-8.54862 -10.83304,-8.54862 -4.85955,0 -9.75753,3.1636 -12.34944,7.97647 -2.30471,4.27959 -2.3089,4.56903 -0.13242,9.13315 1.23624,2.59243 7.11719,9.50643 13.06878,15.36444 10.82107,10.65094 10.82107,10.65094 22.84078,-1.22482 8.32308,-8.22339 12.28792,-13.09687 12.89178,-15.84626 z"
         style="fill-opacity:1" />
      <path
         id="path4155"
         d="m 165.55966,281.55864 c -0.76151,-1.375 -1.39401,-2.78125 -1.40558,-3.125 -0.0739,-2.19574 -2.02173,-8.38084 -3.05092,-9.6875 -0.67689,-0.85938 -0.9117,-1.5625 -0.52183,-1.5625 1.05177,0 -11.42575,-23.73669 -14.90472,-28.3541 -1.64892,-2.1885 -2.99804,-4.2581 -2.99804,-4.59911 0,-0.341 -2.25825,-4.01987 -5.01834,-8.17527 -2.76009,-4.15539 -5.57124,-8.83579 -6.24702,-10.40089 -0.67577,-1.5651 -1.72426,-3.68938 -2.32998,-4.72063 -7.82876,-13.32853 -6.5849,-30.30032 3.19538,-43.59944 7.59335,-10.32535 21.55214,-17.64873 33.64177,-17.64993 7.84937,-7.8e-4 19.10307,3.74975 25.61013,8.5351 4.89549,3.60018 13.64806,14.01909 13.64806,16.2464 0,0.65015 0.84029,2.79327 1.8673,4.76249 2.5516,4.89246 2.46081,19.40965 -0.15801,25.26647 -5.0512,11.29667 -8.40984,17.59095 -12.45415,23.33984 -11.72506,16.66686 -25.10701,43.26454 -27.0299,53.72407 -0.4596,2.5 -0.4596,2.5 -1.84415,0 z m 27.80494,-93.5481 c 1.83178,-7.29844 -5.30438,-15.8269 -13.24312,-15.8269 -2.95641,0 -5.06388,1.09414 -7.82497,4.0625 -3.77881,4.0625 -3.77881,4.0625 -7.82338,0 -6.44895,-6.47755 -15.26312,-4.74631 -19.92699,3.91397 -2.29215,4.25627 -2.29865,4.59053 -0.17584,9.0421 1.21236,2.54235 7.09331,9.45634 13.06878,15.36444 10.86449,10.74199 10.86449,10.74199 22.97142,-1.21934 6.85506,-6.77264 12.47441,-13.42556 12.9541,-15.33677 z"
         style="fill-opacity:1" />
      <path
         id="path4153"
         d="m 165.55966,281.55864 c -0.76151,-1.375 -1.39401,-2.78125 -1.40558,-3.125 -0.0739,-2.19574 -2.02173,-8.38084 -3.05092,-9.6875 -0.67689,-0.85938 -0.9117,-1.5625 -0.52183,-1.5625 1.05177,0 -11.42575,-23.73669 -14.90472,-28.3541 -1.64892,-2.1885 -2.99804,-4.2581 -2.99804,-4.59911 0,-0.341 -2.25825,-4.01987 -5.01834,-8.17527 -2.76009,-4.15539 -5.57124,-8.83579 -6.24702,-10.40089 -0.67577,-1.5651 -1.72426,-3.68938 -2.32998,-4.72063 -7.82876,-13.32853 -6.5849,-30.30032 3.19538,-43.59944 7.59335,-10.32535 21.55214,-17.64873 33.64177,-17.64993 7.84937,-7.8e-4 19.10307,3.74975 25.61013,8.5351 5.40267,3.97317 13.64806,14.1012 13.64806,16.76428 0,0.93499 0.65433,2.35431 1.45405,3.15405 0.79974,0.79973 1.71078,5.88855 2.02453,11.30849 0.58717,10.14303 0.43141,10.76077 -6.20583,24.61245 -3.0723,6.41178 -4.61346,8.94978 -8.83525,14.54994 -1.89062,2.5079 -3.4375,4.95454 -3.4375,5.43698 0,0.48243 -1.05914,2.37024 -2.35365,4.19512 -7.56477,10.66416 -18.79901,34.4946 -20.42111,43.31796 -0.4596,2.5 -0.4596,2.5 -1.84415,0 z m 27.10186,-91.69412 c 3.75243,-7.38527 -3.31117,-17.68088 -12.13047,-17.68088 -3.41849,0 -5.33538,0.94569 -8.23454,4.0625 -3.77881,4.0625 -3.77881,4.0625 -7.82338,0 -4.70426,-4.72512 -9.22558,-5.23859 -15.01917,-1.70566 -2.11729,1.29111 -4.59286,4.14184 -5.50128,6.33495 -2.42474,5.85385 0.54188,11.07822 13.51934,23.80821 10.83155,10.625 10.83155,10.625 22.26258,-0.625 6.28706,-6.1875 12.10417,-12.57486 12.92692,-14.19412 z"
         style="fill-opacity:1" />
      <path
         id="path4151"
         d="m 166.05763,282.18364 c -0.41681,-1.03125 -1.84333,-5.25 -3.17007,-9.375 -2.71933,-8.45481 -12.56408,-27.93521 -17.16786,-33.97107 -1.67262,-2.19292 -3.04113,-4.27771 -3.04113,-4.63286 0,-0.35516 -1.6875,-3.14614 -3.75,-6.20219 -2.0625,-3.05604 -3.75,-6.17799 -3.75,-6.93766 0,-0.75967 -0.52459,-1.38122 -1.16576,-1.38122 -0.64117,0 -1.55377,-1.26563 -2.02799,-2.8125 -0.47422,-1.54688 -1.46601,-3.56534 -2.20397,-4.48547 -0.73796,-0.92013 -2.35662,-4.55479 -3.59701,-8.07701 -7.33819,-20.83752 4.24107,-43.55267 26.51733,-52.01933 16.68699,-6.34232 36.37376,-0.096 48.10006,15.2615 2.40754,3.15306 4.37734,6.49783 4.37734,7.43282 0,0.93499 0.65433,2.35431 1.45405,3.15405 0.79974,0.79973 1.71078,5.88855 2.02453,11.30849 0.58717,10.14303 0.43141,10.76077 -6.20583,24.61245 -3.0723,6.41178 -4.61346,8.94978 -8.83525,14.54994 -1.89062,2.5079 -3.4375,4.94003 -3.4375,5.40472 0,0.4647 -1.54687,3.20553 -3.4375,6.09074 -5.65172,8.62488 -6.36881,9.8759 -10.28564,17.944 -3.8785,7.98915 -8.19742,19.12786 -9.11598,23.5106 -0.40924,1.95256 -0.68993,2.08942 -1.28182,0.625 z m 4.69858,-68.60078 c 0.41036,-1.29293 4.74131,-5.90151 9.62435,-10.24129 14.71222,-13.07545 16.87411,-19.33183 9.29801,-26.90793 -5.86896,-5.86897 -12.03545,-5.93548 -17.38206,-0.1875 -3.77881,4.0625 -3.77881,4.0625 -7.82338,0 -6.22027,-6.24786 -15.75248,-4.62075 -19.8984,3.39658 -2.47562,4.78732 -2.39238,6.66452 0.50691,11.43202 2.30227,3.78579 22.30781,24.28811 24.07519,24.67306 0.4693,0.10221 1.18902,-0.87201 1.59938,-2.16494 z"
         style="fill-opacity:1" />
      <path
         id="path4149"
         d="m 166.09402,282.18364 c -0.3968,-1.03125 -1.69322,-4.96875 -2.88095,-8.75 -2.47691,-7.88549 -13.01043,-28.71264 -17.50134,-34.6041 -1.66824,-2.1885 -3.03316,-4.26968 -3.03316,-4.62483 0,-0.35516 -1.6875,-3.14614 -3.75,-6.20219 -2.0625,-3.05604 -3.75,-6.17799 -3.75,-6.93766 0,-0.75967 -0.52459,-1.38122 -1.16576,-1.38122 -0.64117,0 -1.55377,-1.26563 -2.02799,-2.8125 -0.47422,-1.54688 -1.46601,-3.56534 -2.20397,-4.48547 -0.73796,-0.92013 -2.35662,-4.55479 -3.59701,-8.07701 -7.33819,-20.83752 4.24107,-43.55267 26.51733,-52.01933 16.68699,-6.34232 36.37376,-0.096 48.10006,15.2615 2.40754,3.15306 4.37734,6.49783 4.37734,7.43282 0,0.93499 0.65433,2.35431 1.45405,3.15405 0.79974,0.79973 1.71078,5.88855 2.02453,11.30849 0.58097,10.0359 0.38865,10.83047 -5.80128,23.96838 -1.12876,2.39576 -2.75542,5.10782 -3.6148,6.02679 -0.85937,0.91897 -1.5625,2.25285 -1.5625,2.96419 0,0.71133 -1.6875,3.42397 -3.75,6.02809 -2.0625,2.60412 -3.75,5.11497 -3.75,5.57966 0,0.4647 -1.54687,3.20553 -3.4375,6.09074 -5.65172,8.62488 -6.36881,9.8759 -10.28564,17.944 -3.8785,7.98915 -8.19742,19.12786 -9.11598,23.5106 -0.4055,1.93469 -0.68712,2.07602 -1.24543,0.625 z m 4.66219,-68.60078 c 0.41036,-1.29293 4.74131,-5.90151 9.62435,-10.24129 14.71222,-13.07545 16.87411,-19.33183 9.29801,-26.90793 -5.9864,-5.98641 -11.98201,-5.94416 -17.70574,0.12476 -3.54933,3.76339 -4.22482,4.06322 -4.8335,2.14546 -0.87246,-2.7489 -7.03431,-6.52022 -10.6532,-6.52022 -4.28747,0 -9.85807,3.48838 -11.9114,7.45908 -2.47562,4.78732 -2.39238,6.66452 0.50691,11.43202 2.30227,3.78579 22.30781,24.28811 24.07519,24.67306 0.4693,0.10221 1.18902,-0.87201 1.59938,-2.16494 z"
         style="fill-opacity:1" />
    </g>
  </g>
</svg>
