<?xml version="1.0" encoding="utf-8"?>
<!-- Generator: Adobe Illustrator 17.0.0, SVG Export Plug-In . SVG Version: 6.00 Build 0)  -->
<!DOCTYPE svg PUBLIC "-//W3C//DTD SVG 1.1//EN" "http://www.w3.org/Graphics/SVG/1.1/DTD/svg11.dtd">
<svg version="1.1" id="Layer_1" xmlns="http://www.w3.org/2000/svg" xmlns:xlink="http://www.w3.org/1999/xlink" x="0px" y="0px"
	 width="728.5px" height="515.91px" viewBox="0 0 728.5 515.91" enable-background="new 0 0 728.5 515.91" xml:space="preserve">
<path fill="none" stroke="#FFFFFF" stroke-width="1.5" d="M350.928,222.761c0.558-2.631,1.261-4.903,1.481-7.221
	c0.342-3.601,2.4-5.989,5.018-8.085c5.415-4.338,11.824-6.48,18.506-7.375c14.552-1.949,29.137-3.743,43.757-5.055
	c8.336-0.748,16.841-1.193,25.14-0.405c13.479,1.281,26.884,3.484,40.257,5.68c11.157,1.832,21.766,5.484,31.776,10.872
	c4.602,2.477,6.938,6.205,7.274,11.23c0.212,3.17-0.046,6.37,0.099,9.548c0.036,0.79,0.639,1.983,1.286,2.25
	c7.204,2.969,9.545,8.643,9.278,15.942c-0.122,3.345-0.021,6.698-0.021,10.37c3.854,0.31,7.777,0.432,11.642,0.972
	c12.622,1.764,25.252,3.51,37.818,5.621c5.078,0.853,9.674,3.272,13.656,6.683c2.242,1.921,3.578,4.2,4.25,7.172
	c1.725,7.631,1.185,15.332,1.517,23.027c0.275,6.375-3.637,8.552-8.051,10.681c-1.864,0.899-2.572,1.836-2.472,3.922
	c0.189,3.932,0.612,7.991-0.123,11.793c-0.792,4.101,0.35,7.964,0.236,11.937c-0.023,0.789,0.796,2.049,1.528,2.345
	c8.14,3.291,12.232,9.345,12.492,18.012c0.168,5.612-0.297,11.276,0.301,16.832c0.6,5.57-2.712,7.855-6.671,10.003
	c-7.966,4.321-16.652,5.987-25.539,7.042c-18.872,2.241-37.799,3.994-56.799,3.372c-15.431-0.506-30.837-1.902-46.24-3.095
	c-6.102-0.473-12.272-0.988-18.212-2.353c-5.825-1.338-11.536-3.471-16.987-5.94c-1.479-0.67-2.361-3.756-2.596-5.837
	c-0.45-3.987-0.417-8.056-0.239-12.076c0.111-2.512-0.6-3.709-3.117-4.409c-2.953-0.82-5.935-1.942-8.504-3.567
	c-1.294-0.819-2.327-3.011-2.4-4.631c-0.317-7.029-0.247-14.076-0.286-21.116c-0.005-0.829,0.19-1.66,0.315-2.681
	c-2.933-0.165-5.764-0.447-8.588-0.387c-0.613,0.013-1.456,1.151-1.761,1.939c-3.463,8.954-8.22,17.099-14.944,24.002
	c-9.189,9.434-20.366,15.449-32.919,19.178c-18.39,5.463-36.857,5.384-55.437,1.177c-0.785-0.178-1.754-0.293-2.449,0.004
	c-6.52,2.793-13.498,3.378-20.398,4.253c-21.624,2.743-43.362,4.29-65.118,2.975c-18.753-1.134-37.468-3.191-56.12-5.492
	c-5.418-0.668-10.657-3.357-15.757-5.619c-1.252-0.555-2.228-3.041-2.313-4.691c-0.343-6.612-0.305-13.245-0.37-19.871
	c-0.052-5.273-0.077-10.546-0.062-15.819c0.009-3.187-0.242-6.436,0.293-9.542c0.458-2.66-0.45-4.048-2.687-4.642
	c-2.179-0.579-2.802-2.169-3.338-3.959c-0.192-0.641-0.395-1.313-0.393-1.971c0.026-7.299,0.133-14.598,0.131-21.897
	c-0.001-4.186-0.194-8.371-0.243-12.558c-0.04-3.357-0.215-6.735,0.07-10.069c0.383-4.48,2.337-8.169,6.514-10.374
	c2.505-1.322,6.403-2.143,7.161-4.142c1.19-3.142,0.264-7.087,0.217-10.692c-0.005-0.416-0.249-0.855-0.171-1.241
	c0.929-4.597-1.56-6.318-5.597-7.193c-2.082-0.451-4.329-1.301-5.884-2.671c-1.36-1.198-2.563-3.357-2.612-5.126
	c-0.208-7.534,0.094-15.081,0.098-22.623c0.002-4.35-0.238-8.7-0.315-13.051c-0.056-3.185-0.137-6.377-0.005-9.558
	c0.226-5.42,2.762-9.455,7.786-11.649c2.02-0.882,2.735-1.836,2.577-4.266c-0.316-4.887-0.975-10.054,2.075-14.406
	c1.38-1.969,3.282-3.814,5.353-5.019c11.718-6.823,24.684-10.009,37.889-12.237c8.354-1.409,16.866-1.94,25.171-3.561
	c8.934-1.744,17.894-1.296,26.784-0.916c19.278,0.825,38.538,2.267,57.374,6.95c0.894,0.222,1.772,0.518,2.642,0.825
	c11.22,3.961,15.296,9.226,15.863,21.078c0.281,5.864,0.191,11.752,0.063,17.624c-0.027,1.216-0.7,2.664-1.547,3.559
	c-1.3,1.375-2.849,2.864-4.576,3.414c-3.779,1.203-4.383,3.57-4.235,7.149c0.175,4.212-0.626,8.455-0.663,12.687
	c-0.028,3.257,0.467,6.519,0.745,9.778c0.02,0.236,0.102,0.593,0.264,0.672c2.523,1.231,5.157,3.615,7.584,3.425
	C329.462,218.804,340.251,219.189,350.928,222.761z M142.068,182.63c3.994,1.852,7.988,3.704,11.981,5.557
	c0.146-0.267,0.292-0.534,0.438-0.801c-3.535-1.377-6.766-3.034-6.674-7.583c-2.168,1.071-3.956,1.955-5.744,2.838
	c1.058-0.921,1.981-2.134,3.203-2.702c2.602-1.208,2.753-3.16,2.358-5.549C141.852,176.351,140.375,178.582,142.068,182.63z
	 M306.053,204.796c-0.454-0.16-1.272-0.266-1.305-0.487c-0.227-1.569-0.366-3.16-0.396-4.746c-0.055-2.916-0.016-5.835-0.016-8.752
	c-0.221-0.151-0.442-0.302-0.663-0.454c-0.758,0.66-2.191,1.347-2.166,1.976c0.202,5.043,0.68,10.075,1.073,15.11
	c0.363,0.102,0.726,0.205,1.089,0.307c0.784-0.998,1.568-1.997,2.357-2.989c2.028,0.008,1.758-1.591,1.812-2.785
	c0.112-2.487,0.064-4.981,0.075-7.472c0.007-1.678,0.001-3.356,0.001-5.035c-0.326-0.058-0.651-0.116-0.977-0.174
	c-0.244,0.706-0.695,1.413-0.693,2.118c0.007,1.916,0.332,3.833,0.296,5.745C306.494,199.707,306.226,202.251,306.053,204.796z
	 M603.12,384.42c-0.478-0.497-1.333-0.967-1.369-1.494c-0.171-2.496-0.057-5.009-0.162-7.511c-0.14-3.351-0.388-6.697-0.59-10.046
	c-0.343-0.079-0.687-0.159-1.031-0.238c-0.491,0.889-1.38,1.768-1.403,2.669c-0.089,3.425-0.026,6.867,0.227,10.285
	c0.212,2.866,0.766,5.706,1.169,8.557c0.263,0.083,0.526,0.165,0.789,0.248c0.765-0.844,1.53-1.688,2.304-2.524
	c1.89-0.484,1.899-1.991,1.9-3.5c0.001-1.58-0.007-3.159-0.007-4.739c-0.001-4.869,0-9.737,0-14.941
	c-2.066,1.419-2.433,2.85-2.221,4.81c0.504,4.652,0.792,9.333,1.004,14.009C603.796,381.464,603.338,382.947,603.12,384.42z
	 M317.094,181.558c-1.546-0.09-2.181-0.984-2.185-2.454c-0.005-1.678,0.003-3.357-0.044-5.034c-0.111-3.977-0.25-7.954-0.378-11.93
	c-0.256-0.089-0.512-0.178-0.769-0.268c-0.634,0.753-1.834,1.522-1.812,2.255c0.19,6.409,0.599,12.812,0.98,19.907
	c1.965-1.158,3.085-1.818,4.206-2.479c0.425-1.07,1.197-2.134,1.219-3.212c0.122-6.085,0.073-12.173,0.054-18.26
	c-0.002-0.597-0.188-1.194-0.306-1.889c-2.021,1.296-2.088,2.836-1.913,4.881C316.672,169.219,316.807,175.395,317.094,181.558z
	 M466.387,371.636c-2.89-0.228-5.781-0.455-8.775-0.691c0,7.294,0,14.381,0,21.752c2.641,0.323,5.227,0.639,7.714,0.943
	c-0.296-7.366-0.578-14.37-0.86-21.389c0.75-0.256,1.365-0.466,1.981-0.676c0.16,5.603,0.292,11.206,0.498,16.807
	c0.067,1.822,0.328,3.637,0.513,5.58c5.546,0.472,10.832,0.923,15.864,1.352c-0.214-6.29-0.51-12.232-0.573-18.175
	c-0.024-2.298-0.645-3.211-3.116-3.269c-3.87-0.091-7.729-0.663-11.593-1.031c0.005-0.106,0.009-0.213,0.014-0.319
	c0.87-0.085,1.74-0.171,3.109-0.305C469.221,371.969,467.817,371.791,466.387,371.636z M142.439,269.819
	c4.196-2.859,8.392-5.718,12.425-8.466c-0.705-0.641-1.467-1.334-2.297-2.089c-0.321,0.12-0.728,0.225-1.091,0.414
	c-2.227,1.161-4.504,2.243-6.65,3.539c-3.131,1.891-3.537,3.215-2.374,6.608c2.981,1.422,5.849,3.19,8.962,4.205
	c13.372,4.36,27.235,5.633,41.202,6.206c3.025,0.124,5.559-0.001,7.948-2.481c2.438-2.531,5.638-4.329,8.96-6.784
	c-3.634-0.345-6.714-0.597-9.784-0.936c-9.593-1.061-19.204-1.999-28.761-3.322c-3.215-0.445-6.275-1.781-8.903,1.233
	c-0.005,0.005-0.203-0.158-0.455-0.355c0.904-0.768,1.781-1.515,2.921-2.484c-2.002-0.726-3.769-1.103-5.254-1.967
	c-2.147-1.25-3.72-0.633-5.655,0.56C150.019,265.929,146.181,267.799,142.439,269.819z M435.993,286.094
	c0.492-0.628,0.862-1.448,1.496-1.854c5.075-3.248,10.213-6.399,15.303-9.625c1.298-0.823,2.49-1.811,3.85-2.812
	c-0.378-0.179-0.455-0.247-0.529-0.245c-0.246,0.007-0.515-0.017-0.734,0.072c-7.151,2.903-15.069,4.373-20.128,11.139
	c-1.206,1.613-1.248,2.223,0.83,3.26c0.605,0.662,1.087,1.598,1.838,1.935c2.648,1.188,5.329,2.365,8.102,3.197
	c12.481,3.744,25.357,4.841,38.29,5.547c3.438,0.188,6.167-0.323,9.204-2.721c10.071-7.953,20.653-15.258,31.046-22.801
	c0.081-0.059,0.272,0.034,0.682,0.099c-10.099,9.848-22.52,16.397-33.552,25.456c1.144,0.106,1.792,0.214,2.442,0.219
	c29.814,0.201,59.612,0.017,89.138-4.891c4.813-0.8,9.503-2.261,13.197-5.78c3.885-3.701,3.802-6.928-0.237-10.408
	c-0.381-0.329-0.775-0.645-1.18-0.943c-4.567-3.354-9.847-4.987-15.268-6.244c-0.472-0.109-1.152,0.1-1.564,0.399
	c-7.889,5.711-15.753,11.456-23.619,17.199c-0.83,0.606-1.637,1.244-2.454,1.866c-0.193-0.271-0.387-0.541-0.58-0.812
	c8.703-6.237,17.406-12.474,26.586-19.053c-3.371-0.538-6.179-0.859-8.923-1.469c-1.877-0.417-3.46-0.177-4.967,0.962
	c-10.242,7.742-20.49,15.475-30.731,23.218c-0.685,0.518-1.325,1.098-1.986,1.649c-0.201-0.247-0.401-0.495-0.602-0.742
	c9.507-10.181,21.685-17.106,32.691-25.84c-15.247-2.093-30.308-3.152-45.451-3.197c-2.465-0.007-4.56,0.454-6.587,1.858
	c-8.696,6.022-17.44,11.974-26.175,17.939c-1.119,0.764-2.288,1.457-3.433,2.183c-0.166-0.259-0.333-0.517-0.499-0.776
	c9.774-7.277,19.636-14.433,30.061-20.919c-4.165,0.036-8.151-0.815-12.18,1.864c-7.467,4.966-15.396,9.24-23.142,13.784
	c-0.671,0.393-1.418,0.656-2.13,0.979c-0.128-0.237-0.256-0.475-0.384-0.712c8.789-5.188,17.578-10.376,26.8-15.819
	c-0.827-0.141-1.06-0.244-1.267-0.207c-12.546,2.251-25.095,4.487-37.627,6.819c-1.081,0.201-2.089,0.968-3.054,1.591
	C451.035,276.317,443.523,281.205,435.993,286.094z M519.221,220.247c-0.631-0.15-1.366-0.141-1.877-0.475
	c-7.16-4.675-14.279-9.413-21.438-14.091c-1.029-0.672-2.156-1.365-3.33-1.616c-8.118-1.737-16.242-3.461-24.404-4.976
	c-4.382-0.813-8.844-1.201-13.269-1.781c-0.066,0.212-0.132,0.425-0.198,0.637c8.723,5.153,17.447,10.306,26.17,15.46
	c-0.132,0.246-0.264,0.491-0.396,0.737c-0.7-0.323-1.433-0.591-2.095-0.978c-7.534-4.408-15.307-8.47-22.488-13.394
	c-4.279-2.935-8.504-2.621-12.985-2.529c10.171,7.031,20.281,14.019,30.39,21.007c-0.202,0.317-0.403,0.634-0.605,0.951
	c-1.007-0.61-2.043-1.175-3.015-1.836c-9.302-6.322-18.563-12.707-27.926-18.938c-1.225-0.815-2.975-1.253-4.46-1.203
	c-10.324,0.349-20.648,0.764-30.958,1.386c-5.081,0.306-10.132,1.098-15.644,1.72c6.056,4.417,11.632,8.559,17.285,12.591
	c8.796,6.273,14.531,11.417,15.255,14.239c-1.005-0.838-1.669-1.41-2.353-1.959c-4.778-3.835-9.466-7.791-14.367-11.462
	c-5.506-4.124-11.18-8.026-16.849-11.926c-0.818-0.563-2.05-0.886-3.033-0.782c-2.916,0.309-5.81,0.855-8.696,1.397
	c-0.387,0.073-0.679,0.651-1.015,0.995l-0.073,0.089c-0.791-0.156-1.705-0.65-2.353-0.413c-4.623,1.686-9.471,3.024-13.716,5.416
	c-7.523,4.24-7.821,9.672,0.62,14.31c4.136,2.273,9.044,3.597,13.756,4.268c9.279,1.32,18.65,2.303,28.012,2.675
	c19.204,0.762,38.428,1.032,57.644,1.491c0.53,0.013,1.064-0.12,2.045-0.24c-10.428-8.521-22.012-14.777-31.498-23.738
	c6.817,4.604,13.558,9.298,20.263,14.04c3.7,2.617,7.582,5.051,10.911,8.085c1.736,1.582,3.285,1.824,5.286,1.69
	c4.775-0.318,9.561-0.493,14.327-0.909c10.219-0.893,20.344-2.413,30.022-5.955c2.486-0.91,4.663-2.663,6.973-4.035
	c1.724-2.172,1.504-4.021-1.252-5.704c-6.288-3.84-12.901-7.024-20.162-8.766c0.581,0.692,1.227,1.289,1.953,1.762
	c3.51,2.285,7.054,4.518,10.563,6.805C513.252,216.25,516.229,218.259,519.221,220.247z M294.284,142.104
	c-0.064-0.066-0.127-0.131-0.19-0.197c0.291-0.372,0.583-0.745,1.093-1.396c-2.779-0.469-5.331-0.796-7.831-1.353
	c-2.363-0.526-4.433-0.238-6.39,1.254c-10.006,7.63-20.04,15.225-30.06,22.836c-0.671,0.51-1.311,1.06-1.965,1.591
	c-0.195-0.247-0.39-0.493-0.585-0.74c9.46-10.193,21.621-17.046,32.523-25.673c-0.525-0.14-0.99-0.346-1.467-0.38
	c-13.89-0.993-27.788-1.881-41.668-3.001c-4.2-0.339-7.637,0.901-10.981,3.26c-8.366,5.903-16.827,11.671-25.263,17.476
	c-0.724,0.498-1.539,0.864-2.311,1.291c-0.183-0.305-0.367-0.611-0.55-0.916c10.118-6.986,20.237-13.971,30.507-21.061
	c-1.504,0-2.914,0.148-4.282-0.03c-3.193-0.414-5.744,0.813-8.4,2.449c-7.571,4.666-15.294,9.085-22.967,13.586
	c-0.634,0.372-1.337,0.624-2.009,0.931c-0.124-0.25-0.247-0.499-0.371-0.749c8.711-5.141,17.422-10.282,26.134-15.423
	c-0.537-0.46-0.868-0.509-1.18-0.453c-12.541,2.253-25.084,4.502-37.615,6.81c-0.773,0.142-1.492,0.71-2.179,1.165
	c-7.2,4.762-14.385,9.547-21.59,14.302c-0.401,0.265-0.941,0.319-1.416,0.471c-0.076-0.16-0.151-0.319-0.227-0.479
	c7.102-4.514,14.204-9.028,21.307-13.542c-0.117-0.198-0.233-0.395-0.35-0.593c-7.221,1.937-13.98,5.018-20.222,9.09
	c-3.495,2.28-2.759,5.681,1.557,7.576c3.49,1.532,7.086,2.921,10.758,3.923c12.057,3.291,24.43,4.336,36.873,4.8
	c2.552,0.095,4.571,0.02,6.921-1.933c5.662-4.707,11.961-8.647,17.992-12.911c3.518-2.487,7.014-5.004,10.52-7.507
	c0.166,0.227,0.332,0.455,0.498,0.682c-9.878,7.127-19.755,14.253-30.067,21.693c0.97,0.16,1.208,0.233,1.447,0.234
	c30.39,0.126,60.781,0.202,90.871-5.021c4.57-0.793,8.988-2.206,12.518-5.474c4.121-3.815,4.057-7.164-0.261-10.729
	c-4.103-3.387-8.983-5.139-14.043-6.526C297.508,140.931,295.816,140.63,294.284,142.104z M397.78,257.526
	c-4.442-7.642-16.72-18.97-24.581-22.476c-0.668-0.298-1.722,0.269-2.597,0.433c-0.206,0.039-0.414,0.07-0.865,0.147
	c0.436-0.402,0.695-0.605,0.908-0.848c0.203-0.231,0.359-0.505,0.572-0.813c-13.98-6.329-28.401-8.205-43.379-5.645
	c-1.212,0.207-2.334,1.4-3.492,1.392c-6.144-0.045-11.613,2.388-17.211,4.37c-0.395,0.14-0.718,0.508-1.048,0.801
	c-0.453,0.402-0.809,1.026-1.331,1.219c-2.082,0.77-4.433,1.046-6.279,2.171c-4.236,2.583-8.234,5.556-12.328,8.37
	c0.124,0.212,0.248,0.424,0.373,0.636c1.408,0,2.815,0,4.223,0c0.023,0.203,0.046,0.406,0.07,0.609
	c-1.095,0.159-2.194,0.473-3.284,0.445c-2.485-0.065-4.391,0.913-5.807,2.883c-2.589,3.603-5.146,7.229-7.697,10.859
	c-0.108,0.154-0.014,0.449-0.014,0.771c0.71,0,1.343,0,1.977,0c-4.065,0.728-4.437,4.235-5.487,7.079
	c-2.692,7.293-4.096,14.87-4.629,22.613c-0.168,2.438-0.277,4.88-0.413,7.32c9.899-10.557,19.807-20.709,30.297-30.268
	c-9.618,10.326-19.298,20.582-28.921,30.892c-0.679,0.727-1.32,1.845-1.33,2.788c-0.115,10.9,1.58,21.527,5.357,31.767
	c2.692,7.299,6.875,13.757,11.85,19.691c4.818,5.746,10.664,10.304,17.168,13.967c16.861,9.497,34.992,12.109,53.83,8.675
	c25.944-4.73,44.306-19.145,53.587-44.212c2.914-7.871,4.265-16.12,4.748-25.043c-6.323,5.424-11.326,11.613-17.787,16.158
	c-0.156-0.58-0.054-0.896,0.158-1.096c5.426-5.14,10.868-10.263,16.29-15.406c0.524-0.497,1.336-1.099,1.345-1.663
	c0.059-3.785-0.062-7.574-0.125-11.361c-0.351-0.14-0.703-0.281-1.054-0.421c-10.066,10.355-20.132,20.709-30.198,31.064
	c-0.065-0.9,0.231-1.487,0.671-1.933c9.557-9.666,19.148-19.299,28.663-29.006c0.689-0.703,1.269-1.955,1.195-2.897
	c-0.952-12.163-6.373-22.647-12.565-32.823c-0.067-0.109-0.278-0.131-0.717-0.322c-2.852,2.736-5.792,5.556-8.732,8.375
	c-0.18-0.194-0.359-0.388-0.539-0.582C391.646,263.36,394.64,260.512,397.78,257.526z M289.351,168.867
	c-5.37,0.411-10.033,0.768-14.86,1.138c0.738,6.315,0.69,12.422,0.726,18.531c-0.43,0.014-0.86,0.028-1.291,0.042
	c-0.348-6.093-0.695-12.187-1.055-18.491c-5.743,0.359-11.049,0.691-16.384,1.025c0,6.076,0,11.745,0,17.415
	c-0.336,0.003-0.673,0.007-1.009,0.01c0-5.726,0-11.452,0-16.801c-7.114,0-13.685,0-20.642,0c0.37,5.979,0.722,11.414,1.025,16.851
	c0.042,0.75-0.158,1.513-0.246,2.27c-0.409-0.015-0.817-0.03-1.226-0.045c-0.378-6.197-0.755-12.394-1.147-18.812
	c-6.171,0-12.427,0-18.297,0c0,3.133-0.023,6.296,0.007,9.458c0.029,3.023,0.259,6.052,0.128,9.066
	c-0.116,2.655,1.002,3.281,3.501,3.402c18.499,0.898,36.938-0.014,55.356-1.615c5.415-0.471,10.809-1.184,16.342-1.801
	C289.965,183.197,289.662,176.122,289.351,168.867z M561.533,391.689c-0.32,0.042-0.639,0.083-0.959,0.125
	c-0.355-6.079-0.71-12.158-1.081-18.511c-5.619,0.345-10.917,0.67-16.418,1.008c0.899,6.083,0.693,11.761-0.04,17.413
	c-0.339-0.005-0.679-0.011-1.018-0.016c0-5.709,0-11.417,0-16.804c-7.022,0-13.604,0-20.491,0c0.327,6.683,0.63,12.864,0.933,19.045
	c-0.473,0.021-0.945,0.041-1.418,0.062c-0.408-6.264-0.817-12.527-1.233-18.907c-6.249,0-12.441,0-18.163,0
	c0,7.199,0,14.362,0,21.73c25.561,1.605,50.42-0.044,75.292-3.163c-0.325-7.403-0.634-14.463-0.947-21.601
	c-5.308,0.409-10.027,0.773-14.456,1.115C561.533,379.592,561.533,385.64,561.533,391.689z M561.561,346.098
	c-5.19,0.4-9.919,0.764-14.93,1.15c0.791,6.306,0.841,12.428,0.636,18.547c-0.391,0.015-0.782,0.031-1.174,0.046
	c-0.346-6.159-0.693-12.317-1.042-18.527c-5.846,0.368-11.078,0.697-16.409,1.032c0.799,6.02,0.591,11.72,0.084,17.408
	c-0.309-0.006-0.617-0.012-0.926-0.018c0-2.858,0-5.716,0-8.573c0-2.883,0-5.765,0-8.185c-7.318,0-13.888,0-20.711,0
	c0.314,6.689,0.602,12.807,0.89,18.926c-0.335,0.014-0.67,0.027-1.006,0.041c-1.602-6.106-0.976-12.464-1.417-18.717
	c-6.444,0-12.611,0-18.32,0c0,7.268,0,14.361,0,21.631c25.455,1.578,50.258-0.023,75.208-3.156
	C562.15,360.54,561.864,353.526,561.561,346.098z M538.092,298.92c-7.177,0.283-13.74,0.542-20.574,0.812
	c0.33,6.526,0.639,12.614,0.947,18.702c-0.335,0.022-0.669,0.043-1.004,0.065c-1.539-6.076-1.19-12.379-1.461-18.758
	c-6.454,0-12.679,0-18.373,0c0,7.274,0,14.362,0,21.638c25.52,1.613,50.327-0.046,75.292-3.129
	c-0.304-7.206-0.603-14.277-0.912-21.602c-5.24,0.402-10.033,0.769-14.47,1.11c0,6.447,0,12.487,0,18.526
	c-0.231,0.025-0.461,0.049-0.692,0.074c-1.423-5.978-0.287-12.279-1.58-18.495c-5.469,0.347-10.766,0.684-16.209,1.029
	c0.952,6.047,0.668,11.745,0.009,17.426c-0.324-0.002-0.649-0.004-0.973-0.007C538.092,310.597,538.092,304.882,538.092,298.92z
	 M246.113,238.005c-0.298,0.001-0.596,0.003-0.894,0.004c0-2.859,0.033-5.718-0.009-8.576c-0.043-2.889-0.162-5.778-0.236-8.259
	c-7.109,0-13.687,0-20.56,0c0.346,6.705,0.665,12.879,0.984,19.053c-0.352,0.025-0.705,0.049-1.057,0.074
	c-1.48-6.148-1.24-12.505-1.285-18.929c-6.583,0-12.777,0-18.489,0c0,7.21,0,14.383,0,21.613c1.2,0.143,1.85,0.257,2.506,0.294
	c20.766,1.168,41.458,0.046,62.113-2.08c1.039-0.107,2.25-0.321,3.024-0.935c7.52-5.963,7.499-5.99,7.034-15.585
	c-0.069-1.426-0.111-2.855-0.257-4.274c-0.072-0.701-0.352-1.381-0.527-2.028c-4.947,0.373-9.61,0.724-14.015,1.056
	c0,6.376,0,12.49,0,18.605c-0.231,0.024-0.462,0.048-0.693,0.072c-1.464-5.979-0.173-12.298-1.594-18.54
	c-5.408,0.337-10.713,0.668-16.044,1C246.113,226.6,246.113,232.303,246.113,238.005z M486.774,323.399
	c0.166,2.429,0.39,4.51,0.435,6.594c0.089,4.113,0.223,8.234,0.056,12.34c-0.104,2.548,0.803,3.227,3.28,3.346
	c20.262,0.972,40.446-0.036,60.596-2.108c3.732-0.384,7.452-0.882,10.652-1.264c0-6.352,0.041-12.382-0.075-18.409
	c-0.01-0.506-1.101-1.445-1.645-1.414c-4.337,0.252-8.663,0.69-12.975,1.07c0,5.71,0,11.207,0,16.704
	c-0.332,0.022-0.665,0.044-0.997,0.066c-0.3-5.492-0.6-10.984-0.911-16.689c-5.524,0.28-10.835,0.549-16.169,0.82
	c0.034,5.51,0.429,10.701-0.449,15.797c-0.312-0.014-0.625-0.028-0.937-0.042c0-5.187,0-10.375,0-15.56c-6.996,0-13.588,0-20.146,0
	c0,3.181,0.008,6.191-0.002,9.201c-0.01,2.882,0.925,5.792,0.398,8.659c-0.428,0.011-0.856,0.022-1.284,0.034
	c-0.406-5.957-0.812-11.915-1.237-18.139C499.233,324.072,493.063,323.739,486.774,323.399z M225.402,214.641
	c-0.323,0.024-0.646,0.048-0.969,0.072c-1.671-5.852-1.226-11.976-1.439-18.122c-6.542-0.292-12.745-0.568-18.379-0.819
	c0,7.566,0,14.648,0,21.867c25.562,1.508,50.389-0.017,75.186-3.176c-0.27-6.717-0.534-13.29-0.804-19.999
	c-5.103,0.471-9.821,0.906-14.528,1.341c0,5.77,0,11.237,0,16.704c-0.339,0.015-0.678,0.031-1.018,0.046
	c-0.301-5.498-0.601-10.996-0.908-16.617c-5.592,0.271-10.846,0.525-16.529,0.801c0,5.38,0,10.587,0,15.793
	c-0.364-0.003-0.728-0.007-1.092-0.01c0-1.095-0.023-2.191,0.004-3.285c0.084-3.357,0.157-6.714,0.296-10.069
	c0.074-1.795-0.524-2.462-2.475-2.42c-5.455,0.117-10.916-0.032-16.374-0.053c-0.552-0.002-1.104,0.156-1.917,0.278
	C224.776,202.954,225.089,208.797,225.402,214.641z M286.741,381.35c-0.142-2.901-0.19-5.664-0.465-8.404
	c-0.077-0.772-0.656-1.678-1.28-2.181c-3.653-2.946-7.359-5.831-11.121-8.637c-0.709-0.529-1.751-0.612-2.749-0.936
	c0.163,3.604,0.35,6.617,0.421,9.633c0.068,2.872,0.015,5.748,0.015,8.622c-0.4,0-0.8-0.001-1.2-0.001
	c-0.316-5.846-0.632-11.692-0.963-17.824c-5.612,0.406-10.911,0.79-16.005,1.159c0,3.164,0.036,6.007-0.007,8.848
	c-0.105,7.005-0.119,7.005-1.477,7.791c0-5.502,0-10.912,0-16.128c-6.946,0-13.593,0-20.591,0
	c0.353,5.723,0.693,10.994,0.988,16.267c0.04,0.714-0.142,1.441-0.221,2.161c-0.418-0.02-0.836-0.04-1.254-0.06
	c-0.369-6.042-0.738-12.084-1.13-18.492c-6.228,0-12.459,0-18.169,0c0,7.043,0,14.128,0,21.119
	C223.782,386.239,263.465,384.649,286.741,381.35z M399.232,232.163c-0.138,0.942-0.266,1.513-0.3,2.09
	c-0.291,4.942-0.446,9.896-0.882,14.825c-0.34,3.843,0.642,5.435,4.345,5.71c17.346,1.289,34.703,2.115,52.103,1.133
	c1.611-0.091,2.178-0.613,2.206-2.213c0.117-6.584,0.333-13.166,0.509-19.612c-6.198,0-12.444,0-18.909,0
	c0,3.379,0.136,6.49-0.038,9.584c-0.174,3.089-0.658,6.161-1.007,9.24c-0.392-0.03-0.784-0.06-1.177-0.09
	c0.305-6.208,0.609-12.415,0.937-19.102c-6.997,0-13.582,0-20.68,0c0,5.487,0,11.215,0,16.943c-0.33-0.006-0.659-0.012-0.989-0.018
	c0-5.757,0-11.514,0-17.486C409.955,232.831,404.706,232.504,399.232,232.163z M252.059,338.195c-7.182,0-13.759,0-20.339,0
	c0,3.703-0.07,6.889,0.02,10.07c0.085,2.986,0.743,5.974,0.509,8.95c-0.471,0.016-0.941,0.031-1.412,0.047
	c-0.375-6.193-0.75-12.385-1.138-18.788c-6.263,0-12.484,0-18.138,0c0,7.309,0,14.468,0,21.541
	c14.938,1.776,53.378,0.391,58.336-2.114c-2.26-2.526-4.791-4.798-6.616-7.539c-2.159-3.245-3.975-6.788-5.435-10.406
	c-1.067-2.645-2.552-2.874-4.908-2.09c0,5.743,0,11.479,0,17.216c-0.293,0-0.586,0-0.879,0.001
	C252.059,349.402,252.059,343.722,252.059,338.195z M245.638,282.477c-7.264,0.281-13.835,0.535-20.672,0.8
	c0.335,6.485,0.653,12.641,0.971,18.797c-0.308,0.017-0.615,0.034-0.923,0.051c-1.777-6.134-1.231-12.548-1.538-18.879
	c-6.529,0-12.719,0-18.329,0c0,7.274,0,14.425,0,21.724c15.243,0,29.872,0,44.19,0c0.832-7.943,1.604-15.314,2.395-22.862
	c-1.62,0.087-3.262,0.176-5.112,0.276c0,5.936,0,11.673,0,17.411c-0.327,0.002-0.655,0.005-0.982,0.007
	C245.638,294.138,245.638,288.474,245.638,282.477z M205.117,307.951c0,7.043,0,14.131,0,21.385
	c16.384,1.119,32.188,0.728,47.775-0.408c-1.175-7.253-2.32-14.322-3.488-21.538c-0.824,0.066-1.697,0.137-2.706,0.218
	c0,5.704,0,11.156,0,16.608c-0.314,0.022-0.629,0.044-0.943,0.066c-0.096-0.952-0.285-1.906-0.272-2.857
	c0.047-3.693,0.125-7.386,0.259-11.076c0.071-1.962-0.448-2.84-2.723-2.65c-3.927,0.328-7.887,0.271-11.834,0.345
	c-1.982,0.037-3.965,0.006-6.214,0.006c0.339,6.473,0.652,12.449,0.965,18.425c-0.351,0.02-0.701,0.039-1.052,0.059
	c-1.412-5.954-1.237-12.092-1.349-18.583C217.103,307.951,210.927,307.951,205.117,307.951z M219.163,247.355
	c0,7.352,0,14.499,0,22.058c12.13,0,23.629,0.014,35.128-0.039c0.626-0.003,1.564-0.401,1.826-0.896
	c3.622-6.839,4.448-14.084,3.098-21.334c-6.79,0-13.369,0-19.935,0c0,3.693-0.039,6.874,0.011,10.053
	c0.047,3.001,0.816,6.01,0.032,9.019c-2.083-6.122-1.569-12.485-1.908-18.932c-6.158,0-12.034-0.003-17.91,0.008
	C219.186,247.293,218.868,247.416,219.163,247.355z M409.635,258.012c-1.629,6.202-0.601,14.949,2.374,19.801
	c0.312,0.508,1.164,0.912,1.796,0.961c6.11,0.472,12.227,0.866,18.344,1.25c0.471,0.03,1.015-0.081,1.427-0.307
	c4.033-2.208,8.057-4.433,12.047-6.718c0.51-0.292,1.124-0.929,1.159-1.442c0.281-4.162,0.436-8.333,0.632-12.562
	c-7.019,0-13.681,0-20.781,0c0,5.305,0,10.427,0,15.55c-0.29-0.008-0.58-0.016-0.87-0.023c0-5.195,0-10.39,0-15.725
	C420.117,258.523,414.859,258.266,409.635,258.012z M253.69,323.138c2.053,5.441,3.828,10.203,5.672,14.938
	c0.184,0.473,0.733,0.996,1.215,1.131c2.968,0.832,5.965,1.558,9.468,2.452c-1.328-3.546-2.282-6.31-3.431-8.991
	c-0.242-0.564-1.154-1.053-1.831-1.179c-2.219-0.411-4.479-0.594-6.706-0.969c-0.498-0.084-0.924-0.595-1.383-0.91
	c0.078-0.138,0.155-0.275,0.233-0.413c2.843,0.258,5.685,0.517,8.335,0.758c-1.12-8.206-2.187-16.032-3.255-23.859
	c-0.183-0.232-0.365-0.465-0.548-0.697c-0.537,0.948-1.073,1.896-1.61,2.844c0.685-1.822,2.327-3.261,2.491-4.852
	c0.749-7.234,1.082-14.51,1.587-22.11c-2.732,0.142-5.717,0.256-8.692,0.503c-0.385,0.032-0.956,0.71-1.029,1.156
	c-0.917,5.589-1.758,11.19-2.699,17.31c3.547,0,6.434,0,9.322,0c-0.004,0.296-0.008,0.591-0.012,0.887c-2.934,0-5.868,0-9.371,0
	c0.712,7.21,1.374,13.919,2.021,20.466c3.686,0.734,7.097-0.382,9.979,1.375c-0.025,0.25-0.05,0.499-0.075,0.749
	C260.45,323.551,257.528,323.372,253.69,323.138z M199.345,279.894c0.124,0.379,0.247,0.759,0.371,1.138
	c17.173-0.479,34.346-0.946,51.517-1.489c0.623-0.02,1.558-0.665,1.772-1.235c0.728-1.941,1.198-3.979,1.815-6.149
	c-3.015,0-5.869,0.262-8.654-0.066c-3.447-0.406-4.728,2.93-7.702,3.514c0.842-1.013,1.683-2.026,2.961-3.564
	c-5.17,0-9.754-0.128-14.325,0.063c-1.824,0.076-3.635,0.806-5.421,1.339c-0.916,0.274-1.766,0.77-2.646,1.166
	c-0.092-0.189-0.185-0.377-0.277-0.566c0.831-0.618,1.662-1.237,2.897-2.156c-2.986-0.235-5.534-0.467-8.087-0.618
	c-0.808-0.048-1.823-0.165-2.411,0.236C207.167,274.23,203.271,277.083,199.345,279.894z M469.119,343.905
	c-0.199-2.232-0.451-4.207-0.538-6.189c-0.191-4.361-0.246-8.729-0.495-13.086c-0.04-0.702-0.729-1.903-1.224-1.961
	c-4.967-0.582-9.957-0.972-14.72-1.397c0,3.017-0.087,5.935,0.022,8.845c0.135,3.603,0.376,7.206,0.717,10.795
	c0.058,0.609,0.803,1.594,1.312,1.65C459.092,343.097,464.007,343.469,469.119,343.905z M186.287,241.623
	c-0.19-4.691-0.37-9.113-0.549-13.535c-0.081-2.012-0.083-4.031-0.286-6.031c-0.062-0.608-0.625-1.621-1.044-1.667
	c-5.038-0.556-10.091-0.965-15.315-1.427c0.362,6.67,0.665,13.113,1.134,19.545c0.047,0.648,1.046,1.682,1.695,1.758
	C176.661,240.827,181.427,241.189,186.287,241.623z M176.034,335.927c0.362,7.252,0.711,14.226,1.065,21.308
	c5.651,0.495,10.863,0.952,16.104,1.411c-0.3-7.147-0.59-14.056-0.885-21.094C186.883,337.01,181.652,336.488,176.034,335.927z
	 M183.534,244.826c0.38,6.667,0.709,13.111,1.172,19.545c0.049,0.68,0.836,1.811,1.377,1.872c4.891,0.551,9.803,0.909,14.669,1.32
	c-0.301-7.191-0.59-14.108-0.88-21.042C194.349,245.948,189.123,245.406,183.534,244.826z M175.995,360.351
	c0.382,6.74,0.724,13.259,1.167,19.772c0.038,0.561,0.691,1.501,1.136,1.549c4.974,0.542,9.962,0.944,14.908,1.38
	c-0.309-7.25-0.603-14.165-0.898-21.088C186.796,361.419,181.628,360.908,175.995,360.351z M169.636,280.719
	c0.356,6.734,0.664,13.182,1.091,19.622c0.043,0.64,0.765,1.718,1.261,1.772c4.985,0.542,9.988,0.913,14.84,1.32
	c-0.307-7.182-0.602-14.098-0.9-21.055C180.408,281.815,175.172,281.282,169.636,280.719z M179.547,169.482
	c0.385,6.794,0.746,13.458,1.181,20.116c0.028,0.427,0.599,1.138,0.972,1.176c5.038,0.51,10.087,0.923,15.059,1.355
	c-0.181-4.108-0.349-7.866-0.511-11.623c-0.116-2.677-0.15-5.362-0.395-8.027c-0.054-0.59-0.797-1.541-1.304-1.598
	C189.669,170.335,184.772,169.946,179.547,169.482z M185.401,195.048c-5.648-0.562-10.863-1.081-16.322-1.623
	c0.368,6.735,0.665,13.247,1.17,19.743c0.05,0.649,1.305,1.619,2.096,1.724c3.404,0.453,6.844,0.644,10.271,0.919
	c1.285,0.103,2.572,0.174,3.656,0.246C185.975,208.887,185.691,202.037,185.401,195.048z M186.815,327.877
	c-0.188-4.984-0.362-9.741-0.55-14.496c-0.07-1.761-0.077-3.534-0.313-5.274c-0.076-0.565-0.744-1.448-1.216-1.499
	c-4.968-0.539-9.951-0.939-15.088-1.391c0.348,6.651,0.653,13.094,1.075,19.529c0.041,0.625,0.758,1.672,1.252,1.728
	C176.951,327.04,181.946,327.44,186.815,327.877z M492.356,231.563c-5.103,0.447-9.868,0.799-14.61,1.355
	c-0.652,0.077-1.652,1.134-1.698,1.793c-0.262,3.763-0.232,7.545-0.405,11.315c-0.124,2.708-0.411,5.409-0.633,8.205
	c4.944-0.436,9.619-0.889,14.301-1.234c1.323-0.097,1.957-0.514,2.023-1.919C491.633,244.64,492.001,238.206,492.356,231.563z
	 M462.179,297.203c0.357,6.711,0.665,13.133,1.092,19.548c0.042,0.626,0.763,1.673,1.262,1.732c4.96,0.584,9.94,1.001,14.844,1.458
	c-0.31-7.179-0.607-14.083-0.911-21.125C473.037,298.278,467.801,297.76,462.179,297.203z M452.109,346.702
	c0,2.667-0.079,5.087,0.018,7.499c0.162,4.021,0.387,8.042,0.718,12.052c0.052,0.625,0.751,1.657,1.242,1.714
	c4.966,0.574,9.95,0.984,14.852,1.432c-0.319-7.204-0.626-14.119-0.936-21.116C462.532,347.739,457.294,347.217,452.109,346.702z
	 M217.384,268.974c0-4.665-0.003-9.082,0.001-13.498c0.002-2.092,0.161-4.198-0.05-6.267c-0.077-0.757-0.997-2.022-1.568-2.042
	c-4.644-0.167-9.297-0.094-14.038-0.094c0.268,6.058,0.51,12.406,0.879,18.746c0.042,0.727,0.73,1.975,1.223,2.03
	C208.297,268.342,212.786,268.622,217.384,268.974z M209.797,384.466c0-3.135-0.02-5.966,0.005-8.797
	c0.03-3.349,0.222-6.704,0.076-10.044c-0.045-1.036-0.917-2.887-1.483-2.916c-4.707-0.237-9.431-0.134-14.226-0.134
	c0.06,1.27,0.136,2.767,0.202,4.263c0.21,4.769,0.397,9.538,0.638,14.305c0.059,1.165,0.129,2.257,1.876,2.343
	C201.144,383.697,205.392,384.117,209.797,384.466z M209.847,360.032c0-2.556-0.012-4.798,0.003-7.041
	c0.026-3.86,0.166-7.722,0.043-11.577c-0.035-1.089-0.772-3.066-1.263-3.09c-4.814-0.234-9.643-0.141-14.46-0.141
	c0.31,6.7,0.63,13.62,0.958,20.702C200.256,359.284,204.984,359.653,209.847,360.032z M469.824,348.841
	c0.082,1.122,0.211,2.453,0.27,3.789c0.214,4.861,0.34,9.728,0.665,14.581c0.058,0.868,0.821,2.35,1.394,2.418
	c4.447,0.532,8.928,0.787,13.539,1.138c0-6.506,0.009-12.699-0.015-18.891c-0.002-0.574-0.08-1.238-0.376-1.697
	c-0.348-0.539-0.964-1.268-1.478-1.28C479.231,348.799,474.637,348.841,469.824,348.841z M213.354,193.558
	c0-3.368-0.016-6.292,0.004-9.214c0.023-3.271,0.192-6.546,0.052-9.808c-0.042-0.966-0.878-2.694-1.412-2.719
	c-4.737-0.215-9.489-0.125-14.303-0.125c0.315,6.678,0.641,13.593,0.975,20.666C203.728,192.771,208.461,193.158,213.354,193.558z
	 M202.9,217.56c0-2.098-0.008-3.927,0.002-5.757c0.023-4.368,0.11-8.737,0.049-13.104c-0.017-1.229,0.262-3.009-1.745-3.049
	c-4.583-0.091-9.169-0.029-13.953-0.029c0.312,6.682,0.639,13.663,0.97,20.747C193.325,216.782,198,217.162,202.9,217.56z
	 M485.704,345.34c0-6.611,0.013-12.805-0.019-18.998c-0.003-0.654-0.187-1.348-0.456-1.947c-0.171-0.38-0.653-0.878-1.001-0.883
	c-4.753-0.058-9.508-0.039-14.341-0.039c0.304,6.654,0.621,13.574,0.944,20.636C475.897,344.528,480.645,344.921,485.704,345.34z
	 M495.941,321.307c0-4.945,0-9.529,0-14.113c0-2.001,0.107-4.012-0.066-5.998c-0.055-0.633-0.845-1.707-1.322-1.72
	c-4.733-0.129-9.47-0.078-14.228-0.078c0.296,6.21,0.577,12.648,0.954,19.081c0.034,0.58,0.636,1.571,1.056,1.616
	C486.88,320.588,491.441,320.929,495.941,321.307z M458.457,255.634c5.084-0.42,9.864-0.815,14.817-1.224
	c0.316-7.245,0.618-14.14,0.905-20.714c-4.437,0-8.611,0.135-12.77-0.053c-2.344-0.106-2.927,1.092-2.938,2.96
	C458.435,242.787,458.457,248.971,458.457,255.634z M500.165,396.769c0-6.469,0.013-12.499-0.016-18.528
	c-0.004-0.745-0.121-1.532-0.391-2.218c-0.177-0.449-0.72-1.067-1.107-1.073c-4.748-0.074-9.498-0.048-14.3-0.048
	c0.309,6.689,0.628,13.608,0.954,20.662C490.392,395.977,495.136,396.361,500.165,396.769z M187.26,221.123
	c0.307,6.702,0.623,13.61,0.949,20.72c5.112,0.403,9.905,0.782,14.658,1.157c0-3.142-0.013-5.895,0.003-8.648
	c0.021-3.521,0.127-7.044,0.062-10.563c-0.021-1.152,0.114-2.676-1.825-2.67C196.594,221.132,192.081,221.123,187.26,221.123z
	 M203.515,304.877c0-5.918-0.073-11.368,0.022-16.815c0.085-4.886,0.077-5.056-4.79-5.213c-3.635-0.117-7.277-0.023-10.968-0.023
	c0.328,6.931,0.655,13.843,0.986,20.852C193.913,304.097,198.641,304.481,203.515,304.877z M203.409,329.253
	c0-3.355-0.011-6.349,0.003-9.344c0.016-3.352,0.156-6.708,0.011-10.052c-0.037-0.846-0.925-2.348-1.47-2.37
	c-4.659-0.19-9.329-0.109-14.147-0.109c0.298,6.625,0.609,13.53,0.932,20.707C193.794,328.488,198.585,328.87,203.409,329.253z
	 M416.472,304.748c1.796-0.129,4.211,0.176,6.23-0.578c2.186-0.817,3.916-2.775,6.01-3.941c1.319-0.734,1.625-1.512,1.631-2.948
	c0.018-4.734,0.248-9.467,0.402-14.383c-0.796,0-2.144,0-4.038,0c0,5.819,0,11.52,0,17.222c-0.32-0.01-0.64-0.02-0.959-0.03
	c0-5.772,0-11.544,0-17.477c-4.22-0.24-8.251-0.47-12.021-0.685C414.646,289.574,415.523,296.865,416.472,304.748z M552.157,371.717
	c0.002,0.08,0.004,0.16,0.007,0.239c1.828-0.101,3.672-0.078,5.48-0.324c10.018-1.368,20.052-2.644,30.028-4.275
	c5.414-0.885,10.636-2.595,14.221-7.253c2.003-2.603,2.14-4.951-0.213-7.21c-2.351-2.257-5.179-4.018-8.284-6.363
	c-0.159,3.088-0.624,5.285-0.307,7.363c0.668,4.375-1.59,7.078-5.015,8.651c-5.223,2.399-10.561,4.814-16.107,6.176
	C565.507,370.307,558.772,370.768,552.157,371.717z M467.145,266.178c0.209-2.778,0.408-5.428,0.632-8.398
	c-6.122,0.286-12.354,0.578-18.911,0.884c0,4.397,0,8.588,0,12.687C454.894,269.646,460.986,267.922,467.145,266.178z
	 M149.847,325.734c2.365,1.097,4.65,2.428,7.107,3.251c14.077,4.716,28.714,5.766,43.402,6.622c3.185,0.186,4.927-1.245,6.923-3.308
	C188.002,330.042,168.745,329.96,149.847,325.734z M291.967,190.38c2.97-0.54,5.659-1.029,8.424-1.532
	c-0.547-7.274-1.072-14.24-1.608-21.371c-2.959,0.46-5.493,0.854-7.92,1.231C291.235,176.02,291.593,183.048,291.967,190.38z
	 M564.152,367.576c2.886-0.509,5.623-0.992,8.424-1.486c-0.556-7.34-1.085-14.317-1.621-21.388c-2.88,0.45-5.418,0.846-7.911,1.235
	C563.414,353.168,563.773,360.186,564.152,367.576z M573.514,296.454c0.373,7.238,0.738,14.323,1.116,21.675
	c2.927-0.538,5.672-1.042,8.414-1.545c-0.555-7.293-1.081-14.209-1.623-21.327C578.667,295.673,576.133,296.057,573.514,296.454z
	 M585.437,370.709c-2.846,0.436-5.432,0.832-7.932,1.214c0.39,7.381,0.76,14.392,1.141,21.622c2.914-0.52,5.674-1.013,8.393-1.498
	C586.5,384.874,585.987,378.037,585.437,370.709z M396.39,249.382c0.338-5.307,0.665-10.644,1.026-15.98
	c0.117-1.727-1.158-1.586-2.193-1.659c-3.173-0.222-6.35-0.443-9.529-0.523c-1.012-0.026-2.876,0.291-2.915,0.62
	c-0.23,1.944-0.856,4.751,0.157,5.772C387.104,241.811,391.813,245.469,396.39,249.382z M563.184,322.069
	c0.316,6.767,0.62,13.266,0.936,20.04c2.894-0.512,5.641-0.998,8.454-1.496c-0.51-6.681-0.997-13.046-1.49-19.503
	C568.24,321.456,565.842,321.747,563.184,322.069z M289.932,212.871c-0.506-6.694-0.984-13.021-1.477-19.544
	c-2.793,0.359-5.317,0.683-7.928,1.019c0.341,6.759,0.665,13.189,1.008,19.972C284.445,213.817,287.127,213.355,289.932,212.871z
	 M175.01,243.185c0,7.482,0,14.512,0,21.732c2.623,0.331,5.133,0.648,7.669,0.968c-0.285-7.346-0.556-14.357-0.837-21.6
	c1.091,0,2.036,0,2.98,0c-0.007-0.087-0.013-0.174-0.02-0.261C181.575,243.747,178.347,243.471,175.01,243.185z M294.682,237.337
	c-4.861,0-9.493-0.011-14.124,0.019c-0.388,0.003-0.774,0.28-1.161,0.429c-4.997,1.923-7.432,6.364-10.977,10.775
	c4.717-0.31,8.768-0.198,12.633-0.993c1.906-0.392,3.458-2.474,5.189-3.765c1.206-0.9,2.471-1.723,3.662-2.641
	C291.52,239.917,293.091,238.615,294.682,237.337z M206.057,336.026c16.37-0.275,32.74-0.549,49.142-0.824
	c-0.201-2.996-1.293-3.709-3.748-3.633c-12.582,0.391-25.171,0.703-37.757,0.678C210.486,332.24,208.001,332.824,206.057,336.026z
	 M453.677,295.597c0,7.32,0,14.407,0,21.671c2.659,0.323,5.183,0.629,7.786,0.945c-0.177-2.532-0.378-4.695-0.47-6.862
	c-0.178-4.19-0.243-8.386-0.488-12.571c-0.043-0.729-0.6-1.867-1.163-2.045C457.54,296.164,455.624,295.957,453.677,295.597z
	 M443.181,319.575c0,7.264,0,14.367,0,21.667c2.655,0.338,5.173,0.658,7.791,0.991c-0.196-3.069-0.408-5.738-0.528-8.412
	c-0.169-3.775-0.217-7.557-0.449-11.328c-0.04-0.656-0.612-1.679-1.141-1.831C447.03,320.135,445.117,319.919,443.181,319.575z
	 M443.178,345.048c0,7.311,0,14.393,0,21.67c2.64,0.325,5.153,0.635,7.72,0.951c-0.172-3.816-0.338-7.321-0.485-10.827
	c-0.147-3.498-0.277-6.996-0.415-10.528C447.554,345.86,445.433,345.466,443.178,345.048z M168.958,301.804
	c-0.174-2.108-0.37-3.774-0.437-5.446c-0.185-4.617-0.26-9.239-0.522-13.85c-0.046-0.805-0.628-2.058-1.242-2.263
	c-1.771-0.59-3.685-0.749-5.592-1.086c0,7.354,0,14.456,0,21.644C163.779,301.138,166.249,301.456,168.958,301.804z M161.127,303.55
	c0,7.234,0,14.325,0,21.7c2.629,0.301,5.201,0.595,7.804,0.892c-0.177-2.297-0.376-4.129-0.448-5.965
	c-0.175-4.437-0.213-8.882-0.5-13.311c-0.053-0.827-0.844-2.036-1.574-2.301C164.79,303.978,162.993,303.876,161.127,303.55z
	 M160.392,191.792c0,7.069-0.017,13.909,0.046,20.748c0.003,0.377,0.635,1.014,1.045,1.078c2.268,0.352,4.559,0.565,6.906,0.832
	c-0.129-1.694-0.272-3.019-0.325-4.347c-0.197-4.924-0.301-9.853-0.601-14.77c-0.052-0.855-0.702-2.146-1.384-2.397
	C164.396,192.316,162.534,192.184,160.392,191.792z M160.595,217.313c0,7.255,0,14.331,0,21.651
	c2.608,0.321,5.132,0.631,7.817,0.961c-0.141-1.598-0.3-2.827-0.349-4.06c-0.198-5.014-0.299-10.033-0.598-15.041
	c-0.052-0.876-0.696-2.207-1.385-2.458C164.4,217.753,162.533,217.648,160.595,217.313z M500.791,251.556c0-7.455,0-14.516,0-21.66
	c-1.757,0.32-3.381,0.424-4.848,0.96c-0.789,0.288-1.827,1.284-1.87,2.012c-0.38,6.472-0.563,12.955-0.813,19.661
	C495.79,252.202,498.254,251.884,500.791,251.556z M178.724,190.478c-0.191-3.988-0.37-7.502-0.524-11.018
	c-0.129-2.93-0.162-5.866-0.394-8.787c-0.051-0.647-0.645-1.635-1.182-1.788c-1.8-0.513-3.687-0.719-5.538-1.041
	c0,7.319,0,14.403,0,21.634C173.712,189.822,176.168,190.143,178.724,190.478z M167.465,380.376c2.608,0.34,5.115,0.666,7.673,1
	c-0.299-7.321-0.585-14.32-0.875-21.396c-2.48-0.446-4.636-0.834-6.799-1.223C167.465,366.147,167.465,373.169,167.465,380.376z
	 M174.521,356.861c0-6.08,0.022-11.908-0.018-17.735c-0.008-1.154-0.253-2.307-0.403-3.585c-2.283-0.417-4.451-0.813-6.589-1.203
	c0,7.351,0,14.422,0,21.669C170.123,356.325,172.565,356.622,174.521,356.861z M259.903,263.99c2.101,0,3.19-0.09,4.259,0.016
	c3.985,0.395,6.583-0.921,8.447-4.832c1.724-3.616,4.6-6.683,6.841-9.814c-3.456,0-7.04-0.021-10.624,0.027
	c-0.428,0.006-1.057,0.271-1.246,0.61C265.1,254.43,262.682,258.899,259.903,263.99z M269.101,264.738
	c-1.304,0.067-2.55,0.148-3.797,0.193c-5.68,0.204-5.72,0.186-7.572,5.66c-1.103,3.261-2.057,6.573-3.165,10.142
	c3.382-0.191,6.214-0.301,9.031-0.559c0.474-0.043,1.143-0.651,1.29-1.131C266.327,274.351,267.675,269.631,269.101,264.738z
	 M159.62,300.6c0-7.044,0.031-13.634-0.049-20.223c-0.008-0.641-0.566-1.634-1.107-1.841c-1.687-0.648-3.489-0.996-5.511-1.531
	c0,7.458,0,14.627,0,22.052C154.832,299.491,156.906,299.971,159.62,300.6z M445.448,315.494c1.929,0.442,4.027,0.922,6.674,1.528
	c0-7.012,0.027-13.692-0.046-20.37c-0.006-0.591-0.536-1.525-1.033-1.699c-1.707-0.597-3.507-0.927-5.595-1.438
	C445.448,300.943,445.448,308.03,445.448,315.494z M159.085,238.719c0-6.867,0.033-13.147-0.038-19.426
	c-0.01-0.889-0.292-2.317-0.852-2.558c-1.762-0.759-3.716-1.07-5.814-1.612c0,7.578,0,14.75,0,22.091
	C154.34,237.654,156.351,238.105,159.085,238.719z M152.371,211.773c1.933,0.425,4.062,0.892,6.715,1.475
	c0-6.85,0.045-13.135-0.05-19.417c-0.014-0.905-0.47-2.301-1.122-2.601c-1.615-0.743-3.462-0.983-5.543-1.508
	C152.371,197.149,152.371,204.236,152.371,211.773z M159.117,324.866c0-2.224-0.047-4.055,0.009-5.884
	c0.14-4.53,0.398-9.057,0.431-13.587c0.006-0.832-0.631-2.143-1.301-2.412c-1.582-0.635-3.363-0.776-5.318-1.167
	c0,7.297,0,14.391,0,21.65C154.852,323.9,156.877,324.359,159.117,324.866z M509.012,227.763c-1.85,0.496-3.28,0.999-4.754,1.241
	c-1.466,0.241-1.911,0.999-1.903,2.386c0.036,6.517,0.016,13.035,0.016,19.952c2.744-0.639,4.818-1.123,6.641-1.547
	C509.012,242.357,509.012,235.244,509.012,227.763z M159.301,354.267c1.893,0.415,3.974,0.871,6.737,1.476
	c0-6.987,0.025-13.577-0.04-20.167c-0.006-0.628-0.434-1.637-0.904-1.806c-1.753-0.63-3.606-0.983-5.793-1.534
	C159.301,339.739,159.301,346.816,159.301,354.267z M449.563,391.004c1.949,0.405,4.015,0.835,6.342,1.319
	c0-7.452,0-14.448,0-21.615c-2.123-0.202-4.101-0.39-6.342-0.604C449.563,377.075,449.563,383.844,449.563,391.004z
	 M435.045,317.581c0,7.444,0,14.654,0,21.97c2.083,0.437,4.089,0.858,6.415,1.345c0-5.448-0.189-10.55,0.046-15.632
	C441.826,318.381,443.092,319.402,435.045,317.581z M434.989,342.968c0,7.505,0,14.649,0,21.999
	c1.928,0.439,4.034,0.919,6.778,1.545c0-6.919,0.033-13.533-0.05-20.146c-0.008-0.667-0.567-1.707-1.12-1.916
	C438.917,343.814,437.115,343.5,434.989,342.968z M162.888,165.999c0,7.273,0,14.44,0,21.777c1.937,0.422,3.962,0.864,6.224,1.357
	c0-1.095-0.008-1.915,0.001-2.736c0.049-4.281-0.067-8.573,0.192-12.842c0.454-7.466,1.264-5.688-5.784-7.655
	C163.448,165.879,163.357,165.922,162.888,165.999z M166.03,380.196c0-7.019,0.027-13.696-0.049-20.372
	c-0.006-0.554-0.609-1.435-1.11-1.589c-1.703-0.522-3.484-0.785-5.577-1.218c0,7.362,0,14.35,0,21.628
	C161.151,379.073,163.241,379.554,166.03,380.196z M419.897,331.564c0-7.679,0-15.066,0-22.584c-1.369,0-2.763,0-3.929,0
	c-1.349,7.438-2.669,14.717-4.016,22.144C414.474,331.263,417.033,331.405,419.897,331.564z M166.864,242.254
	c0,7.119,0,13.862,0,20.911c1.843,0.434,3.966,0.934,6.457,1.52c0-7.488,0-14.498,0-21.669
	C171.304,242.778,169.331,242.545,166.864,242.254z M281.178,232.103c1.98-0.321,3.876-0.381,5.568-0.998
	c0.994-0.362,2.368-1.613,2.363-2.456c-0.023-3.815-0.477-7.627-0.795-11.689c-2.895,0.452-5.494,0.858-7.94,1.24
	C280.66,223.151,280.929,227.8,281.178,232.103z M484.631,257.493c-3.004,0-5.828-0.057-8.649,0.011
	c-7.731,0.185-7.745,0.221-6.806,7.986c0.015,0.124,0.199,0.228,0.33,0.37c3.266-0.61,6.538-1.273,9.829-1.824
	C484.771,263.125,484.776,263.155,484.631,257.493z M283.349,235.701c0.062,0.204,0.124,0.409,0.187,0.613
	c6.776-0.969,13.917-0.02,20.047-4.354c1.652-1.168,3.791-1.648,6.31-2.694c-4.299-0.441-7.884-0.829-11.474-1.156
	c-0.643-0.059-1.41-0.046-1.948,0.248C292.074,230.763,287.718,233.243,283.349,235.701z M596.199,311.423
	c2.458-1.382,4.671-2.634,4.778-5.448c0.181-4.764,0.187-9.535,0.188-14.304c0.001-1.86-0.21-3.72-0.325-5.58
	c-0.374-0.042-0.748-0.085-1.122-0.127c-0.323,1.468-0.964,2.948-0.912,4.403c0.183,5.193,0.644,10.375,0.894,15.567
	c0.05,1.037-0.369,2.096-0.571,3.144c-0.425-0.022-0.851-0.044-1.276-0.066c-0.252-6.371-0.504-12.742-0.762-19.264
	c-2.164,0.605-2.676,1.625-2.613,3.432C594.688,299.195,594.485,305.237,596.199,311.423z M486.526,257.117
	c-0.093,1.884-0.186,3.754-0.282,5.694c5.567-0.586,10.799-1.137,16.135-1.699c0.152-1.908,0.296-3.701,0.45-5.637
	C497.298,256.032,492.059,256.56,486.526,257.117z M591.966,369.185c-1.761,0.434-3.036,0.749-4.573,1.128
	c0.634,7.003,1.255,13.862,1.878,20.747c3.916-0.672,3.858-0.667,3.541-4.241c-0.185-2.084-0.121-4.19-0.223-6.283
	C592.41,376.87,592.189,373.206,591.966,369.185z M572.937,344.347c0.627,7.04,1.24,13.931,1.857,20.855
	c3.96-0.911,3.915-0.907,3.611-4.551c-0.195-2.34-0.222-4.693-0.343-7.04c-0.176-3.409-0.368-6.818-0.562-10.374
	C575.834,343.643,574.475,343.973,572.937,344.347z M583.384,294.886c0.639,7.07,1.259,13.922,1.89,20.894
	c1.542-0.638,2.7-1.117,3.735-1.545c-0.338-6.814-0.673-13.549-1.018-20.497C586.308,294.157,585.027,294.477,583.384,294.886z
	 M305.365,166.003c-1.766,0.415-3.125,0.735-4.623,1.087c0.644,7.074,1.267,13.928,1.903,20.922c1.528-0.637,2.632-1.098,3.717-1.55
	C306.036,179.771,305.711,173.09,305.365,166.003z M295.937,210.831c-0.308-6.19-0.606-12.182-0.914-18.383
	c-1.604,0.244-2.969,0.451-4.554,0.692c0.581,6.402,1.144,12.596,1.726,19.009C293.685,211.624,294.845,211.216,295.937,210.831z
	 M573.112,320.858c0.587,6.52,1.139,12.649,1.695,18.821c3.934-0.844,3.89-0.84,3.627-4.206c-0.196-2.51-0.253-5.031-0.382-7.546
	c-0.127-2.483-0.265-4.965-0.409-7.651C575.987,320.489,574.684,320.656,573.112,320.858z M440.376,291.872
	c0,7.518,0,14.614,0,21.829c1.126,0.41,2.246,0.818,3.461,1.26c0-7.534,0-14.724,0-21.985
	C442.744,292.627,441.729,292.303,440.376,291.872z M429.92,341.576c0,7.21,0,14.309,0,21.575c1.046,0.393,2.173,0.816,3.497,1.313
	c0-6.59-0.176-12.869,0.083-19.131C433.61,342.671,432.713,341.66,429.92,341.576z M151.403,298.509c0-6.62-0.161-12.9,0.075-19.164
	c0.102-2.702-0.916-3.627-3.576-3.636c0,7.094,0,14.192,0,21.541C148.846,297.589,149.985,297.999,151.403,298.509z
	 M429.903,316.105c0,6.335,0.037,12.52-0.015,18.704c-0.028,3.291-0.061,3.331,3.536,3.772c0-6.205-0.163-12.391,0.076-18.561
	C433.604,317.339,432.803,316.128,429.903,316.105z M151.399,322.972c0-6.598-0.151-12.808,0.07-19.004
	c0.096-2.675-0.949-3.585-3.568-3.68c0,7.084,0,14.092,0,21.338C148.842,321.987,149.988,322.428,151.399,322.972z M150.864,211.204
	c0-6.645-0.148-12.919,0.07-19.182c0.093-2.667-0.882-3.634-3.577-3.597c0,7.161,0,14.308,0,21.543
	C148.383,210.33,149.469,210.713,150.864,211.204z M147.308,213.52c0,7.473,0,14.583,0,21.86c1.043,0.38,2.204,0.802,3.519,1.281
	c0-7.444,0-14.642,0-21.926C149.777,214.373,148.759,214.021,147.308,213.52z M514.142,248.019c0-7.39,0-14.501,0-21.613
	c-0.21-0.165-0.42-0.329-0.63-0.494c-0.989,0.874-2.802,1.719-2.834,2.626c-0.241,6.831-0.131,13.675-0.131,20.751
	C511.971,248.786,513.063,248.4,514.142,248.019z M260.738,341.409c1.686,2.65,3.209,5.15,4.862,7.56
	c0.37,0.539,1.175,1.021,1.822,1.084c2.466,0.237,4.95,0.291,7.749,0.43c-1.382-2.399-2.51-4.531-3.826-6.54
	c-0.39-0.596-1.265-1.078-1.992-1.214C266.663,342.223,263.942,341.884,260.738,341.409z M444.5,389.167
	c0.918,0.32,2.076,0.724,3.329,1.161c0-6.931,0-13.623,0-20.384c-1.079-0.17-2.058-0.325-3.329-0.525
	C444.5,376.072,444.5,382.499,444.5,389.167z M157.742,185.992c1.101,0.335,2.26,0.687,3.507,1.067c0-6.577-0.05-12.7,0.02-18.822
	c0.039-3.377,0.022-3.496-3.527-3.758C157.742,171.52,157.742,178.553,157.742,185.992z M157.69,353.734c0-7.525,0-14.712,0-21.984
	c-1.143-0.391-2.224-0.76-3.492-1.193c0,7.423,0,14.595,0,21.87C155.298,352.839,156.379,353.244,157.69,353.734z M157.685,378.121
	c0-7.482,0-14.524,0-21.706c-1.046-0.374-2.118-0.756-3.456-1.234c0,7.369,0,14.465,0,21.656
	C155.236,377.211,156.318,377.613,157.685,378.121z M597.12,367.553c-0.195-0.173-0.39-0.347-0.584-0.52
	c-0.992,0.978-2.872,1.993-2.833,2.927c0.266,6.327,0.938,12.638,1.479,18.961c2.38-0.316,3.358-1.156,2.64-3.654
	c-0.591-2.056-0.617-4.308-0.675-6.478C597.048,375.046,597.12,371.298,597.12,367.553z M161.808,242.035c0,6.488,0,12.852,0,19.346
	c0.998,0.369,2.119,0.784,3.428,1.268c0-6.28-0.123-12.154,0.058-18.018C165.372,242.101,164.387,241.525,161.808,242.035z
	 M578.938,342.841c0.6,6.731,1.194,13.385,1.789,20.056c3.102-0.786,2.919-0.764,2.589-3.568c-0.421-3.576-0.564-7.188-0.724-10.789
	c-0.102-2.307-0.019-4.621-0.019-7.209C581.23,341.889,580.168,342.33,578.938,342.841z M592.859,292.238
	c-3.425,0.579-3.492,0.602-3.209,3.995c0.445,5.331,0.967,10.656,1.454,15.962c1.028,0.108,1.958,0.205,2.62,0.275
	C593.433,305.656,593.145,298.937,592.859,292.238z M310.15,164.373c-3.431,0.956-3.463,0.959-3.263,3.151
	c0.518,5.674,1.068,11.346,1.608,17.013c0.943,0.057,1.886,0.114,2.606,0.157C310.787,177.99,310.472,171.261,310.15,164.373z
	 M587.061,339.122c-3.003,1.198-3.017,1.198-3,3.368c0.021,2.6-0.073,5.21,0.137,7.796c0.284,3.5,0.81,6.98,1.284,10.902
	c1.443-0.981,2.253-1.532,2.478-1.685c-0.362-1.748-0.841-3.039-0.863-4.339C587.009,349.911,587.061,344.655,587.061,339.122z
	 M517.85,250.093c3.133-1.288,6.387-2.353,9.346-3.961c1.457-0.792,2.972-2.43,3.378-3.97c0.558-2.119-1.508-3.324-3.171-4.34
	c-0.962-0.588-2.007-1.04-2.876-1.483c-2.19,4.986,3.002,5.198,4.419,8.029c-1.542-0.821-3.084-1.643-4.65-2.477
	C523.055,246.236,523.055,246.236,517.85,250.093z M268.122,351.825c2.71,6.167,7.656,7.667,13.703,7.046
	c-1.543-1.915-3.06-3.887-4.693-5.759c-0.38-0.435-1.135-0.691-1.745-0.751C272.986,352.122,270.574,351.995,268.122,351.825z
	 M429.982,301.935c-1.486,0.884-3.007,1.601-4.308,2.602c-2.493,1.919-2.624,4.109-0.188,6.05c3.253,2.594,7.149,3.858,11.271,4.627
	c-3.579-1.339-6.185-3.484-6.418-7.633c-1.841,0.933-3.311,1.678-4.781,2.424C427.216,307.353,431.857,306.947,429.982,301.935z
	 M515.628,246.78c2.385-0.122,2.943-1.047,2.846-2.815c-0.164-3.011-0.125-6.033-0.141-9.051c-0.019-3.396-0.004-6.793-0.004-10.189
	c-0.391-0.12-0.783-0.239-1.174-0.359c-0.509,0.919-1.44,1.831-1.459,2.76C515.568,233.647,515.628,240.172,515.628,246.78z
	 M144.828,234.491c0.332-0.122,0.664-0.244,0.996-0.366c0-6.663,0.058-13.327-0.077-19.988c-0.016-0.796-1.081-1.571-1.66-2.356
	c-0.377,0.134-0.754,0.269-1.131,0.403c0,6.739-0.055,13.48,0.082,20.217C143.052,233.11,144.204,233.795,144.828,234.491z
	 M426.877,339.494c-0.39,0.153-0.78,0.307-1.17,0.46c0,6.681-0.056,13.363,0.078,20.04c0.015,0.75,1.108,1.478,1.701,2.216
	c0.293-0.146,0.585-0.292,0.878-0.438c0-6.512,0.058-13.025-0.066-19.535C428.28,341.314,427.373,340.408,426.877,339.494z
	 M427.101,314.094c-0.304,0.144-0.608,0.289-0.911,0.433c-0.083,0.138-0.237,0.275-0.239,0.415
	c-0.092,6.534-0.23,13.068-0.17,19.601c0.007,0.731,1.14,1.451,1.752,2.176c0.279-0.15,0.558-0.3,0.836-0.451
	c0-6.45,0.052-12.9-0.057-19.348C428.297,315.972,427.524,315.036,427.101,314.094z M151.76,351.486
	c0.306-0.13,0.613-0.26,0.919-0.389c0-6.592,0.055-13.185-0.068-19.774c-0.016-0.845-0.962-1.672-1.726-2.912
	c-0.438,0.949-0.624,1.165-0.627,1.385c-0.113,6.529-0.264,13.059-0.225,19.587C150.036,350.087,151.157,350.785,151.76,351.486z
	 M151.136,353.635c-0.396,0.173-0.792,0.345-1.188,0.518c0,6.513-0.062,13.026,0.082,19.536c0.017,0.774,1.157,1.522,1.776,2.283
	c0.294-0.137,0.588-0.273,0.883-0.41c0-6.432,0.059-12.865-0.069-19.294C152.602,355.38,151.653,354.512,151.136,353.635z
	 M155.227,185.003c0.333-0.162,0.666-0.323,0.999-0.485c0-6.527-0.043-13.054,0.029-19.58c0.018-1.672-0.768-2.162-2.232-2.254
	c-0.098,0.312-0.23,0.542-0.233,0.775c-0.104,6.447-0.251,12.894-0.21,19.339C153.585,183.537,154.652,184.268,155.227,185.003z
	 M144.708,209.041c0.377-0.125,0.753-0.249,1.13-0.374c0-6.658,0.061-13.316-0.078-19.971c-0.017-0.824-1.1-1.626-1.989-2.851
	c-0.294,1.002-0.413,1.226-0.417,1.451c-0.124,6.436-0.297,12.872-0.272,19.308C143.085,207.418,144.14,208.229,144.708,209.041z
	 M300.783,208.767c-0.399-5.784-0.777-11.263-1.171-16.979c-0.89,0.124-1.835,0.256-3.06,0.428
	c0.524,5.983,1.031,11.758,1.555,17.733C299.324,209.411,300.227,209.012,300.783,208.767z M580.72,337.47
	c3.129-0.888,3.123-0.887,2.568-3.634c-0.116-0.573-0.225-1.153-0.257-1.735c-0.232-4.161-0.444-8.324-0.673-12.674
	c-1.04,0.227-2.06,0.45-3.166,0.691C579.709,325.99,580.206,331.64,580.72,337.47z M437.303,290.023
	c-0.393,0.166-0.785,0.332-1.178,0.498c0,6.686-0.051,13.374,0.075,20.058c0.013,0.71,1.068,1.401,1.64,2.1
	c0.344-0.133,0.688-0.266,1.032-0.399c0-6.513,0.061-13.027-0.07-19.538C438.784,291.827,437.826,290.929,437.303,290.023z
	 M144.557,273.607c-0.339,0.164-0.679,0.328-1.018,0.492c0,6.6-0.06,13.201,0.075,19.798c0.017,0.833,1.053,1.646,1.617,2.468
	c0.372-0.122,0.745-0.244,1.117-0.366c0-6.746,0.055-13.492-0.079-20.235C146.254,275.034,145.154,274.326,144.557,273.607z
	 M145.139,320.675c0.4-0.122,0.799-0.244,1.199-0.366c0-6.375-0.039-12.751,0.026-19.125c0.018-1.735-0.703-2.374-2.82-2.304
	c0,6.545-0.054,13.005,0.07,19.462C143.629,319.129,144.607,319.897,145.139,320.675z M288.307,381.271
	c3.023-0.53,5.771-1.012,8.866-1.554c-0.432-1.263-0.477-2.718-1.143-3.105c-2.462-1.431-5.129-2.51-7.723-3.722
	C288.307,375.746,288.307,378.314,288.307,381.271z M290.34,216.82c0.33,3.728,0.659,7.44,1.051,11.868
	c1.579-1.311,3.681-2.206,3.803-3.318c0.348-3.174-0.11-6.436-0.259-9.866c-1.509,0.337-2.559,0.553-3.596,0.815
	C291.031,216.398,290.756,216.606,290.34,216.82z M519.307,251.976c-6.825,1.09-7.691,2.29-5.858,7.917c1.891,0,3.783,0,5.858,0
	C519.307,257.21,519.307,254.659,519.307,251.976z M159.363,260.476c0.276-0.119,0.552-0.238,0.829-0.358
	c0-5.754-0.003-11.508,0.002-17.261c0.001-1.81-1.052-1.715-2.69-1.331c0,5.632-0.067,11.235,0.082,16.831
	C157.605,259.08,158.743,259.771,159.363,260.476z M585.354,335.747c1.5-0.981,2.365-1.546,2.676-1.75
	c-2.016-5.299-0.148-10.54-1.322-15.654c-0.973,0.312-1.788,0.573-2.947,0.945C584.284,324.686,584.793,329.95,585.354,335.747z
	 M441.839,388.211c0.342-0.164,0.683-0.328,1.025-0.491c0-5.538-0.045-11.076,0.025-16.613c0.023-1.805-0.674-2.39-2.779-1.952
	c0,5.607-0.065,11.223,0.077,16.834C440.206,386.743,441.262,387.471,441.839,388.211z M504.593,255.138
	c-0.08,1.712-0.157,3.387-0.243,5.224c2.551-0.127,4.69-0.234,6.975-0.347c0-2.126,0-4.072,0-6.157
	C509.074,254.286,506.959,254.688,504.593,255.138z M589.583,357.847c0.954-7.182,1.287-14.424,0.433-21.856
	c-0.937,0.874-1.839,1.929-1.786,2.933C588.562,345.238,589.108,351.54,589.583,357.847z M310.882,224.136
	c6.24,0.38,11.866,3.282,18.159,0.407C322.914,223.068,317.235,221.552,310.882,224.136z M267.243,246.187
	c-2.481,0.113-4.617,0.211-6.626,0.302c0.18,3.593,0.334,6.687,0.51,10.204C263.249,253.047,265.149,249.783,267.243,246.187z
	 M140.293,231.353c0.202,0.003,0.403,0.005,0.605,0.008c0.313-6.493,0.676-12.985,0.873-19.482c0.025-0.811-0.828-1.648-1.274-2.474
	c-0.371,0.132-0.742,0.264-1.113,0.396C139.687,216.986,139.99,224.169,140.293,231.353z M297.265,225.592
	c1.111-0.94,2.451-1.529,2.5-2.209c0.228-3.194,0.102-6.414,0.102-10.532c-1.464,1.426-3.26,2.358-3.318,3.389
	C296.384,219.128,296.937,222.057,297.265,225.592z M288.141,365.19c-2.987-5.088-8.099-4.541-12.955-5.533
	C278.362,364.719,283.304,364.621,288.141,365.19z M282.741,366.149c4.042,3.788,8.546,5.767,14.012,5.083
	C293.056,367.154,288.112,366.409,282.741,366.149z M140.237,205.076c0.203,0.01,0.407,0.019,0.61,0.029
	c0.33-6.264,0.73-12.526,0.915-18.795c0.029-0.975-0.927-1.98-1.428-2.971c-0.317,0.089-0.633,0.179-0.95,0.268
	C139.668,190.764,139.953,197.92,140.237,205.076z M147.16,347.506c0.214-0.031,0.428-0.062,0.642-0.093
	c0.264-5.867,0.4-11.744,0.865-17.596c0.149-1.88-0.303-2.969-2.399-4.085C146.575,333.25,146.868,340.378,147.16,347.506z
	 M149.797,159.278c0.321,7.536,0.623,14.631,0.925,21.726c0.877-5.884,1.048-11.741,1.505-17.576
	C152.37,161.593,152.026,160.396,149.797,159.278z M524.436,259.95c0-3.226,0-6.352,0-10.317c-1.429,1.141-3.104,1.81-3.255,2.729
	c-0.398,2.425-0.135,4.958-0.135,7.588C522.354,259.95,523.314,259.95,524.436,259.95z M140.792,292.498
	c0.21-0.021,0.42-0.042,0.63-0.063c0.283-5.842,0.494-11.689,0.891-17.523c0.123-1.802-0.05-3.211-2.357-4.319
	C140.243,278.105,140.518,285.301,140.792,292.498z M433.809,287.185c-0.434,0.087-0.869,0.173-1.303,0.26
	c0.289,7.204,0.578,14.408,0.867,21.612c0.216-0.012,0.432-0.025,0.648-0.037c0.264-5.988,0.596-11.975,0.74-17.966
	C434.792,289.772,434.144,288.475,433.809,287.185z M520.075,243.069c0.382,0.002,0.765,0.004,1.147,0.006
	c0.284-7.107,0.568-14.213,0.865-21.646c-2.219,1.037-2.7,2.25-2.436,3.96c0.255,1.653,0.384,3.337,0.406,5.01
	C520.111,234.622,520.075,238.846,520.075,243.069z M422.007,310.902c0.31,7.664,0.601,14.846,0.891,22.029
	c0.208-0.01,0.416-0.021,0.624-0.031c0.272-6.005,0.44-12.017,0.878-18.01C424.53,313.099,423.937,312.121,422.007,310.902z
	 M422.912,358.45c0.195-0.011,0.389-0.022,0.584-0.032c0.308-6.349,0.664-12.697,0.861-19.049c0.022-0.723-0.841-1.475-1.293-2.213
	c-0.346,0.137-0.692,0.274-1.039,0.41C422.321,344.527,422.616,351.489,422.912,358.45z M303.99,211.647
	c-0.219-0.08-0.439-0.161-0.658-0.241c-0.667,0.645-1.869,1.258-1.911,1.942c-0.203,3.267-0.091,6.553-0.091,9.832
	c0.352,0.117,0.703,0.234,1.055,0.351c0.675-0.649,1.915-1.287,1.929-1.95C304.382,218.274,304.129,214.959,303.99,211.647z
	 M401.169,257.313c2.081,3.444,3.829,6.337,5.907,9.776c0.201-3.538,0.36-6.338,0.525-9.251
	C405.502,257.666,403.68,257.517,401.169,257.313z M140.857,316.862c0.188-0.012,0.376-0.025,0.564-0.037
	c0.289-5.924,0.63-11.846,0.806-17.773c0.023-0.785-0.789-1.594-1.214-2.392c-0.354,0.141-0.708,0.282-1.062,0.423
	C140.254,303.676,140.556,310.269,140.857,316.862z M147.284,351.941c-0.334,0.146-0.667,0.293-1.001,0.439
	c0.318,6.536,0.636,13.072,0.954,19.608c0.826-6.062,1.159-12.088,1.342-18.117C148.598,353.241,147.737,352.584,147.284,351.941z
	 M317.25,227.309c0.003-0.086,0.007-0.171,0.01-0.257c-2.824-0.6-5.72-0.976-8.453-1.859c-3.136-1.013-5.51,0.537-8.145,1.319
	c0.026,0.266,0.053,0.531,0.079,0.797C306.244,227.309,311.747,227.309,317.25,227.309z M381.169,230.777
	c-2.671-0.387-5.314-0.77-7.958-1.154c-0.128,0.279-0.255,0.558-0.383,0.837c2.531,1.919,5.062,3.837,7.832,5.937
	C380.85,234.312,380.997,232.681,381.169,230.777z M528.537,248.656c-1.739,0.128-2.54,0.782-2.434,2.538
	c0.142,2.334,0.107,4.683,0.047,7.023c-0.053,2.048,0.891,2.166,2.386,1.575C528.537,255.985,528.537,252.342,528.537,248.656z
	 M326.256,221.493c-0.041,0.419-0.081,0.838-0.122,1.256c5.972,0.584,11.945,1.168,17.917,1.752
	c0.041-0.418,0.081-0.837,0.122-1.255C338.201,222.661,332.228,222.077,326.256,221.493z M530.951,260.432
	c0.31-0.016,0.62-0.031,0.931-0.047c0-4.881,0-9.762,0-15.39c-0.832,1.411-1.742,2.236-1.716,3.032
	C530.295,252.166,530.664,256.297,530.951,260.432z M307.739,208.228c-2.376,1.282-2.324,1.276-2.099,3.445
	c0.276,2.657,0.441,5.326,0.684,7.986c0.068,0.745,0.238,1.481,0.361,2.221c0.327-0.018,0.654-0.036,0.981-0.054
	C308.215,217.355,308.092,212.863,307.739,208.228z M437.577,368.042c-0.327,0.093-0.654,0.185-0.981,0.278
	c0.294,5.417,0.589,10.833,0.883,16.25c0.344-0.011,0.689-0.022,1.033-0.034c0-4.923,0.031-9.847-0.041-14.769
	C438.463,369.187,437.888,368.616,437.577,368.042z M589.41,332.161c0.932-0.984,1.58-9.048,0.817-15.153
	c-0.638,0.532-1.433,1.223-1.417,1.895C588.915,323.361,589.194,327.816,589.41,332.161z M293.706,372.261
	c-0.063,0.221-0.125,0.442-0.188,0.663c4.656,1.894,9.131,4.427,14.447,3.999c0.07-0.253,0.141-0.506,0.211-0.759
	C303.353,374.863,298.529,373.562,293.706,372.261z M154.816,256.583c0.377-0.027,0.754-0.054,1.131-0.081
	c0-4.751,0.045-9.502-0.05-14.251c-0.014-0.692-0.692-1.372-1.062-2.057c-0.307,0.111-0.615,0.222-0.922,0.333
	C154.214,245.878,154.515,251.23,154.816,256.583z M356.535,224.213c-0.909-1.678-1.541-2.844-2.483-4.582
	C353.304,223.591,353.304,223.591,356.535,224.213z"/>
<path fill="none" stroke="#FFFFFF" stroke-width="1.5" d="M303.789,458.659c-14.943,0.241-32.573-1.602-50.207-3.336
	c-6.347-0.624-12.801-0.917-18.973-2.36c-6.633-1.551-13-4.252-19.454-6.532c-0.523-0.185-1.027-0.932-1.196-1.517
	c-0.556-1.917-1.276-3.868-1.35-5.828c-0.212-5.618-0.153-11.248-0.173-16.873c-0.025-7.014,2.91-11.826,9.398-15.204
	c13.63-7.098,28.297-10.366,43.212-12.868c7.442-1.248,15.064-1.515,22.448-3.001c9.34-1.88,18.711-1.337,28.022-1.008
	c20.306,0.718,40.583,2.299,60.401,7.131c4.474,1.091,8.771,3.312,12.827,5.588c3.807,2.136,6.082,5.495,7.048,10.136
	c1.564,7.511,0.936,15.054,1.515,22.559c0.626,8.111-4.745,10.735-10.613,13.511c-7.81,3.694-16.154,4.922-24.576,5.95
	C343.681,457.256,325.19,458.662,303.789,458.659z M277.846,429.024c1.194,0.125,1.905,0.259,2.617,0.266
	c5.461,0.055,10.926,0.246,16.382,0.098c26.323-0.715,52.713-0.584,78.748-5.421c5.742-1.067,11.308-2.738,15.246-7.534
	c2.465-3.003,2.353-5.706-0.322-8.53c-0.747-0.788-1.589-1.506-2.468-2.144c-4.783-3.467-10.251-5.318-15.949-6.545
	c-0.682-0.147-1.646,0.131-2.231,0.554c-8.842,6.399-17.642,12.857-26.457,19.294c-0.356,0.26-0.758,0.458-1.139,0.685
	c-0.182-0.262-0.364-0.524-0.546-0.786c9.289-6.648,18.578-13.296,28.242-20.213c-2.218-0.424-3.908-0.593-5.5-1.081
	c-5.02-1.539-9.214-0.189-13.24,3.002c-9.602,7.609-19.353,15.03-29.053,22.515c-0.622,0.48-1.321,0.859-1.984,1.285
	c-0.149-0.226-0.298-0.452-0.447-0.677c10.19-10.794,23.091-18.226,34.842-27.451c-0.567-0.102-0.881-0.172-1.198-0.214
	c-15.508-2.047-31.076-3.13-46.725-3.23c-2.999-0.019-5.558,0.543-8.005,2.241c-9.658,6.699-19.36,13.333-29.055,19.978
	c-0.677,0.464-1.429,0.818-2.146,1.223c-0.209-0.337-0.418-0.675-0.628-1.012c10.737-7.42,21.474-14.84,32.409-22.397
	c-1.406,0-2.722,0.107-4.015-0.02c-3.756-0.37-6.843,0.909-10.028,2.922c-7.8,4.929-15.861,9.445-23.831,14.102
	c-0.686,0.401-1.48,0.615-2.224,0.915c-0.108-0.241-0.216-0.482-0.324-0.723c9.337-5.511,18.674-11.021,28.011-16.532
	c-14.382,1.078-28.378,3.242-42.075,7.064c-0.542,0.151-1.042,0.504-1.521,0.823c-7.815,5.203-15.62,10.42-23.443,15.611
	c-0.378,0.251-0.899,0.286-1.353,0.422c-0.079-0.178-0.159-0.357-0.238-0.535c7.668-4.878,15.336-9.755,23.003-14.633
	c-0.122-0.235-0.243-0.469-0.365-0.704c-2.892,1.032-5.874,1.87-8.656,3.142c-4.343,1.986-8.673,4.061-12.781,6.485
	c-3.606,2.128-3.715,5.106-0.314,7.329c2.456,1.605,5.246,2.842,8.046,3.753c14.349,4.671,29.222,5.931,44.189,6.639
	c3.121,0.148,5.424-0.497,7.951-2.554c12.245-9.967,26.575-17.17,37.852-28.456C306.09,410.657,291.024,418.257,277.846,429.024z
	 M306.436,452.166c-0.509,0.007-1.017,0.013-1.526,0.02c-0.421-6.682-0.843-13.364-1.269-20.125c-6.71,0-13.33,0-19.349,0
	c0,7.741,0,15.402,0,23.22c27.279,1.637,53.755-0.053,80.176-3.391c-0.347-7.808-0.684-15.377-1.024-23.031
	c-5.625,0.439-10.629,0.83-15.801,1.234c0.654,6.685,0.892,13.213,0.2,19.779c-0.746-1.136-1.066-2.306-1.127-3.49
	c-0.175-3.356-0.178-6.721-0.37-10.075c-0.356-6.209-0.392-6.211-6.671-5.793c-3.724,0.247-7.446,0.506-11.283,0.768
	c0.971,6.463,0.562,12.532,0.208,18.603c-0.423,0.004-0.847,0.007-1.27,0.011c0-6.138,0-12.275,0-18.073c-7.557,0-14.494,0-21.84,0
	C305.819,438.913,306.128,445.539,306.436,452.166z M247.606,452.18c6.11,0.53,11.739,1.018,17.208,1.492
	c-0.33-7.717-0.645-15.063-0.962-22.482c-5.94-0.587-11.623-1.149-17.349-1.715C246.876,437.156,247.233,444.515,247.606,452.18z
	 M282.529,455.187c0-5.749,0.004-11.105-0.002-16.462c-0.002-1.675,0.09-3.365-0.111-5.018c-0.079-0.652-0.829-1.737-1.296-1.748
	c-5.078-0.127-10.16-0.079-15.298-0.079c0.166,3.417,0.348,7.094,0.521,10.772c0.175,3.729,0.341,7.458,0.515,11.27
	C272.311,454.362,277.305,454.765,282.529,455.187z M365.065,428.663c0.416,7.736,0.82,15.25,1.242,23.099
	c3.103-0.553,6.021-1.073,8.939-1.592c-0.591-7.772-1.159-15.235-1.732-22.767C370.466,427.857,367.827,428.251,365.065,428.663z
	 M245.661,451.898c-0.189-3.342-0.39-6.338-0.52-9.336c-0.167-3.848-0.222-7.702-0.464-11.544c-0.046-0.733-0.599-1.887-1.154-2.052
	c-1.964-0.583-4.031-0.821-6.115-1.2c0,7.82,0,15.39,0,23.094C240.193,451.21,242.824,451.541,245.661,451.898z M228.665,425.523
	c0,8.035,0,15.629,0,23.453c2.06,0.468,4.309,0.979,6.602,1.5c0-2.57-0.058-4.901,0.012-7.228c0.138-4.528,0.417-9.053,0.468-13.582
	c0.01-0.882-0.533-2.27-1.198-2.561C232.821,426.352,230.883,426.079,228.665,425.523z M390.253,421.749
	c-0.304-0.099-0.609-0.198-0.913-0.297c-0.639,0.767-1.822,1.527-1.833,2.303c-0.1,6.923-0.105,13.859,1.723,20.842
	c2.621-1.344,5.061-2.698,5.151-5.796c0.172-5.924,0.102-11.857,0.088-17.785c-0.003-1.133-0.211-2.266-0.34-3.565
	c-1.992,1.276-2.386,2.73-2.191,4.816c0.531,5.669,0.774,11.366,1.018,17.057c0.041,0.957-0.485,1.939-0.75,2.91
	c-0.427-0.055-0.854-0.11-1.282-0.165C390.701,435.295,390.477,428.522,390.253,421.749z M380.508,425.781
	c-1.824,0.465-3.239,0.827-4.89,1.248c0.672,7.474,1.332,14.809,2.018,22.43c1.702-0.639,2.921-1.097,4-1.502
	C381.255,440.481,380.888,433.251,380.508,425.781z M226.997,448.43c0-8.04,0-15.664,0-23.411c-1.196-0.402-2.355-0.792-3.755-1.263
	c0,7.866,0,15.47,0,23.278C224.309,447.431,225.54,447.888,226.997,448.43z M386.636,445.887c-0.333-7.475-0.652-14.647-0.98-22.02
	c-1.126,0.47-2.331,0.973-3.644,1.522c0.652,7.257,1.293,14.392,1.953,21.738C385.184,446.561,386.151,446.113,386.636,445.887z
	 M219.958,421.826c-0.433,0.168-0.866,0.337-1.299,0.505c0,7.116-0.062,14.234,0.085,21.347c0.017,0.81,1.202,1.597,1.846,2.394
	c0.343-0.157,0.686-0.313,1.029-0.47c0-7.033,0.059-14.068-0.074-21.099C221.529,423.601,220.512,422.718,219.958,421.826z
	 M215.743,441.802c0.25-0.006,0.499-0.012,0.749-0.017c0.028-0.542,0.062-1.083,0.084-1.625c0.239-5.697,0.337-11.406,0.789-17.086
	c0.163-2.047-0.347-3.287-2.558-4.56C215.13,426.563,215.436,434.182,215.743,441.802z"/>
<path fill="none" stroke="#FFFFFF" stroke-width="1.5" d="M149.847,325.734c18.897,4.225,38.155,4.308,57.431,6.565
	c-1.996,2.063-3.738,3.494-6.923,3.308c-14.688-0.856-29.325-1.906-43.402-6.622C154.498,328.162,152.212,326.831,149.847,325.734z"
	/>
<path fill="none" stroke="#FFFFFF" stroke-width="1.5" d="M206.057,336.026c1.944-3.202,4.428-3.786,7.637-3.78
	c12.586,0.026,25.175-0.287,37.757-0.678c2.454-0.076,3.547,0.637,3.748,3.633C238.798,335.477,222.427,335.751,206.057,336.026z"/>
<path fill="none" stroke="#FFFFFF" stroke-width="1.5" d="M519.221,220.247c-2.992-1.988-5.97-3.997-8.979-5.958
	c-3.509-2.287-7.053-4.52-10.563-6.805c-0.726-0.473-1.372-1.07-1.953-1.762c7.261,1.742,13.874,4.926,20.162,8.766
	c2.756,1.683,2.976,3.532,1.257,5.707C519.149,220.197,519.221,220.247,519.221,220.247z"/>
<path fill="none" stroke="#FFFFFF" stroke-width="1.5" d="M436.081,286.029c-2.078-1.037-2.036-1.647-0.83-3.26
	c5.059-6.766,12.977-8.236,20.128-11.139c0.219-0.089,0.488-0.064,0.734-0.072c0.075-0.002,0.151,0.066,0.529,0.245
	c-1.361,1.001-2.553,1.99-3.85,2.812c-5.089,3.227-10.227,6.377-15.303,9.625c-0.634,0.406-1.004,1.226-1.49,1.849
	C436.006,286.084,436.081,286.029,436.081,286.029z"/>
<path fill="none" stroke="#FFFFFF" stroke-width="1.5" d="M310.15,164.373c0.322,6.888,0.637,13.617,0.951,20.321
	c-0.72-0.043-1.663-0.1-2.607-0.154c-0.539-5.67-1.089-11.341-1.607-17.016C306.687,165.332,306.719,165.329,310.15,164.373z"/>
<path fill="none" stroke="#FFFFFF" stroke-width="1.5" d="M517.85,250.093c5.204-3.857,5.204-3.857,6.447-8.201
	c1.565,0.834,3.108,1.655,4.65,2.477c-1.417-2.832-6.609-3.043-4.419-8.029c0.869,0.443,1.914,0.895,2.876,1.483
	c1.663,1.016,3.729,2.22,3.171,4.34c-0.406,1.54-1.921,3.178-3.378,3.97C524.238,247.74,520.983,248.805,517.85,250.093z"/>
<path fill="none" stroke="#FFFFFF" stroke-width="1.5" d="M155.227,185.003c-0.575-0.735-1.643-1.467-1.648-2.205
	c-0.041-6.446,0.107-12.893,0.21-19.339c0.004-0.232,0.136-0.463,0.233-0.775c1.464,0.092,2.25,0.582,2.232,2.254
	c-0.072,6.526-0.029,13.054-0.029,19.58C155.893,184.68,155.56,184.842,155.227,185.003z"/>
<path fill="none" stroke="#FFFFFF" stroke-width="1.5" d="M142.453,269.826c-1.163-3.393-0.757-4.717,2.374-6.608
	c2.146-1.297,4.423-2.378,6.65-3.539c0.363-0.189,0.77-0.295,1.091-0.414c0.83,0.755,1.592,1.448,2.297,2.089
	c-4.034,2.748-8.23,5.607-12.428,8.465C142.435,269.818,142.453,269.826,142.453,269.826z"/>
<path fill="none" stroke="#FFFFFF" stroke-width="1.5" d="M317.094,181.558c-0.288-6.163-0.423-12.339-0.948-18.482
	c-0.175-2.045-0.107-3.585,1.913-4.881c0.117,0.695,0.304,1.292,0.306,1.889c0.018,6.087,0.068,12.175-0.054,18.26
	c-0.022,1.078-0.794,2.142-1.219,3.212C317.092,181.556,317.094,181.558,317.094,181.558z"/>
<path fill="none" stroke="#FFFFFF" stroke-width="1.5" d="M142.068,182.633c-1.693-4.052-0.216-6.283,5.561-8.242
	c0.395,2.389,0.243,4.341-2.358,5.549c-1.222,0.568-2.145,1.781-3.203,2.702L142.068,182.633z"/>
<path fill="none" stroke="#FFFFFF" stroke-width="1.5" d="M142.068,182.641c1.788-0.884,3.576-1.767,5.744-2.838
	c-0.092,4.549,3.139,6.205,6.674,7.583c-0.146,0.267-0.292,0.534-0.438,0.801c-3.994-1.852-7.988-3.704-11.981-5.555
	C142.068,182.633,142.068,182.641,142.068,182.641z"/>
<path fill="none" stroke="#FFFFFF" stroke-width="1.5" d="M356.535,224.213c-3.231-0.622-3.231-0.622-2.483-4.582
	C354.994,221.37,355.625,222.535,356.535,224.213z"/>
<path fill="none" stroke="#FFFFFF" stroke-width="1.5" d="M310.17,341.751c19.012-17.126,38.023-34.253,57.035-51.38
	c0.191,0.214,0.383,0.427,0.574,0.641c-18.917,17.219-37.834,34.437-56.751,51.656C310.742,342.362,310.456,342.056,310.17,341.751z
	"/>
<path fill="none" stroke="#FFFFFF" stroke-width="1.5" d="M336.658,290.114c-16.592,19.157-37.708,33.357-56.019,50.792
	c0.321-0.46,0.569-1.001,0.973-1.369c6.013-5.479,12.021-10.964,18.082-16.39c11.693-10.466,23.42-20.895,35.131-31.342
	C335.445,291.251,336.047,290.678,336.658,290.114z"/>
<path fill="none" stroke="#FFFFFF" stroke-width="1.5" d="M366.987,238.615c-16.02,18.506-36.93,36.247-57.357,54.495
	C329.469,274.26,349.308,255.411,366.987,238.615z"/>
<path fill="none" stroke="#FFFFFF" stroke-width="1.5" d="M358.367,322.101c10.468-9.479,20.505-18.567,30.542-27.655
	C388.742,297.04,361.139,321.813,358.367,322.101z"/>
<path fill="none" stroke="#FFFFFF" stroke-width="1.5" d="M332.582,372.781c9.969-9.8,19.939-19.599,29.908-29.399
	c0.263,0.273,0.526,0.547,0.789,0.82c-10.313,9.443-18.998,20.584-30.261,29.038C332.873,373.087,332.728,372.934,332.582,372.781z"
	/>
<path fill="none" stroke="#FFFFFF" stroke-width="1.5" d="M359.513,360.089c-3.111,3.195-6.221,6.39-9.332,9.584
	c-0.02-0.017-0.04-0.033-0.059-0.05c3.196-3.106,6.391-6.213,9.587-9.319C359.643,360.233,359.578,360.161,359.513,360.089z"/>
<path fill="none" stroke="#FFFFFF" stroke-width="1.5" d="M344.067,282.804c2.375-2.251,4.751-4.502,7.126-6.753
	c-0.119-0.113-0.237-0.227-0.356-0.34c-2.177,2.45-4.355,4.9-6.532,7.35C344.225,282.975,344.146,282.89,344.067,282.804z"/>
<path fill="none" stroke="#FFFFFF" stroke-width="1.5" d="M294.284,142.104c-5.801,4.242-11.608,8.474-17.399,12.73
	c-2.443,1.795-4.85,3.639-7.478,5.174c7.662-6.81,16.167-12.466,24.686-18.101C294.157,141.973,294.22,142.038,294.284,142.104z"/>
<path fill="none" stroke="#FFFFFF" stroke-width="1.5" d="M228.397,163.078c5.22-3.61,10.14-7.013,15.061-10.418
	C242.588,155.35,232.263,162.666,228.397,163.078z"/>
<path fill="none" stroke="#FFFFFF" stroke-width="1.5" d="M181.323,149.546c-3.067,2.398-6.135,4.797-9.202,7.195
	c-0.16-0.202-0.321-0.404-0.481-0.606c3.045-2.426,6.09-4.852,9.135-7.278C180.957,149.087,181.14,149.317,181.323,149.546z"/>
<path fill="none" stroke="#FFFFFF" stroke-width="1.5" d="M296.309,153.875c-2.326,1.54-4.651,3.079-6.977,4.619
	c-0.191-0.285-0.383-0.569-0.574-0.854c2.304-1.572,4.607-3.143,6.911-4.715C295.883,153.242,296.096,153.558,296.309,153.875z"/>
<path fill="none" stroke="#FFFFFF" stroke-width="1.5" d="M376.92,203.419c5.864,4.004,11.767,7.953,17.577,12.035
	c2.79,1.96,5.404,4.171,7.751,6.765c-0.871-0.636-1.74-1.275-2.615-1.906c-7.2-5.197-14.403-10.389-21.593-15.6
	c-0.451-0.327-0.797-0.8-1.192-1.206C376.848,203.508,376.92,203.419,376.92,203.419z"/>
<path fill="none" stroke="#FFFFFF" stroke-width="1.5" d="M442.853,225.498c-5.36-2.79-10.458-5.961-14.432-10.773
	c4.939,3.403,9.879,6.807,14.818,10.21C443.11,225.123,442.982,225.31,442.853,225.498z"/>
<path fill="none" stroke="#FFFFFF" stroke-width="1.5" d="M499.871,218.839c-3.122-2.42-6.244-4.84-9.366-7.26
	c0.169-0.229,0.339-0.458,0.508-0.686c3.127,2.441,6.253,4.881,9.38,7.322C500.219,218.423,500.045,218.631,499.871,218.839z"/>
<path fill="none" stroke="#FFFFFF" stroke-width="1.5" d="M382.54,220.613c-2.299-1.56-4.599-3.12-6.898-4.681
	c0.21-0.306,0.421-0.612,0.631-0.918c2.3,1.574,4.601,3.149,6.901,4.723C382.963,220.029,382.752,220.321,382.54,220.613z"/>
<path fill="none" stroke="#FFFFFF" stroke-width="1.5" d="M511.324,290.635c4.896-3.375,9.792-6.749,14.572-10.043
	C525.556,282.705,516.495,289.43,511.324,290.635z"/>
<path fill="none" stroke="#FFFFFF" stroke-width="1.5" d="M464.02,277.307c-3.122,2.418-6.244,4.837-9.366,7.255
	c-0.155-0.196-0.31-0.392-0.466-0.588c3.076-2.461,6.151-4.922,9.227-7.383C463.617,276.83,463.819,277.068,464.02,277.307z"/>
<path fill="none" stroke="#FFFFFF" stroke-width="1.5" stroke-miterlimit="10" d="M578.866,281.7
	c-2.32,1.528-4.641,3.057-6.961,4.585c-0.186-0.264-0.373-0.528-0.559-0.792c2.279-1.578,4.557-3.156,6.836-4.734
	C578.41,281.073,578.638,281.386,578.866,281.7z"/>
<path fill="none" stroke="#FFFFFF" stroke-width="1.5" d="M314.571,411.614c-4.14,5.2-9.661,8.456-15.333,11.492
	c-0.141-0.201-0.281-0.403-0.422-0.604C304.067,418.873,309.319,415.243,314.571,411.614z"/>
<path fill="none" stroke="#FFFFFF" stroke-width="1.5" d="M238.043,415.256c3.266-2.583,6.532-5.167,9.798-7.75
	c0.195,0.251,0.39,0.501,0.586,0.752c-3.295,2.561-6.589,5.121-9.884,7.682C238.376,415.712,238.21,415.484,238.043,415.256z"/>
<path fill="none" stroke="#FFFFFF" stroke-width="1.5" d="M362.759,416.973c2.475-1.696,4.949-3.391,7.424-5.087
	c0.238,0.345,0.475,0.689,0.713,1.034c-2.49,1.651-4.979,3.303-7.469,4.954C363.204,417.573,362.982,417.273,362.759,416.973z"/>
</svg>
